<svg xmlns="http://www.w3.org/2000/svg" xmlns:xlink="http://www.w3.org/1999/xlink" width="81.962" height="81.928" viewBox="0 0 81.962 81.928">
  <defs>
    <clipPath id="clip-path">
      <rect id="Rectángulo_353670" data-name="Rectángulo 353670" width="81.962" height="81.928" fill="none"/>
    </clipPath>
  </defs>
  <g id="Grupo_1003620" data-name="Grupo 1003620" clip-path="url(#clip-path)">
    <path id="Trazado_716050" data-name="Trazado 716050" d="M67.352,46.809l-1.211,1.236c.591.484,1.161.878,1.644,1.359q6.646,6.611,13.265,13.25c1.212,1.213,1.211,1.639.029,2.838q-1.159,1.175-2.335,2.333c-1.223,1.207-1.642,1.216-2.837.025q-4.349-4.334-8.687-8.68c-.3-.3-.616-.576-1.062-.99V71.352c1.172,0,2.305.025,3.437-.007,1.21-.035,1.815.491,1.773,1.725a26.082,26.082,0,0,1-.1,3.293,6.482,6.482,0,0,1-6.543,5.552q-23.713.024-47.425,0a6.562,6.562,0,0,1-6.706-6.934q-.008-27.345,0-54.69V18.5H6.25c-1.541,0-3.082-.006-4.624,0a1.412,1.412,0,0,1-1.61-1.618C.025,13.364-.039,9.839.039,6.319A6.516,6.516,0,0,1,6.824.009Q30.6-.006,54.381.026a19.166,19.166,0,0,1,5.335.519,8.867,8.867,0,0,1,6.36,8.739q.03,11.559-.016,23.118a3,3,0,0,0,1.022,2.4c2.066,1.978,4.063,4.029,6.077,6.061,1.167,1.178,1.161,1.664-.014,2.856-.989,1-2.02,1.966-2.978,3-.858.924-1.716,1.22-2.814.09M11.87,2.648c1.38,1.849,1.372,3.73,1.371,5.634q-.021,32.9-.009,65.8c0,.44-.016.882.008,1.321a3.954,3.954,0,0,0,7.9.089c.043-.614.013-1.232.015-1.849,0-2.024.262-2.289,2.256-2.289H63.438c0-4.557-.126-8.919.053-13.269A4.787,4.787,0,0,0,61.05,53.2l-.953,1c1.1,1.045.738,1.9-.162,2.75-1.087,1.028-2.138,2.1-3.182,3.169a1.512,1.512,0,0,1-2.487,0q-4.322-4.364-8.685-8.687a1.505,1.505,0,0,1,.058-2.483c.954-.913,1.91-1.83,2.793-2.809.944-1.047,1.879-1.808,3.079-.618l6.881-6.855c.047-1.071-.214-2.063.167-2.523a28.616,28.616,0,0,1,4.108-4.086,1.718,1.718,0,0,0,.778-1.572q-.019-10.173-.008-20.347c0-4.866-2.628-7.483-7.512-7.484q-21.206,0-42.412,0ZM22.923,79.242a1.054,1.054,0,0,0,.251.033q20.723,0,41.446-.009c2.861-.005,4.558-2.324,3.926-5.181H24.087l-1.165,5.157M10.577,15.8c0-3.221.069-6.335-.024-9.443a3.889,3.889,0,0,0-3.77-3.7,3.8,3.8,0,0,0-4.033,3.39c-.168,3.226-.045,6.467-.045,9.757Zm54.563,29.21-4.348-4.519-7.1,7.084,4.433,4.437,7.01-7m-1.907,6.05L77.422,65.309l1.16-1L64.26,49.918l-1.027,1.144M70.519,42.5l-7.2-7.252L61.591,36.9l7.29,7.305L70.519,42.5M57.431,55.654,50.189,48.4l-1.708,1.7,7.159,7.255,1.791-1.7" transform="translate(0 0)" fill="#161615"/>
    <path id="Trazado_716051" data-name="Trazado 716051" d="M44.921,10.023H88.976c4.884,0,7.511,2.617,7.512,7.484q0,10.173.008,20.347a1.718,1.718,0,0,1-.778,1.572,28.63,28.63,0,0,0-4.108,4.086c-.381.46-.12,1.452-.167,2.523l-6.881,6.855c-1.2-1.19-2.135-.429-3.079.618-.884.98-1.839,1.9-2.793,2.809a1.505,1.505,0,0,0-.058,2.483q4.359,4.327,8.685,8.687a1.512,1.512,0,0,0,2.487,0c1.044-1.073,2.094-2.141,3.182-3.169.9-.85,1.265-1.705.162-2.75l.953-1a4.787,4.787,0,0,1,2.442,4.881c-.179,4.35-.053,8.712-.053,13.269H56.465c-1.994,0-2.252.265-2.256,2.289,0,.617.028,1.236-.015,1.849a3.954,3.954,0,0,1-7.9-.089c-.024-.439-.008-.881-.008-1.321q0-32.9.008-65.8c0-1.9.009-3.785-1.371-5.634M60.767,52.3A11.892,11.892,0,1,0,72.708,64.176,11.89,11.89,0,0,0,60.767,52.3M93.791,15.4H50.308v2.48H93.791ZM50.306,23.146H93.741V20.658H50.306Zm0,5.282H93.786V25.946H50.3Zm0,5.286H93.787V31.23H50.3Zm43.483,2.821H50.352v2.488H93.787ZM50.307,44.287h38.15V41.8H50.307ZM85.87,47.115H50.314v2.469H85.87ZM81.441,73.668c2.649,3.572,6.344,2.076,9.673,2.446V73.441c-1.534,0-2.978,0-4.422,0-2.258,0-2.884-.554-3.456-2.739a1.843,1.843,0,0,0-1.053-1.134,1.513,1.513,0,0,0-1.313.552,6.82,6.82,0,0,1-5.443,3.366v2.581a9.015,9.015,0,0,0,6.014-2.4" transform="translate(-33.051 -7.374)" fill="#ffdbdb"/>
    <path id="Trazado_716052" data-name="Trazado 716052" d="M86.746,285.52l1.165-5.157h44.458c.632,2.857-1.065,5.176-3.926,5.181q-20.723.038-41.446.009a1.067,1.067,0,0,1-.251-.033" transform="translate(-63.823 -206.278)" fill="#f8b4b4"/>
    <path id="Trazado_716053" data-name="Trazado 716053" d="M17.99,23.19H10.119c0-3.29-.123-6.531.045-9.757A3.8,3.8,0,0,1,14.2,10.043a3.889,3.889,0,0,1,3.77,3.7c.093,3.108.024,6.221.024,9.443" transform="translate(-7.413 -7.386)" fill="#f8b4b4"/>
    <path id="Trazado_716054" data-name="Trazado 716054" d="M214.651,157.764l-7.01,7-4.433-4.437,7.095-7.084,4.349,4.519" transform="translate(-149.51 -112.75)" fill="#8d0a0a"/>
    <path id="Trazado_716055" data-name="Trazado 716055" d="M239.3,190.053l1.026-1.144L254.646,203.3l-1.16,1L239.3,190.053" transform="translate(-176.063 -138.99)" fill="#8a3d02"/>
    <path id="Trazado_716056" data-name="Trazado 716056" d="M242.007,140.646l-1.638,1.707-7.29-7.3,1.728-1.654,7.2,7.252" transform="translate(-171.488 -98.145)" fill="#8a3d02"/>
    <path id="Trazado_716057" data-name="Trazado 716057" d="M192.419,190.422l-1.791,1.7-7.159-7.255,1.708-1.7,7.242,7.252" transform="translate(-134.988 -134.768)" fill="#8a3d02"/>
    <path id="Trazado_716058" data-name="Trazado 716058" d="M71.915,170.02a11.892,11.892,0,1,1-11.842,11.972A11.89,11.89,0,0,1,71.915,170.02M72,191.154a9.243,9.243,0,1,0-9.281-9.2,9.292,9.292,0,0,0,9.281,9.2" transform="translate(-44.199 -125.092)" fill="#161615"/>
    <rect id="Rectángulo_353663" data-name="Rectángulo 353663" width="43.483" height="2.48" transform="translate(17.257 8.025)" fill="#161615"/>
    <rect id="Rectángulo_353664" data-name="Rectángulo 353664" width="43.435" height="2.488" transform="translate(17.256 13.284)" fill="#161615"/>
    <rect id="Rectángulo_353665" data-name="Rectángulo 353665" width="43.483" height="2.482" transform="translate(17.252 18.572)" fill="#161615"/>
    <rect id="Rectángulo_353666" data-name="Rectángulo 353666" width="43.483" height="2.483" transform="translate(17.253 23.856)" fill="#161615"/>
    <rect id="Rectángulo_353667" data-name="Rectángulo 353667" width="43.435" height="2.488" transform="translate(17.301 29.161)" fill="#161615"/>
    <rect id="Rectángulo_353668" data-name="Rectángulo 353668" width="38.15" height="2.49" transform="translate(17.257 34.423)" fill="#161615"/>
    <rect id="Rectángulo_353669" data-name="Rectángulo 353669" width="35.556" height="2.469" transform="translate(17.263 39.741)" fill="#161615"/>
    <path id="Trazado_716059" data-name="Trazado 716059" d="M166.381,239.4a9.015,9.015,0,0,1-6.014,2.4v-2.581a6.82,6.82,0,0,0,5.443-3.366,1.513,1.513,0,0,1,1.313-.552,1.842,1.842,0,0,1,1.053,1.134c.573,2.185,1.2,2.735,3.456,2.739,1.444,0,2.888,0,4.422,0v2.673c-3.329-.37-7.025,1.127-9.673-2.446" transform="translate(-117.99 -173.104)" fill="#161615"/>
    <path id="Trazado_716060" data-name="Trazado 716060" d="M79.377,198.528a9.243,9.243,0,1,1,9.2-9.282,9.294,9.294,0,0,1-9.2,9.282m6.567-9.289a6.606,6.606,0,1,0-6.592,6.652,6.606,6.606,0,0,0,6.592-6.652" transform="translate(-51.573 -132.467)" fill="#8a3d02"/>
    <path id="Trazado_716061" data-name="Trazado 716061" d="M93.286,196.582a6.606,6.606,0,1,1-6.684-6.559,6.61,6.61,0,0,1,6.684,6.559m-2.649.081a3.957,3.957,0,1,0-3.993,3.922,4,4,0,0,0,3.993-3.922" transform="translate(-58.915 -139.81)" fill="#161615"/>
    <path id="Trazado_716062" data-name="Trazado 716062" d="M98.011,204.037a3.957,3.957,0,1,1-3.921-3.992,4,4,0,0,1,3.921,3.992" transform="translate(-66.289 -147.184)" fill="#ffc403"/>
  </g>
</svg>
