<svg xmlns="http://www.w3.org/2000/svg" width="188" height="211" viewBox="0 0 188 211">
  <g id="Grupo_1003700" data-name="Grupo 1003700" transform="translate(-285 -9377)">
    <rect id="Rectángulo_353647" data-name="Rectángulo 353647" width="188" height="211" rx="42" transform="translate(285 9377)" fill="#03a4a4"/>
    <g id="Grupo_1003607" data-name="Grupo 1003607" transform="translate(-168.909 -364.024)">
      <path id="Trazado_715965" data-name="Trazado 715965" d="M463.627.006q25.236,0,50.472,0c8.9,0,13.127,4.188,13.128,12.984q0,23.289,0,46.577c0,8.265-4.325,12.563-12.662,12.564-30.6.006-61.195-.022-91.792.069a10.793,10.793,0,0,0-5.073,1.539c-3.114,1.793-6.033,3.923-9.029,5.918a5.489,5.489,0,0,1-6.011.542,5.754,5.754,0,0,1-3.037-5.495c.028-21.163-.014-42.326.034-63.489.015-6.6,4.908-11.187,11.834-11.2q26.068-.045,52.136-.011M405.187,75.234c3.537-2.349,6.622-4.2,9.476-6.352A12.322,12.322,0,0,1,422.63,66.5q46.007.126,92.014.049c5.131,0,7.028-1.887,7.03-7q.012-23.413,0-46.826c0-5.266-1.892-7.143-7.211-7.143q-51-.007-101.991,0c-5.486,0-7.282,1.817-7.284,7.336q0,29.509,0,59.017Z" transform="translate(106.94 9767.975)" fill="#161615"/>
      <path id="Trazado_715966" data-name="Trazado 715966" d="M393.564,150.048q25.51,0,51.019,0c8.113,0,12.536,4.407,12.538,12.458,0,20.421-.021,40.842.029,61.262.007,2.675-.471,4.994-2.965,6.384-2.534,1.411-4.941.707-6.915-1.055-6.667-5.948-14.364-7.252-23.176-7.1-27.257.477-54.529.023-81.792.267-8,.072-13.01-5.465-12.864-12.832.31-15.7.09-31.415.1-47.123,0-7.7,4.5-12.252,12.178-12.26q25.926-.027,51.851-.006m58.008,75.211v-3q0-29.808,0-59.616c0-5.065-1.962-7.014-7.07-7.015q-51.173-.01-102.346,0c-5.117,0-7.066,1.938-7.068,7q-.012,23.292,0,46.584c0,5.652,1.753,7.38,7.487,7.38,30.88,0,61.759-.035,92.638.082a13.3,13.3,0,0,1,6.107,1.885c3.36,1.888,6.483,4.2,10.257,6.7" transform="translate(138.214 9701.12)" fill="#161615"/>
      <path id="Trazado_715967" data-name="Trazado 715967" d="M409.66,79.721V76.427q0-29.508,0-59.017c0-5.519,1.8-7.335,7.283-7.336q51-.006,101.991,0c5.319,0,7.209,1.878,7.211,7.144q.009,23.412,0,46.826c0,5.109-1.9,7-7.031,7q-46.007.006-92.014-.049a12.323,12.323,0,0,0-7.967,2.379c-2.853,2.155-5.938,4-9.476,6.352m56.868-38.8c.649,14.8,11.753,25.345,26.193,24.46,15.367-.94,24.022-12.438,23.641-25.835a24.816,24.816,0,0,0-25.987-23.942c-13.369.554-24.418,12.284-23.847,25.316M434.613,26.708c5.171,0,10.343-.035,15.513.018,1.967.02,3.721-.419,3.795-2.634.078-2.361-1.667-2.98-3.781-2.974q-15.513.042-31.027,0c-2.109-.006-3.863.595-3.794,2.96.065,2.216,1.812,2.667,3.782,2.648,5.171-.052,10.342-.018,15.513-.018m.046,13.863c5.263,0,10.527-.027,15.79.014,1.922.015,3.436-.643,3.476-2.673.044-2.182-1.517-2.927-3.554-2.924q-15.79.026-31.58,0c-1.92,0-3.419.717-3.474,2.726-.06,2.214,1.517,2.886,3.552,2.87,5.263-.039,10.527-.013,15.791-.013m-.3,13.866c5.263,0,10.527-.034,15.79.017,1.973.019,3.712-.441,3.768-2.66.059-2.368-1.7-2.953-3.808-2.948q-15.514.042-31.027,0c-1.983-.006-3.692.529-3.764,2.715-.079,2.41,1.714,2.912,3.8,2.892,5.079-.049,10.158-.016,15.236-.016" transform="translate(102.468 9763.487)" fill="#fff"/>
      <path id="Trazado_715968" data-name="Trazado 715968" d="M456.11,229.744c-3.773-2.5-6.9-4.809-10.257-6.7a13.3,13.3,0,0,0-6.107-1.885c-30.878-.117-61.758-.08-92.638-.082-5.734,0-7.486-1.728-7.487-7.38q0-23.292,0-46.584c0-5.064,1.952-7,7.068-7q51.173-.01,102.346,0c5.108,0,7.067,1.95,7.07,7.015q.011,29.808,0,59.616Z" transform="translate(133.676 9696.635)" fill="#fff"/>
      <path id="Trazado_715969" data-name="Trazado 715969" d="M512.212,45.354c-.572-13.032,10.478-24.763,23.847-25.316a24.816,24.816,0,0,1,25.988,23.942c.381,13.4-8.275,24.894-23.641,25.835-14.44.884-25.544-9.66-26.193-24.461m44.283.063c.207-10.969-7.863-19.336-18.928-19.625a18.9,18.9,0,0,0-19.742,19.1,19.337,19.337,0,0,0,38.669.529" transform="translate(56.783 9759.057)" fill="#161615"/>
      <path id="Trazado_715970" data-name="Trazado 715970" d="M439.16,35.586c-5.171,0-10.342-.034-15.513.018-1.97.02-3.717-.432-3.782-2.648-.069-2.365,1.685-2.966,3.795-2.96q15.514.042,31.026,0c2.115-.006,3.859.612,3.781,2.973-.073,2.216-1.828,2.655-3.795,2.634-5.171-.053-10.342-.018-15.513-.018" transform="translate(97.922 9754.609)" fill="#161615"/>
      <path id="Trazado_715971" data-name="Trazado 715971" d="M439.2,60.6c-5.263,0-10.527-.026-15.79.013-2.035.015-3.612-.656-3.552-2.87.054-2.009,1.553-2.729,3.473-2.726q15.79.025,31.581,0c2.036,0,3.6.741,3.554,2.924-.04,2.03-1.555,2.688-3.477,2.673-5.263-.04-10.527-.014-15.79-.014" transform="translate(97.923 9743.462)" fill="#161615"/>
      <path id="Trazado_715972" data-name="Trazado 715972" d="M438.913,85.6c-5.079,0-10.158-.033-15.236.016-2.091.02-3.883-.482-3.8-2.892.071-2.186,1.781-2.721,3.764-2.715q15.513.045,31.027,0c2.1-.006,3.867.58,3.808,2.948-.056,2.218-1.8,2.679-3.768,2.66-5.263-.051-10.527-.017-15.79-.017" transform="translate(97.919 9732.326)" fill="#161615"/>
      <path id="Trazado_715973" data-name="Trazado 715973" d="M415.224,189.456c-5.168,0-10.337-.026-15.506.013-1.936.015-3.666-.355-3.751-2.884-.09-2.718,1.683-3.221,3.748-3.218,10.337.016,56.342.016,66.68,0,2.063,0,3.838.493,3.75,3.215-.082,2.534-1.813,2.9-3.747,2.887-5.168-.039-46-.013-51.173-.013" transform="translate(108.57 9686.271)" fill="#161615"/>
      <path id="Trazado_715974" data-name="Trazado 715974" d="M415.243,216.731c-5.261,0-10.522-.02-15.783.011-2.021.012-3.553-.654-3.5-3.158.053-2.342,1.592-2.934,3.454-2.934,10.522,0,56.708,0,67.23,0,2,0,3.569.677,3.5,3.189-.066,2.321-1.567,2.915-3.456,2.9-5.26-.03-46.185-.011-51.446-.011" transform="translate(108.571 9674.116)" fill="#161615"/>
      <path id="Trazado_715975" data-name="Trazado 715975" d="M415.212,244c-5.168,0-10.337-.026-15.506.013-1.939.015-3.663-.369-3.737-2.9-.08-2.721,1.7-3.207,3.761-3.2,10.337.016,56.338.016,66.675,0,2.068,0,3.834.511,3.736,3.229-.091,2.534-1.831,2.887-3.761,2.872-5.168-.039-46-.013-51.169-.013" transform="translate(108.569 9661.968)" fill="#161615"/>
      <path id="Trazado_715976" data-name="Trazado 715976" d="M561.022,50.053a19.337,19.337,0,0,1-38.669-.529,18.9,18.9,0,0,1,19.742-19.1c11.064.288,19.135,8.656,18.928,19.625M541.341,32.921c-6.121-.063-11.007,4.678-10.8,10.483.067,1.858.72,3.37,2.83,3.367,1.909,0,2.741-1.257,2.719-3.111a5.727,5.727,0,0,1,.033-.828,4.371,4.371,0,0,1,3.824-4.142c2.386-.354,4.911-.534,6.474,1.917a3.955,3.955,0,0,1-.442,5.3,23.7,23.7,0,0,1-2.844,2.18,10.1,10.1,0,0,0-4.253,7.152c-.228,1.942.827,3.521,2.658,3.476,1-.025,2.055-1.587,2.906-2.606,1-1.2,1.549-2.925,2.75-3.788,4.551-3.271,6.591-7.813,5.171-12.348-1.394-4.454-5.37-7-11.028-7.056m3.476,31.15q-.031-.62-.062-1.239c-1-.7-1.948-1.847-3.028-1.994a2.2,2.2,0,0,0-2.588,2.717c.243,1.033,1.6,2.462,2.511,2.506,1.021.049,2.109-1.267,3.167-1.989" transform="translate(52.256 9754.42)" fill="#abffff"/>
      <path id="Trazado_715977" data-name="Trazado 715977" d="M547.92,34.93c5.658.058,9.634,2.6,11.028,7.055,1.42,4.536-.619,9.078-5.171,12.349-1.2.863-1.748,2.589-2.75,3.788-.851,1.019-1.908,2.581-2.906,2.606-1.831.045-2.886-1.534-2.658-3.476a10.1,10.1,0,0,1,4.253-7.151,23.694,23.694,0,0,0,2.844-2.18,3.956,3.956,0,0,0,.442-5.3c-1.563-2.451-4.088-2.271-6.474-1.917a4.371,4.371,0,0,0-3.824,4.142,5.724,5.724,0,0,0-.033.828c.022,1.853-.81,3.108-2.719,3.111-2.11,0-2.763-1.51-2.83-3.367-.211-5.8,4.675-10.546,10.8-10.483" transform="translate(45.677 9752.411)" fill="#161615"/>
      <path id="Trazado_715978" data-name="Trazado 715978" d="M558.252,88.493c-1.058.722-2.146,2.038-3.167,1.989-.913-.044-2.268-1.473-2.511-2.506a2.2,2.2,0,0,1,2.588-2.717c1.08.147,2.023,1.3,3.028,1.994q.031.62.062,1.239" transform="translate(38.821 9729.997)" fill="#161615"/>
      <rect id="Rectángulo_353650" data-name="Rectángulo 353650" width="10" height="9" transform="translate(485.909 9867.024)" fill="#ffc403"/>
      <rect id="Rectángulo_353651" data-name="Rectángulo 353651" width="10" height="9" transform="translate(485.909 9882.024)" fill="#ffc403"/>
      <rect id="Rectángulo_353652" data-name="Rectángulo 353652" width="10" height="9" transform="translate(485.909 9897.024)" fill="#ffc403"/>
      <path id="Trazado_715979" data-name="Trazado 715979" d="M372.018,182.627v5.746h-11.57v-11.58h7.586c.039.06.1.109.1.161.151,2.134.412,1.895-1.772,1.908-1.068.007-2.137.021-3.2-.006-.564-.014-.783.19-.777.766q.034,2.969,0,5.939c-.007.583.237.771.787.767q3.016-.022,6.033,0c.556,0,.8-.191.776-.772-.033-.69.042-1.387-.019-2.072-.079-.889.31-1.114,1.1-.946a8.939,8.939,0,0,0,.956.089" transform="translate(124.395 9689.201)" fill="#161615"/>
      <path id="Trazado_715980" data-name="Trazado 715980" d="M379.134,171.649l-10.415,10.632c-.862-.911-1.653-1.715-2.393-2.564a.716.716,0,0,1,.016-.7c.346-.387.775-.951,1.183-.961s.832.563,1.313.93l9.027-8.8,1.27,1.455" transform="translate(121.813 9692.142)" fill="#161615"/>
      <path id="Trazado_715981" data-name="Trazado 715981" d="M372.018,210.113v5.746h-11.57v-11.58h7.586c.039.06.1.109.1.161.151,2.134.412,1.894-1.772,1.908-1.068.007-2.137.021-3.2-.006-.564-.014-.783.19-.777.766q.034,2.969,0,5.939c-.007.583.237.771.787.767q3.016-.022,6.033,0c.556,0,.8-.191.776-.772-.033-.69.042-1.387-.019-2.072-.079-.889.31-1.114,1.1-.946a8.936,8.936,0,0,0,.956.089" transform="translate(124.395 9676.954)" fill="#161615"/>
      <path id="Trazado_715982" data-name="Trazado 715982" d="M372.018,237.6v5.746h-11.57v-11.58h7.586c.039.06.1.109.1.161.151,2.134.412,1.895-1.772,1.908-1.068.007-2.137.021-3.2-.006-.564-.014-.783.19-.777.766q.034,2.969,0,5.938c-.007.583.237.771.787.767q3.016-.022,6.033,0c.556,0,.8-.191.776-.772-.033-.69.042-1.387-.019-2.072-.079-.889.31-1.114,1.1-.946a8.936,8.936,0,0,0,.956.089" transform="translate(124.395 9664.707)" fill="#161615"/>
    </g>
  </g>
</svg>
