<svg xmlns="http://www.w3.org/2000/svg" width="181" height="181" viewBox="0 0 181 181">
  <g id="Grupo_1003523" data-name="Grupo 1003523" transform="translate(-404 -1453)">
    <circle id="Elipse_5684" data-name="Elipse 5684" cx="90.5" cy="90.5" r="90.5" transform="translate(404 1453)" fill="#ffdbdb"/>
    <g id="Grupo_1003526" data-name="Grupo 1003526" transform="translate(2563.3 7277.592)">
      <path id="Trazado_715674" data-name="Trazado 715674" d="M23.251,160.642c-6.647,0-12.98,0-19.312,0-3.1,0-3.849-.767-3.852-3.924C.08,152.17.3,147.61.04,143.078c-.568-9.9,4.92-18.312,16.022-20.464a41.166,41.166,0,0,0,4.213-.963c.767-.234,1.944-.671,2.054-1.2.261-1.251.428-2.587-1.009-3.661a16.374,16.374,0,0,1-6.761-13.908,95.894,95.894,0,0,1,.331-11.954c.869-6.562,4.793-11.091,10.968-13.277,6.328-2.24,12.2-.987,17.306,3.477.347.3.688.614,1.138,1.017,3.863-9.833,10.671-15.884,21.34-16.128,11.242-.258,18.482,5.8,22.59,16.11a17.329,17.329,0,0,1,12.6-5.464A16.765,16.765,0,0,1,117.8,92.012a91.229,91.229,0,0,1-.263,14.22,14.244,14.244,0,0,1-6.125,10.346c-1.473,1.091-1.511,2.341-1.323,3.758.054.405.716.917,1.191,1.047,2.248.616,4.52,1.15,6.8,1.653a18.148,18.148,0,0,1,14.3,17.637c.028,5.443.014,10.886,0,16.329-.006,2.831-.831,3.632-3.721,3.639q-9.4.023-18.808.031a3.741,3.741,0,0,0-.662.191c0,1.953.008,3.991,0,6.029-.014,3.21-.865,4.084-3.994,4.086-8.956,0-17.913-.014-26.87.016-1.7.006-3.153-.2-3.809-2.091a1.359,1.359,0,0,0-1.076-.681c-1.947.107-4.155-.95-5.443,1.808-.736,1.576-3.389,1.24-4.022-.49-.495-1.354-1.317-1.375-2.348-1.391a18,18,0,0,0-3.3.064c-.6.1-1.1.737-1.674,1.09-.932.576-1.879,1.588-2.831,1.6-9.162.122-18.326.09-27.489.059-2-.007-3.015-1.051-3.073-3.093-.066-2.327-.015-4.657-.015-7.228M48.593,96.216c.3,3.711.164,7.255.934,10.591,1.712,7.416,9.051,12.783,16.774,12.763,7.757-.019,15.053-5.376,16.68-12.841.762-3.5.526-7.224.616-10.85a2.284,2.284,0,0,0-1.089-1.517c-2.565-1.6-5.206-3.067-7.785-4.64a1.66,1.66,0,0,0-2.338.179,24.7,24.7,0,0,1-17.364,6.318c-1.977-.019-3.953,0-6.429,0M23.174,155.28a26.008,26.008,0,0,1,4.98-15.7,1.8,1.8,0,0,0,0-1.461c-1.44-3.565-2.9-7.123-4.469-10.632a1.909,1.909,0,0,0-1.61-.822c-2.291.412-4.565.951-6.813,1.562-4.973,1.351-8.455,4.394-9.5,9.523a46.176,46.176,0,0,0-.425,8.213c-.062,3.074-.014,6.15-.014,9.285H10.4c0-3.719-.01-7.289,0-10.859.007-1.675.726-2.818,2.527-2.88,1.822-.063,2.593,1.087,2.687,2.73.087,1.511.038,3.03.04,4.545q.006,3.253,0,6.494Zm93.509-.129c0-1.021,0-1.774,0-2.527,0-2.618-.17-5.252.086-7.844a4.484,4.484,0,0,1,1.756-3.114c1.811-1.026,3.57.426,3.6,2.746.045,3.557.012,7.115.012,10.7h4.859c0-5.037.071-9.916-.019-14.791a11.57,11.57,0,0,0-7.439-11.133c-3.229-1.353-6.788-1.918-10.266-2.854-1.75,4.2-3.416,8.1-4.968,12.052-.18.459.208,1.2.445,1.756,1.33,3.136,2.864,6.2,3.978,9.406.607,1.751.522,3.742.747,5.6ZM49.029,90.481c8.352.771,15.988.139,21.751-6.634A2.8,2.8,0,0,1,74.7,83.4c2.3,1.385,4.62,2.722,6.94,4.066.539.312,1.108.572,2.024,1.041-.5-6.931-3.388-11.935-9.069-15a16.484,16.484,0,0,0-18.314,1.029c-5.414,3.8-7.769,9.215-7.25,15.949m39.733,5.374c.323,4,.144,7.561.979,10.869,1.552,6.15,8.065,9.525,14.282,7.912,6.06-1.572,9.659-7.852,8.277-14.772-7.847.221-15.7-.076-23.538-4.009m-68.831,4c0,1.593-.059,2.95.01,4.3.3,5.786,4.793,10.238,10.954,10.891,5.135.544,10.985-3.48,12-8.714.628-3.243.508-6.631.756-10.454-7.765,3.919-15.623,4.2-23.72,3.977m5.227-5.543c6.279,0,11.161-1.017,15.751-3.279.868-.427,1.732-.718,1.229-2.1-1.609-4.4-7.238-7.446-12.519-6.661C24.769,83,20.179,88,20.08,92.554c-.03,1.361.44,1.873,1.783,1.776,1.093-.079,2.2-.016,3.3-.016m64.963-4.238a4.426,4.426,0,0,0,.578.488c.419.232.853.436,1.284.645,5.453,2.643,11.265,3.258,17.23,3.119,3.479-.081,3.84-.515,2.73-3.809-.131-.39-.241-.788-.387-1.173-1.758-4.65-6.379-7.392-11.833-7.127-3.707.181-8.694,3.382-9.6,7.856M60.033,124.588a12.319,12.319,0,0,0,1.046,7.287c1.263,2.428,2.234,5.007,3.347,7.514.538,1.213,1.108,2.412,1.664,3.618l.53-.026c1.665-6.239,6.772-11.4,5.773-18.393Zm-13.85-11.807a57.092,57.092,0,0,0-4.819,4.547,4.6,4.6,0,0,0-.657,2.964c.018.415.951.976,1.56,1.15,4.056,1.158,8.138,2.229,12.565,3.424-.26-1.179-.111-2.976-.88-3.559a28.3,28.3,0,0,1-7.768-8.527M77.923,124.8c4.168-1.129,8.3-2.247,12.436-3.37a2.522,2.522,0,0,0,1.015-3.987c-1.618-1.54-3.3-3.018-4.719-4.314-2.174,2.3-4.184,4.961-6.725,6.938-1.869,1.455-2.5,2.814-2.008,4.733M27.95,120.4c-.636,4.357,2.318,7.619,3.641,11.447,1.359-3.8,4.292-7.058,3.618-11.447Zm69.27,0c-.519,4.414,2.222,7.683,3.676,11.417,1.25-3.862,4.331-7.1,3.6-11.417Zm-48.31,8.55.072-.461L39.968,126.3l-2.346,5.586L48.91,128.95m34.844-.439c.014.144.028.287.043.431l10.928,2.842-2.306-5.367-8.665,2.094" transform="translate(-2135 -5838.972)"/>
      <path id="Trazado_715675" data-name="Trazado 715675" d="M159.13,29.846c0,1.164.036,2.329-.011,3.492a2.486,2.486,0,0,1-4.971-.06c-.03-2.327-.055-4.657.01-6.983a2.237,2.237,0,0,1,2.508-2.37,2.268,2.268,0,0,1,2.458,2.43c.046,1.162.009,2.328.007,3.492" transform="translate(-2225.397 -5814.287)" fill="#ffc403"/>
      <path id="Trazado_715676" data-name="Trazado 715676" d="M179.355,20.355a11.726,11.726,0,0,1,1.191-2.176c1.142-1.27,2.357-2.481,3.613-3.638a2.489,2.489,0,0,1,3.683-.119,2.413,2.413,0,0,1,.038,3.657,33.273,33.273,0,0,1-4.123,3.979,3.11,3.11,0,0,1-2.593.305c-.731-.282-1.187-1.275-1.808-2.008" transform="translate(-2240.201 -5808.268)" fill="#ffc403"/>
      <path id="Trazado_715677" data-name="Trazado 715677" d="M127.676,20.547c-.625.709-1.107,1.66-1.862,1.994a2.8,2.8,0,0,1-2.426-.245,34.123,34.123,0,0,1-4.256-4.163,2.327,2.327,0,0,1,.239-3.482,2.218,2.218,0,0,1,3.317-.045c1.359,1.255,2.685,2.552,3.941,3.91a9.38,9.38,0,0,1,1.046,2.031" transform="translate(-2204.482 -5808.397)" fill="#ffc403"/>
      <path id="Trazado_715678" data-name="Trazado 715678" d="M265.29,19.846c0-2.152,1.029-3.492,2.671-3.463s2.613,1.346,2.587,3.538c-.026,2.12-.912,3.259-2.563,3.3-1.741.038-2.691-1.151-2.695-3.37" transform="translate(-2290.607 -5809.863)" fill="#a03d3d"/>
      <path id="Trazado_715679" data-name="Trazado 715679" d="M270.545,50.314c-.017,2.177-1.042,3.444-2.728,3.372-1.634-.07-2.58-1.411-2.53-3.585.048-2.1.967-3.231,2.633-3.229,1.717,0,2.642,1.214,2.625,3.441" transform="translate(-2290.604 -5827.748)" fill="#a03d3d"/>
      <path id="Trazado_715680" data-name="Trazado 715680" d="M251.846,39.332c-2.539-.5-3.642-1.3-3.679-2.932-.039-1.689,1.125-2.56,3.42-2.561,2.644,0,4.144,1.431,3.176,3.307-.5.972-1.915,1.473-2.917,2.186" transform="translate(-2280.562 -5820.102)" fill="#a03d3d"/>
      <path id="Trazado_715681" data-name="Trazado 715681" d="M58.994,33.247c2.262.251,3.423,1.075,3.488,2.662.067,1.649-1.177,2.562-3.438,2.6-1.358.022-2.818.022-3.184-1.552a3.575,3.575,0,0,1,.594-2.746c.5-.606,1.667-.664,2.541-.963" transform="translate(-2167.724 -5819.755)" fill="#a03d3d"/>
      <path id="Trazado_715682" data-name="Trazado 715682" d="M281.926,38.8c-2.373,0-3.756-1.022-3.482-2.716.3-1.821,1.54-2.35,3.3-2.326,1.727.024,3.223.208,3.556,2.245.286,1.752-1.016,2.793-3.373,2.8" transform="translate(-2298.302 -5820.052)" fill="#a03d3d"/>
      <path id="Trazado_715683" data-name="Trazado 715683" d="M47.311,19.9c-.007,2.317-.855,3.4-2.624,3.343-1.738-.053-2.493-1.127-2.47-3.513.02-2.052.965-3.272,2.548-3.289,1.7-.018,2.553,1.141,2.546,3.459" transform="translate(-2159.762 -5809.898)" fill="#a03d3d"/>
      <path id="Trazado_715684" data-name="Trazado 715684" d="M47.308,50.424c-.032,2.159-.9,3.274-2.539,3.262-1.689-.013-2.6-1.335-2.556-3.693.044-2.122.946-3.175,2.668-3.114,1.7.06,2.462,1.175,2.427,3.545" transform="translate(-2159.76 -5827.75)" fill="#a03d3d"/>
      <path id="Trazado_715685" data-name="Trazado 715685" d="M28.545,33.839c2.254.012,3.217.747,3.236,2.469.019,1.85-.986,2.564-3.576,2.538-2.122-.021-3.2-.9-3.164-2.571.041-1.692,1.128-2.448,3.5-2.436" transform="translate(-2149.688 -5820.103)" fill="#a03d3d"/>
      <path id="Trazado_715686" data-name="Trazado 715686" d="M156.554,5.064a2.381,2.381,0,0,1-2.369-2.35A2.414,2.414,0,0,1,156.586,0a2.356,2.356,0,0,1,2.57,2.342,2.509,2.509,0,0,1-2.6,2.721" transform="translate(-2225.433 -5800.254)" fill="#ffc403"/>
      <path id="Trazado_715687" data-name="Trazado 715687" d="M117.531,129.292c2.476,0,4.453-.016,6.429,0a24.7,24.7,0,0,0,17.364-6.318,1.66,1.66,0,0,1,2.338-.179c2.579,1.573,5.22,3.045,7.785,4.64a2.282,2.282,0,0,1,1.089,1.517c-.091,3.626.146,7.351-.616,10.85-1.627,7.465-8.923,12.822-16.68,12.842-7.723.019-15.063-5.348-16.774-12.764-.77-3.335-.637-6.879-.934-10.59m17.581,17.977a36.759,36.759,0,0,0,4.869-2.476,2.31,2.31,0,0,0,.5-3.466,2.4,2.4,0,0,0-3.445-.771,3.1,3.1,0,0,1-3.9,0,2.359,2.359,0,0,0-3.406.83,2.237,2.237,0,0,0,.42,3.3,42.049,42.049,0,0,0,4.958,2.582m8.766-10.54a2.5,2.5,0,0,0,2.508-2.527,2.458,2.458,0,0,0-2.484-2.724,2.566,2.566,0,0,0-2.731,2.5,2.688,2.688,0,0,0,2.708,2.755m-20-2.657a2.484,2.484,0,0,0,2.574,2.616,2.6,2.6,0,0,0,.09-5.193,2.483,2.483,0,0,0-2.663,2.577" transform="translate(-2203.938 -5872.048)" fill="#ffdbdb"/>
      <path id="Trazado_715688" data-name="Trazado 715688" d="M30.705,241.316H23.194c0-2.158,0-4.326,0-6.494,0-1.516.047-3.035-.04-4.545-.094-1.642-.865-2.793-2.687-2.73-1.8.062-2.52,1.206-2.527,2.88-.014,3.57,0,7.14,0,10.859H12.857c0-3.135-.047-6.211.014-9.285a46.174,46.174,0,0,1,.425-8.213c1.043-5.129,4.525-8.172,9.5-9.523,2.248-.611,4.522-1.15,6.813-1.562a1.909,1.909,0,0,1,1.61.822c1.569,3.509,3.029,7.067,4.469,10.632a1.8,1.8,0,0,1,0,1.461,26.008,26.008,0,0,0-4.98,15.7" transform="translate(-2142.531 -5925.009)" fill="#06d1d1"/>
      <path id="Trazado_715689" data-name="Trazado 715689" d="M264.591,240.729h-7.209c-.225-1.862-.14-3.853-.748-5.6-1.114-3.209-2.649-6.27-3.978-9.406-.238-.56-.626-1.3-.445-1.756,1.552-3.949,3.218-7.852,4.968-12.052,3.478.936,7.037,1.5,10.266,2.854a11.571,11.571,0,0,1,7.439,11.133c.09,4.875.019,9.754.019,14.791h-4.859c0-3.584.034-7.142-.012-10.7-.029-2.319-1.789-3.772-3.6-2.746a4.487,4.487,0,0,0-1.756,3.114c-.256,2.592-.084,5.227-.086,7.844,0,.753,0,1.506,0,2.527" transform="translate(-2282.908 -5924.551)" fill="#b20d0d"/>
      <path id="Trazado_715690" data-name="Trazado 715690" d="M118.486,97.86c-.518-6.734,1.836-12.148,7.25-15.949,5.79-4.065,12.1-4.384,18.314-1.029,5.681,3.067,8.57,8.072,9.069,15-.917-.469-1.485-.729-2.025-1.041-2.319-1.345-4.644-2.681-6.939-4.066a2.8,2.8,0,0,0-3.918.449c-5.763,6.773-13.4,7.405-21.751,6.634" transform="translate(-2204.457 -5846.352)" fill="#8a3d02"/>
      <path id="Trazado_715691" data-name="Trazado 715691" d="M214.688,138.194c7.839,3.934,15.691,4.23,23.538,4.009,1.382,6.92-2.216,13.2-8.277,14.772-6.218,1.613-12.73-1.762-14.282-7.912-.835-3.308-.656-6.872-.979-10.869" transform="translate(-2260.926 -5881.312)" fill="#ffdbdb"/>
      <path id="Trazado_715692" data-name="Trazado 715692" d="M48.174,142.233c8.1.22,15.955-.059,23.719-3.977-.248,3.822-.127,7.21-.756,10.454-1.013,5.233-6.864,9.257-12,8.713-6.16-.652-10.658-5.1-10.954-10.891-.069-1.35-.01-2.706-.01-4.3" transform="translate(-2163.242 -5881.349)" fill="#ffdbdb"/>
      <path id="Trazado_715693" data-name="Trazado 715693" d="M53.643,117.217c-1.1,0-2.2-.063-3.3.016-1.342.1-1.813-.415-1.783-1.776.1-4.554,4.689-9.554,9.539-10.275,5.281-.786,10.91,2.26,12.519,6.661.5,1.378-.361,1.668-1.228,2.1-4.591,2.262-9.472,3.279-15.751,3.279" transform="translate(-2163.485 -5861.875)"/>
      <path id="Trazado_715694" data-name="Trazado 715694" d="M217.975,113.048c.908-4.474,5.895-7.676,9.6-7.856,5.454-.265,10.075,2.477,11.833,7.127.145.385.256.783.387,1.173,1.11,3.294.749,3.728-2.73,3.809-5.966.139-11.777-.477-17.23-3.119-.431-.209-.866-.413-1.284-.645a4.456,4.456,0,0,1-.578-.488" transform="translate(-2262.854 -5861.944)"/>
      <path id="Trazado_715695" data-name="Trazado 715695" d="M145.024,207.692h12.359c1,6.99-4.107,12.155-5.773,18.393l-.53.026c-.556-1.206-1.126-2.4-1.665-3.618-1.113-2.507-2.083-5.087-3.347-7.514a12.316,12.316,0,0,1-1.046-7.287" transform="translate(-2219.991 -5922.076)" fill="#ffdbdb"/>
      <path id="Trazado_715696" data-name="Trazado 715696" d="M67.476,197.56h7.26c.673,4.389-2.26,7.645-3.619,11.447-1.323-3.828-4.278-7.09-3.641-11.447" transform="translate(-2174.526 -5916.133)" fill="#ffdbdb"/>
      <path id="Trazado_715697" data-name="Trazado 715697" d="M235.053,197.562h7.274c.733,4.316-2.348,7.555-3.6,11.417-1.454-3.734-4.194-7-3.676-11.417" transform="translate(-2272.833 -5916.135)" fill="#ffdbdb"/>
      <path id="Trazado_715698" data-name="Trazado 715698" d="M102.283,214.486,91,217.424l2.346-5.586,9.013,2.187q-.035.23-.072.461" transform="translate(-2188.373 -5924.508)" fill="#06d1d1"/>
      <path id="Trazado_715699" data-name="Trazado 715699" d="M202.573,214.209l8.665-2.094,2.306,5.367-10.928-2.842c-.014-.144-.029-.287-.043-.431" transform="translate(-2253.82 -5924.671)" fill="#b20d0d"/>
      <path id="Trazado_715700" data-name="Trazado 715700" d="M151.669,172.41a42.122,42.122,0,0,1-4.959-2.582,2.237,2.237,0,0,1-.42-3.3,2.36,2.36,0,0,1,3.406-.83,3.1,3.1,0,0,0,3.9,0,2.4,2.4,0,0,1,3.445.771,2.31,2.31,0,0,1-.5,3.465,36.752,36.752,0,0,1-4.869,2.477" transform="translate(-2220.495 -5897.188)" fill="#161615"/>
      <path id="Trazado_715701" data-name="Trazado 715701" d="M177.411,149.591a2.688,2.688,0,0,1-2.708-2.755,2.566,2.566,0,0,1,2.732-2.5,2.457,2.457,0,0,1,2.484,2.724,2.5,2.5,0,0,1-2.508,2.527" transform="translate(-2237.471 -5884.909)" fill="#161615"/>
      <path id="Trazado_715702" data-name="Trazado 715702" d="M132.893,146.975a2.483,2.483,0,0,1,2.663-2.577,2.6,2.6,0,0,1-.09,5.193,2.484,2.484,0,0,1-2.574-2.616" transform="translate(-2212.949 -5884.95)" fill="#161615"/>
    </g>
  </g>
</svg>
