<svg xmlns="http://www.w3.org/2000/svg" xmlns:xlink="http://www.w3.org/1999/xlink" width="83.869" height="83.869" viewBox="0 0 83.869 83.869">
  <defs>
    <clipPath id="clip-path">
      <rect id="Rectángulo_353616" data-name="Rectángulo 353616" width="78.02" height="77.979" fill="none"/>
    </clipPath>
  </defs>
  <g id="Grupo_1003696" data-name="Grupo 1003696" transform="translate(-812.683 -6646.869)">
    <path id="Trazado_715801" data-name="Trazado 715801" d="M83.869,66.824A41.934,41.934,0,1,1,41.934,24.889,41.935,41.935,0,0,1,83.869,66.824" transform="translate(812.683 6621.98)" fill="#ffc403"/>
    <g id="Grupo_1003577" data-name="Grupo 1003577" transform="translate(815.607 6649.908)">
      <g id="Grupo_1003576" data-name="Grupo 1003576" clip-path="url(#clip-path)">
        <path id="Trazado_715821" data-name="Trazado 715821" d="M56.874,89.18V86.837H54.333l-.123,2.281c-15.8.294-32.177-14.127-32.317-32.241l2.342-.123V54.278l-2.284-.122C21.65,38.407,36.022,22,54.2,21.844c.039.75.078,1.506.122,2.342H56.8c.042-.78.083-1.533.123-2.28,15.681-.32,32.15,14,32.32,32.242l-2.343.119v2.478l2.277.124c.315,15.744-14.086,32.163-32.3,32.311m5.251-25.794c.392-.022.592-.039.792-.044,2.866-.065,4.36-1.56,4.366-4.385.006-2.442.016-4.884,0-7.326a7.683,7.683,0,0,0-5.31-7.4c-.366-.127-.725-.272-1.093-.411,1.8-3.805,1.422-6.726-1.106-8.908A6.188,6.188,0,0,0,52,34.525a8.954,8.954,0,0,0-2.543,3.291c-.941,2.056-.3,4.1.856,6.025-.538.175-.959.3-1.374.449a7.7,7.7,0,0,0-5.068,6.841c-.069,2.806-.046,5.616-.009,8.424a3.644,3.644,0,0,0,2.788,3.566,18.672,18.672,0,0,0,2.357.351v1.323c0,3.663-.01,7.326.006,10.989.006,1.43.49,1.907,1.9,1.915,2.524.013,5.048,0,7.572,0,3.635,0,3.635,0,3.635-3.614ZM38.605,66v8.965H35.982V54.3H33.364v6.234c-2.207.293-2.485.056-2.487-2.011,0-2.2-.01-4.4,0-6.593.019-3.456,2.072-5.474,5.563-5.513a38.532,38.532,0,0,0,4.507-.142A6.309,6.309,0,0,0,46.373,40.8a6.5,6.5,0,1,0-12.216,2.062l.506.987c-.373.12-.638.2-.9.291-3.1,1.038-5.12,3.184-5.434,6.4a66.891,66.891,0,0,0-.049,9.51,3.723,3.723,0,0,0,3.439,3.274c.51.052,1.029.008,1.656.008V64.8c0,3.663-.007,7.326,0,10.989,0,1.412.5,1.905,1.908,1.91q4.7.018,9.4,0c1.3-.007,1.77-.475,1.78-1.774.021-2.686.007-5.372.007-8.059,0-.6,0-1.2,0-1.843H43.834v8.923H41.117V66ZM75.087,54.287v20.67H72.424v-8.93H69.912v8.957H67.277V66.019H64.659c0,3.325-.01,6.571,0,9.817.007,1.421.469,1.858,1.939,1.863q4.58.015,9.159,0c1.542,0,2-.478,2-2.07q.009-5.25,0-10.5V63.391c.369-.022.6-.043.838-.049,2.83-.078,4.33-1.606,4.336-4.431.005-2.442.018-4.884,0-7.326a7.747,7.747,0,0,0-5.253-7.332c-.4-.141-.784-.309-1.195-.472.255-.5.476-.887.656-1.293a6.508,6.508,0,0,0-6.528-9.1,6.526,6.526,0,0,0,.7,13.025c1.3.034,2.606-.015,3.908.02a5.013,5.013,0,0,1,5.027,5.047c.035,2.36.014,4.721.012,7.082,0,2.016-.355,2.305-2.509,1.94V54.287ZM67.843,81.439,66.6,79.094A25.4,25.4,0,0,1,55.466,81.56a26.112,26.112,0,0,1-11.083-2.507L43.29,81.437a29.11,29.11,0,0,0,24.553,0m-23.435-49.5a26.618,26.618,0,0,1,22.3-.036l1.087-2.359a29,29,0,0,0-24.519.058l1.134,2.337" transform="translate(-16.548 -16.511)" fill="#abffff"/>
        <path id="Trazado_715822" data-name="Trazado 715822" d="M67.629,127.452v19.615H57.406V133.519s-5.984,1.081-5.319-2.743-.748-11.3,2.66-13.212,14.25-2.488,14.5.578-1.7,3.075-1.621,9.309" transform="translate(-39.331 -87.668)" fill="#03a4a4"/>
        <path id="Trazado_715823" data-name="Trazado 715823" d="M198.689,127.452v19.615h10.223V133.519s5.984,1.081,5.319-2.743.748-11.3-2.66-13.212-14.25-2.488-14.5.578,1.7,3.075,1.621,9.309" transform="translate(-148.937 -87.668)" fill="#03a4a4"/>
        <path id="Trazado_715824" data-name="Trazado 715824" d="M40.346,75.477v2.5H37.788c-.046-.81-.094-1.637-.14-2.452A36.828,36.828,0,0,1,2.52,40.375L0,40.237v-2.47l2.531-.128A36.7,36.7,0,0,1,37.654,2.525c.042-.86.08-1.658.122-2.525h2.484c.039.842.076,1.637.116,2.518A36.7,36.7,0,0,1,75.5,37.634l2.521.121v2.486l-2.511.119A36.706,36.706,0,0,1,40.346,75.477m-.02-2.808c18.217-.148,32.619-16.567,32.3-32.311l-2.277-.124V37.756l2.343-.119C72.526,19.4,56.057,5.075,40.376,5.395l-.123,2.28H37.775c-.043-.836-.083-1.592-.122-2.342C19.473,5.493,5.1,21.9,5.4,37.645l2.284.122v2.477l-2.342.123C5.485,58.481,21.863,72.9,37.662,72.608c.04-.747.081-1.5.123-2.281h2.542Z" fill="#161615"/>
        <path id="Trazado_715825" data-name="Trazado 715825" d="M130.031,98.947v10.7c0,3.614,0,3.614-3.635,3.614-2.524,0-5.048.009-7.572,0-1.415-.008-1.9-.484-1.9-1.915-.015-3.663-.005-7.326-.005-10.989V99.033a18.648,18.648,0,0,1-2.357-.351,3.644,3.644,0,0,1-2.789-3.566c-.037-2.808-.06-5.618.009-8.424a7.7,7.7,0,0,1,5.068-6.841c.415-.146.836-.274,1.374-.449-1.158-1.92-1.8-3.969-.856-6.025a8.949,8.949,0,0,1,2.542-3.291,6.188,6.188,0,0,1,7.771.384c2.528,2.182,2.907,5.1,1.106,8.908.368.139.728.284,1.094.411a7.684,7.684,0,0,1,5.31,7.4c.019,2.442.009,4.884,0,7.326-.007,2.825-1.5,4.32-4.366,4.385-.2,0-.4.022-.792.044m-13.075-2.822V89.851h2.626v20.68H122.2V101.6h2.624v8.948H127.4V89.88h2.628v6.247c2.3.226,2.531.024,2.532-2.063,0-2.278.024-4.557-.009-6.835a5.081,5.081,0,0,0-5.235-5.235q-3.845-.051-7.69,0a5.086,5.086,0,0,0-5.238,5.232c-.031,2.278-.01,4.557-.008,6.835,0,2.09.23,2.289,2.574,2.064m2.626-20.669a3.891,3.891,0,1,0,3.851-3.913,3.926,3.926,0,0,0-3.851,3.913" transform="translate(-84.454 -52.072)" fill="#161615"/>
        <path id="Trazado_715826" data-name="Trazado 715826" d="M57.92,101.641h2.512v8.947h2.716v-8.923h2.642v1.843c0,2.686.014,5.372-.007,8.059-.01,1.3-.481,1.767-1.78,1.774q-4.7.027-9.4,0c-1.411-.006-1.9-.5-1.908-1.911-.011-3.663,0-7.326,0-10.989V98.97c-.627,0-1.146.044-1.656-.008a3.722,3.722,0,0,1-3.439-3.274,66.852,66.852,0,0,1,.049-9.51c.314-3.213,2.332-5.358,5.434-6.4.263-.088.528-.17.9-.291l-.506-.987a6.5,6.5,0,1,1,12.216-2.062,6.309,6.309,0,0,1-5.423,5.479,38.525,38.525,0,0,1-4.507.142c-3.491.04-5.544,2.057-5.563,5.513-.012,2.2,0,4.4,0,6.593,0,2.066.28,2.3,2.487,2.011V89.948H55.3v20.659H57.92Zm1.32-22.2a3.905,3.905,0,1,0-.041-7.81,3.905,3.905,0,0,0,.041,7.81" transform="translate(-35.863 -52.157)" fill="#161615"/>
        <path id="Trazado_715827" data-name="Trazado 715827" d="M207.477,89.9h2.66v6.216c2.154.365,2.508.077,2.509-1.94,0-2.36.022-4.721-.013-7.082a5.012,5.012,0,0,0-5.026-5.047c-1.3-.035-2.606.014-3.908-.02A6.526,6.526,0,0,1,203,69a6.508,6.508,0,0,1,6.529,9.1c-.18.406-.4.794-.656,1.293.411.163.8.331,1.2.472a7.747,7.747,0,0,1,5.253,7.332c.023,2.442.01,4.884,0,7.326-.006,2.825-1.506,4.353-4.336,4.431-.235.007-.469.027-.838.049v1.738q0,5.25,0,10.5c0,1.592-.456,2.065-2,2.07q-4.58.014-9.159,0c-1.469,0-1.932-.441-1.939-1.863-.015-3.246,0-6.492,0-9.817h2.617V110.6H202.3v-8.957h2.513v8.93h2.663Zm-3.833-10.494a3.905,3.905,0,1,0-3.966-3.822,3.954,3.954,0,0,0,3.966,3.822" transform="translate(-148.937 -52.124)" fill="#161615"/>
        <path id="Trazado_715828" data-name="Trazado 715828" d="M134.085,258.55a29.111,29.111,0,0,1-24.553,0l1.094-2.385a26.108,26.108,0,0,0,11.083,2.507,25.4,25.4,0,0,0,11.137-2.465l1.24,2.345" transform="translate(-82.79 -193.621)" fill="#161615"/>
        <path id="Trazado_715829" data-name="Trazado 715829" d="M110.6,47.461l-1.134-2.337a29,29,0,0,1,24.519-.058L132.9,47.426a26.618,26.618,0,0,0-22.3.036" transform="translate(-82.74 -32.031)" fill="#161615"/>
        <path id="Trazado_715830" data-name="Trazado 715830" d="M125.129,136.609c-2.344.225-2.573.026-2.574-2.064,0-2.278-.023-4.557.008-6.835a5.086,5.086,0,0,1,5.238-5.233q3.845-.049,7.691,0a5.081,5.081,0,0,1,5.235,5.235c.033,2.278.011,4.556.009,6.835,0,2.087-.235,2.29-2.532,2.063v-6.247h-2.628v20.67H133v-8.948h-2.624v8.93h-2.619v-20.68h-2.626Z" transform="translate(-92.627 -92.557)" fill="#b20d0d"/>
        <path id="Trazado_715831" data-name="Trazado 715831" d="M143.881,83.662a3.891,3.891,0,1,1,3.87,3.9,3.911,3.911,0,0,1-3.87-3.9" transform="translate(-108.753 -60.278)" fill="#b20d0d"/>
        <path id="Trazado_715832" data-name="Trazado 715832" d="M83.7,87.562a3.905,3.905,0,1,1,3.919-3.869A3.955,3.955,0,0,1,83.7,87.562" transform="translate(-60.322 -60.28)" fill="#03a4a4"/>
        <path id="Trazado_715833" data-name="Trazado 715833" d="M211.793,87.563a3.905,3.905,0,1,1-.051-7.81,3.905,3.905,0,0,1,.051,7.81" transform="translate(-157.086 -60.281)" fill="#03a4a4"/>
      </g>
    </g>
  </g>
</svg>
