<svg xmlns="http://www.w3.org/2000/svg" xmlns:xlink="http://www.w3.org/1999/xlink" width="106.734" height="106.734" viewBox="0 0 106.734 106.734">
  <defs>
    <clipPath id="clip-path">
      <rect id="Rectángulo_353632" data-name="Rectángulo 353632" width="52.502" height="84.54" fill="none"/>
    </clipPath>
  </defs>
  <g id="Grupo_1003587" data-name="Grupo 1003587" transform="translate(-746.633 -7200)">
    <path id="Trazado_705812" data-name="Trazado 705812" d="M106.734,78.256A53.367,53.367,0,1,1,53.367,24.889a53.367,53.367,0,0,1,53.367,53.367" transform="translate(746.633 7175.111)" fill="#06d1d1"/>
    <g id="Grupo_1003586" data-name="Grupo 1003586" transform="translate(773.749 7209.467)">
      <g id="Grupo_1003585" data-name="Grupo 1003585" clip-path="url(#clip-path)">
        <path id="Trazado_715909" data-name="Trazado 715909" d="M1.19,83.2V3.439A1.849,1.849,0,0,1,2.846,1.445H51.158V83.2H1.19M50.035,7.83c0,1.341.012,2.561,0,3.78-.011.879.35,1.519,1.258,1.516s1.2-.656,1.194-1.505c0-1.984-.084-3.969-.016-5.951C52.6,1.844,50.9,0,47.226,0Q26.363,0,5.5,0C1.678,0,.043,1.623.043,5.429q0,30.239,0,60.477c0,.308-.113.7.031.908a11.266,11.266,0,0,0,1.178,1.3,8.182,8.182,0,0,0,1.2-1.323c.174-.3.035-.774.035-1.17q0-28.06,0-56.12V7.974A2.955,2.955,0,0,1,3,7.848c5.326-.009,10.652-.032,15.977.026.372,0,.9.544,1.078.954a6.74,6.74,0,0,0,6.2,4.345A6.47,6.47,0,0,0,32.4,8.806a1.322,1.322,0,0,1,1.533-.991c3.124.039,6.25.016,9.375.016h6.726m0,68.769H2.482c0-1.25-.019-2.39.006-3.528.02-.918-.279-1.628-1.284-1.622-.954.005-1.181.7-1.17,1.562.026,2.069,0,4.138.008,6.207.006,3.632,1.689,5.321,5.3,5.322h41.6c3.912,0,5.525-1.6,5.525-5.5q0-30.113-.008-60.227c0-.951.358-2.311-1.175-2.317-1.471-.006-1.255,1.293-1.255,2.29q0,28.066,0,56.132V76.6M26.362,62.064c-2.949,0-5.9-.012-8.846,0a2.837,2.837,0,0,0-3.155,3.07c-.023,1.452-.026,2.9,0,4.357a2.734,2.734,0,0,0,2.817,2.991q9.108.083,18.218-.006a2.708,2.708,0,0,0,2.758-2.911c.034-1.408.018-2.816.007-4.225-.018-2.246-1.063-3.272-3.349-3.279-2.816-.009-5.633,0-8.45,0m9.547-4.52q4.682,0,9.364,0c.932,0,1.884-.07,1.855-1.306-.026-1.128-.936-1.244-1.812-1.245q-9.365-.01-18.729,0c-.931,0-1.894.137-1.868,1.331.025,1.1.925,1.225,1.824,1.223,3.122-.008,6.243,0,9.365,0M35.93,36.2q4.684,0,9.367,0c.888,0,1.785-.076,1.832-1.2.053-1.246-.9-1.316-1.836-1.316q-9.367,0-18.735,0c-.882,0-1.81.059-1.84,1.187-.031,1.185.882,1.336,1.843,1.333,3.122-.012,6.245,0,9.367,0m-.163,10.643q4.75,0,9.5,0c.922,0,1.886-.024,1.864-1.278-.02-1.154-.914-1.206-1.805-1.2q-9.368.011-18.737,0c-.945,0-1.886.066-1.873,1.283.012,1.142.928,1.2,1.814,1.2q4.618-.01,9.236,0M35.894,23c-3.164,0-6.328.007-9.492,0-.881,0-1.652.2-1.691,1.219-.041,1.064.778,1.263,1.63,1.264q9.558.011,19.115,0c.831,0,1.674-.121,1.678-1.21C47.14,23.119,46.288,23,45.386,23q-4.746.008-9.492,0M5.359,53.548a3.891,3.891,0,1,0,3.974-3.876,3.917,3.917,0,0,0-3.974,3.876M9.222,36.193a3.928,3.928,0,1,0-3.864-3.978,3.9,3.9,0,0,0,3.864,3.978M5.359,21.62a3.825,3.825,0,0,0,3.953,3.84A3.878,3.878,0,0,0,9.236,17.7,3.827,3.827,0,0,0,5.359,21.62M9.221,46.827a3.89,3.89,0,1,0-3.861-3.945,3.87,3.87,0,0,0,3.861,3.945M20.567,52.19c1.056,0,2.112.013,3.167,0,.8-.013,1.528-.408,1.37-1.214a1.928,1.928,0,0,0-1.339-1.243,48.57,48.57,0,0,0-6.327,0,1.946,1.946,0,0,0-1.388,1.211c-.156.764.529,1.233,1.35,1.246,1.055.016,2.111,0,3.167.006m.057-23.861c-1.012,0-2.023,0-3.034,0-.856-.005-1.546.345-1.579,1.228s.665,1.3,1.5,1.316c2.066.028,4.139.089,6.2-.049a1.944,1.944,0,0,0,1.4-1.2c.167-.875-.59-1.274-1.445-1.286-1.011-.015-2.023,0-3.034-.005m.063-8.228c1.01,0,2.02-.019,3.03.006.83.021,1.421-.3,1.433-1.159.017-1.171-1.065-1.5-2.483-1.056a6.744,6.744,0,0,1-4.129,0c-1.38-.457-2.512-.114-2.53,1-.015.9.625,1.252,1.517,1.221,1.053-.037,2.108-.009,3.162-.01M20.61,39.046c-1.055,0-2.111.011-3.165,0-.839-.012-1.512.432-1.392,1.19A1.9,1.9,0,0,0,17.4,41.448a49.8,49.8,0,0,0,6.323,0,1.923,1.923,0,0,0,1.38-1.176c.173-.785-.492-1.23-1.33-1.228q-1.583,0-3.165,0M18.856,57.517v.014a4.919,4.919,0,0,0,1.7-.043c.479-.189,1.106-.715,1.134-1.13a1.59,1.59,0,0,0-.963-1.244,14.176,14.176,0,0,0-3.669.01c-.4.052-1.051.791-1,1.126a1.986,1.986,0,0,0,1.1,1.222,4.566,4.566,0,0,0,1.7.046m.071-21.33a4.638,4.638,0,0,0,1.7-.046c.467-.2,1.058-.771,1.067-1.19a1.6,1.6,0,0,0-1.034-1.181,11.908,11.908,0,0,0-3.416-.01c-.463.066-.842.713-1.26,1.1.41.444.745,1.047,1.251,1.284a4.375,4.375,0,0,0,1.695.048m.031,10.622V46.8a5.453,5.453,0,0,0,1.827-.049,1.607,1.607,0,0,0,.918-1.166,1.513,1.513,0,0,0-.939-1.14,14.3,14.3,0,0,0-3.68,0,1.711,1.711,0,0,0-1.02,1.257c-.037.326.613.912,1.063,1.065a5.948,5.948,0,0,0,1.831.045m-.019-23.791a4.428,4.428,0,0,0-1.692.046c-.507.23-.85.821-1.265,1.255.416.379.794,1.019,1.254,1.084a12.055,12.055,0,0,0,3.407-.009,1.588,1.588,0,0,0,1.049-1.148c-.007-.415-.6-.984-1.059-1.181a4.666,4.666,0,0,0-1.694-.047" transform="translate(0 0)" fill="#fff0c0"/>
        <path id="Trazado_715910" data-name="Trazado 715910" d="M50.035,7.83H43.309c-3.125,0-6.251.024-9.375-.016a1.322,1.322,0,0,0-1.533.991,6.47,6.47,0,0,1-6.143,4.369,6.74,6.74,0,0,1-6.2-4.345c-.177-.411-.706-.95-1.078-.954C13.654,7.816,8.328,7.84,3,7.848a2.955,2.955,0,0,0-.519.125V9.5q0,28.06,0,56.12c0,.4.138.875-.035,1.17a8.2,8.2,0,0,1-1.2,1.323,11.266,11.266,0,0,1-1.178-1.3c-.144-.212-.031-.6-.031-.908q0-30.239,0-60.477C.043,1.623,1.678,0,5.5,0Q26.363,0,47.226,0c3.532,0,5.239,1.706,5.248,5.241,0,2.113-.017,4.226.008,6.338.011.869-.258,1.545-1.193,1.547-.908,0-1.269-.637-1.258-1.516.016-1.219,0-2.439,0-3.78M2.54,5.308H4.07c5.326,0,10.652.025,15.977-.018,1.312-.011,2.014.35,2.2,1.784a3.921,3.921,0,0,0,4.043,3.566,4.037,4.037,0,0,0,4-3.5c.331-1.744.431-1.831,2.25-1.832q7.988,0,15.977,0H49.93c.162-2.005-.613-2.858-2.579-2.865-4.8-.019-9.595-.007-14.392-.007q-13.8,0-27.6,0c-2.124,0-2.874.736-2.822,2.869" transform="translate(0 0)" fill="#161615"/>
        <path id="Trazado_715911" data-name="Trazado 715911" d="M50.129,122.557V120.88q0-28.066,0-56.132c0-1-.216-2.3,1.255-2.29,1.533.006,1.174,1.366,1.175,2.317q.017,30.114.008,60.227c0,3.895-1.613,5.5-5.525,5.5H5.439c-3.613,0-5.3-1.69-5.3-5.322,0-2.069.018-4.139-.008-6.207-.011-.858.216-1.557,1.17-1.562,1-.006,1.3.7,1.283,1.622-.024,1.139-.006,2.279-.006,3.528Zm-.074,2.717H2.633c-.051,2.045.7,2.783,2.822,2.785q11.679.011,23.358,0c6.2,0,12.4.009,18.607-.006,1.967,0,2.733-.829,2.635-2.782" transform="translate(-0.095 -45.958)" fill="#161615"/>
        <path id="Trazado_715912" data-name="Trazado 715912" d="M66.307,234.916c2.817,0,5.633-.007,8.45,0,2.286.007,3.331,1.033,3.349,3.279.011,1.408.027,2.817-.007,4.225a2.708,2.708,0,0,1-2.758,2.911q-9.108.09-18.217.006a2.734,2.734,0,0,1-2.817-2.991c-.027-1.452-.024-2.9,0-4.357a2.837,2.837,0,0,1,3.155-3.07c2.949-.017,5.9,0,8.846,0m-.133,7.962c2.769,0,5.539-.033,8.307.018.938.017,1.248-.315,1.2-1.222-.058-1.1-.034-2.2-.007-3.3.018-.719-.257-1.032-1-1.03q-8.44.022-16.879,0c-.818,0-1.087.334-1.062,1.106.035,1.1.046,2.2,0,3.3-.038.851.267,1.16,1.138,1.146,2.769-.043,5.538-.016,8.308-.016" transform="translate(-39.946 -172.852)" fill="#161615"/>
        <path id="Trazado_715913" data-name="Trazado 715913" d="M104.755,210.7c-3.122,0-6.243,0-9.365,0-.9,0-1.8-.121-1.824-1.223-.027-1.194.937-1.331,1.868-1.331q9.365-.008,18.729,0c.876,0,1.786.117,1.812,1.245.029,1.236-.923,1.307-1.855,1.306q-4.682,0-9.365,0" transform="translate(-68.847 -153.16)" fill="#161615"/>
        <path id="Trazado_715914" data-name="Trazado 715914" d="M104.776,130.015c-3.122,0-6.245-.007-9.367,0-.961,0-1.875-.147-1.843-1.333.03-1.128.958-1.188,1.84-1.187q9.368.006,18.735,0c.933,0,1.888.07,1.836,1.316-.047,1.124-.944,1.2-1.832,1.2q-4.684-.01-9.367,0" transform="translate(-68.847 -93.817)" fill="#161615"/>
        <path id="Trazado_715915" data-name="Trazado 715915" d="M104.606,170.394q-4.618,0-9.236,0c-.886,0-1.8-.061-1.814-1.2-.013-1.217.928-1.284,1.873-1.283q9.368.015,18.737,0c.891,0,1.785.051,1.805,1.2.022,1.254-.942,1.279-1.864,1.278q-4.75,0-9.5,0" transform="translate(-68.84 -123.553)" fill="#161615"/>
        <path id="Trazado_715916" data-name="Trazado 715916" d="M104.715,87.067q4.746,0,9.492,0c.9,0,1.754.116,1.749,1.271,0,1.09-.848,1.209-1.679,1.21q-9.558.011-19.115,0c-.852,0-1.672-.2-1.63-1.264.04-1.016.811-1.223,1.691-1.219,3.164.011,6.328,0,9.492,0" transform="translate(-68.821 -64.062)" fill="#161615"/>
        <path id="Trazado_715917" data-name="Trazado 715917" d="M20.282,191.893a3.891,3.891,0,1,1,3.858,3.991,3.917,3.917,0,0,1-3.858-3.991m3.575,1.645H24.5c.356-.542.94-1.054,1.015-1.632a1.1,1.1,0,0,0-1.4-1.266c-.529.136-1.247.821-1.27,1.29-.026.519.645,1.072,1.013,1.61" transform="translate(-14.923 -138.345)" fill="#161615"/>
        <path id="Trazado_715918" data-name="Trazado 715918" d="M24.145,115.119a3.929,3.929,0,1,1,3.917-3.944,3.938,3.938,0,0,1-3.917,3.944m-.218-2.329.628-.022c.338-.555.9-1.088.96-1.67a1.1,1.1,0,0,0-1.448-1.214c-.523.155-1.222.867-1.222,1.33,0,.525.691,1.05,1.082,1.576" transform="translate(-14.924 -78.925)" fill="#161615"/>
        <path id="Trazado_715919" data-name="Trazado 715919" d="M20.282,70.931a3.892,3.892,0,1,1,3.953,3.84,3.827,3.827,0,0,1-3.953-3.84m3.525,1.575.609.023c.385-.528,1.109-1.088,1.063-1.576-.05-.535-.809-1-1.259-1.5-.49.464-1.292.875-1.38,1.406-.08.483.614,1.095.966,1.65" transform="translate(-14.924 -49.311)" fill="#161615"/>
        <path id="Trazado_715920" data-name="Trazado 715920" d="M24.146,155.587a3.89,3.89,0,1,1,3.923-3.9,3.844,3.844,0,0,1-3.923,3.9m-.258-2.274.6-.006c.363-.552.955-1.074,1.033-1.664a1.136,1.136,0,0,0-1.412-1.291,1.942,1.942,0,0,0-1.265,1.327c-.016.533.667,1.088,1.046,1.634" transform="translate(-14.926 -108.76)" fill="#161615"/>
        <path id="Trazado_715921" data-name="Trazado 715921" d="M65.207,190.407c-1.056,0-2.112.011-3.167-.005-.821-.012-1.505-.482-1.349-1.246a1.945,1.945,0,0,1,1.388-1.211,48.572,48.572,0,0,1,6.327,0,1.929,1.929,0,0,1,1.339,1.243c.157.805-.568,1.2-1.37,1.214-1.056.017-2.112,0-3.167,0" transform="translate(-44.641 -138.219)" fill="#161615"/>
        <path id="Trazado_715922" data-name="Trazado 715922" d="M65.211,107.226c1.011,0,2.023-.01,3.034,0,.854.012,1.612.411,1.445,1.286a1.944,1.944,0,0,1-1.4,1.2c-2.057.138-4.13.077-6.2.049-.835-.011-1.533-.42-1.5-1.316s.723-1.233,1.579-1.228c1.011.006,2.023,0,3.034,0" transform="translate(-44.588 -78.896)" fill="#161615"/>
        <path id="Trazado_715923" data-name="Trazado 715923" d="M65.273,69.394c-1.054,0-2.109-.028-3.162.01-.892.031-1.532-.323-1.517-1.221.013-.8.6-1.2,1.442-1.193,2.108.016,4.216.006,6.324.006.836,0,1.388.4,1.376,1.244-.012.859-.6,1.18-1.433,1.159-1.009-.025-2.02-.006-3.03-.005" transform="translate(-44.586 -49.292)" fill="#161615"/>
        <path id="Trazado_715924" data-name="Trazado 715924" d="M65.279,147.789q1.583,0,3.165,0c.837,0,1.5.444,1.33,1.229a1.924,1.924,0,0,1-1.38,1.176,49.806,49.806,0,0,1-6.323,0,1.9,1.9,0,0,1-1.349-1.216c-.12-.757.553-1.2,1.392-1.19,1.055.015,2.11,0,3.165,0" transform="translate(-44.67 -108.743)" fill="#161615"/>
        <path id="Trazado_715925" data-name="Trazado 715925" d="M63.571,210.7a4.566,4.566,0,0,1-1.7-.046,1.986,1.986,0,0,1-1.1-1.222c-.052-.335.6-1.074,1-1.126a14.165,14.165,0,0,1,3.669-.01,1.59,1.59,0,0,1,.963,1.244c-.028.415-.655.941-1.134,1.13a4.919,4.919,0,0,1-1.7.043V210.7" transform="translate(-44.716 -153.186)" fill="#161615"/>
        <path id="Trazado_715926" data-name="Trazado 715926" d="M63.433,129.886a4.361,4.361,0,0,1-1.695-.048c-.506-.236-.841-.84-1.251-1.284.418-.383.8-1.03,1.26-1.1a11.91,11.91,0,0,1,3.416.01,1.6,1.6,0,0,1,1.034,1.181c-.008.419-.6.991-1.067,1.19a4.623,4.623,0,0,1-1.7.045" transform="translate(-44.507 -93.7)" fill="#161615"/>
        <path id="Trazado_715927" data-name="Trazado 715927" d="M63.689,170.26a5.947,5.947,0,0,1-1.831-.045c-.45-.153-1.1-.739-1.063-1.065a1.71,1.71,0,0,1,1.02-1.257,14.3,14.3,0,0,1,3.68,0,1.513,1.513,0,0,1,.94,1.14,1.608,1.608,0,0,1-.918,1.166,5.453,5.453,0,0,1-1.827.049v.011" transform="translate(-44.733 -123.452)" fill="#161615"/>
        <path id="Trazado_715928" data-name="Trazado 715928" d="M63.449,86.952A4.661,4.661,0,0,1,65.143,87c.464.2,1.052.766,1.059,1.181a1.587,1.587,0,0,1-1.048,1.148,12.045,12.045,0,0,1-3.407.009c-.46-.065-.839-.705-1.254-1.084.415-.434.758-1.025,1.265-1.255a4.418,4.418,0,0,1,1.692-.045" transform="translate(-44.511 -63.934)" fill="#161615"/>
        <path id="Trazado_715929" data-name="Trazado 715929" d="M9.607,12.085c-.053-2.133.7-2.867,2.822-2.869q13.8-.01,27.6,0c4.8,0,9.6-.012,14.393.006,1.966.008,2.741.86,2.579,2.865H55.58q-7.988,0-15.977,0c-1.819,0-1.919.088-2.25,1.832a4.036,4.036,0,0,1-4,3.5,3.921,3.921,0,0,1-4.043-3.566c-.187-1.434-.889-1.794-2.2-1.783-5.325.043-10.651.018-15.977.018Zm25.249,1.525q-.006-.3-.012-.6c-.518-.319-1.008-.831-1.562-.912a1.028,1.028,0,0,0-1.212,1.278,1.933,1.933,0,0,0,1.3,1.225c.459.045.988-.63,1.487-.989" transform="translate(-7.067 -6.776)" fill="#03a4a4"/>
        <path id="Trazado_715930" data-name="Trazado 715930" d="M57.023,300.232c.1,1.953-.668,2.777-2.635,2.782-6.2.015-12.4.006-18.607.006q-11.679,0-23.358,0c-2.119,0-2.874-.739-2.822-2.785Z" transform="translate(-7.063 -220.916)" fill="#03a4a4"/>
        <path id="Trazado_715931" data-name="Trazado 715931" d="M72.963,249.657c-2.769,0-5.539-.027-8.308.016-.872.014-1.176-.3-1.138-1.146.049-1.1.038-2.2,0-3.3-.025-.772.244-1.109,1.062-1.106q8.439.032,16.879,0c.745,0,1.019.311,1,1.03-.027,1.1-.051,2.2.007,3.3.048.907-.262,1.239-1.2,1.222-2.768-.051-5.538-.018-8.307-.018" transform="translate(-46.734 -179.631)" fill="#ffc403"/>
        <path id="Trazado_715932" data-name="Trazado 715932" d="M30.992,200.726c-.367-.538-1.038-1.091-1.013-1.61.023-.469.742-1.154,1.27-1.29a1.1,1.1,0,0,1,1.4,1.266c-.076.579-.659,1.091-1.015,1.632h-.644" transform="translate(-22.059 -145.533)" fill="#ffc403"/>
        <path id="Trazado_715933" data-name="Trazado 715933" d="M31.065,119.946c-.391-.525-1.083-1.05-1.082-1.576,0-.463.7-1.175,1.222-1.33a1.1,1.1,0,0,1,1.448,1.214c-.055.581-.622,1.115-.96,1.67l-.628.022" transform="translate(-22.062 -86.08)" fill="#ffc403"/>
        <path id="Trazado_715934" data-name="Trazado 715934" d="M30.917,79.288c-.353-.555-1.046-1.166-.966-1.65.088-.53.889-.942,1.38-1.406.45.5,1.209.968,1.259,1.5.045.488-.678,1.048-1.063,1.576l-.609-.023" transform="translate(-22.033 -56.093)" fill="#ffc403"/>
        <path id="Trazado_715935" data-name="Trazado 715935" d="M31.01,160.3c-.379-.546-1.063-1.1-1.046-1.634a1.942,1.942,0,0,1,1.265-1.327,1.136,1.136,0,0,1,1.412,1.291c-.078.59-.671,1.112-1.033,1.664l-.6.006" transform="translate(-22.047 -115.748)" fill="#ffc403"/>
        <path id="Trazado_715936" data-name="Trazado 715936" d="M97.322,21.608c-.5.358-1.027,1.033-1.487.989a1.933,1.933,0,0,1-1.3-1.225,1.028,1.028,0,0,1,1.212-1.278c.553.081,1.043.593,1.562.912q.006.3.012.6" transform="translate(-69.533 -14.775)" fill="#161615"/>
      </g>
    </g>
  </g>
</svg>
