<svg xmlns="http://www.w3.org/2000/svg" xmlns:xlink="http://www.w3.org/1999/xlink" width="87.313" height="87.197" viewBox="0 0 87.313 87.197">
  <defs>
    <clipPath id="clip-path">
      <rect id="Rectángulo_353671" data-name="Rectángulo 353671" width="87.313" height="87.197" fill="none"/>
    </clipPath>
  </defs>
  <g id="Grupo_1003622" data-name="Grupo 1003622" clip-path="url(#clip-path)">
    <path id="Trazado_716063" data-name="Trazado 716063" d="M13.745,50.846a23.431,23.431,0,0,1-.338-11.227c.815-3.9,4.191-6,8.388-5.721,3.287.217,6.259,3.187,6.789,6.785a30,30,0,0,1-.753,10.092,10.07,10.07,0,0,1,4.895,8.6c2.185-.147,4.293-.285,6.4-.434.948-.067,1.812.058,1.843,1.24.029,1.1-.787,1.273-1.679,1.319a80.6,80.6,0,0,0-18.61,2.9c-4.979,1.457-9.8,3.275-13.856,6.641a15.273,15.273,0,0,0-2.343,2.448A7.69,7.69,0,0,0,4.563,83.5a19.429,19.429,0,0,0,6.068,4.9,4.623,4.623,0,0,0,2.451-4.68,63.735,63.735,0,0,1-.042-6.94,7.8,7.8,0,1,1,15.59.073c.018,2.86-.016,5.72.025,8.579a1.865,1.865,0,0,0,.473,1.282A9.874,9.874,0,0,1,32.7,94.2a5.169,5.169,0,0,0,.108.6,91,91,0,0,0,21.67,0c.155-3.772,1.486-6.9,4.887-8.923a23.389,23.389,0,0,1-.512-10.864,7.56,7.56,0,0,1,8.088-6.175,7.682,7.682,0,0,1,7.2,7.359c.052,2.706-.152,5.419-.289,8.127a5.731,5.731,0,0,1-.425,1.384l3.122,2.7A18.671,18.671,0,0,0,82.8,83.332c2.34-3.118,2.493-6.823-.063-9.756a24.765,24.765,0,0,0-6-5A49.962,49.962,0,0,0,58,62.524c-2.645-.368-5.31-.588-7.967-.859-.887-.09-1.555-.5-1.468-1.424.091-.967.8-1.33,1.774-1.217,1.34.155,2.685.269,4.011.4,1.349-5.6,1.349-5.6,4.989-8.692a22.855,22.855,0,0,1-.489-10.742,7.6,7.6,0,0,1,9.558-5.921,1.445,1.445,0,0,0,1.716-.489,4.86,4.86,0,0,1,5.5-1.253,4.747,4.747,0,0,1,3.451,4.582c.076,5.036.051,10.076-.012,15.113a3.806,3.806,0,0,1-.719,2.281c-.968,1.131-.521,2.177-.151,3.262a1.211,1.211,0,0,0,.742.576c3.429,1.051,4.967,3.1,4.977,6.694,0,.545.03,1.091,0,1.634a10.286,10.286,0,0,0,1.761,6.968c2.542,3.669,2.1,8.043-.99,11.544a82.155,82.155,0,0,1-6.854,6.241,2.4,2.4,0,0,0,2.067,2.35c2.484.7,3.724,2.74,4.006,5.3.094.852-.133,1.593-1.094,1.739-.994.151-1.311-.534-1.487-1.377-.582-2.784-1.523-3.534-4.379-3.535-3.132,0-6.264-.015-9.4.007a3.241,3.241,0,0,0-3.529,3.042c-.154,2.977-.041,5.967-.041,9.093.533.026,1.012.069,1.492.07q6.468.008,12.937,0c2.009,0,2.31-.174,2.984-2.032.3-.822.9-1.149,1.557-.833a1.868,1.868,0,0,1,.9,1.4,4.291,4.291,0,0,1-4.263,3.969c-5.537.056-11.075.036-16.613,0a3.358,3.358,0,0,1-1.614-.575c-2.7-1.666-5.371-3.375-8.05-5.075-3.174-2.015-3.5-4.215-1.057-6.963H34.949l-.321.214a2.972,2.972,0,0,1,.937.508,3.721,3.721,0,0,1-.928,5.754c-3.031,1.993-6.107,3.917-9.189,5.828a2.82,2.82,0,0,1-1.414.321q-7.966.033-15.933.009a4.491,4.491,0,0,1-4.774-4.768c-.021-2.133-.03-4.267,0-6.4A6.023,6.023,0,0,1,8.1,93.278c.918-.239.918-.239,1.3-2.136a73.751,73.751,0,0,1-6.579-5.834c-3.73-4.167-3.678-9.036-.309-13.518a4.573,4.573,0,0,0,.78-2.317c.118-1.626.027-3.266.038-4.9a6.266,6.266,0,0,1,4.826-6.416c.355-.106.852-.416.915-.711a9.842,9.842,0,0,1,4.678-6.6m1.838,32.594c0,1.362-.025,2.724.007,4.085.03,1.311.062,2.626.2,3.929.119,1.14.73,1.6,2,1.63a13.689,13.689,0,0,1,4.863.844c1.123.467,1.684.33,2.219-.535a7.16,7.16,0,0,0,1.016-2.182A15.67,15.67,0,0,0,26.1,88.1c.021-3.676.05-7.354-.005-11.03-.052-3.457-2.155-5.613-5.326-5.6s-5.165,2.208-5.186,5.7c-.013,2.088,0,4.176,0,6.264M23.266,107.9c0-3.176.111-6.166-.04-9.142A3.243,3.243,0,0,0,19.7,95.71q-5.106-.033-10.213,0a3.333,3.333,0,0,0-3.535,3.347c-.109,2.264-.061,4.537-.032,6.806a1.858,1.858,0,0,0,1.949,2.019c5.078.049,10.156.021,15.391.021M71.64,79.516l.086,0a33.592,33.592,0,0,0-.285-4.058,4.8,4.8,0,0,0-4.954-3.976c-2.6-.02-4.807,1.474-5.093,3.957a35.531,35.531,0,0,0-.05,7.716A4.931,4.931,0,0,0,66.8,87.364a5.185,5.185,0,0,0,4.83-4.99c.048-.95.008-1.905.008-2.858m3.972-14.721c0-2.2.109-4.414-.032-6.613A5.953,5.953,0,0,0,72.6,53.414a1.7,1.7,0,0,0-1.5.01,8.009,8.009,0,0,1-9.414-.023A1.532,1.532,0,0,0,60.4,53.28a6.428,6.428,0,0,0-3.11,6.4c3.083.673,6.2,1.211,9.239,2.057s5.981,2,9.08,3.058M30.085,59.748a7.348,7.348,0,0,0-2.866-6.255,1.365,1.365,0,0,0-1.9-.013,7.579,7.579,0,0,1-8.449.375c-1.739-.948-2.068-1.024-3.345.475a6.258,6.258,0,0,0-1.689,3.009c-.247,2.479-.079,5-.079,7.616a67.083,67.083,0,0,1,18.331-5.206M75.561,93.027a6.786,6.786,0,0,0-2.687-4.457,1.434,1.434,0,0,0-2-.043,7.21,7.21,0,0,1-8.524.23c-1.443-.957-2.2-.48-3.09.422a7.974,7.974,0,0,0-1.372,1.839c-1.16,2.206-.658,4.609-.7,6.943a.615.615,0,0,0,.253.442c1.229.792,2.471,1.563,3.8,2.4a4.376,4.376,0,0,0,.089-.658c-.324-3.959,2.386-7.36,7.412-7.131,2.213.1,4.434.017,6.828.017M15.607,45.462c0,.807-.053,1.488.01,2.157a5.32,5.32,0,0,0,5.054,4.789A5.172,5.172,0,0,0,25.9,48.18a45.463,45.463,0,0,0,.278-4.972c-2.85.583-5.49,1.115-8.126,1.665-.789.165-1.569.376-2.446.589m45.452-.017a25.946,25.946,0,0,0,.26,2.791,5.268,5.268,0,0,0,5.026,4.175,5.138,5.138,0,0,0,5.127-4.189,34.789,34.789,0,0,0,.045-4.985L61.059,45.445m15.2,7.6a7.371,7.371,0,0,0,.281-1.336c.017-4.85.036-9.7-.007-14.549a2.683,2.683,0,0,0-4.822-1.5c3.879,4.764,2.41,9.985,1.947,15.263l2.6,2.125M61.25,42.758,71.433,40.61a5.22,5.22,0,0,0-5.721-4.227c-2.951.485-4.8,2.991-4.462,6.376m-35.38-2.141A5.23,5.23,0,0,0,20.056,36.4a5.332,5.332,0,0,0-4.3,6.337l10.118-2.115m.242,60.07c1.208-.753,2.431-1.487,3.614-2.28a1.1,1.1,0,0,0,.346-.805,33.247,33.247,0,0,0-.1-4.343,15.837,15.837,0,0,0-.951-2.936l-.352.092a8.232,8.232,0,0,1-2.91,5.793,1.011,1.011,0,0,0-.3.785c.171,1.189.41,2.368.651,3.7m35,5.983.37-.185c-.189-.949-.049-2.31-.627-2.771a41.38,41.38,0,0,0-5.817-3.667,1.694,1.694,0,0,0-1.549.436,1.52,1.52,0,0,0,.289,1.463c2.4,1.637,4.88,3.164,7.334,4.724m-35.051-.112a1.485,1.485,0,0,0,.367-.113c2.254-1.418,4.535-2.8,6.726-4.307a1.815,1.815,0,0,0,.578-1.628c-.342-.852-1.132-.852-1.918-.341-1.4.911-2.827,1.78-4.244,2.664-1.939,1.211-1.939,1.21-1.509,3.725M6.081,68.278c.85-.548,1.595-.976,2.274-1.489a1.475,1.475,0,0,0,.6-.923c.06-1.667.028-3.338.028-5.018-3.159.339-3.393,2.956-2.905,7.43m72.165-7.412c0,1.713-.014,3.415.017,5.117a.938.938,0,0,0,.37.641c.8.56,1.631,1.073,2.493,1.629.571-4.394.211-7.107-2.879-7.388M12.984,90.357l-.286-.132-1.186,2.73H13.43l-.446-2.6" transform="translate(0 -23.261)" fill="#161615"/>
    <path id="Trazado_716064" data-name="Trazado 716064" d="M121.247,10.65c-.233-4.383,1.379-7.616,5.123-9.618a9.1,9.1,0,0,1,10.936,1.961c2.876,3.177,3.423,7.941,1.013,11.287a6.541,6.541,0,0,0-1.29,4.356c.072,2-.791,2.485-2.5,1.434-1.639-1.006-3.244-2.007-5.3-1.4-.116,1.036-.157,2.157-.378,3.242a9.148,9.148,0,0,1-8.824,7.268,6.206,6.206,0,0,0-3.527,1.1,8.4,8.4,0,0,1-1.418.795,1.226,1.226,0,0,1-1.8-1.149,2.692,2.692,0,0,1-.01-.544,6.334,6.334,0,0,0-1.276-4.5,8.493,8.493,0,0,1-.288-9.386,8.8,8.8,0,0,1,7.951-4.833c.488-.014.977,0,1.595,0m-5.014,16.608a9.632,9.632,0,0,1,2.884-.66,6.633,6.633,0,0,0,7.18-5.083c.4-1.832.6-3.764-1.555-5-.818-.467-1.334-1.448-2.03-2.152a3.178,3.178,0,0,0-1.238-.927,6.743,6.743,0,0,0-6.937,10.734,25.026,25.026,0,0,1,1.7,3.085m18.329-10.7c-.269-1.16.384-2.131,1.248-3.158a5.918,5.918,0,0,0,1.253-5.468c-.808-3.277-3.7-5.6-6.769-5.336a6.62,6.62,0,0,0-6.447,6.326,6.43,6.43,0,0,0,5.262,6.891c1.752.362,3.551.494,5.453.746" transform="translate(-80.35 0)" fill="#161615"/>
    <path id="Trazado_716065" data-name="Trazado 716065" d="M158.824,172.388a7.333,7.333,0,0,1-1.739,4.683,3.818,3.818,0,0,0-.941,2.982,8.221,8.221,0,0,1-.008,1.361c-.115,1.383-.922,1.844-2.137,1.229-.322-.163-.626-.363-.935-.553a7.024,7.024,0,0,0-3.755-1.184,9.281,9.281,0,0,1-.652-18.516c5.455-.661,10.3,3.861,10.168,10m-5.3,6.441c.108-1.471.139-1.448,1.372-3.078a6.428,6.428,0,0,0,.971-6.4,6.615,6.615,0,0,0-7.709-4.26,6.709,6.709,0,0,0,.866,13.232c1.477.1,2.946.328,4.5.507" transform="translate(-102.057 -118.11)" fill="#161615"/>
    <path id="Trazado_716066" data-name="Trazado 716066" d="M57.184,188.977c0-2.088-.01-4.176,0-6.264.021-3.492,2.022-5.683,5.186-5.7s5.273,2.139,5.325,5.6c.056,3.676.027,7.353.005,11.03a15.648,15.648,0,0,1-.215,3.109,7.16,7.16,0,0,1-1.015,2.182c-.535.865-1.1,1-2.219.535a13.692,13.692,0,0,0-4.863-.844c-1.272-.03-1.883-.49-2-1.629-.136-1.3-.168-2.618-.2-3.929-.031-1.361-.007-2.723-.007-4.085" transform="translate(-41.601 -128.797)" fill="#a03d3d"/>
    <path id="Trazado_716067" data-name="Trazado 716067" d="M39,278.126c-5.235,0-10.313.028-15.391-.021a1.858,1.858,0,0,1-1.949-2.019c-.029-2.269-.077-4.542.032-6.806a3.333,3.333,0,0,1,3.535-3.346q5.106-.037,10.213,0a3.243,3.243,0,0,1,3.521,3.051c.151,2.976.04,5.966.04,9.141" transform="translate(-15.731 -193.484)" fill="#8a3d02"/>
    <path id="Trazado_716068" data-name="Trazado 716068" d="M235,185.052c0,.953.041,1.908-.008,2.858a5.185,5.185,0,0,1-4.831,4.99,4.931,4.931,0,0,1-5.458-4.214,35.53,35.53,0,0,1,.05-7.716c.286-2.482,2.49-3.977,5.093-3.957a4.8,4.8,0,0,1,4.954,3.976,33.546,33.546,0,0,1,.286,4.058l-.086,0" transform="translate(-163.365 -128.797)" fill="#8d0a0a"/>
    <path id="Trazado_716069" data-name="Trazado 716069" d="M228.463,121.477c-3.1-1.058-6.047-2.212-9.08-3.058s-6.156-1.384-9.239-2.057a6.428,6.428,0,0,1,3.11-6.4,1.532,1.532,0,0,1,1.285.121,8.01,8.01,0,0,0,9.414.023,1.7,1.7,0,0,1,1.5-.009,5.952,5.952,0,0,1,2.982,4.767c.141,2.2.032,4.414.032,6.613" transform="translate(-152.851 -79.943)" fill="#ffc403"/>
    <path id="Trazado_716070" data-name="Trazado 716070" d="M61.334,116.2A67.08,67.08,0,0,0,43,121.4c0-2.617-.168-5.137.079-7.616a6.26,6.26,0,0,1,1.689-3.009c1.277-1.5,1.607-1.423,3.346-.475a7.579,7.579,0,0,0,8.449-.375,1.365,1.365,0,0,1,1.9.013,7.347,7.347,0,0,1,2.866,6.255" transform="translate(-31.249 -79.71)" fill="#06d1d1"/>
    <path id="Trazado_716071" data-name="Trazado 716071" d="M228.116,243.074c-2.394,0-4.615.084-6.828-.017-5.026-.23-7.736,3.172-7.412,7.131a4.432,4.432,0,0,1-.089.657c-1.327-.833-2.569-1.6-3.8-2.4a.614.614,0,0,1-.254-.442c.044-2.335-.458-4.738.7-6.943a7.97,7.97,0,0,1,1.372-1.839c.887-.9,1.647-1.378,3.09-.421a7.21,7.21,0,0,0,8.524-.23,1.433,1.433,0,0,1,2,.043,6.785,6.785,0,0,1,2.687,4.457" transform="translate(-152.555 -173.307)" fill="#03a4a4"/>
    <path id="Trazado_716072" data-name="Trazado 716072" d="M57.239,75.486c.877-.213,1.657-.424,2.446-.589,2.636-.55,5.276-1.082,8.126-1.665a45.523,45.523,0,0,1-.278,4.972A5.172,5.172,0,0,1,62.3,82.432a5.32,5.32,0,0,1-5.054-4.789c-.063-.67-.01-1.351-.01-2.158" transform="translate(-41.632 -53.285)" fill="#ffdbdb"/>
    <path id="Trazado_716073" data-name="Trazado 716073" d="M224.161,75.547l10.457-2.208a34.835,34.835,0,0,1-.045,4.986,5.138,5.138,0,0,1-5.127,4.189,5.268,5.268,0,0,1-5.026-4.175,25.809,25.809,0,0,1-.26-2.791" transform="translate(-163.102 -53.362)" fill="#ffdbdb"/>
    <path id="Trazado_716074" data-name="Trazado 716074" d="M267.826,59.949l-2.6-2.125c.464-5.278,1.932-10.5-1.947-15.263a2.683,2.683,0,0,1,4.821,1.5c.043,4.849.023,9.7.007,14.549a7.348,7.348,0,0,1-.281,1.336" transform="translate(-191.566 -30.169)" fill="#fff"/>
    <path id="Trazado_716075" data-name="Trazado 716075" d="M224.755,54.4c-.34-3.384,1.511-5.891,4.462-6.376a5.22,5.22,0,0,1,5.721,4.227L224.755,54.4" transform="translate(-163.505 -34.9)"/>
    <path id="Trazado_716076" data-name="Trazado 716076" d="M67.745,52.25,57.628,54.365a5.332,5.332,0,0,1,4.3-6.337,5.23,5.23,0,0,1,5.813,4.221" transform="translate(-41.876 -34.893)" fill="#8a3d02"/>
    <path id="Trazado_716077" data-name="Trazado 716077" d="M94.105,256.562c-.241-1.328-.48-2.507-.651-3.7a1.011,1.011,0,0,1,.3-.785,8.232,8.232,0,0,0,2.91-5.793l.352-.092a15.839,15.839,0,0,1,.951,2.936,33.244,33.244,0,0,1,.1,4.343,1.1,1.1,0,0,1-.346.805c-1.183.794-2.406,1.528-3.614,2.281" transform="translate(-67.994 -179.136)" fill="#03a4a4"/>
    <path id="Trazado_716078" data-name="Trazado 716078" d="M203.736,288.351c-2.454-1.561-4.932-3.087-7.334-4.724a1.519,1.519,0,0,1-.289-1.463,1.7,1.7,0,0,1,1.549-.436,41.379,41.379,0,0,1,5.817,3.667c.578.461.438,1.822.627,2.771l-.37.184" transform="translate(-142.629 -204.941)" fill="#8a3d02"/>
    <path id="Trazado_716079" data-name="Trazado 716079" d="M95.043,287.808c-.43-2.515-.43-2.514,1.509-3.725,1.417-.885,2.844-1.754,4.244-2.665.786-.512,1.576-.512,1.918.341a1.815,1.815,0,0,1-.578,1.628c-2.191,1.51-4.473,2.889-6.727,4.307a1.5,1.5,0,0,1-.367.113" transform="translate(-68.986 -204.509)" fill="#8a3d02"/>
    <path id="Trazado_716080" data-name="Trazado 716080" d="M21.8,145.423c-.488-4.475-.254-7.091,2.905-7.43,0,1.68.032,3.35-.028,5.018a1.475,1.475,0,0,1-.6.923c-.68.514-1.424.942-2.274,1.489" transform="translate(-15.719 -100.405)" fill="#8a3d02"/>
    <path id="Trazado_716081" data-name="Trazado 716081" d="M287.252,138.06c3.09.282,3.45,2.994,2.879,7.388-.862-.557-1.694-1.069-2.493-1.629a.94.94,0,0,1-.37-.641c-.03-1.7-.017-3.4-.017-5.117" transform="translate(-209.006 -100.454)" fill="#fff"/>
    <path id="Trazado_716082" data-name="Trazado 716082" d="M43.733,245.975l.446,2.6H42.26l1.186-2.73.286.132" transform="translate(-30.749 -178.878)" fill="#03a4a4"/>
    <path id="Trazado_716083" data-name="Trazado 716083" d="M123.287,62.568a24.99,24.99,0,0,0-1.7-3.085,6.743,6.743,0,0,1,6.937-10.734,3.171,3.171,0,0,1,1.238.927c.7.7,1.212,1.685,2.03,2.152,2.154,1.231,1.953,3.164,1.555,5a6.633,6.633,0,0,1-7.18,5.083,9.625,9.625,0,0,0-2.884.66M132,55.753q.033-.293.066-.587c-.464-.346-.929-.963-1.391-.96-.425,0-1.223.724-1.181,1.037a1.868,1.868,0,0,0,1.12,1.274c.355.105.916-.484,1.385-.764m-7.232-.438c-.81-.56-1.337-1.193-1.7-1.11-.5.114-.873.771-1.3,1.2.452.4.865,1.026,1.368,1.109.369.061.857-.6,1.633-1.195m3.493.312q-.018-.288-.037-.577c-.457-.308-.991-.933-1.353-.845-.492.119-.854.782-1.271,1.212.406.392.8,1.075,1.223,1.1.462.025.957-.565,1.438-.886" transform="translate(-87.404 -35.31)" fill="#fff0c0"/>
    <path id="Trazado_716084" data-name="Trazado 716084" d="M170.347,23.438c-1.9-.252-3.7-.384-5.453-.746a6.43,6.43,0,0,1-5.262-6.891,6.62,6.62,0,0,1,6.447-6.326c3.069-.267,5.96,2.059,6.769,5.336a5.916,5.916,0,0,1-1.253,5.468c-.864,1.027-1.517,2-1.248,3.158m-2.129-7.2c.662-.925,2.174-1.647,1.045-2.873-1.326-1.439-2.01.52-2.988.91-.915-.522-1.573-2.189-2.818-1.027-1.415,1.32.434,2.044.924,3.028-.6.866-2.156,1.58-1.094,2.8,1.33,1.528,2.082-.515,3.072-.874.93.545,1.576,2.22,2.826.989,1.293-1.273-.327-2-.969-2.953" transform="translate(-116.135 -6.879)" fill="#a03d3d"/>
    <path id="Trazado_716085" data-name="Trazado 716085" d="M160.626,185.8c-1.555-.179-3.023-.4-4.5-.507a6.7,6.7,0,1,1,6.843-8.972,6.427,6.427,0,0,1-.971,6.4c-1.233,1.631-1.264,1.607-1.371,3.078m-1.538-7.374q.012.287.024.575c.444.321.965.967,1.314.885a1.859,1.859,0,0,0,1.208-1.206c.056-.342-.68-1.113-1.11-1.151-.449-.04-.955.571-1.436.9m-6.539,1.735.571-.016c.33-.455.98-.966.912-1.349-.09-.5-.747-.9-1.16-1.35-.4.4-1.093.775-1.132,1.208-.044.473.514,1,.81,1.507m5.564-1.052q.018-.29.036-.58c-.485-.36-.959-.98-1.457-1-.389-.016-1.1.69-1.131,1.116a1.58,1.58,0,0,0,.992,1.227c.484.057,1.037-.482,1.56-.764" transform="translate(-109.156 -125.087)" fill="#ffe8ce"/>
    <path id="Trazado_716086" data-name="Trazado 716086" d="M157.037,70.921c-.469.28-1.03.869-1.385.764a1.868,1.868,0,0,1-1.12-1.273c-.043-.313.755-1.034,1.18-1.037.461,0,.927.614,1.391.96q-.033.293-.066.587" transform="translate(-112.439 -50.477)" fill="#161615"/>
    <path id="Trazado_716087" data-name="Trazado 716087" d="M129.165,70.46c-.775.6-1.263,1.256-1.633,1.195-.5-.083-.917-.714-1.368-1.109.428-.424.8-1.082,1.3-1.2.363-.083.891.55,1.7,1.11" transform="translate(-91.798 -50.454)" fill="#161615"/>
    <path id="Trazado_716088" data-name="Trazado 716088" d="M142.895,70.769c-.481.322-.976.911-1.438.886-.426-.023-.817-.705-1.223-1.1.418-.43.779-1.093,1.271-1.212.362-.087.9.538,1.353.845q.018.289.037.577" transform="translate(-102.035 -50.451)" fill="#161615"/>
    <path id="Trazado_716089" data-name="Trazado 716089" d="M177.075,25.306c.641.949,2.262,1.68.969,2.953-1.251,1.231-1.9-.444-2.826-.989-.99.359-1.742,2.4-3.072.874-1.063-1.22.5-1.934,1.094-2.8-.491-.984-2.339-1.708-.924-3.028,1.245-1.161,1.9.505,2.818,1.027.977-.39,1.662-2.349,2.988-.91,1.129,1.226-.384,1.948-1.045,2.873" transform="translate(-124.992 -15.944)" fill="#161615"/>
    <path id="Trazado_716090" data-name="Trazado 716090" d="M183.308,193.44c.481-.326.987-.936,1.436-.9.43.038,1.166.809,1.11,1.151a1.859,1.859,0,0,1-1.208,1.206c-.349.082-.87-.564-1.314-.885q-.012-.288-.024-.575" transform="translate(-133.377 -140.095)" fill="#161615"/>
    <path id="Trazado_716091" data-name="Trazado 716091" d="M157.13,194.959c-.3-.5-.854-1.033-.81-1.507.04-.434.729-.808,1.133-1.208.413.445,1.069.846,1.16,1.349.069.383-.582.9-.912,1.35l-.57.016" transform="translate(-113.738 -139.879)" fill="#161615"/>
    <path id="Trazado_716092" data-name="Trazado 716092" d="M172.908,194.128c-.523.281-1.076.82-1.56.764a1.58,1.58,0,0,1-.992-1.227c.032-.425.741-1.131,1.131-1.116.5.02.972.639,1.457,1q-.018.29-.036.58" transform="translate(-123.952 -140.1)" fill="#161615"/>
  </g>
</svg>
