<svg xmlns="http://www.w3.org/2000/svg" xmlns:xlink="http://www.w3.org/1999/xlink" width="83.148" height="83.149" viewBox="0 0 83.148 83.149">
  <defs>
    <clipPath id="clip-path">
      <rect id="Rectángulo_353491" data-name="Rectángulo 353491" width="73.597" height="73.535" fill="none"/>
    </clipPath>
  </defs>
  <g id="Grupo_1003691" data-name="Grupo 1003691" transform="translate(-810 -3069.799)">
    <path id="Trazado_715531" data-name="Trazado 715531" d="M83.148,66.463A41.574,41.574,0,1,1,41.574,24.889,41.574,41.574,0,0,1,83.148,66.463" transform="translate(810 3044.91)" fill="#ffc403"/>
    <g id="Grupo_1003506" data-name="Grupo 1003506" transform="translate(814.966 3074.795)">
      <g id="Grupo_1003505" data-name="Grupo 1003505" clip-path="url(#clip-path)">
        <path id="Trazado_715546" data-name="Trazado 715546" d="M8.308,0H50.94c.043.116.131.227.112.317-.408,2.006.673,2.79,2.364,3.667,11.06,5.737,17.741,14.8,19.718,27.127A36.759,36.759,0,0,1,1.067,45.335C-1.591,33.978.751,23.571,7.722,14.2a3,3,0,0,0,.561-1.65C8.329,8.415,8.308,4.278,8.308,0M36.8,54.608h7.169v4.556h2.342V48.7a5.96,5.96,0,0,1,1.089-.054c1.06.15,1.395-.267,1.343-1.329-.086-1.758-.071-3.526,0-5.285.033-.856-.271-1.159-1.084-1.373a22.487,22.487,0,0,1-13.066-9.328,1.183,1.183,0,0,1,0-1.075,22.514,22.514,0,0,1,13.169-9.37c.742-.2.975-.478.971-1.224q-.041-8.1,0-16.207c.006-.874-.2-1.189-1.143-1.187q-17.879.047-35.758,0c-.985,0-1.2.321-1.2,1.246q.036,27.241,0,54.483c0,1,.25,1.3,1.279,1.291,7.933-.044,15.866-.024,23.8-.024H36.8ZM63.014,43.877V58.72c5.27-4.45,9.861-19.5,7.836-25.446a22.955,22.955,0,0,1-19.7,8.133v7.11l2.327.158V66.616c2.175-.784,2.3-.959,2.3-2.959V43.877Zm6.6-17.15c-2.158-8.978-10.337-18.005-18.459-21.1V20.04c9.341.251,11.9,1.445,18.459,6.687M13.545,61.708a32.885,32.885,0,0,0,23.19,9.372V61.708ZM8.228,55.614V17.892C.72,28.105.341,44.67,8.228,55.614m53.5-24.856a8.314,8.314,0,0,0-8.348-8.3,8.315,8.315,0,0,0,.051,16.63,8.262,8.262,0,0,0,8.3-8.331M51.014,51.11H48.876V68.684c2.011-.332,2.137-.474,2.137-2.35q0-4.19,0-8.379ZM44.637,24.583A20.918,20.918,0,0,0,37.6,30.2c-.421.515-.26.852.1,1.288a20.1,20.1,0,0,0,5.651,4.818c.329.188.672.352,1.287.673a11.085,11.085,0,0,1,0-12.4m17.872.259a11.3,11.3,0,0,1-.031,11.924,18.352,18.352,0,0,0,7.192-5.987,18.34,18.34,0,0,0-7.161-5.937m-4.2,38.488c1.407-.887,2.283-1.751,2.188-3.519-.172-3.2-.049-6.424-.049-9.638V46.332H58.308ZM39.4,70.938c.879-.178,2.02.359,2.037-1.008.05-4.059.03-8.119-.017-12.178,0-.252-.428-.615-.729-.719A4.339,4.339,0,0,0,39.4,57Zm4.6-.606a9.049,9.049,0,0,0,1.473-.348c.294-.125.727-.424.732-.653.053-2.514.033-5.029.033-7.6H44Z" transform="translate(0 -0.001)" fill="#161615"/>
        <path id="Trazado_715547" data-name="Trazado 715547" d="M72.428,62.187v4.652h-1.09c-7.933,0-15.867-.02-23.8.024-1.029.006-1.281-.293-1.279-1.291q.042-27.241,0-54.483c0-.925.217-1.249,1.2-1.246q17.879.049,35.758,0c.944,0,1.149.312,1.143,1.187q-.051,8.1,0,16.207c0,.746-.229,1.029-.971,1.224a22.516,22.516,0,0,0-13.169,9.37,1.184,1.184,0,0,0,0,1.075,22.488,22.488,0,0,0,13.066,9.328c.813.214,1.118.516,1.084,1.373-.068,1.76-.083,3.527,0,5.285.052,1.063-.282,1.48-1.343,1.329a5.919,5.919,0,0,0-1.089.054V66.744H79.6V62.187Zm2.354-9.551A11.848,11.848,0,1,0,62.944,64.47,11.836,11.836,0,0,0,74.782,52.637M65.252,12.39H48.821V24.044H65.252Zm.022,18.917H48.816v2.238H65.274Zm2.435-14.455h14.1V14.745h-14.1Zm.015,4.833H81.791V19.513H67.724ZM48.8,28.8H60.447V26.6H48.8Zm-.023,9.466H60.43V36.127H48.777Zm14.3-9.48H65.22V26.6H63.072Zm2.159,7.337H63.061v2.158h2.171Z" transform="translate(-35.626 -7.58)" fill="#ffdbdb"/>
        <path id="Trazado_715548" data-name="Trazado 715548" d="M234.389,155.355h-7.233v19.781c0,2-.129,2.174-2.3,2.959V160.154L222.524,160v-7.111a22.955,22.955,0,0,0,19.7-8.133c2.025,5.95-2.565,21-7.836,25.446Z" transform="translate(-171.375 -111.479)" fill="#8a3d02"/>
        <path id="Trazado_715549" data-name="Trazado 715549" d="M241.012,45.581c-6.556-5.241-9.117-6.435-18.459-6.687V24.483c8.122,3.092,16.3,12.119,18.459,21.1" transform="translate(-171.397 -18.855)" fill="#8a3d02"/>
        <path id="Trazado_715550" data-name="Trazado 715550" d="M58.926,268.455h23.19v9.372a32.885,32.885,0,0,1-23.19-9.372" transform="translate(-45.381 -206.748)" fill="#8a3d02"/>
        <path id="Trazado_715551" data-name="Trazado 715551" d="M16.451,115.556c-7.888-10.945-7.508-27.509,0-37.723Z" transform="translate(-8.222 -59.942)" fill="#8a3d02"/>
        <path id="Trazado_715552" data-name="Trazado 715552" d="M212.807,106a8.261,8.261,0,0,1-8.3,8.331,8.315,8.315,0,1,1,8.3-8.331m-2.387.055a5.907,5.907,0,0,0-5.881-5.946,5.922,5.922,0,1,0,5.881,5.946" transform="translate(-151.082 -75.245)" fill="#abffff"/>
        <path id="Trazado_715553" data-name="Trazado 715553" d="M214.772,222.35v15.224c0,1.876-.126,2.018-2.138,2.35V222.35Z" transform="translate(-163.758 -171.241)" fill="#03a4a4"/>
        <path id="Trazado_715554" data-name="Trazado 715554" d="M169.787,106.942a11.085,11.085,0,0,0,0,12.4c-.616-.321-.958-.485-1.287-.673a20.1,20.1,0,0,1-5.651-4.818c-.356-.437-.517-.773-.1-1.288a20.922,20.922,0,0,1,7.033-5.617" transform="translate(-125.151 -82.36)" fill="#06d1d1"/>
        <path id="Trazado_715555" data-name="Trazado 715555" d="M271.838,108.07A18.342,18.342,0,0,1,279,114.007a18.355,18.355,0,0,1-7.192,5.987,11.3,11.3,0,0,0,.031-11.924" transform="translate(-209.33 -83.229)" fill="#06d1d1"/>
        <path id="Trazado_715556" data-name="Trazado 715556" d="M253.67,218.563v-17h2.139v3.841c0,3.213-.123,6.434.049,9.638.095,1.768-.781,2.631-2.188,3.519" transform="translate(-195.362 -155.234)" fill="#b20d0d"/>
        <path id="Trazado_715557" data-name="Trazado 715557" d="M171.419,261.805V247.871a4.339,4.339,0,0,1,1.291.03c.3.1.726.466.729.719.046,4.059.066,8.119.017,12.178-.017,1.367-1.158.83-2.037,1.008" transform="translate(-132.017 -190.868)" fill="#ffc403"/>
        <path id="Trazado_715558" data-name="Trazado 715558" d="M191.42,277.163v-8.6h2.238c0,2.569.02,5.084-.033,7.6,0,.229-.437.528-.732.653a9.048,9.048,0,0,1-1.473.348" transform="translate(-147.42 -206.831)" fill="#8a3d02"/>
        <path id="Trazado_715559" data-name="Trazado 715559" d="M90.956,156.2a11.848,11.848,0,1,1-11.782-11.884A11.856,11.856,0,0,1,90.956,156.2m-10.5-9.191v18.465a9.35,9.35,0,0,0,8.082-10c-.375-4.552-4.3-8.613-8.082-8.47M69.81,157.326c.4,4.763,4.886,8.139,8.043,8.09v-8.041c-.419-.019-.757-.046-1.1-.047-2.292,0-4.584,0-6.948,0M77.8,147.071c-3.686-.066-7.879,4.141-7.829,7.826,2.4,0,4.806.016,7.21-.028a.873.873,0,0,0,.592-.614c.043-2.365.027-4.73.027-7.184" transform="translate(-51.801 -111.141)" fill="#161615"/>
        <path id="Trazado_715560" data-name="Trazado 715560" d="M73.836,32.577H57.405V20.922H73.836Zm-14.02-2.4H71.4V23.323H59.816Z" transform="translate(-44.21 -16.113)" fill="#161615"/>
        <rect id="Rectángulo_353483" data-name="Rectángulo 353483" width="16.458" height="2.238" transform="translate(13.19 23.727)" fill="#161615"/>
        <rect id="Rectángulo_353484" data-name="Rectángulo 353484" width="14.097" height="2.106" transform="translate(32.083 7.165)" fill="#161615"/>
        <rect id="Rectángulo_353485" data-name="Rectángulo 353485" width="14.067" height="2.172" transform="translate(32.098 11.932)" fill="#161615"/>
        <rect id="Rectángulo_353486" data-name="Rectángulo 353486" width="11.647" height="2.193" transform="translate(13.174 19.022)" fill="#161615"/>
        <rect id="Rectángulo_353487" data-name="Rectángulo 353487" width="11.654" height="2.134" transform="translate(13.151 28.547)" fill="#161615"/>
        <rect id="Rectángulo_353488" data-name="Rectángulo 353488" width="2.147" height="2.185" transform="translate(27.447 19.016)" fill="#161615"/>
        <rect id="Rectángulo_353489" data-name="Rectángulo 353489" width="2.171" height="2.158" transform="translate(27.435 28.538)" fill="#161615"/>
        <path id="Trazado_715561" data-name="Trazado 715561" d="M218.5,114.126a5.917,5.917,0,1,1-5.881-5.946,5.921,5.921,0,0,1,5.881,5.946m-5.847-3.5a3.475,3.475,0,1,0-.114,6.95,3.476,3.476,0,1,0,.114-6.95" transform="translate(-159.162 -83.314)" fill="#161615"/>
        <path id="Trazado_715562" data-name="Trazado 715562" d="M124.663,156.019c3.785-.143,7.706,3.918,8.082,8.47a9.35,9.35,0,0,1-8.082,10Z" transform="translate(-96.008 -120.154)" fill="#ffc403"/>
        <path id="Trazado_715563" data-name="Trazado 715563" d="M78.349,200.922c2.363,0,4.656,0,6.948,0,.338,0,.676.028,1.1.047v8.041c-3.157.049-7.647-3.327-8.043-8.09" transform="translate(-60.34 -154.738)" fill="#03a4a4"/>
        <path id="Trazado_715564" data-name="Trazado 715564" d="M86.9,156.308c0,2.454.016,4.82-.027,7.184a.873.873,0,0,1-.592.614c-2.4.044-4.808.028-7.21.028-.051-3.686,4.142-7.892,7.829-7.826" transform="translate(-60.894 -120.379)" fill="#b20d0d"/>
        <rect id="Rectángulo_353490" data-name="Rectángulo 353490" width="11.585" height="6.856" transform="translate(15.606 7.21)" fill="#b20d0d"/>
        <path id="Trazado_715565" data-name="Trazado 715565" d="M220.842,118.84a3.476,3.476,0,1,1-.114,6.95,3.475,3.475,0,1,1,.114-6.95" transform="translate(-167.352 -91.524)" fill="#ffdbdb"/>
      </g>
    </g>
  </g>
</svg>
