<svg xmlns="http://www.w3.org/2000/svg" xmlns:xlink="http://www.w3.org/1999/xlink" width="85.869" height="83.869" viewBox="0 0 85.869 83.869">
  <defs>
    <clipPath id="clip-path">
      <rect id="Rectángulo_353615" data-name="Rectángulo 353615" width="70.524" height="63.446" fill="none"/>
    </clipPath>
  </defs>
  <g id="Grupo_1003695" data-name="Grupo 1003695" transform="translate(-285 -6646.87)">
    <path id="Trazado_715529" data-name="Trazado 715529" d="M83.869,66.824A41.934,41.934,0,1,1,41.934,24.889,41.935,41.935,0,0,1,83.869,66.824" transform="translate(285 6621.98)" fill="#ffc403"/>
    <g id="Grupo_1003575" data-name="Grupo 1003575" transform="translate(300.344 6655.639)">
      <g id="Grupo_1003574" data-name="Grupo 1003574" clip-path="url(#clip-path)">
        <path id="Trazado_715804" data-name="Trazado 715804" d="M49.576,34.577c.381-.345.595-.523.791-.72,2.389-2.387,4.791-4.762,7.145-7.182a2.081,2.081,0,0,0,.458-1.27,1.553,1.553,0,0,1,1.546-1.521,2.254,2.254,0,0,0,1.286-.5c1.034-.934,1.977-1.967,2.983-2.933a2.813,2.813,0,0,1,4.126-.01q.885.825,1.712,1.713a2.815,2.815,0,0,1,0,4.128c-.954,1.016-2,1.952-2.93,2.985a2.358,2.358,0,0,0-.538,1.294c-.089.987-.511,1.4-1.537,1.461a1.853,1.853,0,0,0-1.124.429q-6.726,6.667-13.385,13.4A2.093,2.093,0,0,0,49.6,47.19c-.038,4.332-.02,8.665-.024,13,0,2.148-1.1,3.254-3.247,3.255q-21.533.007-43.067,0C1.1,63.442,0,62.341,0,60.2Q0,31.728,0,3.255C0,1.108,1.1,0,3.248,0Q24.782,0,46.315,0c2.157,0,3.258,1.1,3.259,3.241q0,14.98,0,29.96ZM2.836,60.533H46.724V49.115c-1.216,1.25-2.207,2.312-3.25,3.321a4.884,4.884,0,0,1-1.42.993c-1.883.8-3.776,1.6-5.711,2.263a2.036,2.036,0,0,1-1.762-.223,2.079,2.079,0,0,1-.188-1.771c.613-1.8,1.344-3.56,2.11-5.3a6.471,6.471,0,0,1,1.245-1.891q4.08-4.173,8.251-8.257a2.448,2.448,0,0,0,.823-1.914Q46.782,20.2,46.8,4.063c0-.384-.039-.768-.059-1.124H2.836Zm35.283-8.7.277.359a22.579,22.579,0,0,0,3.86-2.5c6.362-6.236,12.627-12.571,18.924-18.874.278-.279.544-.569.681-.712l-1.777-2.181c-.372.425-.6.715-.856.973-6.167,6.172-12.3,12.375-18.535,18.482a10.886,10.886,0,0,0-2.575,4.458M65.988,22.437l-3.612,3.51,1.538,1.7,3.706-3.564-1.632-1.645" transform="translate(0 0)" fill="#161615"/>
        <path id="Trazado_715805" data-name="Trazado 715805" d="M12.872,70.934V13.34H56.778c.02.356.059.74.059,1.124q0,16.137.021,32.273a2.448,2.448,0,0,1-.822,1.914q-4.163,4.091-8.251,8.257A6.468,6.468,0,0,0,46.539,58.8c-.766,1.74-1.5,3.5-2.11,5.3a2.078,2.078,0,0,0,.188,1.771,2.036,2.036,0,0,0,1.762.223c1.934-.666,3.828-1.459,5.711-2.263a4.875,4.875,0,0,0,1.42-.993c1.043-1.008,2.034-2.07,3.25-3.321V70.934Zm14.381-7.357c-2.823,0-5.646-.007-8.469,0-1.173,0-1.892.544-1.9,1.38s.738,1.393,1.884,1.4c2.237.008,4.473,0,6.709,0,3.447,0,6.893.008,10.339,0,1.291,0,2.037-.818,1.683-1.806a1.531,1.531,0,0,0-1.668-.975c-2.86.008-5.72,0-8.58,0m.089-45.688c-2.86,0-5.72,0-8.58,0-1.142,0-1.89.574-1.878,1.4s.729,1.373,1.9,1.374q8.47.011,16.939,0c1.2,0,1.855-.521,1.844-1.405s-.649-1.369-1.871-1.372c-2.786-.006-5.573,0-8.359,0m-.127,25.569q4.289,0,8.578,0c1.178,0,1.759-.434,1.778-1.3s-.58-1.361-1.719-1.361q-8.633-.005-17.266,0c-1.037,0-1.677.5-1.7,1.3-.022.831.645,1.361,1.749,1.363q4.289.008,8.578,0m.01,11.444c2.9,0,5.792.007,8.688,0,1.072,0,1.645-.483,1.659-1.332S37,52.2,35.953,52.2c-5.792-.011-11.583,0-17.375-.015-.963,0-1.571.385-1.675,1.337-.089.807.667,1.371,1.746,1.374,2.859.007,5.718,0,8.577,0M46.958,46c-.664-.726-1.187-1.339-1.755-1.907a1.292,1.292,0,0,0-1.954-.1,1.323,1.323,0,0,0,.027,2.039q1.33,1.386,2.717,2.718a1.3,1.3,0,0,0,1.959.069q2.908-2.834,5.741-5.744a1.252,1.252,0,0,0-.044-1.944,1.331,1.331,0,0,0-1.886.012,9.221,9.221,0,0,0-.787.763c-1.281,1.3-2.559,2.607-4.016,4.093m.033-11.423c-.713-.765-1.24-1.376-1.815-1.936a1.277,1.277,0,0,0-1.95-.056,1.312,1.312,0,0,0-.009,1.963c.889.971,1.827,1.9,2.789,2.8a1.32,1.32,0,0,0,1.972.022q2.9-2.842,5.74-5.749a1.239,1.239,0,0,0-.018-1.868,1.283,1.283,0,0,0-1.875-.071,10.277,10.277,0,0,0-.873.834c-1.276,1.3-2.548,2.612-3.961,4.062M46.979,23.2c-.656-.734-1.167-1.351-1.727-1.919a1.293,1.293,0,0,0-2.026-.114,1.355,1.355,0,0,0,.058,2.05c.861.9,1.744,1.777,2.639,2.642a1.361,1.361,0,0,0,2.057.088Q50.9,23.114,53.726,20.2a1.242,1.242,0,0,0-.036-1.871,1.26,1.26,0,0,0-1.868-.06c-.28.235-.538.5-.793.759-1.3,1.332-2.592,2.669-4.05,4.171M30.307,32.049c1.871,0,3.741.011,5.612,0,1.065-.009,1.647-.5,1.654-1.334s-.583-1.359-1.628-1.362q-5.612-.014-11.224,0c-.977,0-1.708.618-1.613,1.394a1.387,1.387,0,0,0,1.588,1.311c1.87-.022,3.741-.007,5.612,0M22.771,23.6c-1.431,0-2.863.009-4.294,0a1.378,1.378,0,0,0-1.558,1.352,1.294,1.294,0,0,0,1.383,1.4c2.972.039,5.944.046,8.915,0a1.26,1.26,0,0,0,1.357-1.5c-.085-.894-.666-1.245-1.51-1.246q-2.147,0-4.294,0m.063,37.038c1.358,0,2.716-.009,4.074,0,.919.008,1.6-.285,1.669-1.314.063-.893-.454-1.446-1.531-1.462-2.862-.042-5.725-.029-8.587,0a1.429,1.429,0,0,0-1.56,1.382c-.068.77.678,1.38,1.641,1.39,1.431.016,2.863,0,4.294,0m-.07-25.6c-1.43,0-2.861.009-4.292,0a1.351,1.351,0,0,0-1.551,1.345,1.323,1.323,0,0,0,1.5,1.4c2.9.006,5.8.013,8.693,0,.888-.006,1.492-.418,1.464-1.393-.028-.958-.62-1.338-1.52-1.339H22.764m-.051,14.166c1.43,0,2.861.014,4.291,0,1.049-.013,1.6-.515,1.576-1.395-.029-.984-.653-1.335-1.528-1.339-2.861-.011-5.722,0-8.583,0A1.4,1.4,0,0,0,16.9,47.815c-.083.784.636,1.373,1.629,1.387,1.394.019,2.788,0,4.181.005M18.285,32.032a1.392,1.392,0,0,0,1.426-1.344,1.412,1.412,0,0,0-1.45-1.337,1.341,1.341,0,1,0,.024,2.681" transform="translate(-10.036 -10.401)" fill="#ffdbdb"/>
        <path id="Trazado_715806" data-name="Trazado 715806" d="M173.01,150.626a10.885,10.885,0,0,1,2.575-4.458c6.231-6.107,12.368-12.31,18.535-18.482.258-.258.484-.548.855-.973l1.777,2.181c-.136.143-.4.433-.68.712-6.3,6.3-12.562,12.637-18.924,18.874a22.591,22.591,0,0,1-3.86,2.5l-.277-.359" transform="translate(-134.891 -98.794)" fill="#06d1d1"/>
        <path id="Trazado_715807" data-name="Trazado 715807" d="M286.713,101.836l1.632,1.645-3.706,3.564-1.538-1.7,3.612-3.511" transform="translate(-220.726 -79.399)" fill="#b20d0d"/>
        <path id="Trazado_715808" data-name="Trazado 715808" d="M41.453,241.336c2.86,0,5.72,0,8.579,0a1.531,1.531,0,0,1,1.669.975c.354.988-.392,1.8-1.683,1.806-3.446.012-6.893,0-10.339,0-2.237,0-4.473.005-6.709,0-1.146,0-1.891-.567-1.884-1.4s.726-1.376,1.9-1.38c2.823-.01,5.646,0,8.469,0" transform="translate(-24.236 -188.16)" fill="#161615"/>
        <path id="Trazado_715809" data-name="Trazado 715809" d="M41.541,33.98c2.786,0,5.573,0,8.36,0,1.222,0,1.86.481,1.871,1.372s-.642,1.4-1.844,1.405q-8.47.012-16.939,0c-1.176,0-1.892-.538-1.9-1.374s.736-1.4,1.878-1.4c2.86-.007,5.72,0,8.579,0" transform="translate(-24.235 -26.492)" fill="#161615"/>
        <path id="Trazado_715810" data-name="Trazado 715810" d="M41.425,140.589q-4.289,0-8.578,0c-1.1,0-1.772-.532-1.749-1.363.022-.8.661-1.3,1.7-1.3q8.633-.007,17.266,0c1.139,0,1.739.486,1.719,1.362s-.6,1.3-1.778,1.3q-4.289.006-8.578,0" transform="translate(-24.246 -107.531)" fill="#161615"/>
        <path id="Trazado_715811" data-name="Trazado 715811" d="M41.462,192.375c-2.859,0-5.718,0-8.578,0-1.079,0-1.835-.567-1.746-1.374.1-.952.712-1.34,1.675-1.337,5.792.018,11.583,0,17.375.015,1.047,0,1.633.527,1.619,1.364s-.587,1.328-1.659,1.332c-2.9.01-5.792,0-8.688,0" transform="translate(-24.273 -147.873)" fill="#161615"/>
        <path id="Trazado_715812" data-name="Trazado 715812" d="M152.8,142.984c1.457-1.486,2.736-2.791,4.016-4.093a9.219,9.219,0,0,1,.787-.763,1.33,1.33,0,0,1,1.886-.012,1.252,1.252,0,0,1,.044,1.944q-2.838,2.9-5.741,5.744a1.3,1.3,0,0,1-1.959-.069q-1.383-1.334-2.717-2.718a1.323,1.323,0,0,1-.027-2.039,1.292,1.292,0,0,1,1.953.1c.568.568,1.091,1.181,1.755,1.907" transform="translate(-115.876 -107.383)" fill="#161615"/>
        <path id="Trazado_715813" data-name="Trazado 715813" d="M152.824,91.1c1.413-1.449,2.684-2.758,3.961-4.062a10.178,10.178,0,0,1,.873-.834,1.283,1.283,0,0,1,1.874.071,1.239,1.239,0,0,1,.018,1.868q-2.838,2.905-5.74,5.749a1.32,1.32,0,0,1-1.971-.022c-.962-.9-1.9-1.829-2.789-2.8a1.312,1.312,0,0,1,.009-1.963,1.277,1.277,0,0,1,1.951.056c.575.561,1.1,1.171,1.815,1.936" transform="translate(-115.869 -66.923)" fill="#161615"/>
        <path id="Trazado_715814" data-name="Trazado 715814" d="M152.829,39.264c1.458-1.5,2.752-2.839,4.05-4.171.255-.262.513-.524.793-.759a1.26,1.26,0,0,1,1.868.06,1.242,1.242,0,0,1,.036,1.871q-2.836,2.91-5.747,5.747a1.361,1.361,0,0,1-2.057-.089c-.895-.865-1.777-1.744-2.639-2.642a1.355,1.355,0,0,1-.057-2.05,1.293,1.293,0,0,1,2.026.114c.56.568,1.071,1.185,1.727,1.919" transform="translate(-115.885 -26.469)" fill="#161615"/>
        <path id="Trazado_715815" data-name="Trazado 715815" d="M66.493,88.672c-1.871,0-3.742-.017-5.612.006a1.388,1.388,0,0,1-1.588-1.311c-.094-.776.637-1.391,1.614-1.394q5.612-.015,11.224,0c1.046,0,1.636.518,1.628,1.362s-.589,1.325-1.654,1.334c-1.871.016-3.741,0-5.612,0" transform="translate(-46.223 -67.025)" fill="#161615"/>
        <path id="Trazado_715816" data-name="Trazado 715816" d="M37.084,59.918q2.147,0,4.294,0c.844,0,1.425.353,1.51,1.246a1.261,1.261,0,0,1-1.357,1.5c-2.971.046-5.944.04-8.915,0a1.294,1.294,0,0,1-1.383-1.4,1.378,1.378,0,0,1,1.558-1.352c1.431.012,2.863,0,4.294,0" transform="translate(-24.349 -46.714)" fill="#161615"/>
        <path id="Trazado_715817" data-name="Trazado 715817" d="M37.069,218.122c-1.431,0-2.863.011-4.294,0-.963-.01-1.709-.621-1.641-1.39a1.43,1.43,0,0,1,1.56-1.383c2.863-.025,5.725-.038,8.588,0,1.077.016,1.594.57,1.53,1.462-.073,1.029-.75,1.322-1.669,1.314-1.358-.011-2.716,0-4.074,0" transform="translate(-24.271 -167.88)" fill="#161615"/>
        <path id="Trazado_715818" data-name="Trazado 715818" d="M37.091,111.823h4.292c.9,0,1.492.381,1.519,1.339.028.976-.576,1.388-1.464,1.393-2.9.018-5.8.011-8.693,0a1.324,1.324,0,0,1-1.5-1.4A1.351,1.351,0,0,1,32.8,111.82c1.43.012,2.861,0,4.292,0" transform="translate(-24.363 -87.182)" fill="#161615"/>
        <path id="Trazado_715819" data-name="Trazado 715819" d="M36.954,166.418c-1.394,0-2.788.014-4.181,0-.993-.013-1.712-.6-1.629-1.387a1.4,1.4,0,0,1,1.566-1.351c2.861,0,5.722-.007,8.583,0,.875,0,1.5.355,1.528,1.339.026.88-.526,1.382-1.576,1.4-1.43.019-2.861,0-4.292,0" transform="translate(-24.277 -127.612)" fill="#161615"/>
        <path id="Trazado_715820" data-name="Trazado 715820" d="M32.52,88.684A1.341,1.341,0,1,1,32.5,86a1.412,1.412,0,0,1,1.45,1.337,1.392,1.392,0,0,1-1.426,1.344" transform="translate(-24.271 -67.053)" fill="#161615"/>
      </g>
    </g>
  </g>
</svg>
