<svg xmlns="http://www.w3.org/2000/svg" xmlns:xlink="http://www.w3.org/1999/xlink" width="83.148" height="83.149" viewBox="0 0 83.148 83.149">
  <defs>
    <clipPath id="clip-path">
      <rect id="Rectángulo_353493" data-name="Rectángulo 353493" width="80.993" height="81.091" fill="none"/>
    </clipPath>
  </defs>
  <g id="Grupo_1003693" data-name="Grupo 1003693" transform="translate(-810 -3270.074)">
    <path id="Trazado_715532" data-name="Trazado 715532" d="M83.148,66.463A41.574,41.574,0,1,1,41.574,24.889,41.574,41.574,0,0,1,83.148,66.463" transform="translate(810 3245.186)" fill="#ffc403"/>
    <g id="Grupo_1003510" data-name="Grupo 1003510" transform="translate(811 3271.131)">
      <g id="Grupo_1003509" data-name="Grupo 1003509" clip-path="url(#clip-path)">
        <path id="Trazado_715581" data-name="Trazado 715581" d="M80.97,40.619a3.8,3.8,0,0,1-.372,2.216c-1.027,1.7-.886,3.52-.9,5.355a6.285,6.285,0,0,1-4.172,5.887,9.664,9.664,0,0,1-3.866.344,1.733,1.733,0,0,0-1.919,1.12,31.96,31.96,0,0,1-14.3,14.26,1.59,1.59,0,0,0-1.034,1.719,12.064,12.064,0,0,1-.172,3.389A6.253,6.253,0,0,1,48.448,79.7a13.763,13.763,0,0,0-5.736.92,6.144,6.144,0,0,1-5.483-.405,3.938,3.938,0,0,0-2.274-.494c-5.82.531-8.869-2.792-8.322-8.244a1.44,1.44,0,0,0-.945-1.644A31.926,31.926,0,0,1,11.239,55.39,1.473,1.473,0,0,0,9.6,54.419a13.07,13.07,0,0,1-2.9-.058,6.228,6.228,0,0,1-5.343-6.344A11.7,11.7,0,0,0,.512,42.9a6.45,6.45,0,0,1,.362-5.721,4.607,4.607,0,0,0,.489-2.151,15.775,15.775,0,0,1,.139-3.4A5.984,5.984,0,0,1,7.628,26.7c2.325.155,3.467-.637,4.579-2.691A30.459,30.459,0,0,1,25.614,11.272a1.548,1.548,0,0,0,1.03-1.719,13.178,13.178,0,0,1,.047-2.773A6.248,6.248,0,0,1,32.98,1.369,11.919,11.919,0,0,0,38.218.5a6.394,6.394,0,0,1,5.718.4,3.542,3.542,0,0,0,2.03.452C52.119.8,55,4.312,54.418,9.722c-.086.81.27,1.171.95,1.515A32,32,0,0,1,69.815,25.681a1.436,1.436,0,0,0,1.632.965c5.488-.558,8.792,2.536,8.262,8.3a3.688,3.688,0,0,0,.489,2.275,6.53,6.53,0,0,1,.773,3.394" transform="translate(0 0)" fill="#040506"/>
        <path id="Trazado_715582" data-name="Trazado 715582" d="M149.443,15.66a31.577,31.577,0,0,0-8.1.018c-.994.14-1.119-.242-.926-1.108a5.039,5.039,0,0,1,9.934.032c.194.9.025,1.312-.906,1.057" transform="translate(-104.851 -7.769)" fill="#ffb200"/>
        <path id="Trazado_715583" data-name="Trazado 715583" d="M141.157,289.253a31.787,31.787,0,0,0,8.3-.011c.863-.119,1,.214.86.968a5.048,5.048,0,0,1-9.988.015c-.167-.942-.108-1.011.832-.972" transform="translate(-104.786 -216.083)" fill="#ffb200"/>
        <path id="Trazado_715584" data-name="Trazado 715584" d="M294.5,145.352a5.151,5.151,0,0,1-4.519,5.074c-.591.067-.861-.056-.774-.717a33.673,33.673,0,0,0,0-8.673c-.093-.726.294-.729.818-.665a5.134,5.134,0,0,1,4.478,4.98" transform="translate(-216.059 -104.857)" fill="#ffb200"/>
        <path id="Trazado_715585" data-name="Trazado 715585" d="M10.356,145.339a5.164,5.164,0,0,1,4.486-4.98c.7-.09.889.141.8.808a32.409,32.409,0,0,0,0,8.422c.082.626-.033.928-.776.837a5.171,5.171,0,0,1-4.51-5.087" transform="translate(-7.737 -104.852)" fill="#ffb200"/>
        <path id="Trazado_715586" data-name="Trazado 715586" d="M119.945,15.456a7.972,7.972,0,0,0,0,7.471,3.9,3.9,0,0,1-4.071-1.662,3.514,3.514,0,0,1-.08-4.021,3.888,3.888,0,0,1,4.149-1.787" transform="translate(-86.071 -11.512)" fill="#03a4a4"/>
        <path id="Trazado_715587" data-name="Trazado 715587" d="M15.547,120.059c-.2-2.8,1.33-4.709,3.712-4.719s3.918,1.883,3.745,4.721a7.91,7.91,0,0,0-7.457,0" transform="translate(-11.602 -86.174)" fill="#03a4a4"/>
        <path id="Trazado_715588" data-name="Trazado 715588" d="M282.933,120.054a7.949,7.949,0,0,0-7.432-.03c-.311-2.608,1.165-4.56,3.5-4.692,2.4-.136,4.056,1.78,3.929,4.722" transform="translate(-205.804 -86.163)" fill="#03a4a4"/>
        <path id="Trazado_715589" data-name="Trazado 715589" d="M120.023,282.948c-2.887.142-4.751-1.4-4.723-3.779s1.98-3.928,4.7-3.667a7.96,7.96,0,0,0,.021,7.446" transform="translate(-86.144 -205.814)" fill="#03a4a4"/>
        <path id="Trazado_715590" data-name="Trazado 715590" d="M186.547,15.575c2.854-.166,4.741,1.374,4.726,3.753s-1.932,3.912-4.716,3.705a7.924,7.924,0,0,0-.01-7.458" transform="translate(-139.375 -11.627)" fill="#03a4a4"/>
        <path id="Trazado_715591" data-name="Trazado 715591" d="M22.986,186.607c.21,2.782-1.321,4.7-3.7,4.719s-3.917-1.86-3.758-4.723a7.907,7.907,0,0,0,7.459,0" transform="translate(-11.592 -139.417)" fill="#03a4a4"/>
        <path id="Trazado_715592" data-name="Trazado 715592" d="M282.881,186.583c.161,2.867-1.374,4.744-3.757,4.728s-3.91-1.933-3.7-4.715a7.928,7.928,0,0,0,7.459-.013" transform="translate(-205.761 -139.402)" fill="#03a4a4"/>
        <path id="Trazado_715593" data-name="Trazado 715593" d="M186.543,275.44c2.868-.155,4.748,1.386,4.727,3.763s-1.948,3.914-4.714,3.693a7.923,7.923,0,0,0-.014-7.457" transform="translate(-139.372 -205.781)" fill="#03a4a4"/>
        <path id="Trazado_715594" data-name="Trazado 715594" d="M100.857,94.409c-3.258-1.78-3.347-5.08-.17-7.137-.149-.686-.735-.572-1.193-.6a25.74,25.74,0,0,0-2.873-.013,1.845,1.845,0,0,1-1.969-.984,3.268,3.268,0,0,0-1.837-.3c-1.019-.012-1.57-.456-1.578-1.514q-.025-3.147,0-6.295A1.318,1.318,0,0,1,92.7,76.074c2.98-.034,5.959-.028,8.939,0,1,.009,1.412.556,1.437,1.513a3.25,3.25,0,0,0,.338,1.949,1.731,1.731,0,0,1,.937,1.761c-.03,1.386-.019,2.773,0,4.16a2.007,2.007,0,0,0,.4,1.54l.482,0a4.4,4.4,0,0,0,1.07-3.816,8.2,8.2,0,0,1,.788-6.43,2.462,2.462,0,0,0,.18-1.1c.123-.921-.126-1.362-1.19-1.277-1.293.1-2.6.045-3.9.02a3.788,3.788,0,0,1,.035-7.575c1.258-.025,2.517-.031,3.775-.046.283-.291.173-.627.069-.933a14.607,14.607,0,0,0-1.841-4.046,26.663,26.663,0,0,0-9.4-7.913c-.112.178-.148.209-.149.241-.015,1.726-.007,3.452-.044,5.177a3.786,3.786,0,0,1-7.572-.022c-.024-1.179,0-2.358,0-3.537,0-1.565-.73-2.036-2.247-1.443-.193.076-.363.211-.55.306a7.662,7.662,0,0,1-3.515.85,8.272,8.272,0,0,1-3.852-1.018c-1.622-.833-2.473-.317-2.473,1.417,0,.969,0,1.937,0,2.906,0,2.593-1.473,4.255-3.767,4.266s-3.81-1.648-3.815-4.217c0-1.608,0-3.217,0-5.03A30.622,30.622,0,0,0,53.8,66.816c1.97,0,3.721-.022,5.471.006a3.786,3.786,0,0,1,.045,7.57c-1.179.028-2.359.006-3.538.006-1.579,0-2.06.707-1.494,2.219.087.233.261.432.369.659a7.471,7.471,0,0,1-.038,6.913,4.277,4.277,0,0,0-.45,1.792c-.043.8.161,1.127,1.028,1.073,1.217-.076,2.441-.022,3.663-.018,2.5.007,4.148,1.486,4.174,3.731.026,2.315-1.632,3.843-4.183,3.85-1.615,0-3.23,0-5.047,0a28.513,28.513,0,0,0,7.931,9.626,15.749,15.749,0,0,0,1.437.75c1.175.419,2.224,1.342,3.611.985q.022-1.825.044-3.649A3.791,3.791,0,1,1,74.4,102.3c.015,1.385.024,2.771-.006,4.156-.012.571.128.879.762.806.495-.058,1.092.085,1.475-.144a8.551,8.551,0,0,1,6.557-.83A4.363,4.363,0,0,0,87,105.221q0-.241,0-.482c.13-1.35-.125-2.726.278-4.058,2.071-3.2,5.406-3.086,7.174.238.414,2.146-.013,4.33.243,6.5,4.092-1.24,11.482-8.63,12.725-12.726-2.175-.052-4.565-.157-6.564-.281m-15.495,7.1c-.012,1.025-.478,1.544-1.524,1.546-.794,0-1.589-.019-2.382.017-.654.03-1.363-.148-1.92.351-.007-.013-.016-.024-.024-.038a4,4,0,0,0-2.084-.329,1.251,1.251,0,0,1-1.341-1.342c-.05-3.022-.042-6.044,0-9.066a1.265,1.265,0,0,1,1.4-1.407c2.141-.031,4.281-.023,6.422,0a1.323,1.323,0,0,1,1.47,1.484c.018.662,0,7.032-.016,8.787" transform="translate(-40.194 -40.178)" fill="#ae0c22"/>
        <path id="Trazado_715595" data-name="Trazado 715595" d="M221.2,163.02c-1.58-.518-3.206-.186-4.807-.206-.967-.012-1.415-.256-1.267-1.255.443-.519,1.06-.426,1.631-.435,1.671-.027,3.344.018,5.014-.021,1.485-.035,1.75-.31,1.8-1.775.03-.919-.012-1.839.021-2.758.018-.494-.021-1.018.432-1.381,1.009-.151,1.276.305,1.245,1.276-.066,2.09-.014,4.184-.01,6.276-1.35.13-2.726-.125-4.058.277" transform="translate(-160.703 -115.926)" fill="#ae0c22"/>
        <path id="Trazado_715596" data-name="Trazado 715596" d="M143.741,40.625a25.419,25.419,0,0,1,8.246-.028,4.414,4.414,0,0,1-3.6,2.188,5.074,5.074,0,0,1-4.644-2.16" transform="translate(-107.393 -30.09)" fill="#ffdbdb"/>
        <path id="Trazado_715597" data-name="Trazado 715597" d="M152.593,272.61a25.052,25.052,0,0,1-8,.007c1.236-2.738,6.17-3.109,8-.007" transform="translate(-108.027 -202.04)" fill="#f7b9a1"/>
        <path id="Trazado_715598" data-name="Trazado 715598" d="M272.595,152.4a4.851,4.851,0,0,1-.041-8.084,24.207,24.207,0,0,1,.041,8.084" transform="translate(-202.028 -107.825)" fill="#ffdbdb"/>
        <path id="Trazado_715599" data-name="Trazado 715599" d="M40.581,152.381a25.536,25.536,0,0,1-.025-8.249,4.54,4.54,0,0,1,2.187,3.619,4.988,4.988,0,0,1-2.162,4.63" transform="translate(-30.06 -107.685)" fill="#ffdbdb"/>
        <path id="Trazado_715600" data-name="Trazado 715600" d="M70.253,116.486c.084-.541-.334-1.329.806-1.254.9.058,1.67.266,1.686,1.264s-.737,1.238-1.643,1.307c-1.237.095-.741-.777-.849-1.317" transform="translate(-52.48 -86.089)" fill="#ffdbdb"/>
        <path id="Trazado_715601" data-name="Trazado 715601" d="M242.882,116.44c-.038.687.286,1.48-.908,1.349-.853-.093-1.562-.328-1.583-1.245-.023-1,.711-1.249,1.62-1.33,1.221-.109.776.744.872,1.226" transform="translate(-179.602 -86.072)" fill="#ffdbdb"/>
        <path id="Trazado_715602" data-name="Trazado 715602" d="M70.255,196.448c.062-.585-.31-1.35.822-1.266.9.067,1.665.286,1.668,1.283s-.757,1.226-1.66,1.289c-1.256.088-.7-.812-.83-1.306" transform="translate(-52.48 -145.822)" fill="#ffdbdb"/>
        <path id="Trazado_715603" data-name="Trazado 715603" d="M242.887,196.513c-.032.653.236,1.368-.863,1.265-.906-.084-1.654-.326-1.628-1.324s.806-1.2,1.7-1.247c1.3-.071.59.89.791,1.306" transform="translate(-179.606 -145.842)" fill="#ffdbdb"/>
        <path id="Trazado_715604" data-name="Trazado 715604" d="M116.422,242.917c-.611-.031-1.4.287-1.27-.905.093-.854.326-1.562,1.244-1.583,1-.022,1.253.713,1.329,1.622.1,1.2-.726.8-1.3.866" transform="translate(-86.023 -179.631)" fill="#ffdbdb"/>
        <path id="Trazado_715605" data-name="Trazado 715605" d="M196.393,242.926c-.649-.035-1.366.239-1.266-.861.083-.907.321-1.655,1.32-1.631s1.2.8,1.251,1.7c.073,1.3-.885.6-1.305.794" transform="translate(-145.778 -179.635)" fill="#ffdbdb"/>
        <path id="Trazado_715606" data-name="Trazado 715606" d="M116.451,70.307c.59.055,1.4-.311,1.288.885-.085.912-.351,1.639-1.347,1.6-.914-.032-1.146-.746-1.227-1.6-.115-1.2.693-.837,1.286-.889" transform="translate(-86.035 -52.519)" fill="#ffdbdb"/>
        <path id="Trazado_715607" data-name="Trazado 715607" d="M196.46,70.3c.587.06,1.35-.305,1.265.823-.068.9-.286,1.666-1.284,1.667s-1.225-.759-1.287-1.662c-.087-1.259.816-.691,1.307-.828" transform="translate(-145.8 -52.511)" fill="#ffdbdb"/>
        <path id="Trazado_715608" data-name="Trazado 715608" d="M85.163,253.349c1.362.117,2.444,1.018,3.736,1.335.443.109.875.265,1.311.4a2.972,2.972,0,0,1-.118,1.562,21.86,21.86,0,0,1-4.93-3.3" transform="translate(-63.628 -189.284)" fill="#ad0c22"/>
        <path id="Trazado_715609" data-name="Trazado 715609" d="M254.934,90.455l-1.772-4.979a17.659,17.659,0,0,1,3.334,4.86,2.957,2.957,0,0,1-1.562.119" transform="translate(-189.145 -63.862)" fill="#ad0c22"/>
        <path id="Trazado_715610" data-name="Trazado 715610" d="M257.175,173.849a27.71,27.71,0,0,0,1.07-3.816,7.036,7.036,0,0,1,1,2.608c.045,1.064-.318,1.423-1.325,1.256a7.071,7.071,0,0,0-.742-.048" transform="translate(-192.143 -127.037)" fill="#ae0c22"/>
        <path id="Trazado_715611" data-name="Trazado 715611" d="M170.022,258.279a26.647,26.647,0,0,0,3.809-1.064,1.208,1.208,0,0,1,.018.123c.09,2.051-.73,2.541-2.635,1.572-.4-.2-.795-.42-1.192-.631" transform="translate(-127.028 -192.173)" fill="#ae0c22"/>
        <path id="Trazado_715612" data-name="Trazado 715612" d="M262.426,115.367a14.279,14.279,0,0,0-.812,1.946c-.18.708-.676.488-1.094.5-.537.02-.41-.409-.432-.72-.135-1.911-.131-1.913,2.338-1.729" transform="translate(-194.285 -86.137)" fill="#03a4a4"/>
        <path id="Trazado_715613" data-name="Trazado 715613" d="M262.107,197.775c-.288.014-.532.034-.776.037-1.5.019-1.97-.654-1.55-2.147a.434.434,0,0,1,.531-.374c.347.03.767-.156.954.361.253.7.544,1.379.841,2.123" transform="translate(-193.98 -145.901)" fill="#03a4a4"/>
        <path id="Trazado_715614" data-name="Trazado 715614" d="M51.122,197.755c.3-.733.615-1.368.82-2.037.19-.618.647-.4,1.027-.431.52-.044.454.344.482.677.161,1.923.165,1.923-2.329,1.791" transform="translate(-38.195 -145.896)" fill="#03a4a4"/>
        <path id="Trazado_715615" data-name="Trazado 715615" d="M115.351,51.269a21.056,21.056,0,0,0,1.952.79c.619.186.41.637.443,1.019.044.513-.328.465-.669.494-1.918.168-2.077-.038-1.727-2.3" transform="translate(-86.071 -38.305)" fill="#03a4a4"/>
        <path id="Trazado_715616" data-name="Trazado 715616" d="M115.287,262.158c0-.336,0-.585,0-.834-.011-1.439.773-1.968,2.179-1.517.334.107.36.309.343.558-.024.347.147.756-.388.934-.666.223-1.307.522-2.134.86" transform="translate(-86.134 -193.992)" fill="#03a4a4"/>
        <path id="Trazado_715617" data-name="Trazado 715617" d="M197.627,262.377c-.694-.276-1.381-.555-2.073-.824-.567-.22-.322-.7-.343-1.084-.025-.455.35-.365.629-.394,1.94-.2,2.06-.047,1.787,2.3" transform="translate(-145.821 -194.264)" fill="#03a4a4"/>
        <path id="Trazado_715618" data-name="Trazado 715618" d="M197.658,51.278c.225.257.111.559.117.834a1.472,1.472,0,0,1-2.228,1.451c-.4-.163-.272-.466-.29-.731-.022-.341-.006-.629.444-.767.668-.206,1.3-.518,1.957-.787" transform="translate(-145.878 -38.311)" fill="#03a4a4"/>
        <path id="Trazado_715619" data-name="Trazado 715619" d="M50.974,115.328c.334,0,.581,0,.829,0,1.47-.013,1.962.712,1.536,2.164-.126.429-.4.351-.673.361-.379.014-.71.031-.853-.5a17.232,17.232,0,0,0-.839-2.026" transform="translate(-38.084 -86.164)" fill="#03a4a4"/>
        <path id="Trazado_715620" data-name="Trazado 715620" d="M74.095,150.473q-1.2-.021-2.39-.041a1.249,1.249,0,0,1-1.388-1.409q0-3.653,0-7.3a1.241,1.241,0,0,1,1.4-1.393q4.912,0,9.824,0a1.249,1.249,0,0,1,1.408,1.388q.019,1.2.042,2.39a10.536,10.536,0,0,1,.137,5.574,1.351,1.351,0,0,1-1.294,1.054,42.278,42.278,0,0,1-7.3-.016.964.964,0,0,1-.438-.243" transform="translate(-52.534 -104.84)" fill="#040506"/>
        <path id="Trazado_715621" data-name="Trazado 715621" d="M212.93,144.1c-.014,1.556-.056,3.113-.031,4.669.019,1.175-.5,1.679-1.671,1.669-2.4-.019-4.8.017-7.194.031q-1.2-.021-2.391-.042a1.249,1.249,0,0,1-1.389-1.408q0-3.653,0-7.305a1.241,1.241,0,0,1,1.4-1.393q4.912,0,9.824,0a1.249,1.249,0,0,1,1.408,1.389q.019,1.2.042,2.391" transform="translate(-149.614 -104.84)" fill="#040506"/>
        <path id="Trazado_715622" data-name="Trazado 715622" d="M144.062,83.033q-1.2-.021-2.39-.041a1.249,1.249,0,0,1-1.388-1.409q0-4.912,0-9.824a1.241,1.241,0,0,1,1.393-1.4q3.652-.006,7.3,0a1.249,1.249,0,0,1,1.409,1.388q.019,1.2.042,2.39a1.975,1.975,0,0,1,.366,1.31c.015,1.894.053,3.788-.014,5.681-.057,1.6-.661,2.251-2.256,2.244-1.489-.006-3.027.39-4.466-.337" transform="translate(-104.809 -52.565)" fill="#040506"/>
        <path id="Trazado_715623" data-name="Trazado 715623" d="M150.432,204.073c-.014,2.356-.024,4.712-.042,7.068-.012,1.444-.342,1.771-1.784,1.787-1.514.017-3.029.028-4.543.041q-1.2-.021-2.39-.042a1.249,1.249,0,0,1-1.389-1.408q0-4.912,0-9.824a1.241,1.241,0,0,1,1.393-1.4q3.653-.006,7.305,0a1.249,1.249,0,0,1,1.408,1.389q.019,1.2.042,2.391" transform="translate(-104.809 -149.644)" fill="#040506"/>
        <path id="Trazado_715624" data-name="Trazado 715624" d="M85.2,161.573c2.356-.013,4.713-.023,7.069-.042,1.444-.011,1.771-.342,1.787-1.784.017-1.515.028-3.029.041-4.544.879-.108,1.293.157,1.246,1.164-.083,1.805-.052,3.618-.01,5.426.018.772-.252,1.026-1.019,1.016-2.65-.035-5.3-.061-7.951.011-1.005.027-1.272-.368-1.163-1.247" transform="translate(-63.637 -115.94)" fill="#ae0c22"/>
        <path id="Trazado_715625" data-name="Trazado 715625" d="M155.163,94.135c1.557-.014,3.114-.056,4.67-.031,1.175.019,1.679-.5,1.669-1.671-.019-2.4.017-4.8.031-7.2.879-.108,1.275.158,1.247,1.164-.072,2.607-.055,5.217-.007,7.825.016.881-.261,1.179-1.147,1.149-1.765-.058-3.536-.077-5.3.006-1.007.048-1.272-.367-1.164-1.246" transform="translate(-115.91 -63.667)" fill="#ae0c22"/>
        <path id="Trazado_715626" data-name="Trazado 715626" d="M83.769,155.205c-1.24-.061-2.9.623-3.606-.187-.61-.7-.1-2.322-.212-3.525-.1-1.049.225-1.359,1.288-1.3,1.843.1,3.694.048,5.541.015.593-.011.865.154.778.77-.024.165.006.336,0,.5-.083,1.241.536,2.906-.258,3.6-.686.6-2.314.125-3.525.125" transform="translate(-59.663 -112.207)" fill="#abffff"/>
        <path id="Trazado_715627" data-name="Trazado 715627" d="M213.509,155.171c-1.172,0-2.741.461-3.412-.118-.788-.68-.12-2.3-.268-3.491-.133-1.077.178-1.47,1.34-1.393a52.092,52.092,0,0,0,5.3.011c.806-.029,1.076.242.953,1-.007.041,0,.084,0,.126-.082,1.288.553,3.014-.263,3.737-.7.623-2.4.129-3.652.131" transform="translate(-156.676 -112.188)" fill="#06d1d1"/>
        <path id="Trazado_715628" data-name="Trazado 715628" d="M149.933,83.711c.037-1.2-.6-2.8.178-3.487.666-.591,2.241-.1,3.4-.209,1.131-.11,1.507.233,1.435,1.407-.11,1.8-.05,3.612-.017,5.418.011.587-.141.875-.764.78-.123-.019-.252,0-.378,0-1.284-.079-3.007.552-3.727-.258-.622-.7-.129-2.392-.129-3.646" transform="translate(-111.863 -59.716)" fill="#fff0c0"/>
        <path id="Trazado_715629" data-name="Trazado 715629" d="M155.25,213.786c-.14,1.2.509,2.794-.278,3.478-.677.589-2.24.095-3.4.212s-1.5-.264-1.429-1.419c.1-1.8.048-3.6.016-5.407-.01-.593.162-.866.774-.78a3.071,3.071,0,0,0,.377,0c1.252.022,2.919-.435,3.647.194.839.725.143,2.44.293,3.718" transform="translate(-112.171 -156.699)" fill="#ffc403"/>
      </g>
    </g>
  </g>
</svg>
