<svg xmlns="http://www.w3.org/2000/svg" xmlns:xlink="http://www.w3.org/1999/xlink" width="181" height="181" viewBox="0 0 181 181">
  <defs>
    <clipPath id="clip-path">
      <rect id="Rectángulo_353571" data-name="Rectángulo 353571" width="146.004" height="157.988" fill="none"/>
    </clipPath>
  </defs>
  <g id="Grupo_1003536" data-name="Grupo 1003536" transform="translate(-404 -1453)">
    <circle id="Elipse_5684" data-name="Elipse 5684" cx="90.5" cy="90.5" r="90.5" transform="translate(404 1453)" fill="#ffdbdb"/>
    <g id="Grupo_1003552" data-name="Grupo 1003552" transform="translate(424.975 1467.211)">
      <g id="Grupo_1003551" data-name="Grupo 1003551" transform="translate(-4)" clip-path="url(#clip-path)">
        <path id="Trazado_715751" data-name="Trazado 715751" d="M35.775,154.83h12.8v24.451H75.158s4.828,13.713,15.411,13.713,13.5-11.833,13.5-11.833h28.179V154.833h14.145v33.356s.14,7.258-28.431,4.806c0,0-7.2,2.3-6.768,18.052s3.407,21.513,3.407,21.513H66.532s5.714-18.18,4.538-24.553-5.794-15.012-5.794-15.012l-27.416-.772s-2.421.03-2.084-9.649,0-27.744,0-27.744" transform="translate(-18.097 -78.391)" fill="#03a4a4"/>
        <path id="Trazado_715752" data-name="Trazado 715752" d="M243.259,46.041a23.053,23.053,0,1,1-23.053-23.053,23.053,23.053,0,0,1,23.053,23.053" transform="translate(-99.819 -11.639)" fill="#a03d3d"/>
        <path id="Trazado_715753" data-name="Trazado 715753" d="M102.452,54c-2.123,2.377-4.124,4.544-6.019,6.8a3.455,3.455,0,0,0-.638,1.979c-.079,2.054-.019,4.113-.022,6.171a13.278,13.278,0,0,0,1.239,6.622c1.327,2.524.974,5.393-.246,8.105a10.655,10.655,0,0,0-.947,3.935c-.122,3.935-.044,7.877-.044,12.023h16.332V97c0-7.653-.017-15.307.006-22.959.017-5.485,3.091-8.853,8.572-8.4a20.332,20.332,0,0,0,15-4.647,5.222,5.222,0,0,1,6.639-.007,5.146,5.146,0,0,1,2.266,5.807,7.489,7.489,0,0,1-2.285,3.616,97.122,97.122,0,0,1-8.557,6.252c-1.095.72-2.548.9-4.253,1.455,0,.593,0,1.469,0,2.345,0,9.464.018,18.927-.008,28.391-.016,5.691-2.751,8.4-8.5,8.423-6.583.03-13.168.072-19.75-.036-1.705-.028-2.53.52-2.984,2.12-.716,2.52-1.54,5.014-2.42,7.484a10.638,10.638,0,0,0-.341,7.205c.589,1.753.1,3.257-1.811,3.614s-2.485-1.216-2.832-2.722a15.534,15.534,0,0,1,.468-9.187c1.29-3.452,2.394-6.98,3.426-10.52.584-2,1.732-2.728,3.77-2.708,7.487.07,14.977.035,22.465.024,3.2,0,3.909-.717,3.912-3.911q.014-14.319,0-28.638c0-.717-.082-1.434-.133-2.268h-7.8v5.142q0,8.887,0,17.775c-.006,3.146-.8,3.962-3.9,3.969-7.242.014-14.484.046-21.725-.028a2.787,2.787,0,0,0-3.085,1.945c-2.95,6.472-8.156,9.541-15.273,9.655-7.275.116-12.821-2.69-15.954-9.354a3.3,3.3,0,0,0-3.64-2.252c-7.076.1-14.154.047-21.231.036-3.184-.005-3.953-.765-3.971-3.885-.015-2.551,0-5.1,0-7.653,0-1.665.543-3.087,2.4-3.094,1.834-.006,2.45,1.374,2.449,3.056,0,2.131,0,4.262,0,6.6H49.3c0-4.667.021-9.332-.03-13.995a3.669,3.669,0,0,0-.662-1.548c-1.508-2.671-1.954-5.613-.6-8.271,1.239-2.429,1.116-4.844,1.353-7.349.423-4.461-.166-8.409-4-11.337a13.89,13.89,0,0,1-1.98-2.45c-6.819,5.327-14.384,7.756-23,5.793A25.588,25.588,0,0,1,5.653,51.215,25.916,25.916,0,0,1,6.5,17.89,25.464,25.464,0,0,1,24.365,9.073a26.131,26.131,0,0,1,18.853,6.3,35.663,35.663,0,0,1,59.168.757,28.617,28.617,0,0,1,15.637-7.02c12.466-1.6,26.089,8.427,27.924,20.868.222,1.506-.162,2.714-1.722,3.057-1.923.424-2.661-.951-2.993-2.5a20.622,20.622,0,0,0-9.063-13.291,21.332,21.332,0,0,0-23.89.169c-6.938,4.759-10.629,13.593-9,21.54a21.863,21.863,0,0,0,17.269,17.226c9.519,1.823,19.72-3.725,23.527-12.8a9.508,9.508,0,0,0,.447-1.144c.5-1.806,1.26-3.543,3.514-2.649,2.284.906,1.368,2.823.784,4.42a26.1,26.1,0,0,1-41.048,11.109c-.442-.366-.876-.741-1.321-1.118M26.069,56.351A21.071,21.071,0,0,0,47.383,35.184a21.328,21.328,0,1,0-42.656-.255A21.156,21.156,0,0,0,26.069,56.351m68.344-.026c1-1.26,1.964-2.578,3.035-3.8,1.344-1.537,1.39-2.826.313-4.744-4.743-8.455-4.69-17.077.03-25.541a3.537,3.537,0,0,0-.1-4.373C86,.627,60.262.206,47.987,17.071a2.886,2.886,0,0,0-.13,3.864c5.558,8.822,5.73,17.913.791,27.071-1.926,3.571-2,3.537.632,6.591a8.674,8.674,0,0,0,.894.85c2.038-2.287,3.992-4.467,5.928-6.662.3-.345.85-.905.751-1.111-1.249-2.611.055-4.622,1.752-6.61-4.134-.327-5.724-1.642-5.842-4.59-.226-5.609.663-6.813,5.576-7.55-2.526-3.854-2.693-5.315-.436-7.581,1.181-1.186,2.615-2.626,4.106-2.86,1.607-.253,3.415.769,5.138,1.236,1.058-4.344,2.2-5.441,6.211-5.282,1.339.053,3.042.256,3.889,1.091,1.153,1.136,1.644,2.943,2.41,4.446,3.507-2.348,5.239-2.445,7.707.185A8.43,8.43,0,0,1,89.8,24.436c.167,1.475-.889,3.09-1.391,4.594,3.631.366,5.36,1.724,5.344,4.789-.009,1.745-.038,3.844-.964,5.132S89.8,40.71,88.2,41.566c3.167,3.015,1.994,6.01-.739,8.544l6.957,6.215M90.6,70.7l.639-.3c0-2.445.181-4.907-.044-7.331-.3-3.265-1.7-6.34-4.792-7.543-3.843-1.5-7.437-3.544-11.23-4.954-2.99-1.112-6.657-.88-9.96-.569A11.97,11.97,0,0,0,54.292,60.1c-.593,3.353-.463,6.834-.658,10.258l.622.41c.638-.449,1.53-.758,1.871-1.372a6.879,6.879,0,0,1,6.969-3.7,23.6,23.6,0,0,0,13.4-2.938c5.57-3.043,11.246-.113,12.923,6.087A7.429,7.429,0,0,0,90.6,70.7m-5.872,5.421h.182c0-1.562.006-3.124,0-4.686-.021-4.543-3.05-6.55-6.983-4.241a22.557,22.557,0,0,1-14.094,3.247,3.912,3.912,0,0,0-1.946.094c-.644.307-1.572.976-1.582,1.5-.07,3.771-.412,7.631.24,11.3,1.021,5.749,5.807,8.733,12.56,8.6,6.062-.115,10.4-3.2,11.546-8.7.474-2.28.078-4.742.078-7.121M83.713,23.085c-5.43,4.29-8.22,3.135-9.563-3.8-.534,0-1.094-.018-1.651.012-.134.007-.261.174-.19.123-1.167,6.82-4.325,7.957-9.65,3.729L61.181,24.77c2.048,1.8,3.224,3.745,2.106,6.382C62.163,33.8,59.582,33.72,57.061,34.5c.438.83,1.019,1.766,1.645,1.8,2.179.11,3.911.809,4.7,2.909a4.747,4.747,0,0,1-1.6,5.528A8.629,8.629,0,0,0,60.96,46c1.654-.312,2.8-.558,3.961-.737a11.861,11.861,0,0,1,3.757-.419,20.613,20.613,0,0,0,9.144.041c1.278-.327,2.887.461,4.293.9.569.179,1,.794,1.613,1.309L85.1,45.46c-3.984-4.979-3.076-7.494,2.98-9.169.555-.154.856-1.229,1.456-2.156-2.975-.363-5.349-.5-6.431-3.082-1.109-2.65.349-4.53,2.076-6.361l-1.473-1.606m-.125,82.131c-2-.758-4.474-1.032-5.854-2.4s-1.651-3.836-2.472-5.986h-5.4c-.884,2.261-1.18,4.729-2.566,6.083s-3.853,1.585-5.835,2.3c2.1,4.593,5.908,6.55,12.627,6.307,4.378-.159,8.183-2.792,9.5-6.3M64.123,99.71c.627-2.534.8-4.616-1.95-6.1a10.022,10.022,0,0,1-3.6-3.593,3.665,3.665,0,0,0-4.625-1.906v11.6Zm26.981.125V87.581c-1.386.422-2.749.465-3.563,1.155a41.862,41.862,0,0,0-6.006,6.014c-.759.974-.635,2.7-.7,4.1-.014.308.872.927,1.358.941,2.938.089,5.88.044,8.909.044M116.756,72.15l.441.688c11.582,1.112,13.23.706,21.154-5.212.066-.049.154-.088.189-.154.435-.812.862-1.629,1.291-2.444-.869.15-1.992,0-2.566.5a19.379,19.379,0,0,1-15.906,4.639,3.568,3.568,0,0,0-1.941.078,20.248,20.248,0,0,0-2.662,1.909M89.712,75.21v8.169a3.735,3.735,0,0,0,3.384-4.12c-.009-2.029-.755-3.662-3.384-4.049M55.36,75.194c-2.555.48-3.283,1.994-3.281,4.084,0,2.255.981,3.686,3.281,4.084Z" transform="translate(0 0)" fill="#161615"/>
        <path id="Trazado_715754" data-name="Trazado 715754" d="M50.943,214.731h43.73c-.309-1.724-.6-3.3-.869-4.889a5.3,5.3,0,0,1-.246-2.4c.322-.87,1.082-2.064,1.8-2.172a2.865,2.865,0,0,1,2.425,1.424,55.94,55.94,0,0,1,1.64,9.17c.189,2.286-1.577,3.541-4.361,3.552-6.58.024-13.16.008-19.74.008-8.143,0-16.286.012-24.429-.005-3.763-.008-5.292-1.852-4.566-5.48,1.368-6.829,2.793-13.647,4.1-20.487a6.888,6.888,0,0,0-.249-3.117c-.93-3.142-2.069-6.223-2.986-9.368a2.678,2.678,0,0,0-3.081-2.292c-6.5.125-12.995.063-19.492.043-6.077-.017-8.679-2.623-8.689-8.708q-.023-13.942,0-27.883v-2.658c-5.771-.934-9.3-5.232-13.578-8.235C.2,129.722.07,126.283,1.491,124.039a5.7,5.7,0,0,1,6.865-2.32,7.792,7.792,0,0,1,2.348,1.315c3.953,3.467,8.521,4.313,13.676,4.02,5.951-.338,8.9,2.864,8.919,8.83.006,2.138.015,4.277-.007,6.416-.016,1.6-.72,2.816-2.413,2.83-1.714.015-2.385-1.215-2.421-2.811-.022-.978,0-1.957,0-3.107H20.61c-.051.768-.138,1.481-.139,2.195q-.013,14.311,0,28.623c0,3.2.734,3.95,3.881,3.955,7.484.012,14.97.058,22.454-.029,2.167-.025,3.332.78,3.9,2.87A47.984,47.984,0,0,0,53,183.569c2.441,5.528,2.313,11.072.844,16.821-1.191,4.658-1.926,9.432-2.9,14.34m-22.564-80.32c-.277-2.182-1.5-2.812-3.228-2.819-2.46-.011-4.935.16-7.373-.065a12.594,12.594,0,0,1-4.522-1.378c-2.025-1.051-3.844-2.492-5.831-3.627-.48-.274-1.274,0-1.923.026.216.612.25,1.445.679,1.8,1.642,1.35,3.385,2.582,5.139,3.787,1.2.821,2.437,2.1,3.72,2.175,4.381.272,8.79.1,13.339.1" transform="translate(-0.28 -61.437)" fill="#161615"/>
        <path id="Trazado_715755" data-name="Trazado 715755" d="M228.474,52.016c2.475-2.553,5.284-3.744,8.6-2.953a8.2,8.2,0,0,1,4.43,13.267c-3.337,3.828-7.07,7.32-10.729,10.855a3.242,3.242,0,0,1-4.859-.07c-3.535-3.428-7.082-6.855-10.429-10.464A8.27,8.27,0,0,1,226.58,50.494c.595.423,1.142.914,1.894,1.521M228.481,69c3.211-3.242,6.263-6.226,9.193-9.324,1.59-1.681,1.546-3.605.028-5.04a3.525,3.525,0,0,0-4.912-.223c-1.495,1.084-2.94,3.117-4.4,3.114s-2.918-2.03-4.412-3.121c-1.681-1.227-3.427-1.247-4.888.264a3.266,3.266,0,0,0-.072,4.869c2.995,3.144,6.136,6.15,9.468,9.461" transform="translate(-108.025 -24.718)" fill="#161615"/>
        <path id="Trazado_715756" data-name="Trazado 715756" d="M30.917,70.411a21.32,21.32,0,1,1,.01-42.64,21.32,21.32,0,0,1-.01,42.64M28.463,57.923c-2.407.159-3.53-1.013-3.847-3.07-.257-1.662-1.111-2.62-2.816-2.309-1.618.295-1.936,1.581-1.78,3.029A7.519,7.519,0,0,0,24.5,61.9a24.186,24.186,0,0,0,3.956,1.129c.181,1.772-.076,3.923,2.319,4.052,2.843.153,2.272-2.421,2.646-4.041,6.044-1.7,8.458-3.848,8.39-7.9-.027-1.63-.385-3.723-1.43-4.765-1.86-1.855-4.358-3.07-6.909-4.764V40.234c2.387.01,3.514,1.182,3.8,3.245.22,1.581,1.065,2.4,2.655,2.2,1.67-.21,2.056-1.42,1.935-2.884a6.833,6.833,0,0,0-.269-1.441c-1.226-3.97-4.159-5.675-8.092-5.881-.493-1.747.208-4.216-2.451-4.3-2.947-.093-2.24,2.622-2.672,4.252-5.648.964-8.292,3.481-8.389,7.833-.1,4.546,2.444,7.137,8.477,8.556Z" transform="translate(-4.847 -14.06)" fill="#ffc403"/>
        <path id="Trazado_715757" data-name="Trazado 715757" d="M142.8,61.119,135.84,54.9c2.733-2.534,3.906-5.529.739-8.544,1.608-.856,3.663-1.33,4.588-2.616s.956-3.386.964-5.132c.015-3.065-1.713-4.423-5.343-4.788.5-1.5,1.559-3.119,1.391-4.594a8.425,8.425,0,0,0-2.431-4.278c-2.467-2.63-4.2-2.533-7.707-.185-.766-1.5-1.257-3.31-2.41-4.447-.847-.834-2.55-1.037-3.888-1.091-4.013-.159-5.153.938-6.211,5.282-1.724-.467-3.531-1.489-5.139-1.236-1.491.235-2.924,1.675-4.106,2.86-2.258,2.266-2.091,3.727.435,7.58-4.913.738-5.8,1.942-5.576,7.551.119,2.948,1.709,4.263,5.843,4.59-1.7,1.988-3,4-1.752,6.61.1.206-.447.766-.751,1.111-1.937,2.195-3.89,4.375-5.929,6.662a8.593,8.593,0,0,1-.894-.849c-2.635-3.055-2.558-3.02-.632-6.591,4.939-9.157,4.767-18.249-.791-27.071a2.886,2.886,0,0,1,.13-3.864c12.275-16.865,38.013-16.443,49.7.792a3.539,3.539,0,0,1,.1,4.373c-4.721,8.464-4.774,17.087-.031,25.542,1.076,1.918,1.031,3.208-.313,4.744-1.071,1.225-2.036,2.543-3.035,3.8" transform="translate(-48.383 -4.794)" fill="#06d1d1"/>
        <path id="Trazado_715758" data-name="Trazado 715758" d="M145.608,121.707a7.422,7.422,0,0,1-1.18-1.855c-1.677-6.2-7.352-9.13-12.923-6.087a23.613,23.613,0,0,1-13.4,2.938,6.878,6.878,0,0,0-6.969,3.7c-.341.614-1.233.922-1.871,1.372l-.622-.41c.2-3.424.064-6.9.658-10.258A11.971,11.971,0,0,1,120.221,101c3.3-.311,6.97-.542,9.96.57,3.793,1.41,7.387,3.457,11.23,4.954,3.089,1.2,4.488,4.277,4.792,7.543.225,2.424.044,4.886.044,7.331l-.639.3" transform="translate(-55.004 -51.009)" fill="#8a3d02"/>
        <path id="Trazado_715759" data-name="Trazado 715759" d="M146.424,144.038c0,2.38.4,4.841-.079,7.122-1.144,5.5-5.485,8.584-11.547,8.7-6.752.128-11.538-2.856-12.559-8.6-.652-3.67-.31-7.529-.24-11.3.01-.527.938-1.2,1.582-1.5a3.9,3.9,0,0,1,1.945-.094,22.556,22.556,0,0,0,14.094-3.247c3.933-2.309,6.962-.3,6.983,4.241.007,1.562,0,3.124,0,4.685h-.181m-12.232,12.824v.022c1.314,0,2.628-.024,3.942.005a3.659,3.659,0,0,0,3.842-2.828,3.156,3.156,0,0,0-.636-2.765,3.1,3.1,0,0,0-2.81.053,9.992,9.992,0,0,1-8.674-.094,2.965,2.965,0,0,0-2.641-.034,2.878,2.878,0,0,0-.827,2.512A3.707,3.707,0,0,0,130,156.858c1.4.023,2.792,0,4.189,0M126.855,144.4c-.1,1.606.131,3.381,2.315,3.439,2.215.059,2.469-1.757,2.465-3.5s-.215-3.5-2.493-3.464c-2.134.033-2.326,1.686-2.288,3.522m14.792.03c.05-1.741-.068-3.526-2.349-3.548s-2.416,1.786-2.427,3.514c-.011,1.66.215,3.372,2.264,3.445,2.182.078,2.59-1.59,2.511-3.411" transform="translate(-61.692 -67.919)" fill="#fff0c0"/>
        <path id="Trazado_715760" data-name="Trazado 715760" d="M142.231,42.851l1.473,1.607c-1.727,1.831-3.185,3.711-2.077,6.361,1.082,2.586,3.457,2.719,6.431,3.082-.6.928-.9,2-1.456,2.156-6.057,1.675-6.965,4.19-2.981,9.169l-1.375,1.64c-.611-.515-1.044-1.13-1.613-1.309-1.407-.444-3.016-1.231-4.293-.9a20.613,20.613,0,0,1-9.144-.041,11.864,11.864,0,0,0-3.758.42c-1.158.179-2.307.426-3.961.737a8.7,8.7,0,0,1,.844-1.264,4.747,4.747,0,0,0,1.6-5.527c-.786-2.1-2.517-2.8-4.7-2.909-.627-.032-1.208-.967-1.645-1.8,2.521-.784,5.1-.7,6.226-3.352,1.117-2.637-.058-4.584-2.107-6.382l1.478-1.625c5.325,4.228,8.483,3.091,9.65-3.729-.07.05.056-.116.19-.123.558-.031,1.118-.013,1.651-.013,1.343,6.94,4.134,8.1,9.563,3.8M124.566,54.768a7.252,7.252,0,0,0,7.055,7.365,7.315,7.315,0,1,0-7.055-7.365" transform="translate(-58.518 -19.766)" fill="#abffff"/>
        <path id="Trazado_715761" data-name="Trazado 715761" d="M146.616,204.513c-1.319,3.512-5.124,6.146-9.5,6.3-6.719.243-10.524-1.714-12.627-6.307,1.981-.719,4.454-.954,5.835-2.3s1.682-3.823,2.565-6.083h5.4c.821,2.151,1.1,4.62,2.472,5.986s3.853,1.646,5.854,2.4" transform="translate(-63.028 -99.297)" fill="#fff0c0"/>
        <path id="Trazado_715762" data-name="Trazado 715762" d="M119.453,189.863H109.281v-11.6a3.664,3.664,0,0,1,4.625,1.906,10.025,10.025,0,0,0,3.6,3.592c2.749,1.489,2.577,3.57,1.95,6.1" transform="translate(-55.329 -90.153)" fill="#8a3d02"/>
        <path id="Trazado_715763" data-name="Trazado 715763" d="M174,189.652c-3.029,0-5.971.045-8.909-.044-.486-.015-1.372-.634-1.358-.941.063-1.4-.061-3.127.7-4.1a41.838,41.838,0,0,1,6.006-6.014c.814-.69,2.176-.733,3.563-1.155Z" transform="translate(-82.9 -89.816)" fill="#8a3d02"/>
        <path id="Trazado_715764" data-name="Trazado 715764" d="M236.494,138.839a20.236,20.236,0,0,1,2.662-1.909,3.568,3.568,0,0,1,1.941-.079A19.379,19.379,0,0,0,257,132.212c.574-.493,1.7-.346,2.566-.5-.429.816-.856,1.632-1.291,2.444-.035.066-.124.1-.19.154-7.924,5.919-9.572,6.325-21.154,5.213l-.441-.688" transform="translate(-119.737 -66.688)" fill="#fff0c0"/>
        <path id="Trazado_715765" data-name="Trazado 715765" d="M181.715,152.34c2.628.387,3.375,2.02,3.383,4.049a3.734,3.734,0,0,1-3.383,4.12Z" transform="translate(-92.003 -77.13)" fill="#fff0c0"/>
        <path id="Trazado_715766" data-name="Trazado 715766" d="M108.77,152.307v8.169c-2.3-.4-3.278-1.829-3.281-4.084,0-2.09.726-3.6,3.281-4.084" transform="translate(-53.409 -77.113)" fill="#fff0c0"/>
        <path id="Trazado_715767" data-name="Trazado 715767" d="M33.454,139.6c-4.549,0-8.958.167-13.339-.1-1.283-.079-2.524-1.354-3.72-2.175-1.755-1.2-3.5-2.436-5.139-3.787-.429-.353-.463-1.186-.679-1.8.65-.024,1.444-.3,1.923-.026,1.987,1.135,3.805,2.576,5.831,3.627a12.594,12.594,0,0,0,4.522,1.378c2.439.226,4.914.054,7.373.065,1.726.008,2.95.638,3.228,2.82" transform="translate(-5.355 -66.622)" fill="#fff0c0"/>
        <path id="Trazado_715768" data-name="Trazado 715768" d="M233.2,73.8c-3.331-3.311-6.473-6.317-9.468-9.461a3.266,3.266,0,0,1,.072-4.869c1.461-1.511,3.208-1.491,4.888-.264,1.493,1.091,2.941,3.118,4.412,3.121s2.91-2.03,4.4-3.114a3.525,3.525,0,0,1,4.912.223c1.518,1.435,1.562,3.359-.028,5.04-2.93,3.1-5.982,6.081-9.193,9.324" transform="translate(-112.74 -29.524)" fill="#b20d0d"/>
        <path id="Trazado_715769" data-name="Trazado 715769" d="M39.136,61.41V55.3c-6.032-1.418-8.578-4.009-8.476-8.556.1-4.352,2.741-6.869,8.389-7.833.432-1.63-.274-4.345,2.673-4.252,2.659.083,1.958,2.552,2.45,4.3,3.934.206,6.866,1.912,8.092,5.881a6.772,6.772,0,0,1,.27,1.441c.12,1.464-.265,2.674-1.935,2.884-1.59.2-2.435-.619-2.656-2.2-.287-2.063-1.414-3.235-3.8-3.245v5.367c2.55,1.694,5.048,2.909,6.909,4.764,1.045,1.042,1.4,3.135,1.43,4.765.068,4.056-2.346,6.2-8.39,7.9-.375,1.621.2,4.194-2.646,4.041-2.395-.129-2.138-2.28-2.319-4.052a24.2,24.2,0,0,1-3.957-1.129,7.519,7.519,0,0,1-4.476-6.322c-.156-1.448.162-2.734,1.78-3.029,1.7-.311,2.559.646,2.816,2.309.317,2.057,1.441,3.229,3.847,3.07m.015-17.616c-2.656.171-4.072,1.546-3.843,3.543.223,1.938,1.554,2.819,3.843,2.48Zm4.923,11.462v5.982c2.308.152,3.839-1.09,3.842-3,0-1.929-1.517-3.153-3.842-2.98" transform="translate(-15.522 -17.547)" fill="#161615"/>
        <path id="Trazado_715770" data-name="Trazado 715770" d="M138.8,174.07c-1.4,0-2.792.019-4.188,0a3.707,3.707,0,0,1-3.615-3.125,2.877,2.877,0,0,1,.827-2.512,2.965,2.965,0,0,1,2.641.034,9.991,9.991,0,0,0,8.673.094,3.1,3.1,0,0,1,2.811-.053,3.154,3.154,0,0,1,.636,2.765,3.66,3.66,0,0,1-3.843,2.828c-1.313-.03-2.628-.005-3.942-.005v-.022" transform="translate(-66.298 -85.127)" fill="#161615"/>
        <path id="Trazado_715771" data-name="Trazado 715771" d="M131.971,151.3c-.038-1.836.154-3.489,2.287-3.522,2.278-.035,2.488,1.727,2.493,3.464s-.25,3.556-2.466,3.5c-2.185-.058-2.414-1.834-2.315-3.439" transform="translate(-66.808 -74.821)" fill="#161615"/>
        <path id="Trazado_715772" data-name="Trazado 715772" d="M157.055,151.335c.077,1.819-.331,3.487-2.513,3.409-2.048-.072-2.275-1.785-2.264-3.445.011-1.728.14-3.536,2.427-3.514s2.4,1.806,2.35,3.549" transform="translate(-77.098 -74.824)" fill="#161615"/>
        <path id="Trazado_715773" data-name="Trazado 715773" d="M133.782,63.453a7.262,7.262,0,0,1,7.168-7.259,7.312,7.312,0,0,1-.113,14.624,7.252,7.252,0,0,1-7.054-7.364m6.474,2.9,1.139.047c.725-.909,1.911-1.747,2.069-2.745a2.1,2.1,0,0,0-2.482-2.55,3.7,3.7,0,0,0-2.442,2.363c-.137.847,1.091,1.915,1.717,2.885" transform="translate(-67.734 -28.451)" fill="#161615"/>
        <path id="Trazado_715774" data-name="Trazado 715774" d="M43.9,53.164v6.023c-2.289.338-3.62-.542-3.843-2.48-.23-2,1.187-3.371,3.843-3.543" transform="translate(-20.267 -26.917)" fill="#ffc403"/>
        <path id="Trazado_715775" data-name="Trazado 715775" d="M57.834,76.364c2.325-.173,3.845,1.051,3.842,2.98,0,1.912-1.534,3.153-3.842,3Z" transform="translate(-29.281 -38.655)" fill="#ffc403"/>
        <path id="Trazado_715776" data-name="Trazado 715776" d="M145.123,71.333c-.626-.971-1.854-2.038-1.717-2.885a3.7,3.7,0,0,1,2.442-2.363,2.1,2.1,0,0,1,2.482,2.55c-.158,1-1.343,1.836-2.069,2.745l-1.139-.047" transform="translate(-72.601 -33.432)" fill="#06d1d1"/>
      </g>
    </g>
  </g>
</svg>
