<svg xmlns="http://www.w3.org/2000/svg" xmlns:xlink="http://www.w3.org/1999/xlink" width="181" height="181" viewBox="0 0 181 181">
  <defs>
    <clipPath id="clip-path">
      <rect id="Rectángulo_353553" data-name="Rectángulo 353553" width="155.448" height="155.441" fill="none"/>
    </clipPath>
  </defs>
  <g id="Grupo_1003516" data-name="Grupo 1003516" transform="translate(-404 -1453)">
    <circle id="Elipse_5684" data-name="Elipse 5684" cx="90.5" cy="90.5" r="90.5" transform="translate(404 1453)" fill="#a03d3d"/>
    <g id="Grupo_1003522" data-name="Grupo 1003522" transform="translate(430.452 1487.924)">
      <g id="Grupo_1003521" data-name="Grupo 1003521" transform="translate(-12 -17.824)" clip-path="url(#clip-path)">
        <path id="Trazado_715650" data-name="Trazado 715650" d="M105.338,110.319h-25.1v.927c0,6.192.007,12.384-.012,18.576,0,.628.111.925.816,1.112a12.463,12.463,0,1,1-15.689,13.442,12.169,12.169,0,0,1,9.148-13.5c.224-.064.45-.126.692-.194V110.362H50.161V94.23c-1.187.6-2.244,1.129-3.3,1.659-4.012,2.007-8.019,4.025-12.043,6.008-.526.259-.647.492-.474,1.064,2.981,9.883-3.817,20.487-14.024,22.134a17.481,17.481,0,1,1-5.58-34.514,16.919,16.919,0,0,1,16.687,6.584c.366.459.623.615,1.209.322Q40.994,93.3,49.4,89.194a1.157,1.157,0,0,0,.751-1.245q-.027-10.189.008-20.379a1.247,1.247,0,0,0-.853-1.321q-12.473-6.2-24.914-12.468c-.63-.316-1.306-.911-1.89-.835-.557.072-1.012.864-1.53,1.32A12.142,12.142,0,0,1,8.582,56.985C4.046,55.517,1.357,52.178.293,47.566a12.385,12.385,0,0,1,9.13-14.58,12.439,12.439,0,0,1,15.03,8.45,10.729,10.729,0,0,1,.3,6.092.868.868,0,0,0,.559,1.2Q36.494,54.275,47.652,59.87c.788.394,1.562.818,2.44,1.28V45.14h25.08v-10.3a17.615,17.615,0,0,1-14.91-18.753A17.515,17.515,0,1,1,80.277,34.821V45.073h25.011V61.2c.687-.344,1.255-.627,1.821-.912,7.645-3.842,15.282-7.7,22.948-11.5.721-.358.771-.7.623-1.372a12.512,12.512,0,0,1,20.578-11.688,12.92,12.92,0,0,1,2.609,15.546c-3.385,6.352-13.707,9.354-20.195,2.137-.189-.21-.387-.413-.57-.606-5.92,2.976-11.783,5.937-17.659,8.873q-4.726,2.361-9.493,4.638a1,1,0,0,0-.64,1.075c.016,6.714.029,13.429-.011,20.144a1.716,1.716,0,0,0,1.129,1.838c5.19,2.508,10.345,5.09,15.509,7.65.512.254,1.011.534,1.577.834.156-.181.315-.342.448-.523a17.418,17.418,0,0,1,24.955-3.113,17.177,17.177,0,0,1,6.53,13.834,17.516,17.516,0,0,1-34.9,1.877,15.8,15.8,0,0,1,.481-6.582c.319-1.124.3-1.107-.765-1.637q-7.181-3.574-14.352-7.166c-.156-.078-.316-.146-.575-.265ZM55.19,105.264h45.061V50.188H55.19Zm22.24-75.24A12.392,12.392,0,0,0,90.256,18.5,12.542,12.542,0,0,0,78.264,5.005c-8.181-.431-12.74,6.367-13.074,11.666A12.471,12.471,0,0,0,77.431,30.024M137.5,120.3c6.415.417,12.57-4.918,12.947-11.264.479-8.07-5.192-13.126-11.329-13.712A12.522,12.522,0,1,0,137.5,120.3m-120.391-.015A12.509,12.509,0,0,0,18.6,95.317c-8.229-.784-13.074,5.832-13.6,11.422a12.5,12.5,0,0,0,12.11,13.546M4.985,45.1a7.566,7.566,0,0,0,7.569,7.546,7.4,7.4,0,0,0,7.48-7.271,7.66,7.66,0,0,0-7.445-7.81c-4.174-.079-7.868,3.868-7.6,7.534m130.437-.007c-.271,3.6,3.317,7.642,7.563,7.571a7.492,7.492,0,0,0,7.486-7.284,7.527,7.527,0,1,0-15.049-.288M77.664,150.463a7.5,7.5,0,0,0,7.581-7.266,7.7,7.7,0,0,0-7.342-7.824c-4.684-.136-7.606,4.208-7.735,7.2-.189,4.4,3.831,8.076,7.5,7.889" transform="translate(0 0)" fill="#161615"/>
        <path id="Trazado_715651" data-name="Trazado 715651" d="M206.011,187.338h45.061v55.076H206.011Zm40.065,25.078H231.039v4.967H221v5.052h-9.966V237.4h35.044Zm0-10.033H211.027V207.3h35.046Zm-25.015-5.127h24.985v-4.921H221.058Zm-5.106-4.9H211.03v4.92h4.922Z" transform="translate(-150.821 -137.15)" fill="#fff"/>
        <path id="Trazado_715652" data-name="Trazado 715652" d="M255.139,42.977c-.255,0-.514-.009-.768-.026a13.048,13.048,0,0,1-9.262-4.16,12.533,12.533,0,0,1-3.353-9.619c.316-5.009,4.477-12.062,12.739-12.062.249,0,.5.007.757.02a12.978,12.978,0,0,1,9.061,4.244,13.26,13.26,0,0,1,3.312,9.67,12.876,12.876,0,0,1-12.487,11.933m-.578-20.032a7.067,7.067,0,0,0-4.934,12.064,6.98,6.98,0,0,0,4.889,2.162h.043a7.114,7.114,0,1,0,.065-14.226Z" transform="translate(-176.968 -12.526)" fill="#ffc403"/>
        <path id="Trazado_715653" data-name="Trazado 715653" d="M253.4,16.414q.363,0,.736.02a12.53,12.53,0,0,1-.093,25.044c-.246,0-.492-.008-.74-.025A12.471,12.471,0,0,1,241.059,28.1c.324-5.138,4.62-11.686,12.338-11.686m.063,20.062a7.516,7.516,0,1,0,.069-15.029h-.068a7.516,7.516,0,0,0-.047,15.03h.045M253.4,15.61h0a12.587,12.587,0,0,0-9.536,4.178,14.021,14.021,0,0,0-3.6,8.26,12.926,12.926,0,0,0,3.46,9.919,13.476,13.476,0,0,0,9.554,4.289c.255.017.513.025.769.025a12.777,12.777,0,0,0,8.766-3.6,12.954,12.954,0,0,0,4.123-8.71,13.661,13.661,0,0,0-3.414-9.961,13.378,13.378,0,0,0-9.339-4.376c-.26-.014-.522-.021-.778-.021m.063,20.062h-.041a6.576,6.576,0,0,1-4.6-2.041,6.665,6.665,0,0,1,4.646-11.381h.06a6.712,6.712,0,1,1-.061,13.422" transform="translate(-175.869 -11.428)" fill="#040405"/>
        <path id="Trazado_715654" data-name="Trazado 715654" d="M479.7,379.946c-.244,0-.49-.008-.733-.024a12.655,12.655,0,0,1-9.2-4.276,12.934,12.934,0,0,1,9.532-21.567c.444,0,.9.022,1.351.065,6.191.591,12.2,5.637,11.692,14.136a12.16,12.16,0,0,1-4.078,8.208,12.893,12.893,0,0,1-8.563,3.457m-.334-20a7.126,7.126,0,0,0-7.067,6.994,7.235,7.235,0,0,0,2.08,5.113,7.005,7.005,0,0,0,5.026,2.11,7.109,7.109,0,1,0-.028-14.217l-.011-.4Z" transform="translate(-341.493 -259.221)" fill="#ffc403"/>
        <path id="Trazado_715655" data-name="Trazado 715655" d="M478.2,353.383q.644,0,1.312.063c6.138.586,11.808,5.643,11.329,13.712-.362,6.113-6.087,11.287-12.24,11.287q-.352,0-.706-.023a12.523,12.523,0,0,1,.305-25.04m.107,20.083h0a7.51,7.51,0,1,0-.028-15.021h-.012a7.51,7.51,0,0,0,.039,15.021m-.107-20.887h0a12.935,12.935,0,0,0-9.267,3.844,13.9,13.9,0,0,0-3.928,8.43,13.286,13.286,0,0,0,3.363,9.963,13.066,13.066,0,0,0,9.491,4.41c.246.016.5.023.742.023a13.3,13.3,0,0,0,8.835-3.562,12.562,12.562,0,0,0,4.208-8.481,13.674,13.674,0,0,0-3.39-10.249,13.358,13.358,0,0,0-8.665-4.311c-.465-.044-.932-.067-1.388-.067m.107,20.887v-.8a6.6,6.6,0,0,1-4.739-1.991,6.836,6.836,0,0,1-1.965-4.83,6.719,6.719,0,1,1,6.7,6.821Z" transform="translate(-340.395 -258.123)" fill="#040405"/>
        <path id="Trazado_715656" data-name="Trazado 715656" d="M30.227,379.914c-.242,0-.487-.008-.725-.024a12.643,12.643,0,0,1-9.2-4.244,12.818,12.818,0,0,1-3.287-9.741c.539-5.744,5.166-11.85,12.679-11.85.445,0,.9.022,1.358.066a12.92,12.92,0,0,1-.828,25.793m-.392-19.988a7.067,7.067,0,0,0-7.011,6.9,7.322,7.322,0,0,0,2.138,5.232,6.992,6.992,0,0,0,4.976,2.09,7.109,7.109,0,1,0-.019-14.217Z" transform="translate(-12.421 -259.204)" fill="#ffc403"/>
        <path id="Trazado_715657" data-name="Trazado 715657" d="M28.6,353.359q.644,0,1.319.064a12.518,12.518,0,0,1-.79,24.992q-.351,0-.7-.024a12.5,12.5,0,0,1-12.11-13.546c.5-5.284,4.852-11.485,12.279-11.485m.246,20.089a7.511,7.511,0,1,0-.021-15.021h-.088a7.494,7.494,0,0,0-7.413,7.3,7.622,7.622,0,0,0,7.515,7.724h.007M28.6,352.555h0a12.512,12.512,0,0,0-9.324,4.014,14.155,14.155,0,0,0-3.755,8.2,13.222,13.222,0,0,0,3.388,10.048,13.063,13.063,0,0,0,9.491,4.377c.24.016.485.024.728.024a13.3,13.3,0,0,0,8.608-3.343,13.021,13.021,0,0,0,4.444-9.107,13.688,13.688,0,0,0-2.987-9.275,13.314,13.314,0,0,0-9.2-4.87c-.468-.044-.937-.067-1.395-.067m.246,20.893,0-.8a6.6,6.6,0,0,1-4.7-1.971,6.923,6.923,0,0,1-2.021-4.947,6.659,6.659,0,0,1,6.61-6.5h.078a6.707,6.707,0,1,1,.031,13.414Z" transform="translate(-11.322 -258.105)" fill="#040405"/>
        <path id="Trazado_715658" data-name="Trazado 715658" d="M18.57,147.739c-.265-3.666,3.429-7.613,7.6-7.534a7.661,7.661,0,0,1,7.445,7.81,7.4,7.4,0,0,1-7.48,7.271,7.566,7.566,0,0,1-7.569-7.546" transform="translate(-13.585 -102.643)" fill="#06d1d1"/>
        <path id="Trazado_715659" data-name="Trazado 715659" d="M505.454,147.784a7.527,7.527,0,1,1,15.048.288,7.492,7.492,0,0,1-7.486,7.284c-4.245.071-7.834-3.968-7.562-7.572" transform="translate(-370.032 -102.695)" fill="#03a4a4"/>
        <path id="Trazado_715660" data-name="Trazado 715660" d="M269.4,520.391c-3.664.187-7.684-3.485-7.5-7.889.128-2.993,3.05-7.337,7.735-7.2a7.7,7.7,0,0,1,7.342,7.824,7.5,7.5,0,0,1-7.581,7.266" transform="translate(-191.734 -369.929)" fill="#abffff"/>
        <path id="Trazado_715661" data-name="Trazado 715661" d="M259.8,280.949v24.982H224.753V290.968h9.966v-5.052H244.76v-4.967Zm-5.042,5h-4.917v14.976h4.917Zm-14.937,14.946h4.917v-9.932h-4.917Zm-5.091-4.885h-4.945V300.9h4.945Z" transform="translate(-164.542 -205.683)" fill="#161615"/>
        <rect id="Rectángulo_353547" data-name="Rectángulo 353547" width="35.046" height="4.918" transform="translate(60.206 65.234)" fill="#161615"/>
        <rect id="Rectángulo_353548" data-name="Rectángulo 353548" width="24.985" height="4.921" transform="translate(70.238 55.186)" fill="#161615"/>
        <rect id="Rectángulo_353549" data-name="Rectángulo 353549" width="4.922" height="4.92" transform="translate(60.21 55.206)" fill="#161615"/>
        <path id="Trazado_715662" data-name="Trazado 715662" d="M277.06,44.925a7.552,7.552,0,0,1-7.707,7.5,7.516,7.516,0,0,1,.114-15.029,7.535,7.535,0,0,1,7.593,7.532m-5.008,0a2.441,2.441,0,0,0-2.457-2.564,2.541,2.541,0,1,0-.042,5.082,2.426,2.426,0,0,0,2.5-2.518" transform="translate(-191.807 -27.375)" fill="#161615"/>
        <path id="Trazado_715663" data-name="Trazado 715663" d="M494.271,389.5a7.51,7.51,0,1,1,7.537-7.438,7.557,7.557,0,0,1-7.537,7.438m2.531-7.521a2.432,2.432,0,0,0-2.484-2.55,2.54,2.54,0,1,0-.015,5.079,2.414,2.414,0,0,0,2.5-2.53" transform="translate(-356.359 -274.153)" fill="#161615"/>
        <path id="Trazado_715664" data-name="Trazado 715664" d="M52.382,381.977a7.541,7.541,0,0,1-7.535,7.515,7.623,7.623,0,0,1-7.515-7.724,7.527,7.527,0,0,1,15.051.209m-5.011.01a2.436,2.436,0,0,0-2.475-2.56,2.538,2.538,0,1,0-.044,5.075,2.425,2.425,0,0,0,2.519-2.515" transform="translate(-27.33 -274.15)" fill="#161615"/>
        <rect id="Rectángulo_353550" data-name="Rectángulo 353550" width="5.721" height="15.78" rx="1.5" transform="translate(84.894 79.863)" fill="#8d0a0a"/>
        <path id="Trazado_715665" data-name="Trazado 715665" d="M321.108,312.388h-4.917V297.412h4.917Zm0-15.78h-4.917a.8.8,0,0,0-.8.8v14.976a.8.8,0,0,0,.8.8h4.917a.8.8,0,0,0,.8-.8V297.412a.8.8,0,0,0-.8-.8" transform="translate(-230.895 -217.147)" fill="#040405"/>
        <rect id="Rectángulo_353551" data-name="Rectángulo 353551" width="5.721" height="10.736" rx="1.5" transform="translate(74.874 84.877)" fill="#8d0a0a"/>
        <path id="Trazado_715666" data-name="Trazado 715666" d="M283.707,326.058H278.79v-9.932h4.917Zm0-10.736H278.79a.8.8,0,0,0-.8.8v9.932a.8.8,0,0,0,.8.8h4.917a.8.8,0,0,0,.8-.8v-9.932a.8.8,0,0,0-.8-.8" transform="translate(-203.513 -230.847)" fill="#040405"/>
        <rect id="Rectángulo_353552" data-name="Rectángulo 353552" width="5.749" height="5.693" rx="1.5" transform="translate(64.837 89.925)" fill="#8d0a0a"/>
        <path id="Trazado_715667" data-name="Trazado 715667" d="M246.27,339.857h-4.945v-4.889h4.945Zm0-5.693h-4.945a.8.8,0,0,0-.8.8v4.889a.8.8,0,0,0,.8.8h4.945a.8.8,0,0,0,.8-.8v-4.889a.8.8,0,0,0-.8-.8" transform="translate(-176.085 -244.641)" fill="#040405"/>
        <path id="Trazado_715668" data-name="Trazado 715668" d="M282.114,60.307a2.9,2.9,0,0,1-2.934-2.881,2.881,2.881,0,0,1,2.982-3.005,2.943,2.943,0,0,1-.024,5.886h-.023" transform="translate(-204.387 -39.842)" fill="#f8a92f"/>
        <path id="Trazado_715669" data-name="Trazado 715669" d="M281.063,53.725h.015a2.542,2.542,0,0,1-.042,5.082h-.02a2.541,2.541,0,1,1,.047-5.082m0-.8h0a3.282,3.282,0,0,0-3.383,3.411,3.293,3.293,0,0,0,3.336,3.279h.026a3.211,3.211,0,0,0,3.3-3.324,3.258,3.258,0,0,0-3.257-3.365Z" transform="translate(-203.289 -38.743)" fill="#040405"/>
        <path id="Trazado_715670" data-name="Trazado 715670" d="M506.841,397.335a2.941,2.941,0,1,1,.031-5.883,2.942,2.942,0,0,1-.01,5.883Z" transform="translate(-368.915 -286.582)" fill="#f8a92f"/>
        <path id="Trazado_715671" data-name="Trazado 715671" d="M505.794,390.755a2.54,2.54,0,0,1-.034,5.079h-.018a2.54,2.54,0,1,1,.034-5.079h.018m0-.8h-.023a3.343,3.343,0,1,0-.028,6.687h.023a3.344,3.344,0,0,0,.028-6.687" transform="translate(-367.816 -285.483)" fill="#040405"/>
        <path id="Trazado_715672" data-name="Trazado 715672" d="M57.393,397.352a2.868,2.868,0,0,1-2.925-2.922,2.874,2.874,0,0,1,2.973-2.957,2.94,2.94,0,0,1-.042,5.879Z" transform="translate(-39.876 -286.597)" fill="#f8a92f"/>
        <path id="Trazado_715673" data-name="Trazado 715673" d="M56.351,390.777a2.538,2.538,0,0,1-.05,5.075h0a2.538,2.538,0,1,1,.049-5.075h.006m0-.8h0v.8l0-.8a3.264,3.264,0,0,0-3.379,3.358,3.269,3.269,0,0,0,3.327,3.324,3.342,3.342,0,0,0,.055-6.683" transform="translate(-38.779 -285.499)" fill="#040405"/>
      </g>
    </g>
  </g>
</svg>
