<svg xmlns="http://www.w3.org/2000/svg" xmlns:xlink="http://www.w3.org/1999/xlink" width="181" height="181" viewBox="0 0 181 181">
  <defs>
    <clipPath id="clip-path">
      <rect id="Rectángulo_353558" data-name="Rectángulo 353558" width="151.513" height="127.022" fill="none"/>
    </clipPath>
  </defs>
  <g id="Grupo_1003529" data-name="Grupo 1003529" transform="translate(-404 -1453)">
    <circle id="Elipse_5684" data-name="Elipse 5684" cx="90.5" cy="90.5" r="90.5" transform="translate(404 1453)" fill="#b20d0d"/>
    <g id="Grupo_1003534" data-name="Grupo 1003534" transform="translate(460 1438)">
      <path id="Trazado_715731" data-name="Trazado 715731" d="M7.286,50.631,34.245,63.653V94.242L7.286,78.36Z" transform="translate(-37.542 22.56)" fill="#fadb75"/>
      <g id="Grupo_1003533" data-name="Grupo 1003533" transform="translate(-34 47.174)">
        <g id="Grupo_1003532" data-name="Grupo 1003532" clip-path="url(#clip-path)">
          <path id="Trazado_715732" data-name="Trazado 715732" d="M72.288,192.042l47.959-.914L160.9,160.069s-2.284-10.049-10.505-5.024-24.665,13.246-24.665,13.246-1.37-5.938-17.357-3.654c0,0-17.357-12.789-36.54,1.827Z" transform="translate(-26.856 -77.691)" fill="#ffdbdb"/>
          <path id="Trazado_715733" data-name="Trazado 715733" d="M25.918,161.777h14.4v40.831c-.176.016-.345.046-.516.046-4.39.009-8.78.009-13.17.028-.489,0-.726-.048-.725-.554q.024-19.457.011-38.912v-1.438M33.25,173.9a1.934,1.934,0,1,0,.135-3.811,2.118,2.118,0,0,0-2.3,1.852A2.054,2.054,0,0,0,33.25,173.9" transform="translate(-6.709 -82.492)" fill="#a03d3d"/>
          <path id="Trazado_715734" data-name="Trazado 715734" d="M57.047,169.42c2.4,0,4.611.006,6.827,0,.688,0,.814.175.813.517q-.045,17.5-.038,35.009c0,.44-.151.606-1,.593-1.828-.026-3.659-.012-5.487.014-.82.012-1.147-.1-1.146-.606q.049-17.218.035-34.435V169.42" transform="translate(-23.121 -85.361)" fill="#a03d3d"/>
          <path id="Trazado_715735" data-name="Trazado 715735" d="M36.768,182.642a2.5,2.5,0,0,1-2.437-2.581,2.52,2.52,0,0,1,2.589-2.441,2.6,2.6,0,0,1,2.464,2.594,2.547,2.547,0,0,1-2.616,2.428" transform="translate(-10.259 -90.891)" fill="#161615"/>
          <path id="Trazado_715736" data-name="Trazado 715736" d="M55.408,158.185a44.053,44.053,0,0,1,9.866-1.343,32.1,32.1,0,0,1,12.139,2.475c.935.356,1.838.808,2.788,1.111a8.128,8.128,0,0,0,2.359.458c3.372.023,6.744-.028,10.116-.067a7.1,7.1,0,0,1,6.368,3.372.87.87,0,0,0,.6.324c.788.038,1.58.038,2.368.006a1.916,1.916,0,0,0,.837-.243c2.038-1.159,4.065-2.34,6.1-3.511,3.821-2.2,7.638-4.412,11.472-6.592.426-.243,5.577-2.973,6.215-3.1a6.822,6.822,0,0,1,8.21,5.973,6.714,6.714,0,0,1-2.508,6.246c-1.973,1.695-4.045,3.275-6.091,4.884q-6.767,5.322-13.553,10.62-5.625,4.393-11.274,8.754a45.089,45.089,0,0,1-3.942,2.834,14.883,14.883,0,0,1-7.829,2.036c-5.08.027-10.161.013-15.241.01a3.663,3.663,0,0,1-.823-.091,1.886,1.886,0,0,1,.2-3.721A10.289,10.289,0,0,1,75,188.577c4.653,0,9.309-.1,13.959.023a13.544,13.544,0,0,0,9.423-3.414c3.534-2.953,7.242-5.7,10.876-8.531q3.509-2.736,7.019-5.469,6.765-5.271,13.534-10.537a2.937,2.937,0,0,0,1.282-3.173,3.458,3.458,0,0,0-2.649-2.745,3.116,3.116,0,0,0-2.371.539c-3.7,2.155-7.395,4.333-11.106,6.476-4.966,2.868-9.949,5.705-14.912,8.577a2.4,2.4,0,0,0-.815.84A6.84,6.84,0,0,1,93.1,174.9c-7.578.028-15.156.016-22.733.007a4.1,4.1,0,0,1-1.254-.2,1.831,1.831,0,0,1,.172-3.5,6.05,6.05,0,0,1,1.332-.129q9.8-.006,19.595.005c1,0,2.008.051,3.008-.006a3,3,0,0,0,2.4-4.888,3.069,3.069,0,0,0-2.592-1.533c-3.478-.043-6.957-.077-10.434-.05a8.1,8.1,0,0,1-3.062-.482A53.906,53.906,0,0,0,68.716,160.9a21.272,21.272,0,0,0-3.57-.194,34.4,34.4,0,0,0-16.618,4.222A32.177,32.177,0,0,0,45.377,167a1.261,1.261,0,0,0-.41.905c-.026,6.7-.016,13.406-.042,20.11,0,.613.309.576.719.576q9.51-.012,19.019-.011a8.174,8.174,0,0,1,1.151.05,1.862,1.862,0,0,1,.271,3.647,4.778,4.778,0,0,1-1.262.155q-9.574.015-19.147.01h-.738v.719c0,1.686.018,3.373-.008,5.059a2.036,2.036,0,0,1-2.22,2.177q-11.623.011-23.245,0a2.1,2.1,0,0,1-2.332-2.35q0-21.521,0-43.041a2.082,2.082,0,0,1,2.313-2.361q7.652-.027,15.3,0a1.955,1.955,0,0,1,2.169,2.017A5.528,5.528,0,0,1,36.933,156c-.083.559.153.644.63.637,1.622-.026,3.244-.02,4.867-.022,1.779,0,2.448.631,2.518,2.395.023.576.021,1.152.025,1.729s0,1.134,0,1.755a2,2,0,0,0,.327-.1c1.1-.6,2.216-1.188,3.3-1.825.2-.119,5.974-2.168,6.807-2.378m-34.455-1.679v1.408q0,19.053-.009,38.106c0,.5.2.545.606.543,3.671-.018,7.342-.018,11.013-.027a4.081,4.081,0,0,0,.431-.045V156.506Zm15.993,3.928v1.088q0,17.218-.019,34.435c0,.507.178.618.628.606,1-.026,2.006-.04,3.007-.014.468.012.551-.154.55-.593q-.008-17.5.021-35.009c0-.342-.068-.521-.446-.517-1.214.01-2.428,0-3.741,0" transform="translate(-0.263 -76.376)" fill="#161615"/>
          <path id="Trazado_715737" data-name="Trazado 715737" d="M219.938,29.1a87.03,87.03,0,0,1,7.736,4.716A28.646,28.646,0,0,1,239.029,53.2c.371,2.534-.358,3.479-2.914,3.563-.94.031-1.883.01-2.824.009q-24.772-.029-49.545-.063c-3.2-.006-3.887-.69-3.4-3.811,1.586-10.2,7.171-17.527,16.284-22.241.892-.461,1.811-.868,3.021-1.444-4.883-4.475-7.119-9.757-5.91-16.192a15.61,15.61,0,0,1,5.734-9.437,16.181,16.181,0,0,1,21.512,1.078c6.853,6.772,6.506,15.168-1.049,24.437m13.883,22.83c-2.9-12.561-13.983-20.369-26.917-19.338-10.205.813-20.563,10.1-21.319,19.338ZM221.009,16.345a11.41,11.41,0,1,0-11.514,11.289,11.508,11.508,0,0,0,11.514-11.289" transform="translate(-92.74 0.001)" fill="#161615"/>
          <path id="Trazado_715738" data-name="Trazado 715738" d="M189.742,128.549c-2.258,1.269-4.083,2.295-5.909,3.318-3.725,2.088-7.439,4.2-11.183,6.25-1.586.869-3.495,2.526-4.817.041-1.3-2.448,1.165-3.17,2.7-4.058,4.657-2.7,9.368-5.3,14.047-7.954.778-.441,1.507-.968,2.581-1.664-.947-.4-1.679-.477-1.941-.869-.521-.778-1.212-1.833-1.031-2.579a2.8,2.8,0,0,1,2.1-1.7,96.239,96.239,0,0,1,9.946.8,2.136,2.136,0,0,1,1.842,3.209,94.618,94.618,0,0,1-4.507,8.9,2.8,2.8,0,0,1-2.506.962c-.745-.229-1.354-1.34-1.718-2.2-.211-.5.177-1.25.4-2.463" transform="translate(-95.443 -30.065) rotate(-9)" fill="#161615"/>
          <path id="Trazado_715739" data-name="Trazado 715739" d="M143.812,41.034c1.441,0,3.467,0,5.493,0,4.7-.005,9.409-.025,14.113-.012,1.606,0,3.013.493,2.942,2.4-.07,1.865-1.422,2.27-3.073,2.262-6.745-.033-13.49-.014-20.213-.014-.047.348-.146.576-.078.651,1.08,1.19,2.166,2.5.749,3.995-1.376,1.446-2.8.5-4.113-.412-1.963-1.368-3.967-2.678-5.925-4.055-2.646-1.861-2.629-3.156.059-5.052q2.829-1.995,5.709-3.916c1.348-.9,2.965-2.219,4.225-.418.639.914.112,2.643.112,4.567" transform="translate(-67.604 -15.683)" fill="#161615"/>
          <path id="Trazado_715740" data-name="Trazado 715740" d="M4.884,58.889C7.448,60.219,25.147,71.108,28.221,72.7a28.72,28.72,0,0,0,.423-3.388c0-6.846-.051-13.692-.1-20.538-.025-3.713-1.182-4.991-5.755-5.921,0,2.439.032,4.78-.008,7.12-.054,3.2-1.415,3.991-4.2,2.459-1.423-.783-8.889-1.069-8.333-9.633.088-1.353.02-2.734.016-4.1-.014-4.326-.643-5.106-5.515-6.508V58.014C1.567,56.958.079,49.235.069,46.428.049,40.866.121,35.3,0,29.742a4.8,4.8,0,0,1,2.646-4.8q12.8-7.315,25.5-14.809c2.34-1.381,4.178-.936,6.767,1.107A97.477,97.477,0,0,0,57.713,24.288c2.892,1.215,3.9,2.638,3.658,5.614a197.565,197.565,0,0,0-.107,26.964c.142,2.975-1.276,5.365-4.736,7.261-7.038,3.857-14.116,7.826-21.146,12.043-4,2.4-4.119,1.811-7.058.561C24.214,74.982-.16,61.093,4.884,58.889m51.663-26.7a8.719,8.719,0,0,0-1.228.425c-6.985,3.98-14,7.918-20.9,12.032a3.964,3.964,0,0,0-1.325,2.938C32.964,54,33.009,60.424,33,66.845c0,1.767,0,3.534,0,5.573a12.389,12.389,0,0,0,2.01-.675C41.82,67.8,48.654,63.9,55.37,59.8a4.29,4.29,0,0,0,1.438-3.179c.106-7.276.033-14.554-.006-21.831,0-.812-.156-1.623-.256-2.6M7.62,27.381l-.018.867c2.173.393,3.407,3.478,6.274,1.828q10.54-6.068,21.033-12.219a3.27,3.27,0,0,0,.639-.689c-4.137-3.428-4.23-3.444-8.483-1.012Q19.4,20.541,11.739,24.948c-1.382.795-2.747,1.621-4.119,2.433M25.827,38.108c3.652,3.534,4.381,3.646,8.289,1.381q8.631-5,17.25-10.024c.837-.489,1.631-1.051,2.529-1.634-4.114-3.444-4.468-3.478-8.461-1.184-5.692,3.27-11.4,6.519-17.084,9.8-.856.493-1.652,1.088-2.522,1.666M43.933,22.1c-1.907-2.057-3.426-2.226-5.5-.976C32.286,24.836,26,28.316,19.773,31.9c-.779.449-1.51.98-2.3,1.5,1.871,2.17,3.591,2.234,5.764.839,3.523-2.261,7.221-4.252,10.84-6.364C37.3,25.991,40.524,24.1,43.933,22.1M15.09,38.168c-1.225,5.865-.765,8.32,3.152,8.267.69-7.083.475-7.526-3.152-8.267" transform="translate(0 -4.54)" fill="#161615"/>
          <path id="Trazado_715741" data-name="Trazado 715741" d="M87.764,53.8c.1.977.251,1.788.256,2.6.038,7.277.112,14.555.006,21.831a4.29,4.29,0,0,1-1.438,3.179c-6.716,4.1-13.55,8.006-20.363,11.947a12.389,12.389,0,0,1-2.01.675c0-2.039,0-3.806,0-5.573.011-6.421-.034-12.844.1-19.263a3.964,3.964,0,0,1,1.325-2.938c6.905-4.114,13.915-8.053,20.9-12.032a8.719,8.719,0,0,1,1.228-.425" transform="translate(-31.217 -26.157)" fill="#fadb75"/>
          <path id="Trazado_715742" data-name="Trazado 715742" d="M14.812,32.213c1.372-.812,2.737-1.638,4.119-2.433q7.658-4.4,15.326-8.792C38.51,18.557,38.6,18.572,42.74,22a3.283,3.283,0,0,1-.639.689Q31.594,28.817,21.067,34.908c-2.866,1.65-4.1-1.436-6.274-1.828q.01-.434.019-.867" transform="translate(-7.192 -9.373)" fill="#fadb75"/>
          <path id="Trazado_715743" data-name="Trazado 715743" d="M50.261,52.984c.87-.579,1.667-1.173,2.522-1.666,5.688-3.276,11.392-6.526,17.084-9.8,3.993-2.293,4.347-2.26,8.461,1.184-.9.582-1.691,1.145-2.528,1.633q-8.617,5.026-17.25,10.025c-3.908,2.265-4.636,2.153-8.289-1.381" transform="translate(-24.434 -19.416)" fill="#fadb75"/>
          <path id="Trazado_715744" data-name="Trazado 715744" d="M60.463,32.506c-3.409,2-6.63,3.889-9.857,5.772-3.62,2.111-7.317,4.1-10.84,6.363-2.174,1.4-3.894,1.332-5.764-.838.791-.518,1.522-1.05,2.3-1.5,6.225-3.584,12.513-7.065,18.662-10.774,2.072-1.25,3.591-1.081,5.5.976" transform="translate(-16.53 -14.944)" fill="#fadb75"/>
          <path id="Trazado_715745" data-name="Trazado 715745" d="M28.8,65.443c3.627.74,3.842,1.184,3.152,8.267-3.917.053-4.376-2.4-3.152-8.267" transform="translate(-13.708 -31.815)" fill="#fadb75"/>
          <path id="Trazado_715746" data-name="Trazado 715746" d="M238.911,82.673H190.675c.756-9.236,11.114-18.525,21.319-19.338,12.934-1.031,24.019,6.777,26.917,19.338" transform="translate(-97.83 -30.745)" fill="#abffff"/>
          <path id="Trazado_715747" data-name="Trazado 715747" d="M238.024,20.886A11.41,11.41,0,1,1,226.733,9.34a11.444,11.444,0,0,1,11.291,11.546" transform="translate(-109.755 -4.54)" fill="#abffff"/>
        </g>
      </g>
    </g>
  </g>
</svg>
