<svg xmlns="http://www.w3.org/2000/svg" xmlns:xlink="http://www.w3.org/1999/xlink" width="83.148" height="83.149" viewBox="0 0 83.148 83.149">
  <defs>
    <clipPath id="clip-path">
      <rect id="Rectángulo_353492" data-name="Rectángulo 353492" width="54.127" height="69.245" fill="none"/>
    </clipPath>
  </defs>
  <g id="Grupo_1003692" data-name="Grupo 1003692" transform="translate(-286.852 -3270.074)">
    <path id="Trazado_715530" data-name="Trazado 715530" d="M83.148,66.463A41.574,41.574,0,1,1,41.574,24.889,41.574,41.574,0,0,1,83.148,66.463" transform="translate(286.852 3245.186)" fill="#ffc403"/>
    <g id="Grupo_1003508" data-name="Grupo 1003508" transform="translate(300.973 3274.545)">
      <g id="Grupo_1003507" data-name="Grupo 1003507" clip-path="url(#clip-path)">
        <path id="Trazado_715566" data-name="Trazado 715566" d="M52.471,104.761H8.974A3.974,3.974,0,0,1,5,100.787V50.333a3.974,3.974,0,0,1,3.974-3.974h43.5a3.974,3.974,0,0,1,3.974,3.974v50.454a3.974,3.974,0,0,1-3.974,3.974" transform="translate(-3.919 -36.336)" fill="#ffdbdb"/>
        <path id="Trazado_715567" data-name="Trazado 715567" d="M45.793,10.035c-.394,3.66-1.466,5.115-3.764,5.074a3.15,3.15,0,0,1-2.967-1.657,18.868,18.868,0,0,1-.914-3.471H30.842c0,.469.022.956,0,1.441a3.662,3.662,0,1,1-7.322-.041c-.02-.429,0-.859,0-1.378H15.93c0,.451.006.906,0,1.362a3.622,3.622,0,0,1-7.222.5c-.088-.6-.082-1.208-.125-1.906-1.759,0-3.481-.075-5.192.03-.955.059-1.227.9-1.239,1.751q-.031,2.217,0,4.434c.011.742-.179,1.358-1.022,1.327C.39,17.471.135,16.911.141,16.2c.014-1.586-.017-3.173.01-4.759A3.592,3.592,0,0,1,3.784,7.815c1.577-.025,3.154,0,4.867,0,0-1.429-.036-2.752.01-4.072A3.588,3.588,0,0,1,10.884.319,3.432,3.432,0,0,1,14.627.88a3.494,3.494,0,0,1,1.3,2.842c-.008,1.325,0,2.649,0,4.029h7.59c0-1.306-.031-2.623.006-3.938A3.669,3.669,0,0,1,28.417.237a3.8,3.8,0,0,1,2.419,3.621c.025,1.26,0,2.52,0,3.866h7.589c0-1.227,0-2.474,0-3.721C38.439,1.686,39.853.087,41.937.027A3.679,3.679,0,0,1,45.7,3.89c.036,1.257.006,2.515.006,3.92,1.545,0,3.01,0,4.476,0,2.565.006,4.026,1.451,4.026,4q0,20.549,0,41.1c0,.288.088.663-.056.844-.261.326-.675.746-1.011.734-.316-.011-.706-.481-.891-.838a2.533,2.533,0,0,1-.042-1.066q0-20.062,0-40.124c0-2.191-.357-2.544-2.575-2.543-1.189,0-2.378.01-3.567.021a1.17,1.17,0,0,0-.273.1M43.557,7.541c0-1.221-.017-2.442.005-3.663a1.514,1.514,0,0,0-1.385-1.73,1.466,1.466,0,0,0-1.671,1.447c-.069,2.654-.071,5.312.017,7.965a1.388,1.388,0,0,0,1.693,1.39,1.445,1.445,0,0,0,1.342-1.638q0-1.885,0-3.771M10.78,7.527c0,1.189-.006,2.379,0,3.568.007,1.209.5,1.844,1.442,1.885.991.043,1.628-.612,1.674-1.824.044-1.152.013-2.306.012-3.46,0-1.3.038-2.6-.023-3.892a1.669,1.669,0,0,0-1.6-1.709,1.564,1.564,0,0,0-1.5,1.756c-.016,1.225,0,2.451,0,3.676m17.908.011c0-1.26.018-2.521-.006-3.781a1.515,1.515,0,1,0-3.01.042q-.025,3.781,0,7.562a1.432,1.432,0,0,0,1.47,1.619c.958.018,1.519-.564,1.539-1.662.022-1.26.005-2.521,0-3.781" transform="translate(-0.11 0)" fill="#161615"/>
        <path id="Trazado_715568" data-name="Trazado 715568" d="M27.04,142.732q-11.461,0-22.922,0c-2.67,0-4.081-1.4-4.081-4.04q0-21.63,0-43.259c0-.288-.1-.665.039-.846.278-.354.674-.781,1.062-.825.259-.029.676.507.856.871A2.617,2.617,0,0,1,2.034,95.7q0,21.2,0,42.394c0,2.231.41,2.639,2.652,2.639l44.872,0c2.093,0,2.538-.445,2.54-2.534,0-2.019.01-4.037,0-6.056,0-.722.121-1.359,1-1.348.853.012,1.016.632,1.012,1.36-.012,2.271.007,4.542-.008,6.813a3.562,3.562,0,0,1-3.811,3.765q-11.623.013-23.247,0" transform="translate(0 -73.489)" fill="#161615"/>
        <path id="Trazado_715569" data-name="Trazado 715569" d="M102.765,117.712c-3.493,0-6.985.016-10.478-.008a3.284,3.284,0,0,1-3.217-2.409,3.067,3.067,0,0,1,1.41-3.447,4.459,4.459,0,0,1,2.036-.559c6.877-.04,13.754-.033,20.632-.019a3.276,3.276,0,0,1,3.565,3.232c0,1.882-1.462,3.2-3.577,3.209-3.457.01-6.913,0-10.37,0m.105-2.227h10.147c.717,0,1.449-.022,1.439-1.008s-.752-.99-1.46-.99q-10.148,0-20.295,0c-.74,0-1.448.069-1.444,1.018,0,.968.746.986,1.466.985q5.074-.006,10.147,0" transform="translate(-69.734 -87.205)" fill="#161615"/>
        <path id="Trazado_715570" data-name="Trazado 715570" d="M102.792,179.77c-3.492,0-6.984.016-10.475-.008a3.128,3.128,0,0,1-3.1-2.081,2.866,2.866,0,0,1,.767-3.342,4.711,4.711,0,0,1,2.531-.945c6.911-.075,13.822-.057,20.734-.032a3.227,3.227,0,0,1,3.479,3.195c0,1.89-1.435,3.2-3.565,3.211-3.455.013-6.911,0-10.367,0m.192-4.217c-3.418,0-6.836.006-10.254,0-.741,0-1.446.065-1.461,1-.015.967.718,1.007,1.444,1.007q10.147,0,20.293,0c.712,0,1.456-.009,1.458-.99,0-.963-.713-1.017-1.442-1.016q-5.019.006-10.039,0" transform="translate(-69.746 -135.864)" fill="#161615"/>
        <path id="Trazado_715571" data-name="Trazado 715571" d="M102.767,241.889c-3.455,0-6.911.01-10.366-.005a3.147,3.147,0,0,1-3.111-1.917,3.039,3.039,0,0,1,.41-3.25,3.153,3.153,0,0,1,2.638-1.227c7.019-.01,14.038-.028,21.056.01a3.168,3.168,0,0,1,3.338,3.207,3.23,3.23,0,0,1-3.491,3.177c-3.491.021-6.983.006-10.474.006m.232-4.22c-3.49,0-6.981-.026-10.47.034a1.818,1.818,0,0,0-1.2.781c-.12.17.2.777.463,1.044.177.179.607.142.923.142q10.146.01,20.293,0a1.677,1.677,0,0,0,.84-.09,1.24,1.24,0,0,0,.592-.781,1.326,1.326,0,0,0-.485-.95,1.845,1.845,0,0,0-1.027-.176c-3.31-.011-6.62-.007-9.93-.006" transform="translate(-69.755 -184.568)" fill="#161615"/>
        <path id="Trazado_715572" data-name="Trazado 715572" d="M40.518,100.943c1.544-1.856,3.036-3.65,4.53-5.444q.379-.456.765-.907c.428-.5.934-.723,1.494-.252.586.492.5,1.048.035,1.6q-2.037,2.443-4.061,4.9c-.643.775-1.273,1.561-1.933,2.319-.718.824-1.4.78-2-.138s-1.133-1.833-1.689-2.757c-.341-.567-.357-1.132.254-1.5a.992.992,0,0,1,1.471.409c.36.57.725,1.136,1.131,1.77" transform="translate(-29.335 -73.741)" fill="#161615"/>
        <path id="Trazado_715573" data-name="Trazado 715573" d="M41.218,162.856c1.531-1.84,3-3.609,4.473-5.377.277-.332.553-.664.837-.99.437-.5.953-.684,1.5-.215a.992.992,0,0,1,.063,1.527c-.935,1.142-1.886,2.27-2.829,3.4-1.059,1.273-2.108,2.554-3.177,3.819-.745.881-1.436.836-2.06-.137a23.247,23.247,0,0,1-1.657-2.777c-.168-.367.117-.941.2-1.421.5.125,1.128.1,1.469.408a8.427,8.427,0,0,1,1.183,1.758" transform="translate(-30.034 -122.276)" fill="#161615"/>
        <path id="Trazado_715574" data-name="Trazado 715574" d="M40.531,225.873c1.648-1.982,3.256-3.916,4.865-5.849.184-.221.34-.554.573-.626.423-.131,1.123-.3,1.292-.1a1.462,1.462,0,0,1,.189,1.363,35.206,35.206,0,0,1-2.3,2.854c-1.238,1.5-2.464,3-3.717,4.489-.806.955-1.446.905-2.116-.139-.562-.876-1.1-1.77-1.643-2.658a1,1,0,0,1,.247-1.51.972.972,0,0,1,1.464.4c.365.571.734,1.139,1.144,1.773" transform="translate(-29.347 -171.815)" fill="#161615"/>
        <path id="Trazado_715575" data-name="Trazado 715575" d="M189.717,15.267c0,1.257,0,2.514,0,3.771a1.445,1.445,0,0,1-1.342,1.638,1.388,1.388,0,0,1-1.692-1.39c-.088-2.653-.085-5.312-.017-7.965a1.466,1.466,0,0,1,1.672-1.447,1.514,1.514,0,0,1,1.385,1.73c-.023,1.221-.005,2.442-.006,3.663" transform="translate(-146.27 -7.726)" fill="#03a4a4"/>
        <path id="Trazado_715576" data-name="Trazado 715576" d="M49.345,15.123c0-1.225-.011-2.451,0-3.676a1.563,1.563,0,0,1,1.5-1.756,1.669,1.669,0,0,1,1.6,1.709c.061,1.295.021,2.594.022,3.892,0,1.153.032,2.308-.012,3.46-.046,1.213-.683,1.867-1.675,1.824-.942-.04-1.434-.676-1.442-1.885-.007-1.189,0-2.379,0-3.568" transform="translate(-38.673 -7.595)" fill="#03a4a4"/>
        <path id="Trazado_715577" data-name="Trazado 715577" d="M121.208,15.127c0,1.26.018,2.521,0,3.781-.019,1.1-.58,1.679-1.539,1.662a1.431,1.431,0,0,1-1.47-1.619q-.031-3.781,0-7.562a1.515,1.515,0,1,1,3.01-.042c.023,1.26.006,2.521.006,3.781" transform="translate(-92.629 -7.589)" fill="#03a4a4"/>
        <path id="Trazado_715578" data-name="Trazado 715578" d="M111.161,123.55q-5.074,0-10.147,0c-.72,0-1.461-.017-1.466-.985,0-.949.7-1.019,1.444-1.018q10.147.009,20.295,0c.709,0,1.45.007,1.46.99s-.722,1.008-1.439,1.008H111.161" transform="translate(-78.026 -95.27)" fill="#8d0a0a"/>
        <path id="Trazado_715579" data-name="Trazado 715579" d="M111.265,183.562q5.019,0,10.039,0c.729,0,1.444.053,1.442,1.016,0,.981-.746.99-1.458.99q-10.147,0-20.293,0c-.727,0-1.46-.04-1.444-1.007.015-.939.719-1.007,1.461-1,3.418.011,6.836,0,10.254,0" transform="translate(-78.027 -143.872)" fill="#03a4a4"/>
        <path id="Trazado_715580" data-name="Trazado 715580" d="M111.369,245.595c3.31,0,6.62,0,9.93.006a1.847,1.847,0,0,1,1.027.177,1.326,1.326,0,0,1,.485.95,1.24,1.24,0,0,1-.592.781,1.677,1.677,0,0,1-.84.09q-10.146.006-20.293,0c-.317,0-.747.037-.923-.142-.264-.267-.583-.874-.463-1.044a1.818,1.818,0,0,1,1.2-.781c3.489-.061,6.98-.034,10.47-.035" transform="translate(-78.125 -192.493)" fill="#8a3d02"/>
      </g>
    </g>
  </g>
</svg>
