<svg xmlns="http://www.w3.org/2000/svg" xmlns:xlink="http://www.w3.org/1999/xlink" width="177.816" height="166.286" viewBox="0 0 177.816 166.286">
  <defs>
    <clipPath id="clip-path">
      <rect id="Rectángulo_353728" data-name="Rectángulo 353728" width="149.081" height="149.079" fill="none"/>
    </clipPath>
  </defs>
  <g id="Grupo_1003646" data-name="Grupo 1003646" transform="translate(-192.184 -2240.639)">
    <path id="Trazado_700357" data-name="Trazado 700357" d="M230.745,84.223A77.785,77.785,0,1,1,152.961,6.439a77.785,77.785,0,0,1,77.784,77.784" transform="translate(125.612 2234.2)" fill="#06d1d1"/>
    <path id="Trazado_700437" data-name="Trazado 700437" d="M71.4,56.929a5.73,5.73,0,1,1,5.73-5.73,5.737,5.737,0,0,1-5.73,5.73m0-8.5A2.773,2.773,0,1,0,74.169,51.2,2.776,2.776,0,0,0,71.4,48.425" transform="translate(149.241 2201.41)" fill="#303030"/>
    <path id="Trazado_700438" data-name="Trazado 700438" d="M33.524,250.132a5.107,5.107,0,1,1,5.107-5.107,5.113,5.113,0,0,1-5.107,5.107m0-7.258a2.15,2.15,0,1,0,2.15,2.15,2.153,2.153,0,0,0-2.15-2.15" transform="translate(187.737 2156.793)" fill="#303030"/>
    <path id="Trazado_700439" data-name="Trazado 700439" d="M223.545,239.08a5.107,5.107,0,1,1,5.108-5.107,5.113,5.113,0,0,1-5.108,5.107m0-7.258a2.15,2.15,0,1,0,2.15,2.151,2.152,2.152,0,0,0-2.15-2.151" transform="translate(138.952 2129.133)" fill="#303030"/>
    <path id="Trazado_700440" data-name="Trazado 700440" d="M25.487,132.1a2.4,2.4,0,1,1-2.395-2.395,2.395,2.395,0,0,1,2.395,2.395" transform="translate(171.487 2205.303)" fill="#303030"/>
    <path id="Trazado_700441" data-name="Trazado 700441" d="M207.075,75.7A2.4,2.4,0,1,1,204.68,73.3a2.395,2.395,0,0,1,2.395,2.395" transform="translate(162.925 2176.911)" fill="#303030"/>
    <g id="Grupo_1003645" data-name="Grupo 1003645" transform="translate(213.416 2257.846)">
      <g id="Grupo_1003644" data-name="Grupo 1003644" clip-path="url(#clip-path)">
        <path id="Trazado_716094" data-name="Trazado 716094" d="M29.036,139.2c-.208-4.216-.537-8.24,2.791-11.45,3.2-3.083,7.215-2.764,11.319-2.8v-9.336c-.761-.038-1.577-.114-2.393-.115-9.156-.008-18.313.007-27.469-.009C5.041,115.467.077,110.523.075,102.349.072,77.447.2,52.544,0,27.643A12.826,12.826,0,0,1,13.248,14.436c20.172.23,40.349.069,60.525.1a3.318,3.318,0,0,0,3.239-1.576C83.664,3.067,95.289-1.919,106.739.683c11.833,2.689,19.374,10.139,22.388,22,.131.516.312,1.019.462,1.5,12.354.556,19.4,6.571,19.48,16.569.082,9.954-6.942,16.394-19.113,17.213v2.652q0,20.6,0,41.194c0,8.739-4.942,13.666-13.7,13.673q-13.386.01-26.771,0H86.805v9.388c4.491.13,9.241-.253,12.34,4.092,1.707,2.393,2.22,5.068,1.809,10.231ZM14.692,29.111V91.185H86.363a2.468,2.468,0,0,0,.205-.58c.023-2.092.1-4.187.026-6.277a2.055,2.055,0,0,1,1.725-2.48c2.829-.8,3.406-2.527,2.208-5.274-.286-.654-.472-1.827-.114-2.213,2.779-2.989,5.7-5.844,8.5-8.663,4.669,2.279,5.273,2.044,7.286-2.12a2.61,2.61,0,0,1,1.944-1.008c2.364-.122,4.738-.047,7.159-.047V57.842h-2.619c-12.718,0-25.437.047-38.154-.017A16.765,16.765,0,0,1,58.7,35.665a49.193,49.193,0,0,1,3.354-6.553Zm62.086-.1c-1.134,0-2.134-.05-3.128.008A11.952,11.952,0,0,0,62.869,43.45c1.406,6.081,6.084,9.548,13.055,9.557q27.466.034,54.931,0a23.438,23.438,0,0,0,3.24-.272,11.864,11.864,0,0,0,10.118-12.244c-.4-6.4-5.316-11.45-11.5-11.419a38.369,38.369,0,0,0-6.744,1.131c-1.4-4.374-2.443-9.054-4.382-13.329-2.032-4.48-5.909-7.505-10.361-9.642a25.277,25.277,0,0,0-14.05-2.015c-10.714,1.176-18.3,9.873-20.394,23.8M120.2,57.934V60.67q0,14.66,0,29.32c0,4.659-1.457,6.174-6.059,6.176q-49.229.015-98.457,0c-4.495,0-5.924-1.494-5.925-6.043,0-19.78.1-39.56-.068-59.338-.045-5.349,2.382-6.679,6.6-6.652,17.767.114,35.535.048,53.3.048h2.84l1.283-4.936H71.547q-29.095,0-58.19,0c-5.564,0-8.472,2.88-8.476,8.445q-.026,37.232,0,74.465c0,5.717,2.7,8.416,8.389,8.419q35.38.015,70.759,0c.814,0,1.629-.092,2.679-.155v-9.128h14.508v9.165h4.638v-9.216h14.4v8.664c3.4-1.261,4.7-3.288,4.706-7.3q.029-21.408,0-42.817c0-.592-.106-1.185-.169-1.852ZM81.655,115.687H48.249v9.121H81.655ZM33.93,134.535H95.887c-.053-2.892-1.6-4.544-4.436-4.548q-26.493-.045-52.987,0c-2.781,0-4.276,1.566-4.534,4.55m81.4-66.808c-3.548-.891-4.382-.6-6.239,2.018a2.614,2.614,0,0,1-1.089.684c-1.48.652-2.966,1.3-4.47,1.89-.474.187-1.218.469-1.491.258-2.089-1.617-3.227-.073-4.391,1.25-.676.768-1.887,2.146-1.685,2.437,1.582,2.282-.169,3.895-.8,5.756-.573,1.683-.874,3.464-3.11,3.812-.288.045-.636.786-.664,1.223-.086,1.362-.032,2.733-.032,4.13h9.832c-.487-4.207.444-7.824,3.439-10.749,2.963-2.892,6.591-3.767,10.7-3.37Zm.1,23.5c0-2.715.058-5.317-.055-7.913a1.819,1.819,0,0,0-1.178-1.26,6.52,6.52,0,0,0-6.631,2.317,6.313,6.313,0,0,0-1.21,6.856Zm-.2,14.7h-4.45v4.505h4.45Zm-19.256.025h-4.5v4.494h4.5Z" transform="translate(0 0)" fill="#161615"/>
        <path id="Trazado_716095" data-name="Trazado 716095" d="M264.768,292.674q-4.186,0-8.371,0c-6.093-.007-9.226-3.72-8.257-9.782,1.316-8.233,8.874-14.6,16.959-14.276a16.93,16.93,0,0,1,16.514,15.531c.409,5.074-2.7,8.491-7.776,8.524-3.023.019-6.046,0-9.069,0m.054-4.807c2.942,0,5.884.046,8.824-.014,2.526-.051,3.319-1,3.042-3.5a12.435,12.435,0,0,0-.455-2.493c-1.874-5.715-6.923-8.853-13.189-8.243-5.087.495-9.65,5.294-10.243,10.774-.242,2.231.676,3.388,2.964,3.449,3.017.081,6.037.02,9.056.023" transform="translate(-132.568 -143.601)" fill="#161615"/>
        <path id="Trazado_716096" data-name="Trazado 716096" d="M31.569,62.554h47.36a49.192,49.192,0,0,0-3.354,6.553A16.765,16.765,0,0,0,91.412,91.268c12.717.064,25.436.016,38.154.017h2.619v4.681c-2.421,0-4.8-.075-7.159.047a2.61,2.61,0,0,0-1.944,1.008c-2.013,4.164-2.617,4.4-7.286,2.12-2.8,2.819-5.726,5.673-8.5,8.663-.358.386-.172,1.559.114,2.213,1.2,2.747.621,4.474-2.208,5.274a2.055,2.055,0,0,0-1.725,2.48c.072,2.09,0,4.184-.026,6.277a2.468,2.468,0,0,1-.205.58H31.569Zm4.611,38.055H74.519v-4.5H36.18Zm0,19.316H74.523v-4.5H36.18Zm57.528-9.618v-4.434c-3.927-.53-3.927-.53-4.916-4.386-1.038-4.049-4.579-6.082-9.288-5.23V100.8c3.482-.611,4.942,1.083,5.022,4.332a4.037,4.037,0,0,0,.578,1.5c.545,1.122-.96,7.549-2,8.136a5.747,5.747,0,0,1-1.766.481c-.589.109-1.193.137-1.813.2v4.4c4.933.737,8.368-1.351,9.344-5.564.864-3.724.864-3.724,4.838-3.992M50.434,71.949V67.4c-4.632-.7-8.515,1.366-9.155,5.137C40.556,76.8,40.539,76.5,36.254,77V81.42c3.938.28,4.385.589,4.827,3.228.825,4.922,4.408,7.36,9.372,6.325V86.6c-.88-.085-1.79.077-2.365-.289A5.77,5.77,0,0,1,45.9,84.048a36.748,36.748,0,0,1-1.478-4.853c.466-1.578,1.06-3.154,1.376-4.784a2.47,2.47,0,0,1,2.627-2.356c.606-.012,1.211-.063,2-.106M74.615,105.82H45.977v4.433H74.615ZM55.563,72.048H66.1c4.044,0,4.047,0,3.767-4.049a2.5,2.5,0,0,0-.274-.673H55.563Zm-.029,9.329h14.2V76.924h-14.2Zm.012,9.761H69.765V86.625H55.545ZM40.954,105.833H36.228v4.4h4.726Z" transform="translate(-16.877 -33.443)" fill="#ffdbdb"/>
        <path id="Trazado_716097" data-name="Trazado 716097" d="M148.665,34.755c2.091-13.924,9.68-22.62,20.394-23.8a25.278,25.278,0,0,1,14.05,2.015c4.451,2.137,8.329,5.162,10.361,9.642,1.939,4.275,2.985,8.955,4.382,13.329a38.362,38.362,0,0,1,6.744-1.131c6.187-.031,11.106,5.015,11.5,11.419a11.864,11.864,0,0,1-10.118,12.244,23.515,23.515,0,0,1-3.24.272q-27.466.024-54.931,0c-6.971-.009-11.649-3.476-13.056-9.557a11.953,11.953,0,0,1,10.781-14.432c.994-.059,1.994-.008,3.128-.008m24.228,14.808,4.83-28.845-4.786-.73c-1.614,9.7-3.188,19.163-4.779,28.73l4.735.845M186.684,34.69l-8.265,7.548,3.249,3.274,10.869-10.674L181.688,23.765l-3.5,3.17,8.5,7.756m-19.5-7.734-2.734-3L153.262,34.828,164.2,45.81l3.6-3.768-8.529-7.72,7.917-7.367" transform="translate(-71.887 -5.745)" fill="#abffff"/>
        <path id="Trazado_716098" data-name="Trazado 716098" d="M125.79,80.039h4.589c.063.667.168,1.26.169,1.852q.013,21.408,0,42.817c-.005,4.016-1.305,6.043-4.706,7.3v-8.664h-14.4v9.216h-4.638V123.4H92.3v9.128c-1.05.063-1.865.155-2.679.155q-35.38.011-70.759,0c-5.686,0-8.387-2.7-8.39-8.419q-.021-37.232,0-74.464c0-5.565,2.912-8.442,8.476-8.445q29.095-.016,58.19,0h2.17l-1.282,4.935h-2.84c-17.767,0-35.535.067-53.3-.048-4.223-.027-6.65,1.3-6.6,6.651.167,19.778.065,39.559.068,59.338,0,4.549,1.43,6.042,5.925,6.043q49.229.019,98.457,0c4.6,0,6.057-1.516,6.059-6.175q0-14.66,0-29.32Z" transform="translate(-5.592 -22.105)" fill="#bfc6d0"/>
        <rect id="Rectángulo_353719" data-name="Rectángulo 353719" width="33.406" height="9.121" transform="translate(48.249 115.687)" fill="#8b929a"/>
        <path id="Trazado_716099" data-name="Trazado 716099" d="M72.908,283.835c.257-2.984,1.753-4.545,4.534-4.55q26.494-.042,52.988,0c2.832,0,4.382,1.656,4.436,4.548Z" transform="translate(-38.978 -149.3)" fill="#838e9a"/>
        <path id="Trazado_716100" data-name="Trazado 716100" d="M220.254,145.01v9.339c-4.111-.4-7.74.478-10.7,3.37-3,2.924-3.926,6.542-3.439,10.749H196.28c0-1.4-.054-2.768.032-4.13.027-.437.375-1.178.663-1.223,2.237-.349,2.538-2.13,3.111-3.812.634-1.862,2.386-3.475.8-5.756-.2-.291,1.009-1.668,1.685-2.437,1.164-1.322,2.3-2.867,4.391-1.25.273.211,1.017-.072,1.491-.258,1.505-.593,2.99-1.237,4.471-1.89a2.61,2.61,0,0,0,1.089-.685c1.857-2.613,2.691-2.909,6.239-2.017" transform="translate(-104.926 -77.282)" fill="#ffc403"/>
        <path id="Trazado_716101" data-name="Trazado 716101" d="M236.989,185.319h-9.074a6.313,6.313,0,0,1,1.21-6.856,6.52,6.52,0,0,1,6.631-2.317,1.819,1.819,0,0,1,1.178,1.26c.113,2.6.055,5.2.055,7.913" transform="translate(-121.56 -94.092)" fill="#ffdbdb"/>
        <rect id="Rectángulo_353720" data-name="Rectángulo 353720" width="4.45" height="4.505" transform="translate(110.779 105.93)" fill="#b20d0d"/>
        <rect id="Rectángulo_353721" data-name="Rectángulo 353721" width="4.497" height="4.494" transform="translate(91.476 105.955)" fill="#b20d0d"/>
        <path id="Trazado_716102" data-name="Trazado 716102" d="M270.335,293.543c-3.019,0-6.039.059-9.056-.021-2.288-.061-3.206-1.218-2.964-3.449.593-5.479,5.156-10.279,10.243-10.774,6.265-.61,11.315,2.528,13.189,8.243a12.443,12.443,0,0,1,.455,2.493c.276,2.494-.517,3.445-3.042,3.5-2.94.06-5.882.014-8.824.013" transform="translate(-138.08 -149.279)" fill="#a03d3d"/>
        <rect id="Rectángulo_353722" data-name="Rectángulo 353722" width="38.339" height="4.502" transform="translate(19.303 62.665)" fill="#161615"/>
        <rect id="Rectángulo_353723" data-name="Rectángulo 353723" width="38.343" height="4.501" transform="translate(19.303 81.981)" fill="#161615"/>
        <path id="Trazado_716103" data-name="Trazado 716103" d="M148.775,148.8c-3.975.267-3.975.267-4.838,3.992-.976,4.213-4.412,6.3-9.344,5.564v-4.4c.62-.067,1.223-.1,1.813-.2a5.734,5.734,0,0,0,1.766-.481c1.041-.587,2.547-7.014,2-8.136a4.042,4.042,0,0,1-.578-1.5c-.08-3.248-1.54-4.943-5.022-4.332v-4.547c4.708-.851,8.249,1.181,9.288,5.23.988,3.856.988,3.856,4.916,4.386Z" transform="translate(-71.945 -71.94)" fill="#161615"/>
        <path id="Trazado_716104" data-name="Trazado 716104" d="M55.816,77.361c-.793.043-1.4.094-2,.106a2.471,2.471,0,0,0-2.628,2.356c-.316,1.63-.91,3.206-1.376,4.784a36.778,36.778,0,0,0,1.478,4.853,5.77,5.77,0,0,0,2.184,2.265c.575.365,1.485.2,2.365.289v4.371c-4.964,1.035-8.547-1.4-9.372-6.325-.442-2.639-.889-2.949-4.827-3.228V82.415c4.285-.5,4.3-.206,5.025-4.465.64-3.771,4.522-5.84,9.155-5.137Z" transform="translate(-22.259 -38.855)" fill="#161615"/>
        <rect id="Rectángulo_353724" data-name="Rectángulo 353724" width="28.638" height="4.433" transform="translate(29.1 72.377)" fill="#161615"/>
        <path id="Trazado_716105" data-name="Trazado 716105" d="M83.126,77.531V72.809H97.16a2.532,2.532,0,0,1,.274.673c.281,4.049.277,4.049-3.767,4.049H83.126" transform="translate(-44.441 -38.925)" fill="#161615"/>
        <rect id="Rectángulo_353725" data-name="Rectángulo 353725" width="14.199" height="4.453" transform="translate(38.656 43.48)" fill="#161615"/>
        <rect id="Rectángulo_353726" data-name="Rectángulo 353726" width="14.219" height="4.513" transform="translate(38.668 53.183)" fill="#161615"/>
        <rect id="Rectángulo_353727" data-name="Rectángulo 353727" width="4.726" height="4.404" transform="translate(19.351 72.39)" fill="#161615"/>
        <path id="Trazado_716106" data-name="Trazado 716106" d="M211.6,60.181l-4.735-.845,4.779-28.73,4.785.729c-1.632,9.746-3.218,19.217-4.83,28.845" transform="translate(-110.595 -16.363)" fill="#161615"/>
        <path id="Trazado_716107" data-name="Trazado 716107" d="M236.913,49.647l-8.5-7.755,3.5-3.17,10.85,11.073L231.9,60.468l-3.249-3.274,8.264-7.548" transform="translate(-122.116 -20.702)" fill="#161615"/>
        <path id="Trazado_716108" data-name="Trazado 716108" d="M188.782,42.132,180.865,49.5l8.529,7.72-3.6,3.768L174.856,50l11.192-10.872,2.734,3" transform="translate(-93.481 -20.921)" fill="#161615"/>
      </g>
    </g>
  </g>
</svg>
