<svg xmlns="http://www.w3.org/2000/svg" width="1240" height="652.936" viewBox="0 0 1240 652.936">
  <g id="Grupo_1003667" data-name="Grupo 1003667" transform="translate(-180 -1307.866)">
    <path id="Trazado_716136" data-name="Trazado 716136" d="M73.561,650.459c.055.044,1081.88-.144,1081.88-.144,35.616-82.047,35.553-122.132,39.609-169.161,22.377-259.934-158.9-299.9-212.009-310.736C820.432,137.23,894.441-26.978,470.708,3.83,431.872,6.653,340.3,29.45,308.747,44.219c-22.135,10.35-105.527,56.665-129.993,135.011-7.728,24.726-9.582,52.644-1.791,83.627C204.54,372.5,132.646,366.2,80.112,418.45c-70.118,69.732-62.789,183.775-6.55,232.009" transform="translate(193.25 1307.865)" fill="#facdab" opacity="0.46"/>
    <path id="Trazado_716137" data-name="Trazado 716137" d="M506.7,447.844h.148a1.557,1.557,0,0,0,1.557-1.592l-2.36-102.291-6.952-.812,5.928,103.108a1.682,1.682,0,0,0,1.679,1.586" transform="translate(404.523 1510.414)" fill="#8d0a0a"/>
    <path id="Trazado_716138" data-name="Trazado 716138" d="M534.644,447.844h.148a1.557,1.557,0,0,0,1.557-1.592l-2.36-102.291-6.952-.812,5.928,103.108a1.682,1.682,0,0,0,1.679,1.586" transform="translate(417.093 1510.414)" fill="#8d0a0a"/>
    <path id="Trazado_716139" data-name="Trazado 716139" d="M455.71,447.844h-.148a1.557,1.557,0,0,1-1.557-1.592l2.36-102.291,6.952-.812-5.928,103.108a1.682,1.682,0,0,1-1.679,1.586" transform="translate(384.238 1510.414)" fill="#8d0a0a"/>
    <path id="Trazado_716140" data-name="Trazado 716140" d="M564.989,368.012V297.918a22.332,22.332,0,0,0-22.332-22.332h-50.5a22.333,22.333,0,0,0-22.332,22.332v72.773Z" transform="translate(391.354 1480.02)" fill="#a03d3d"/>
    <path id="Trazado_716141" data-name="Trazado 716141" d="M463.583,350.4H562.3a5.5,5.5,0,0,0,5.5-5.5v-5.563H463.583Z" transform="translate(388.547 1508.697)" fill="#8d0a0a"/>
    <path id="Trazado_716142" data-name="Trazado 716142" d="M454.854,350.4h78.184a2.75,2.75,0,0,0,2.75-2.75v-5.565a2.75,2.75,0,0,0-2.75-2.75H454.854a2.75,2.75,0,0,0-2.75,2.75v5.565a2.75,2.75,0,0,0,2.75,2.75" transform="translate(383.383 1508.697)" fill="#a03d3d"/>
    <rect id="Rectángulo_353743" data-name="Rectángulo 353743" width="291.13" height="251.316" transform="translate(719.299 1479.112)" fill="#8d0a0a"/>
    <rect id="Rectángulo_353744" data-name="Rectángulo 353744" width="279.927" height="242.118" transform="translate(724.84 1483.298)" fill="#dc8686"/>
    <path id="Trazado_716143" data-name="Trazado 716143" d="M462.3,187.1H400.96v-76.6l10.4-9.376H462.3Z" transform="translate(360.376 1401.539)" fill="#fff"/>
    <path id="Trazado_716144" data-name="Trazado 716144" d="M400.961,110.507h10.068l.334-9.376Z" transform="translate(360.376 1401.539)" fill="#b0d4ff"/>
    <rect id="Rectángulo_353745" data-name="Rectángulo 353745" width="19.64" height="0.935" transform="translate(782.188 1510.126)" fill="#b0d4ff"/>
    <rect id="Rectángulo_353746" data-name="Rectángulo 353746" width="28.887" height="0.935" transform="translate(777.564 1512.932)" fill="#b0d4ff"/>
    <rect id="Rectángulo_353747" data-name="Rectángulo 353747" width="47.966" height="1.202" transform="translate(768.598 1530.951)" fill="#b0d4ff"/>
    <rect id="Rectángulo_353748" data-name="Rectángulo 353748" width="47.966" height="1.202" transform="translate(768.598 1534.604)" fill="#b0d4ff"/>
    <rect id="Rectángulo_353749" data-name="Rectángulo 353749" width="47.966" height="1.202" transform="translate(768.598 1538.256)" fill="#b0d4ff"/>
    <rect id="Rectángulo_353750" data-name="Rectángulo 353750" width="47.966" height="1.202" transform="translate(768.598 1541.908)" fill="#b0d4ff"/>
    <rect id="Rectángulo_353751" data-name="Rectángulo 353751" width="47.966" height="1.202" transform="translate(768.598 1580.988)" fill="#b0d4ff"/>
    <path id="Trazado_716145" data-name="Trazado 716145" d="M511.152,260.4H449.813V183.8l10.4-9.376h50.938Z" transform="translate(382.353 1434.513)" fill="#fff"/>
    <path id="Trazado_716146" data-name="Trazado 716146" d="M449.813,183.8h10.066l.335-9.376Z" transform="translate(382.353 1434.513)" fill="#b0d4ff"/>
    <rect id="Rectángulo_353752" data-name="Rectángulo 353752" width="19.64" height="0.935" transform="translate(853.016 1616.395)" fill="#b0d4ff"/>
    <rect id="Rectángulo_353753" data-name="Rectángulo 353753" width="28.887" height="0.935" transform="translate(848.391 1619.2)" fill="#b0d4ff"/>
    <rect id="Rectángulo_353754" data-name="Rectángulo 353754" width="47.966" height="1.202" transform="translate(839.427 1637.221)" fill="#b0d4ff"/>
    <rect id="Rectángulo_353755" data-name="Rectángulo 353755" width="47.966" height="1.202" transform="translate(839.427 1640.873)" fill="#b0d4ff"/>
    <rect id="Rectángulo_353756" data-name="Rectángulo 353756" width="47.966" height="1.202" transform="translate(839.427 1644.525)" fill="#b0d4ff"/>
    <rect id="Rectángulo_353757" data-name="Rectángulo 353757" width="47.966" height="1.202" transform="translate(839.427 1648.178)" fill="#b0d4ff"/>
    <rect id="Rectángulo_353758" data-name="Rectángulo 353758" width="47.966" height="1.202" transform="translate(839.427 1659.414)" fill="#b0d4ff"/>
    <rect id="Rectángulo_353759" data-name="Rectángulo 353759" width="47.966" height="1.202" transform="translate(839.427 1663.066)" fill="#b0d4ff"/>
    <rect id="Rectángulo_353760" data-name="Rectángulo 353760" width="47.966" height="1.202" transform="translate(839.427 1667.301)" fill="#b0d4ff"/>
    <rect id="Rectángulo_353761" data-name="Rectángulo 353761" width="33.872" height="29.861" transform="translate(894.249 1502.669)" fill="#b0d4ff"/>
    <path id="Trazado_716147" data-name="Trazado 716147" d="M503.291,104.042a1.483,1.483,0,1,1,1.483,1.483,1.483,1.483,0,0,1-1.483-1.483" transform="translate(406.411 1402.182)" fill="#ffa412"/>
    <rect id="Rectángulo_353762" data-name="Rectángulo 353762" width="33.871" height="29.861" transform="translate(893.25 1544.272) rotate(-3.993)" fill="#fff"/>
    <path id="Trazado_716148" data-name="Trazado 716148" d="M502.837,133.3a1.483,1.483,0,1,1,1.583,1.376,1.483,1.483,0,0,1-1.583-1.376" transform="translate(406.205 1415.295)" fill="#b0d4ff"/>
    <rect id="Rectángulo_353763" data-name="Rectángulo 353763" width="33.871" height="29.861" transform="matrix(0.998, -0.07, 0.07, 0.998, 780.695, 1654.284)" fill="#fff"/>
    <path id="Trazado_716149" data-name="Trazado 716149" d="M425.205,209.172a1.483,1.483,0,1,1,1.583,1.376,1.484,1.484,0,0,1-1.583-1.376" transform="translate(371.281 1449.43)" fill="#b0d4ff"/>
    <rect id="Rectángulo_353764" data-name="Rectángulo 353764" width="33.872" height="29.861" transform="translate(738.101 1673.703) rotate(-0.589)" fill="#fff"/>
    <path id="Trazado_716150" data-name="Trazado 716150" d="M395.631,223.181a1.483,1.483,0,1,1,1.5,1.467,1.482,1.482,0,0,1-1.5-1.467" transform="translate(357.979 1455.771)" fill="#b0d4ff"/>
    <rect id="Rectángulo_353765" data-name="Rectángulo 353765" width="29.862" height="33.871" transform="translate(939.724 1589.347) rotate(-79.867)" fill="#eef6ff"/>
    <path id="Trazado_716151" data-name="Trazado 716151" d="M537.76,145.614a1.289,1.289,0,1,1,1.042,1.5,1.29,1.29,0,0,1-1.042-1.5" transform="translate(421.908 1421.072)" fill="#78acea"/>
    <rect id="Rectángulo_353766" data-name="Rectángulo 353766" width="33.871" height="29.861" transform="matrix(0.994, -0.108, 0.108, 0.994, 840.598, 1544.966)" fill="#eef6ff"/>
    <path id="Trazado_716152" data-name="Trazado 716152" d="M466.66,132.359a1.29,1.29,0,1,1,1.421,1.144,1.29,1.29,0,0,1-1.421-1.144" transform="translate(389.928 1414.945)" fill="#78acea"/>
    <rect id="Rectángulo_353767" data-name="Rectángulo 353767" width="33.871" height="29.861" transform="translate(753.227 1618.972) rotate(-12.037)" fill="#bae8e3"/>
    <path id="Trazado_716153" data-name="Trazado 716153" d="M407.07,183.114a1.289,1.289,0,1,1,1.783-.38,1.288,1.288,0,0,1-1.783.38" transform="translate(362.86 1437.354)" fill="#ffa412"/>
    <path id="Trazado_716154" data-name="Trazado 716154" d="M489.47,130.992H457.233V109.331l8.925-8.2H489.47Z" transform="translate(385.69 1401.539)" fill="#fff"/>
    <path id="Trazado_716155" data-name="Trazado 716155" d="M457.114,109.331h8.805l.293-8.2Z" transform="translate(385.637 1401.539)" fill="#b0d4ff"/>
    <path id="Trazado_716156" data-name="Trazado 716156" d="M468.432,103.365a1.06,1.06,0,1,1,1.06,1.06,1.059,1.059,0,0,1-1.06-1.06" transform="translate(390.729 1402.068)" fill="#b0d4ff"/>
    <path id="Trazado_716157" data-name="Trazado 716157" d="M554.437,253.287H522.2V231.626l8.925-8.2h23.312Z" transform="translate(414.917 1456.555)" fill="#fff"/>
    <path id="Trazado_716158" data-name="Trazado 716158" d="M522.081,231.626h8.8l.293-8.2Z" transform="translate(414.863 1456.556)" fill="#b0d4ff"/>
    <path id="Trazado_716159" data-name="Trazado 716159" d="M533.4,225.66a1.06,1.06,0,1,1,1.06,1.06,1.059,1.059,0,0,1-1.06-1.06" transform="translate(419.955 1457.084)" fill="#b0d4ff"/>
    <path id="Trazado_716160" data-name="Trazado 716160" d="M564.581,223.638H532.343V201.977l8.925-8.2h23.312Z" transform="translate(419.48 1443.218)" fill="#fff"/>
    <path id="Trazado_716161" data-name="Trazado 716161" d="M532.224,201.978h8.8l.293-8.2Z" transform="translate(419.426 1443.218)" fill="#b0d4ff"/>
    <path id="Trazado_716162" data-name="Trazado 716162" d="M543.542,196.012a1.06,1.06,0,1,1,1.06,1.06,1.059,1.059,0,0,1-1.06-1.06" transform="translate(424.518 1443.746)" fill="#b0d4ff"/>
    <path id="Trazado_716163" data-name="Trazado 716163" d="M535.237,223.638H503V201.977l8.925-8.2h23.312Z" transform="translate(406.279 1443.218)" fill="#bae8e3"/>
    <path id="Trazado_716164" data-name="Trazado 716164" d="M502.881,201.978h8.8l.293-8.2Z" transform="translate(406.226 1443.218)" fill="#a1d6ce"/>
    <path id="Trazado_716165" data-name="Trazado 716165" d="M514.2,196.012a1.06,1.06,0,1,1,1.06,1.06,1.059,1.059,0,0,1-1.06-1.06" transform="translate(411.317 1443.746)" fill="#f99746"/>
    <path id="Trazado_716166" data-name="Trazado 716166" d="M570.855,125.836H538.618V104.175l8.925-8.2h23.312Z" transform="translate(422.303 1399.22)" fill="#bae8e3"/>
    <path id="Trazado_716167" data-name="Trazado 716167" d="M538.5,104.175h8.8l.293-8.2Z" transform="translate(422.249 1399.221)" fill="#a1d6ce"/>
    <path id="Trazado_716168" data-name="Trazado 716168" d="M549.817,98.209a1.06,1.06,0,1,1,1.06,1.06,1.059,1.059,0,0,1-1.06-1.06" transform="translate(427.341 1399.748)" fill="#f99746"/>
    <path id="Trazado_716169" data-name="Trazado 716169" d="M349.447,102.23H312.4a17.308,17.308,0,0,1-17.258-17.258V50.064A17.308,17.308,0,0,1,312.4,32.806h37.044A17.309,17.309,0,0,1,366.7,50.064V84.972a17.309,17.309,0,0,1-17.258,17.258" transform="translate(312.774 1370.803)" fill="#8a3d02"/>
    <path id="Trazado_716170" data-name="Trazado 716170" d="M346.881,98.289H313.045a15.808,15.808,0,0,1-15.761-15.761V50.644a15.808,15.808,0,0,1,15.761-15.763h33.834a15.808,15.808,0,0,1,15.763,15.763V82.528a15.808,15.808,0,0,1-15.761,15.761" transform="translate(313.736 1371.736)" fill="#f09250"/>
    <g id="Grupo_1003663" data-name="Grupo 1003663">
      <path id="Trazado_716171" data-name="Trazado 716171" d="M318.8,39.711a1.482,1.482,0,1,1,1.482,1.482,1.482,1.482,0,0,1-1.482-1.482" transform="translate(323.416 1373.242)"/>
      <path id="Trazado_716172" data-name="Trazado 716172" d="M327.109,40.932a1.482,1.482,0,1,1,.576,2.015,1.483,1.483,0,0,1-.576-2.015" transform="translate(327.069 1374.116)"/>
      <path id="Trazado_716173" data-name="Trazado 716173" d="M334.329,46.385a1.482,1.482,0,1,1-.442,2.049,1.481,1.481,0,0,1,.442-2.049" transform="translate(330.096 1376.805)"/>
      <path id="Trazado_716174" data-name="Trazado 716174" d="M338.079,55a1.482,1.482,0,1,1-1.482,1.482A1.482,1.482,0,0,1,338.079,55" transform="translate(331.421 1380.788)"/>
      <path id="Trazado_716175" data-name="Trazado 716175" d="M336.617,65.223a1.482,1.482,0,1,1-2.1,0,1.483,1.483,0,0,1,2.1,0" transform="translate(330.292 1385.19)"/>
      <path id="Trazado_716176" data-name="Trazado 716176" d="M330.2,71.66a1.482,1.482,0,1,1-2.1,0,1.483,1.483,0,0,1,2.1,0" transform="translate(327.404 1388.087)"/>
      <path id="Trazado_716177" data-name="Trazado 716177" d="M318.8,75.3a1.482,1.482,0,1,1,1.482,1.482A1.482,1.482,0,0,1,318.8,75.3" transform="translate(323.416 1389.254)"/>
      <path id="Trazado_716178" data-name="Trazado 716178" d="M313.425,40.932a1.482,1.482,0,1,0-.576,2.015,1.483,1.483,0,0,0,.576-2.015" transform="translate(319.748 1374.116)"/>
      <path id="Trazado_716179" data-name="Trazado 716179" d="M306.205,46.385a1.482,1.482,0,1,0,.442,2.049,1.481,1.481,0,0,0-.442-2.049" transform="translate(316.721 1376.805)"/>
      <path id="Trazado_716180" data-name="Trazado 716180" d="M302.455,55a1.482,1.482,0,1,0,1.482,1.482A1.482,1.482,0,0,0,302.455,55" transform="translate(315.396 1380.788)"/>
      <path id="Trazado_716181" data-name="Trazado 716181" d="M303.917,65.223a1.482,1.482,0,1,0,2.1,0,1.483,1.483,0,0,0-2.1,0" transform="translate(316.525 1385.19)"/>
      <path id="Trazado_716182" data-name="Trazado 716182" d="M310.338,71.66a1.482,1.482,0,1,0,2.1,0,1.481,1.481,0,0,0-2.1,0" transform="translate(319.413 1388.087)"/>
      <path id="Trazado_716183" data-name="Trazado 716183" d="M319.548,56.484a1.482,1.482,0,1,1,1.482,1.482,1.482,1.482,0,0,1-1.482-1.482" transform="translate(323.752 1380.788)"/>
      <rect id="Rectángulo_353768" data-name="Rectángulo 353768" width="0.404" height="18.518" transform="translate(644.58 1418.754)"/>
      <rect id="Rectángulo_353769" data-name="Rectángulo 353769" width="12.48" height="1.214" transform="translate(644.219 1436.767) rotate(-38.117)"/>
    </g>
    <path id="Trazado_716184" data-name="Trazado 716184" d="M613.246,421.346c-.293,3.983-5.913,4.025-12.289,3.285s-4.679.874-13.608,1-12-2.826-12.437-4.1c-.384-1.132,3.915-2.085,8.515-3.2.579-.139,1.159-.286,1.74-.432,5.188-1.319,8.621-5.2,13.059-8.59,4.2-3.21,9.624-14.831,9.624-14.831l12.2-.551s-5.137,10.416-7.065,14.907c-1.135,2.64-.651,5.886-.158,8.377a15.694,15.694,0,0,1,.423,4.142" transform="translate(438.619 1533.254)" fill="#ffb27d"/>
    <path id="Trazado_716185" data-name="Trazado 716185" d="M600.958,417.407c-6.376-.739-4.682.874-13.608,1s-12-2.826-12.437-4.1c-.386-1.132,3.914-2.085,8.513-3.2l.055.084a25.019,25.019,0,0,0,13.1,2.346c5.992-.6,12.106-3.1,16.24-3.549a15.628,15.628,0,0,1,.423,4.142c-.293,3.983-5.911,4.025-12.288,3.285" transform="translate(438.619 1540.479)" fill="#0e3636"/>
    <path id="Trazado_716186" data-name="Trazado 716186" d="M671.339,424.447c-.288,3.983-5.907,4.031-12.283,3.3s-4.682.88-13.608,1.012-12.008-2.814-12.441-4.089c-.386-1.132,3.913-2.089,8.512-3.214.578-.139,1.158-.286,1.738-.432,5.186-1.324,8.617-5.209,13.05-8.6,4.2-3.216,0-22.25,0-22.25l13.414-1.306s-.644,16.027-.635,23.314c0,2.875,1.327,5.639,1.822,8.129a15.627,15.627,0,0,1,.426,4.142" transform="translate(464.753 1530.979)" fill="#ffb27d"/>
    <path id="Trazado_716187" data-name="Trazado 716187" d="M659.056,417.988c-6.377-.734-4.68.879-13.607,1.012s-12.009-2.814-12.441-4.09c-.387-1.131,3.912-2.088,8.511-3.213l.055.084a25.017,25.017,0,0,0,13.1,2.333c5.992-.606,12.1-3.114,16.237-3.565a15.569,15.569,0,0,1,.426,4.142c-.287,3.983-5.907,4.031-12.283,3.3" transform="translate(464.754 1540.734)" fill="#0e3636"/>
    <path id="Trazado_716188" data-name="Trazado 716188" d="M632.678,194.575c-2.311-9.5,1.037-13.92,4.057-16.276,1.432-3.5,3.068-6.015,4.74-6.965a17.092,17.092,0,0,1,9.257-1.77,4.32,4.32,0,0,0-1.953-.926c1.585-.236,5.121,1.335,5.121,1.335,22.042-8.493,25.506,23.962,25.043,31.5s-.4,16.42,11.068,22.36c21.881,11.335-7.271,54.051-7.271,54.051.558-6.094-27.557-38.247-42.224-47.877-3.571-5.257-4.84-14.542-4.935-15.273.616,7.362,1.876,11.493,3,13.817-6.684-6.152-7.674-20.926-5.9-33.976" transform="translate(464.269 1431.876)" fill="#a9453d"/>
    <path id="Trazado_716189" data-name="Trazado 716189" d="M638.443,218.012c-.074.033,7.083,3.748,12.463,2.276,5.063-1.38,8.371-7.945,8.3-7.96-2.144-.425-2.762-3.372-2.717-16.033l-.97.191-16.3,3.227s.371,5.128.381,9.961c.012,4.057-.235,7.9-1.163,8.337" transform="translate(467.21 1444.351)" fill="#ffb27d"/>
    <path id="Trazado_716190" data-name="Trazado 716190" d="M638.982,199.654s.371,5.128.381,9.961c9.12-.258,13.94-8.576,15.915-13.188Z" transform="translate(467.453 1444.409)" fill="#ed975d"/>
    <path id="Trazado_716191" data-name="Trazado 716191" d="M593.309,455.123a4,4,0,0,0,3.623,5.209l6.366.3,6.736.206a5.408,5.408,0,0,0,4.361-1.989,189.426,189.426,0,0,0,31.966-60.526q.426-1.344.9-2.72c6.63-19.334,20.376-43.6,27.62-65.566,1.153-3.5,2.188-6.793,3.117-9.908.3-1,.587-1.979.863-2.945,5.338-18.548,6.883-30.725,8.308-43.736l-52.305.419s-11.012,85.587-41.552,181.259" transform="translate(446.82 1479.057)" fill="#03a4a4"/>
    <path id="Trazado_716192" data-name="Trazado 716192" d="M629.311,274.037c.132,24.89-3.651,35.568-3.651,35.568a70.28,70.28,0,0,0,49.011,3c.313-.1,22.039-5.057,22.039-5.057-.446-1.008-4.406-17.781-4.841-18.7-5.62-12.069-9.887-17.359-10.554-21.069a78.968,78.968,0,0,1-.647-20.853,167.4,167.4,0,0,1,6.453-32.748c-7.252-1.65-14.043-4.548-21.591-7.38-1.737,2.163-7.045,4.425-11.648,4.322-5.3-.117-7.022-2.388-6.746-4.866-5.65,3.145-10.159,6.114-10.159,6.114-4.8,8.341-14.539,16.441-15.245,29.236-.174,3.146,7.574,31.737,7.578,32.435" transform="translate(459.691 1448.829)" fill="#fff"/>
    <path id="Trazado_716193" data-name="Trazado 716193" d="M660.423,268.339c2.286,3.236,6.671,22.9,17.577,25.377-5.62-14.017-9.888-20.165-10.554-24.474a106.3,106.3,0,0,1-.648-24.223c-3.651-6.4-6.375-10.785-6.375-10.785-.287-1.035-5.8-18.087-7.568-2.845s5.015,33.329,7.568,36.95" transform="translate(473.563 1457.301)" fill="#5f9aa8"/>
    <path id="Trazado_716194" data-name="Trazado 716194" d="M639.112,213.106s21.577.355,21.591-13.084,2.81-22.447-10.965-23.243-16.459,4.331-17.555,8.815,1.316,27.072,6.929,27.511" transform="translate(464.278 1435.534)" fill="#ffb27d"/>
    <path id="Trazado_716195" data-name="Trazado 716195" d="M637.433,177.375s5.908,15.769,14.974,18.1,13-.1,13-.1a25.677,25.677,0,0,1-8.4-15.168s-15.119-10.338-19.575-2.833" transform="translate(466.756 1434.609)" fill="#a9453d"/>
    <path id="Trazado_716196" data-name="Trazado 716196" d="M641.833,178.208s-4.412,3.52-5.488,6.943-1.559,10.468-3.613,10.229c0,0-4.45-10.719.551-16.781,5.3-6.429,8.55-.391,8.55-.391" transform="translate(463.82 1435.057)" fill="#a9453d"/>
    <path id="Trazado_716197" data-name="Trazado 716197" d="M616.628,264.92l-10.191,31.071,5.813,2.33,16.85-27.45Z" transform="translate(452.812 1475.222)" fill="#ffb27d"/>
    <path id="Trazado_716198" data-name="Trazado 716198" d="M641.728,209.207s-12.016,4.769-15.495,12.2-8.743,57.3-10.841,62.421-3.674,9.176-3.674,9.176,6.059,5.1,12.151,5.48,17.858-89.279,17.858-89.279" transform="translate(455.188 1450.159)" fill="#a0571f"/>
    <path id="Trazado_716199" data-name="Trazado 716199" d="M649.393,206.252s-12.483,30.839-12.85,37.08-1.469,102.061-1.469,102.061.734,4.406-7.71,2.571-10.646-3.671-10.646-3.671,8.077-59.108,5.875-79.667,16.888-54.09,16.888-54.09Z" transform="translate(457.437 1448.829)" fill="#a0571f"/>
    <path id="Trazado_716200" data-name="Trazado 716200" d="M600.14,448.872l7.313.225a4.229,4.229,0,0,0,3.393-1.532c4.917-5.953,22.063-28.24,32.358-61q.424-1.344.9-2.72c6.63-19.334,20.376-43.6,27.62-65.566,1.153-3.5,2.188-6.793,3.116-9.908q.448-1.5.864-2.945L668,299.58s-23.125,37.447-30.285,72.687c-6.218,30.611-31.124,67.445-37.572,76.6" transform="translate(449.979 1490.814)" fill="#048585"/>
    <path id="Trazado_716201" data-name="Trazado 716201" d="M647.982,378.634c-.125,16.212.644,52.349,2.617,70.012a3.19,3.19,0,0,0,3.174,2.837h5.457c2.3,0,4.022-.017,5.164-.033a2.1,2.1,0,0,0,2.026-1.7c5.427-27.617,9.311-50.561,12.156-70.385,2.378-16.6,4.493-30.821,6.12-43.068,1.637-12.325,2.775-22.645,3.182-31.365.062-1.372.11-2.708.135-4s.035-2.571.023-3.8l-45.194-4.406c.568,30.028,5.214,75.948,5.14,85.909" transform="translate(469.189 1487.73)" fill="#03a4a4"/>
    <path id="Trazado_716202" data-name="Trazado 716202" d="M654.146,447.694c2.066,0,3.665-.013,4.8-.029a2.546,2.546,0,0,0,2.462-2.056c5.389-27.459,9.253-50.291,12.085-70.03,2.379-16.6,4.493-30.821,6.12-43.068,1.638-12.325,2.775-22.645,3.182-31.365L666.21,310.9s10.584,3.733,6.546,32-12.989,100.787-18.61,104.789" transform="translate(474.274 1491.519)" fill="#048585"/>
    <path id="Trazado_716203" data-name="Trazado 716203" d="M657.466,343.363s3.182,11.5,14.2,10.033,26.674-8.076,26.674-8.076-4.706-14.873-10.558-34.411c-7.085-23.654-15.857-54.148-19.991-73.382a118.814,118.814,0,0,1-2.246-13.114L656.4,206.685s-13.624,30.579-14.358,38.288,15.419,98.39,15.419,98.39" transform="translate(468.82 1449.024)" fill="#a0571f"/>
    <path id="Trazado_716204" data-name="Trazado 716204" d="M673.468,243.825l-12.06-37.14c.032.016,15.231,4.524,22.877,8.386,0,0,4.779,6.16,7.735,20.375,0,0,3.124,34.125-3.851,46.607,0,0-22.028,4.406-57.272-7.709v-8.077s38.549,2.02,46.442,2.937Z" transform="translate(463.815 1449.024)" fill="#ffb27d"/>
    <path id="Trazado_716205" data-name="Trazado 716205" d="M653.014,251.557c.492,12.483,3.429,36.713,29.616,49.684.07.033.139.07.209.1-7.085-23.653-15.856-54.148-19.989-73.382-4.811,7.188-10.1,16.727-9.836,23.6" transform="translate(473.761 1458.594)" fill="#8a3d02"/>
    <path id="Trazado_716206" data-name="Trazado 716206" d="M652.342,206.685s22.355,1.575,27.74,13.568,7.1,51.888.245,63.636c0,0-9.436,2.687-26.122-.433-.2-.038-.41-.078-.618-.117,0,0-5.322-13.033-.549-15.6,0,0,14.072.735,12.6-3.916s-13.3-57.133-13.3-57.133" transform="translate(472.881 1449.024)" fill="#a0571f"/>
    <path id="Trazado_716207" data-name="Trazado 716207" d="M613.281,254.763l.658,2.117,36.684-11.412a1.411,1.411,0,0,0,.248-1.3,1.038,1.038,0,0,0-.906-.819Z" transform="translate(455.891 1465.519)" fill="#a9453d"/>
    <path id="Trazado_716208" data-name="Trazado 716208" d="M611.452,253.222l2.653-2,.658,2.115Z" transform="translate(455.068 1469.06)" fill="#a9453d"/>
    <path id="Trazado_716209" data-name="Trazado 716209" d="M610.885,285.764s-9.305,5.143-10.53,9.06-.383,12.122,1.095,12,3.681-8.817,4.9-9.428,2.939-2.447,2.939-1.1-1.224,3.8-.612,4.163,2.571-3.426,3.918-4.163,1.914-6.79,3.222-8.415-4.935-2.115-4.935-2.115" transform="translate(449.811 1484.599)" fill="#ffb27d"/>
    <path id="Trazado_716210" data-name="Trazado 716210" d="M637.434,249.151s-8.324-5.125-11.813-4.337-12.391,7.232-8.11,8.628,7.745-.07,9.391.944,2.862,2.866,10.533,2.842,0-8.077,0-8.077" transform="translate(457.28 1466.141)" fill="#ffb27d"/>
    <path id="Trazado_716211" data-name="Trazado 716211" d="M185.248,235.6c-1.395-2.691,30.437-12.38,30.941,14.174,0,0,59.628-1.464,31.157-34.7-9.858-11.506-8.843-21.02-8.547-29.876s-6.14-34.6-28.211-32c0,0-5.781-2.353-12.994,1.39-16.4,8.509-53.152,90.809-12.347,81.017" transform="translate(254.978 1424.63)" fill="#163560"/>
    <path id="Trazado_716212" data-name="Trazado 716212" d="M246.722,232.454s3.881-5.908,7.01-6.024,8.921-1.738,8.457-.58-4.055,1.274-4.4,1.97,5.328,1.737,6.951,1.853,5.446,0,5.33.812-6.891,4.17-11.671,3.707-10.69,1.39-10.69,1.39Z" transform="translate(290.99 1457.459)" fill="#ffb27d"/>
    <path id="Trazado_716213" data-name="Trazado 716213" d="M208,246.235a58.1,58.1,0,0,0,5.937,8.978c4.612,5.778,11.724,12.451,20.653,13.768a22.17,22.17,0,0,0,12.269-1.991l.014,0c10.844-4.814,19-15.885,19-15.885a8.917,8.917,0,0,0-1.216-8.748s-21.9,4.925-23.984,3.883-14.251-36.09-17.146-40.493-12.77-6.691-12.77-6.691Z" transform="translate(273.573 1445.59)" fill="#f9c605"/>
    <path id="Trazado_716214" data-name="Trazado 716214" d="M212.314,241.388c4.612,5.776,11.724,12.45,20.652,13.768a22.165,22.165,0,0,0,12.27-1.992c-.425.055-11.255,1.393-15.573-6.329-4.4-7.88-9.165-20.394-15.706-16.223-2.823,1.8-2.7,6.274-1.643,10.775" transform="translate(275.201 1459.415)" fill="#dfbb36"/>
    <path id="Trazado_716215" data-name="Trazado 716215" d="M153.378,395.522s-6.681,6.1-5.378,10.43,7.333,7.222,8.148,12.517,4.074,8.184,7.007,8.184h13.985s2.16-3.726-3.055-4.85-7.181-7.346-6.856-13.123a101.779,101.779,0,0,0-.489-13.479l-11.081-2.568Z" transform="translate(246.503 1532.676)" fill="#0e3636"/>
    <path id="Trazado_716216" data-name="Trazado 716216" d="M190.952,396.411s-2.4,25.832.529,27.276l37.543-.077s0-4.332-6.03-5.295-16.624-4.493-18.416-12.356-13.626-9.549-13.626-9.549" transform="translate(265.484 1534.374)" fill="#0e3636"/>
    <path id="Trazado_716217" data-name="Trazado 716217" d="M172.265,307.365c7.725-17.326,12.453-22.3,11.55-27.676-.671-4,2.046-74.621,2.046-74.621.916-.284,2.753-.538,3.759-.761a9.427,9.427,0,0,0,6.882-5.986,48.032,48.032,0,0,0,2.336-15.934l.99.2,16.639,3.294s-.378,5.237-.39,10.169v.123a9.573,9.573,0,0,0,6.907,9.254c2.1.606,3.931,1.125,3.931,1.125s6.11,17.443,7.277,35.364-11.11,25.706.093,61.516C245.72,340,168,316.939,172.265,307.365" transform="translate(257.418 1438.093)" fill="#ffb27d"/>
    <path id="Trazado_716218" data-name="Trazado 716218" d="M207.862,185.817s-.378,5.237-.39,10.169c-9.311-.262-14.233-8.756-16.25-13.465Z" transform="translate(266.023 1438.154)" fill="#e8945b"/>
    <path id="Trazado_716219" data-name="Trazado 716219" d="M211.761,199.549s-22.031.364-22.045-13.359-2.869-22.918,11.2-23.73,16.8,4.421,17.923,9-1.344,27.642-7.074,28.09" transform="translate(265.234 1429.092)" fill="#ffb27d"/>
    <path id="Trazado_716220" data-name="Trazado 716220" d="M213.144,163.067s-6.031,16.1-15.289,18.48-13.272-.1-13.272-.1a26.216,26.216,0,0,0,8.574-15.486s15.437-10.556,19.986-2.894" transform="translate(263.037 1428.147)" fill="#163560"/>
    <path id="Trazado_716221" data-name="Trazado 716221" d="M203.251,163.919s4.473,1.672,6.314,4.934a22.2,22.2,0,0,1,2.978,12.6s4.544-10.944-.563-17.133c-5.415-6.565-8.73-.4-8.73-.4" transform="translate(271.435 1428.604)" fill="#163560"/>
    <path id="Trazado_716222" data-name="Trazado 716222" d="M201.538,182.383a5.537,5.537,0,0,0,4.561,1.856A4.048,4.048,0,0,0,209.493,182s-4.5-1.082-7.955.386" transform="translate(270.664 1437.745)" fill="#ebf3fa"/>
    <path id="Trazado_716223" data-name="Trazado 716223" d="M170.823,229.27a149.464,149.464,0,0,0,0,17.352c.371,6.274,6.719,14.677,7.619,16.756,2.259,5.214,4.806,6.062,4.806,6.062l19.712,4.831,6.93,1.7,21.855-6.527s9.955-27.785,5.957-43.426a120.242,120.242,0,0,0-10.1-26.5s-17.835,17.462-41.056-1.48Z" transform="translate(256.734 1445.131)" fill="#dfbb36"/>
    <path id="Trazado_716224" data-name="Trazado 716224" d="M174.725,235.28c.371,6.274.948,12.117,1.849,14.2,2.26,5.214,4.808,6.062,4.808,6.062l19.711,4.831,8.561-2.517s-28.578-4.331-25.412-28.917Z" transform="translate(258.602 1459.033)" fill="#f2ccaa"/>
    <path id="Trazado_716225" data-name="Trazado 716225" d="M223.059,250.192s10.823,33.69,11.519,45.16S213.888,458.3,213.027,463.581c-.81,4.982-7,8.158-7,8.158a9.363,9.363,0,0,1-6.906.531c-5.634-1.59-7.416-3.5-7.416-3.5s-8.424-108.029-3.21-146.62a611.112,611.112,0,0,0,5.275-71.962Z" transform="translate(264.032 1468.597)" fill="#8a3d02"/>
    <path id="Trazado_716226" data-name="Trazado 716226" d="M192.3,249.5s-16.51,22.152-18.049,37.127-2.414,67.577-5.694,82.174-15.328,42.693-15.328,88.225a9.085,9.085,0,0,0,5.119,4,41.965,41.965,0,0,0,4.5,1.244,7.078,7.078,0,0,0,7.916-3.757c8.145-16.4,34.091-69.295,35.422-80.273.941-7.771,9.134-59.2,27-89.371,4.29-7.245-2.633-36.055-2.633-36.055Z" transform="translate(248.933 1468.284)" fill="#a0571f"/>
    <path id="Trazado_716227" data-name="Trazado 716227" d="M201.876,182.718s.381,1.617,4.4,1.367c0,0,3.378-.209,3.275-1.985a10.861,10.861,0,0,0-7.678.618" transform="translate(270.816 1437.777)" fill="#fff"/>
    <path id="Trazado_716228" data-name="Trazado 716228" d="M228.491,246.6s-4.345,3.438-12.978,3.612c-10.31.207-35.858-2.629-35.858-2.629a21.119,21.119,0,0,0-1.089,6.52s31.2,7.871,49.282,1.15c0,0,2.331-4.387.642-8.653" transform="translate(260.329 1466.982)" fill="#233862"/>
    <path id="Trazado_716229" data-name="Trazado 716229" d="M202.51,253.2c0-2.936,2.111-5.325,4.7-5.325s4.7,2.389,4.7,5.325-2.11,5.325-4.7,5.325-4.7-2.389-4.7-5.325m1.56,0c0,2.076,1.411,3.765,3.145,3.765s3.146-1.689,3.146-3.765-1.411-3.765-3.146-3.765-3.145,1.689-3.145,3.765" transform="translate(271.101 1467.556)" fill="#fff"/>
    <rect id="Rectángulo_353770" data-name="Rectángulo 353770" width="58.024" height="42.389" transform="translate(406.393 1719.682) rotate(-48.951)" fill="#b20d0d"/>
    <path id="Trazado_716230" data-name="Trazado 716230" d="M184.979,250.878s11.713,1.37,11.677,4.151-2.92,8.492-4.366,8.746-9.533-7.725-9.533-7.725Z" transform="translate(262.215 1468.905)" fill="#ffb27d"/>
    <path id="Trazado_716231" data-name="Trazado 716231" d="M193.69,198.029s-15.638,1.1-21.632,15.669-17.369,39.039-17.369,43.155,6.353,16.8,40.474,24.1c0,0,3.529-3.713,3.316-6.648,0,0-21.3-18.3-21.242-20.433.107-4.045,3.491-9.383,22.192-28.09,5.083-5.086-5.739-27.753-5.739-27.753" transform="translate(249.588 1445.13)" fill="#f9c605"/>
    <path id="Trazado_716232" data-name="Trazado 716232" d="M301.285,448.032h-.148a1.557,1.557,0,0,1-1.557-1.592l2.36-102.29,6.952-.812-5.928,103.11a1.681,1.681,0,0,1-1.679,1.585" transform="translate(314.769 1510.499)" fill="#8d0a0a"/>
    <path id="Trazado_716233" data-name="Trazado 716233" d="M273.343,448.032H273.2a1.557,1.557,0,0,1-1.557-1.592L274,344.15l6.952-.812-5.929,103.11a1.68,1.68,0,0,1-1.679,1.585" transform="translate(302.199 1510.499)" fill="#8d0a0a"/>
    <path id="Trazado_716234" data-name="Trazado 716234" d="M352.277,448.032h.148a1.557,1.557,0,0,0,1.557-1.592l-2.36-102.29-6.952-.812,5.928,103.11a1.68,1.68,0,0,0,1.679,1.585" transform="translate(335.053 1510.499)" fill="#8d0a0a"/>
    <path id="Trazado_716235" data-name="Trazado 716235" d="M269.637,368.2V298.106a22.333,22.333,0,0,1,22.332-22.332h50.5A22.334,22.334,0,0,1,364.8,298.106v72.773Z" transform="translate(301.299 1480.104)" fill="#a03d3d"/>
    <path id="Trazado_716236" data-name="Trazado 716236" d="M373.85,350.588H275.138a5.5,5.5,0,0,1-5.5-5.5v-5.563H373.85Z" transform="translate(301.299 1508.783)" fill="#8d0a0a"/>
    <path id="Trazado_716237" data-name="Trazado 716237" d="M376.209,350.588H298.025a2.75,2.75,0,0,1-2.75-2.75v-5.565a2.75,2.75,0,0,1,2.75-2.75h78.184a2.75,2.75,0,0,1,2.75,2.75v5.565a2.75,2.75,0,0,1-2.75,2.75" transform="translate(312.833 1508.783)" fill="#a03d3d"/>
    <path id="Trazado_716238" data-name="Trazado 716238" d="M364.413,328.116c-7.235,12.592-16.334,17.452-16.334,17.452H310.223s59.71-27.057,54.19-17.452" transform="translate(319.557 1502.724)" fill="#048585"/>
    <path id="Trazado_716239" data-name="Trazado 716239" d="M327.826,404.414a3.5,3.5,0,0,0-.623,3.743.028.028,0,0,0,.009.019c.9,2.494,3.886,5.28,7.351,8.063.444.358.837.683,1.18.984.09.078.18.158.265.236.07.062.136.126.2.184,3.232,2.98,2.015,3.661,7.821,9.705,6.619,6.887,11.176,7.01,12.472,6.384,1.1-.535-1.131-4.187-3.6-8.293-.12-.2-.238-.4-.36-.6-.329-.545-.657-1.1-.983-1.649-2.892-4.941-2.15-7.259-1.464-14.612.558-5.975,9.3-33.382,9.3-33.382l-12.685-2.185s-3.819,21.823-8.028,25.184c-2.252,1.792-4.77,1.814-6.933,3.142-.152.093-.3.187-.449.284a16.626,16.626,0,0,0-3.471,2.79" transform="translate(327.07 1523.849)" fill="#ffb27d"/>
    <path id="Trazado_716240" data-name="Trazado 716240" d="M327.826,395.625a3.5,3.5,0,0,0-.623,3.743.028.028,0,0,0,.009.019c1.106,2.492,4.013,5.264,7.364,8.038.436.362.824.7,1.167,1.009.09.078.18.158.265.236.07.062.136.126.2.184,3.232,2.98,2.015,3.661,7.821,9.705,6.619,6.887,11.176,7.01,12.472,6.384,1.1-.535-1.131-4.187-3.6-8.293a28.205,28.205,0,0,1-11.8-8.693c-3.986-5.086-6.643-11.621-9.357-15.406-.152.093-.3.187-.449.284a16.624,16.624,0,0,0-3.471,2.79" transform="translate(327.07 1532.638)" fill="#0e3636"/>
    <path id="Trazado_716241" data-name="Trazado 716241" d="M401.237,397.69c.783,3.916,6.363,3.262,12.6,1.738s4.754.289,13.627-.694,11.563-4.292,11.834-5.611c.242-1.172-4.142-1.583-8.846-2.126-.592-.065-1.186-.139-1.78-.213-5.309-.666-9.2-4.093-14.022-6.906-4.569-2.666-11.387-13.527-11.387-13.527l-12.17.964s6.387,9.7,8.856,13.917c1.454,2.481,1.376,5.762,1.195,8.295a15.651,15.651,0,0,0,.094,4.163" transform="translate(355.937 1522.651)" fill="#ffb27d"/>
    <path id="Trazado_716242" data-name="Trazado 716242" d="M410.747,393.022c6.236-1.524,4.754.289,13.626-.694s11.564-4.292,11.834-5.611c.244-1.171-4.142-1.583-8.844-2.125l-.046.091a25.016,25.016,0,0,1-12.708,3.949c-6.021.146-12.4-1.579-16.555-1.511a15.526,15.526,0,0,0,.094,4.163c.782,3.916,6.362,3.262,12.6,1.738" transform="translate(359.027 1529.057)" fill="#0e3636"/>
    <path id="Trazado_716243" data-name="Trazado 716243" d="M378.876,341.587,367.5,372.2l-14.852,39.973a24.093,24.093,0,0,1-7.892-.721,34.239,34.239,0,0,1-7.631-3.715s4.123-42.92,11.818-67.558c1.972-6.324,4.181-11.439,6.62-14.319,11.927-14.1,23.314,15.725,23.314,15.725" transform="translate(331.659 1500.935)" fill="#048585"/>
    <path id="Trazado_716244" data-name="Trazado 716244" d="M392.087,303.9c-7.454-2.4-28.712.683-50.067,4.863l-4.47-7.375-46.126-3.6s-15.221,33.753-6.887,55.26c1.224,3.161,3.658,5.189,7.806,5.256h.674s27.452-.016,36.367-.016c22.938,0,48.546-15.769,51.857-16.431,5.422-1.084,7.591,9.76,13.014,21.146s50.967,50.426,50.967,50.426,7,.07,9.892-1.015a9.736,9.736,0,0,0,4.247-2.682S408.9,309.321,392.087,303.9" transform="translate(306.88 1490.006)" fill="#03a4a4"/>
    <path id="Trazado_716245" data-name="Trazado 716245" d="M343.335,208.835c-5.908-3.1-14.9-3.523-16.36-3.719-17.478-2.349-28,23.05-28.616,30.744-1.141,14.185-8.644,16.347-19.206,25.232-21.178,17.812-14.968,38.51-3.388,46.2,6.949,4.613,19.2,0,19.2,0,.173.122,33.493-18.626,49.919-27.671,24.623-3.5,13.513-62.88-1.544-70.786" transform="translate(299.281 1448.25)" fill="#233862"/>
    <path id="Trazado_716246" data-name="Trazado 716246" d="M317.619,259.16c.071.046-8.082,2.83-13.534.416-5.13-2.266-9.014-10.706-8.938-10.71,2.333-.107,4.895-2.147,6.868-15.532l.993.357,16.7,6.011s-1.209,5.36-1.992,10.464c-.66,4.284-1.013,8.389-.1,8.995" transform="translate(312.774 1461.013)" fill="#ffb27d"/>
    <path id="Trazado_716247" data-name="Trazado 716247" d="M317.273,239.591s-1.211,5.36-1.994,10.464c-9.594-1.727-13.36-11.287-14.712-16.475Z" transform="translate(315.213 1461.123)" fill="#ed975d"/>
    <path id="Trazado_716248" data-name="Trazado 716248" d="M320.28,253.87S297.425,250.8,299.554,236.6s.613-24.165,15.3-22.808,16.7,7.2,17.142,12.116-5.712,28.4-11.712,27.963" transform="translate(314.694 1452.165)" fill="#ffb27d"/>
    <path id="Trazado_716249" data-name="Trazado 716249" d="M333.193,218.51s-14.631,12.608-24.582,13.624-13.72-2.178-13.72-2.178a38.862,38.862,0,0,0,9.4-12.73,6.992,6.992,0,0,1,5.768-4.125c7.107-.613,20.578-.895,23.138,5.408" transform="translate(312.66 1451.775)" fill="#233862"/>
    <path id="Trazado_716250" data-name="Trazado 716250" d="M315,216.808s4.895,4.732,6.436,8.242c1.488,3.387,1.934,11.489.75,14.707,0,0,7.625-14.829,3.309-22.034-4.579-7.639-10.494-.916-10.494-.916" transform="translate(321.707 1452.349)" fill="#233862"/>
    <path id="Trazado_716251" data-name="Trazado 716251" d="M342.95,288.177c-.692,46.265-.19,36.6-5.25,40.988-1.219,1.057-4.648,1.686-9.16,1.985-14.187.942-39.124-1.395-40.073-4.018-3.272-9.07-.963-11.889-3.693-25.777-.284-1.477-.637-3.077-1.05-4.818-2.276-9.539-4.492-12.783,3.584-28.108,7.323-13.881,14.932-25.148,15.616-24.742,19.321,11.47,20.879,1.83,20.879,1.83s19.485,20.094,19.145,42.661" transform="translate(306.688 1465.665)" fill="#fff"/>
    <path id="Trazado_716252" data-name="Trazado 716252" d="M367.5,366.584l-14.854,39.973a24.084,24.084,0,0,1-7.89-.721,34.264,34.264,0,0,1-7.632-3.715s4.125-42.92,11.819-67.558Z" transform="translate(331.658 1506.552)" fill="#03a4a4"/>
    <path id="Trazado_716253" data-name="Trazado 716253" d="M310.715,244.943s19.882,3.371,22.216,11.931S349,315.756,349,315.756s-10.107,1.817-14.777-2.852-16.246-43.32-16.246-43.32Z" transform="translate(319.778 1466.235)" fill="#fff"/>
    <path id="Trazado_716254" data-name="Trazado 716254" d="M327.56,319.231c-14.187.941-39.124-1.4-40.073-4.018-3.272-9.072-.963-11.889-3.693-25.779l6.843-19.267s-1.132,21.456,5.2,27.1,25.906,10.894,28.983,15.609a17.262,17.262,0,0,1,2.743,6.355" transform="translate(307.668 1477.583)" fill="#ebf3ff"/>
    <path id="Trazado_716255" data-name="Trazado 716255" d="M302.77,298.456s14-3.116,16.254-1.873,7.777,5.765,8.469,7.339-5.028-1.2-6.888-1.693c-1.2-.323-4.376.779-5.944,1.3-6.606,2.2-10.654,1.07-10.654,1.07Z" transform="translate(316.204 1489.334)" fill="#ffb27d"/>
    <path id="Trazado_716256" data-name="Trazado 716256" d="M310.372,243.676s-18.793,1.157-25.3,10.23c-9.157,12.773-27.324,67.208-16.913,74.468,11.725,8.176,53.364,2.139,53.364,2.139s1.386-6.477-.542-9.61-33.257-8.193-34.7-9.639,18.075-28.2,18.075-32.535,6.018-35.053,6.018-35.053" transform="translate(299.229 1465.665)" fill="#fff"/>
    <path id="Trazado_716257" data-name="Trazado 716257" d="M314.448,299.178s2.933,3.783,3.894,4.234a2.861,2.861,0,0,0,1.582.339l-1.976-3.557Z" transform="translate(321.458 1490.633)" fill="#ffb27d"/>
    <path id="Trazado_716258" data-name="Trazado 716258" d="M313.981,296.491l8.527,4.141a1.521,1.521,0,0,1-1.414.545,20.314,20.314,0,0,1-3.7-1.016Z" transform="translate(321.248 1489.424)" fill="#ffb27d"/>
    <path id="Trazado_716259" data-name="Trazado 716259" d="M317.134,321.75h67.443L404.866,271.3h-67.34Z" transform="translate(322.666 1478.091)" fill="#ffc403"/>
    <path id="Trazado_716260" data-name="Trazado 716260" d="M391.83,304.739H302.77v1.966h88.269Z" transform="translate(316.204 1493.135)" fill="#ed7d2b"/>
    <path id="Trazado_716261" data-name="Trazado 716261" d="M353.942,289.693a2.337,2.337,0,0,0-2.291-3.211,4.6,4.6,0,0,0-4.132,3.211,2.338,2.338,0,0,0,2.291,3.211,4.6,4.6,0,0,0,4.132-3.211" transform="translate(336.277 1484.922)" fill="#fff"/>
    <path id="Trazado_716262" data-name="Trazado 716262" d="M563.211,462.319h.2a2.125,2.125,0,0,0,2.057-2.23l-3.121-143.22-9.194-1.135L560.991,460.1a2.282,2.282,0,0,0,2.22,2.22" transform="translate(428.84 1498.081)" fill="#b75741"/>
    <path id="Trazado_716263" data-name="Trazado 716263" d="M303.7,462.319h-.2a2.126,2.126,0,0,1-2.059-2.23l3.122-143.22,9.194-1.135L305.92,460.1a2.282,2.282,0,0,1-2.22,2.22" transform="translate(315.608 1498.081)" fill="#b75741"/>
    <path id="Trazado_716264" data-name="Trazado 716264" d="M693.118,323.7H296.7a4.3,4.3,0,0,1-4.3-4.3v-8.69a4.3,4.3,0,0,1,4.294-4.3H693.118a4.3,4.3,0,0,1,4.3,4.3v8.69a4.3,4.3,0,0,1-4.3,4.3" transform="translate(311.542 1493.889)" fill="#ef934d"/>
    <path id="Trazado_716265" data-name="Trazado 716265" d="M237.32,153.592c-1.486-36.774,29.338-53.113,60.854-53.113s65.814,8.166,68.786,57.066C368.87,189,352.1,208.36,303.811,208.36c-16.286,0-28.944-2.569-38.637-7.149L241.035,222.66,252.9,193.012c-10.509-9.771-14.936-23.552-15.577-39.42" transform="translate(286.737 1401.246)" fill="#06d1d1"/>
    <path id="Trazado_716266" data-name="Trazado 716266" d="M731.364,420.864s.887-6.909,2.94-11.016,15.123-1.493,15.123-1.493,2.614,2.24,3.174,12.7Z" transform="translate(509.011 1539.379)" fill="#0e3636"/>
    <path id="Trazado_716267" data-name="Trazado 716267" d="M713.555,423.442c3.071-1.875,1.324-15.857,1.324-15.857s-14.31-11.448-16.278-2.684-13.594,12.7-20.212,13.774c-4.569.741-5.984,3.271-6.421,4.767Z" transform="translate(482.291 1536.707)" fill="#0e3636"/>
    <path id="Trazado_716268" data-name="Trazado 716268" d="M736.221,379.633a65.72,65.72,0,0,0-1.05,7.729c-1.331,25.948-21.842,85.276-25.51,86.66-5.678,2.143-14.618-2.411-19.295-3.9a4.01,4.01,0,0,1-2.814-4.555c10.158-46.7,13.891-113.942,15.25-153.752a180.624,180.624,0,0,1,4.128-33.9s50.027-13.349,50.325,3.536c.263,14.942-16.572,73.538-21.033,98.187" transform="translate(489.266 1478.812)" fill="#03a4a4"/>
    <path id="Trazado_716269" data-name="Trazado 716269" d="M731.464,379.633l-33.419-67.82a180.622,180.622,0,0,1,4.128-33.9S752.2,264.56,752.5,281.445c.262,14.942-16.572,73.538-21.033,98.187" transform="translate(494.022 1478.812)" fill="#048585"/>
    <path id="Trazado_716270" data-name="Trazado 716270" d="M713.418,280.727,739.865,472.4s11.613,2.8,20.646.56c0,0,7.744-101.943,7.1-126.587s5.556-65.947-1.417-70.5-52.775,4.853-52.775,4.853" transform="translate(500.938 1479.59)" fill="#03a4a4"/>
    <path id="Trazado_716271" data-name="Trazado 716271" d="M777.517,313.031a3.672,3.672,0,0,1-2.649,3.791c-3.688,1.07-7.942,1.815-16.146,3.514a156.564,156.564,0,0,1-30.807,3.1c-20.259.129-27.929-6.852-27.929-6.852-.873.014.461-4.225,1.663-24.384.406-6.829.8-15.484,1.083-26.424.255-9.843.428-21.538.444-35.411.022-16.688,25.854-34.643,26.331-34.643l.006.007c0,2.4,3.787,6.838,9.62,7.22,6.923.452,15.416-2.993,15.416-6.98,0-.041,12.515,20.021,16.96,41.4,2.246,10.759,1.337,10.471,6.007,75.668" transform="translate(494.77 1444.091)" fill="#abffff"/>
    <path id="Trazado_716272" data-name="Trazado 716272" d="M733.76,195.719s-24.021-.2-29.8,7.9-18.455,51.722-11.842,66.235,18.992-6,25.861-14.893,15.783-59.246,15.783-59.246" transform="translate(490.517 1444.091)" fill="#abffff"/>
    <path id="Trazado_716273" data-name="Trazado 716273" d="M720.113,197.635l.014,2.484s-.677,7.765,8.885,8.9,16.66-1.45,16.4-7.444a86.4,86.4,0,0,1-1.724-13.243,26.985,26.985,0,0,1,.341-4.65l-18.529-.37-5.459.892Z" transform="translate(503.918 1438.51)" fill="#ffb27d"/>
    <path id="Trazado_716274" data-name="Trazado 716274" d="M720.042,184.2l.071,13.431a15.653,15.653,0,0,0,6.678,1.475c8.516,0,14.022-6.245,16.9-10.777a27.126,27.126,0,0,1,.339-4.651l-18.529-.37Z" transform="translate(503.918 1438.509)" fill="#e2915a"/>
    <path id="Trazado_716275" data-name="Trazado 716275" d="M747.057,190.552c-2.15,11.57-17.079,11.19-23.531,10.464-1.815-.2-2.958-.435-2.958-.435-2.047-.547-3.19-3.771-3.72-7.995-1.054-8.36.277-20.63,1.689-23.769,2.126-4.722,6.129-9.83,21.164-6.144s10.116,13.055,7.357,27.879" transform="translate(502.311 1428.657)" fill="#ffb27d"/>
    <path id="Trazado_716276" data-name="Trazado 716276" d="M706.119,218.138s-9.291,20.517-9.019,26.667a32.036,32.036,0,0,1,9.019,1.16c7.262,2.165,0-27.827,0-27.827" transform="translate(493.595 1454.177)" fill="#87e6e6"/>
    <path id="Trazado_716277" data-name="Trazado 716277" d="M714.76,160.482a49.735,49.735,0,0,0,14.423-3.9c6.336-2.755,14.328.278,16.923,1.646a3.839,3.839,0,0,0-.634-1.56,3.476,3.476,0,0,1,1.337,1.981c.12.088.174.149.143.17a4.453,4.453,0,0,1,2.169.141s-.594-.086-.806.3a.367.367,0,0,1-.1.106c9.882,4.774,10.8,20.394,7.615,24.007-3.825,4.348-9.6,14.187-9.6,14.187a17.871,17.871,0,0,1,.212-6.187c.7-3.826-2.608-3.826-6.782-5.566s-.7-6.608-4.348-9.565-17.044-1.218-16.87-3.478c-4.97-1.811-3.683-11.764-3.683-12.273" transform="translate(501.474 1425.98)" fill="#233862"/>
    <path id="Trazado_716278" data-name="Trazado 716278" d="M757.022,244.92c-3.922,15.748-46.335,23.886-55.976,25.541.407-6.829.8-15.484,1.083-26.424Z" transform="translate(495.373 1465.827)" fill="#87e6e6"/>
    <path id="Trazado_716279" data-name="Trazado 716279" d="M734.048,253.325c.4,0,9.429-1.347,11.045-2.154s9.009-11.315,4.168-14.009-17.839,8.082-17.839,8.082Z" transform="translate(509.038 1462.54)" fill="#ffb27d"/>
    <path id="Trazado_716280" data-name="Trazado 716280" d="M695.476,256.181s34.9,1.894,58.326-3.122c0,0,.59-6.768-6.771-9.773,0,0-36.506-7.736-45.276-5.582s-6.279,18.477-6.279,18.477" transform="translate(492.72 1462.808)" fill="#77dcdc"/>
    <path id="Trazado_716281" data-name="Trazado 716281" d="M759.909,247.429c-7.243,8.734-16.712,15.864-27.151,17.535l0,0a19.45,19.45,0,0,1-2.584-11.657,23.337,23.337,0,0,1,3.8-10.7,23.616,23.616,0,0,0,2.053-4.138c5.7-14.544,4.851-42.577,4.851-42.577s24.207,2.536,31.75,13.311c4.619,6.6-1.272,24.42-12.718,38.228" transform="translate(508.442 1444.168)" fill="#abffff"/>
    <path id="Trazado_716282" data-name="Trazado 716282" d="M723.408,191.342c-1.815-.2-2.958-.434-2.958-.434-2.047-.547-3.19-3.771-3.72-8a10.105,10.105,0,0,1,6.33,5.176,7.43,7.43,0,0,1,.348,3.253" transform="translate(502.428 1438.33)" fill="#e2915a"/>
    <path id="Trazado_716283" data-name="Trazado 716283" d="M715.954,197.725s-8.36-13.8-1.859-14.4a9.83,9.83,0,0,1,10.052,5.417c.94,1.615-.245,8.906-.245,8.906Z" transform="translate(500.129 1438.492)" fill="#ffb27d"/>
    <path id="Trazado_716284" data-name="Trazado 716284" d="M747.051,254.795a18.033,18.033,0,0,1-1.425,4.79,22.916,22.916,0,0,1-5.324,7.332h0c-21.713-9.8-26.108-43.457-26.843-61.947-.3-7.432,0-12.417,0-12.417,9.8-3.243,12.549,2.392,12.549,2.392s11.564,27.5,17.563,45.476c2.3,6.877,3.774,12.362,3.481,14.374" transform="translate(500.897 1442.214)" fill="#abffff"/>
    <path id="Trazado_716285" data-name="Trazado 716285" d="M767.414,245.218c-7.243,8.734-16.712,15.864-27.151,17.535l0,0c-21.713-9.8-26.106-43.455-26.841-61.945,0,0,10.274,37.264,24.258,50.288a15.248,15.248,0,0,0,7.909,4.326s17.635-4.983,21.333-9.676a2.015,2.015,0,0,1,.5-.525" transform="translate(500.938 1446.379)" fill="#87e6e6"/>
    <path id="Trazado_716286" data-name="Trazado 716286" d="M505.116,322.068H437.673l-20.289-50.452h67.34Z" transform="translate(367.764 1478.234)" fill="#164655"/>
    <path id="Trazado_716287" data-name="Trazado 716287" d="M430.832,305.058h89.059v1.966H431.622Z" transform="translate(373.814 1493.278)" fill="#164655"/>
    <path id="Trazado_716288" data-name="Trazado 716288" d="M443.16,290.011a2.337,2.337,0,0,1,2.291-3.211,4.6,4.6,0,0,1,4.131,3.211,2.337,2.337,0,0,1-2.289,3.211,4.6,4.6,0,0,1-4.132-3.211" transform="translate(379.302 1485.064)" fill="#fff"/>
    <path id="Trazado_716289" data-name="Trazado 716289" d="M1240,416.343v.429a1.342,1.342,0,0,1-1.405,1.251H1.4A1.342,1.342,0,0,1,0,416.772v-.429a1.342,1.342,0,0,1,1.4-1.251h1237.19a1.342,1.342,0,0,1,1.405,1.251" transform="translate(180 1542.778)"/>
  </g>
</svg>
