<svg id="Grupo_1003490" data-name="Grupo 1003490" xmlns="http://www.w3.org/2000/svg" xmlns:xlink="http://www.w3.org/1999/xlink" width="222.799" height="222.851" viewBox="0 0 222.799 222.851">
  <defs>
    <clipPath id="clip-path">
      <rect id="Rectángulo_353440" data-name="Rectángulo 353440" width="222.799" height="222.851" fill="none"/>
    </clipPath>
  </defs>
  <rect id="Rectángulo_353438" data-name="Rectángulo 353438" width="143.047" height="164.026" transform="translate(28.135 6.598)" fill="#b20d0d"/>
  <g id="Grupo_1003489" data-name="Grupo 1003489">
    <g id="Grupo_1003488" data-name="Grupo 1003488" clip-path="url(#clip-path)">
      <path id="Trazado_715481" data-name="Trazado 715481" d="M167.167,38.125c-16.831-4.35-24.686-13.031-28.71-28.627H60.168C56.863,25.107,47.409,34.5,31.725,37.881V140.246c15.515,3.266,25.128,12.676,28.434,28.381h78.49C141.977,153,151.5,143.648,167.2,140.234c0-7.3-.037-14.457.019-21.614.022-2.853,1.627-4.71,4.425-4.823,2.831-.115,4.412,1.689,4.747,4.507a9.726,9.726,0,0,1,.07,1.149c.01,17.677.081,35.355-.076,53.031a10.791,10.791,0,0,1-2.179,5.534c-8.831,12.717-8.764,23.025.042,35.779,1.2,1.739,2.04,4.769,1.321,6.47-.6,1.415-3.734,2.462-5.75,2.467q-70.9.2-141.8.082c-16.5-.022-27.989-11.606-28-28.1q-.042-83.006,0-166.011C.03,11.5,11.468.031,28.642.019Q96.854-.027,165.065.013c7.991,0,11.4,3.4,11.417,11.47.031,15.372-.005,30.743-.014,46.115,0,.512,0,1.025-.02,1.536-.151,3.111-1.612,5.37-4.851,5.236-2.967-.122-4.413-2.27-4.416-5.264q-.008-8.454-.015-16.909c0-1.388,0-2.777,0-4.071m-4.039,140.089h-4.939q-63.941,0-127.882,0c-1.536,0-3.075-.012-4.607.083A17.475,17.475,0,0,0,9.705,192.466c-2.166,11.521,6.02,21.027,18.347,21.043q66.053.075,132.107.012c.818,0,1.637-.109,2.89-.2-6.066-11.762-6.134-23.189.079-35.108M9.319,174.685c3.533-1.705,6.377-3.667,9.511-4.427,3.165-.767,3.548-2.283,3.544-5.066Q22.264,89.7,22.313,14.2c0-1.217-.107-2.435-.176-3.914a14.45,14.45,0,0,0-2.157.607c-7.512,3.621-10.7,9.71-10.691,17.941q.1,71.078.031,142.156v3.7m157.6-6.036V150.337c-9.013,1.087-17.136,9.25-18.281,18.311ZM166.9,27.811V9.317H148.464c1.894,9.847,9.478,17.367,18.438,18.494M31.757,149.863v18.563H50.622c-2.861-9.931-8.85-15.983-18.865-18.563m-.022-140.4V28.051C41.681,26.092,49.905,17.7,50.015,9.464Z" transform="translate(0 0)"/>
      <path id="Trazado_715482" data-name="Trazado 715482" d="M141.99,87.419c11.982,0,23.6.2,35.212-.048,16.511-.355,33.013-1.167,49.524-1.537a16.412,16.412,0,0,1,16.969,16.59c-.08,9.28-7.523,16.522-17.227,16.257-25.854-.707-51.7-1.614-77.553-2.424-2.16-.068-4.326-.008-6.577-.008-1.056,3.239-.669,5.44,2.477,7.446,4.982,3.177,6.214,8.23,5.025,13.844-1.041,4.916-5.472,9.373-10.763,9.523q-18.788.531-37.6-.014c-5.337-.158-9.585-4.594-10.727-9.562-1.3-5.67.543-11.049,5.354-14.082a4.93,4.93,0,0,0,2.583-4.915q-.157-16.134-.008-32.269c.018-2.209-.419-3.651-2.485-4.992a12.854,12.854,0,0,1-5.316-14.8,13.077,13.077,0,0,1,12.4-9.233q17.092-.227,34.189.006a12.99,12.99,0,0,1,12.156,9.007c1.772,5.58.166,11.444-4.73,14.615-2.91,1.885-3.543,4-2.9,6.6m.1,19.281c1.349.1,2.467.228,3.588.264q34.328,1.077,68.657,2.13c4.348.133,8.7.3,13.045.267a6.594,6.594,0,0,0,6.712-5.243,6.342,6.342,0,0,0-2.909-7.649,11.533,11.533,0,0,0-5.863-1.16q-32.417.8-64.829,1.82c-6.091.185-12.177.534-18.4.814Zm-9.75-22.584H108.293V120.55h24.043Zm-12.1-17.764c-5.1,0-10.209.01-15.315,0-2.884-.008-5.238.861-5.192,4.185.044,3.192,2.462,3.83,5.112,3.833q15.506.013,31.012-.011c2.632-.008,5-.642,4.969-3.933-.036-3.437-2.454-4.075-5.271-4.072q-7.658.008-15.315,0m.019,63.847c-5.1,0-10.207.018-15.311-.007-2.863-.015-5.281.717-5.213,4.108.064,3.154,2.409,3.858,5.1,3.857q15.5-.007,31.005-.007c2.668,0,4.976-.666,4.989-3.916.013-3.493-2.455-4.042-5.255-4.039q-7.656.01-15.311,0" transform="translate(-20.897 -13.212)"/>
      <path id="Trazado_715483" data-name="Trazado 715483" d="M165.945,231.886c-6.214,11.919-6.145,23.346-.079,35.108-1.253.089-2.071.2-2.89.2q-66.054.012-132.107-.013c-12.327-.014-20.512-9.521-18.347-21.042a17.474,17.474,0,0,1,15.995-14.165c1.532-.1,3.071-.083,4.607-.083q63.941-.007,127.882,0Zm-79.409,13.1q-20.36,0-40.72,0c-5.122,0-10.244-.008-15.366.031a4.15,4.15,0,0,0-4.465,4.285c-.146,2.637,1.425,4.308,4.033,4.793a16.9,16.9,0,0,0,3.066.085q53.4,0,106.795,0a17.237,17.237,0,0,0,3.065-.1,4.6,4.6,0,0,0,3.78-5.671c-.757-2.949-2.979-3.443-5.637-3.438q-27.275.055-54.55.017" transform="translate(-2.818 -53.672)" fill="#fff"/>
      <path id="Trazado_715484" data-name="Trazado 715484" d="M12.116,177.782v-3.7q0-71.078-.031-142.155c-.012-8.231,3.179-14.321,10.692-17.942a14.5,14.5,0,0,1,2.157-.607c.069,1.48.176,2.7.178,3.915q.01,75.5.06,150.992c0,2.784-.379,4.3-3.544,5.067-3.135.759-5.978,2.721-9.511,4.427" transform="translate(-2.797 -3.097)" fill="#ffc403"/>
      <path id="Trazado_715485" data-name="Trazado 715485" d="M211.684,213.925H193.4c1.145-9.061,9.268-17.224,18.281-18.311Z" transform="translate(-44.765 -45.277)" fill="#ffc403"/>
      <path id="Trazado_715486" data-name="Trazado 715486" d="M211.615,30.617c-8.96-1.127-16.544-8.648-18.438-18.494h18.438Z" transform="translate(-44.713 -2.806)" fill="#ffc403"/>
      <path id="Trazado_715487" data-name="Trazado 715487" d="M41.32,195c10.016,2.578,16,8.631,18.866,18.562H41.32Z" transform="translate(-9.564 -45.134)" fill="#ffc403"/>
      <path id="Trazado_715488" data-name="Trazado 715488" d="M41.292,12.314h18.28c-.11,8.231-8.334,16.628-18.28,18.587Z" transform="translate(-9.557 -2.85)" fill="#ffc403"/>
      <path id="Trazado_715489" data-name="Trazado 715489" d="M157.686,118.213v-8.757c6.224-.28,12.31-.629,18.4-.813q32.411-.983,64.828-1.82a11.541,11.541,0,0,1,5.863,1.159,6.342,6.342,0,0,1,2.909,7.649,6.594,6.594,0,0,1-6.712,5.242c-4.348.029-8.7-.134-13.045-.267q-34.328-1.048-68.657-2.13c-1.121-.035-2.24-.161-3.588-.263" transform="translate(-36.498 -24.724)" fill="#8a3d02"/>
      <rect id="Rectángulo_353439" data-name="Rectángulo 353439" width="24.043" height="36.434" transform="translate(87.395 70.904)" fill="#8a3d02"/>
      <path id="Trazado_715490" data-name="Trazado 715490" d="M123.077,69.143q7.657,0,15.315,0c2.817,0,5.235.635,5.271,4.071.035,3.292-2.336,3.926-4.969,3.934q-15.506.047-31.012.01c-2.651,0-5.069-.64-5.112-3.832-.045-3.325,2.308-4.193,5.192-4.185,5.105.015,10.21,0,15.315,0" transform="translate(-23.741 -16.003)" fill="#8a3d02"/>
      <path id="Trazado_715491" data-name="Trazado 715491" d="M123.1,152.218q7.656,0,15.311,0c2.8,0,5.268.546,5.255,4.039-.013,3.25-2.321,3.913-4.989,3.916q-15.5.016-31.005.007c-2.688,0-5.032-.7-5.1-3.858-.068-3.39,2.35-4.122,5.213-4.108,5.1.025,10.207.008,15.311.007" transform="translate(-23.741 -35.231)" fill="#8a3d02"/>
      <path id="Trazado_715492" data-name="Trazado 715492" d="M90.692,248.924q27.275,0,54.55-.018c2.658-.005,4.88.489,5.637,3.438a4.6,4.6,0,0,1-3.78,5.671,17.163,17.163,0,0,1-3.065.1q-53.4.006-106.795,0a16.967,16.967,0,0,1-3.066-.085c-2.608-.486-4.179-2.157-4.033-4.793a4.151,4.151,0,0,1,4.465-4.286c5.122-.038,10.244-.029,15.366-.03q20.36,0,40.72,0" transform="translate(-6.974 -57.612)"/>
    </g>
  </g>
</svg>
