<svg id="Grupo_1003463" data-name="Grupo 1003463" xmlns="http://www.w3.org/2000/svg" xmlns:xlink="http://www.w3.org/1999/xlink" width="819.233" height="819.233" viewBox="0 0 819.233 819.233">
  <defs>
    <clipPath id="clip-path">
      <rect id="Rectángulo_353401" data-name="Rectángulo 353401" width="819.233" height="819.233" fill="none"/>
    </clipPath>
  </defs>
  <g id="Grupo_1003462" data-name="Grupo 1003462" clip-path="url(#clip-path)">
    <path id="Trazado_715206" data-name="Trazado 715206" d="M723.629,669.475A408.34,408.34,0,0,0,696.32,118.948l-5-35.738L675.137,99.39a408.309,408.309,0,0,0-558.352,24.522L76.734,130.74,95.05,148A408.352,408.352,0,0,0,83.25,655.39L88.934,696l15.209-15.209c74.79,83.873,183.649,136.705,304.868,136.705A407.2,407.2,0,0,0,705.668,689.747l33.43-5.7ZM409.011,48.266a93.631,93.631,0,1,1-93.633,93.63,93.629,93.629,0,0,1,93.633-93.63m0,721.72a93.631,93.631,0,1,1,93.63-93.63,93.631,93.631,0,0,1-93.63,93.63m0-234.771a141.157,141.157,0,0,0-120.9,214,361.326,361.326,0,0,1-150.3-102.1l16.331-16.331L120.684,626.1a359.973,359.973,0,0,1-51.756-96.075,141.138,141.138,0,1,0,0-241.794,360.257,360.257,0,0,1,60.8-107.556l14.128,13.314,3.676-33.513A361.145,361.145,0,0,1,288.115,69.042a141.138,141.138,0,1,0,241.794,0A360.44,360.44,0,0,1,641.42,133.108L626.1,148.424l37.788,5.29a361.012,361.012,0,0,1,85.2,134.515,141.138,141.138,0,1,0,0,241.794A360.231,360.231,0,0,1,688.94,636.789L671.973,620.8l-4.385,39.951A361.052,361.052,0,0,1,529.908,749.21a141.16,141.16,0,0,0-120.9-214M48.149,409.126a93.631,93.631,0,1,1,93.633,93.633,93.633,93.633,0,0,1-93.633-93.633m721.722,0a93.631,93.631,0,1,1-93.633-93.633,93.634,93.634,0,0,1,93.633,93.633" transform="translate(0.96 1.135)" fill="#06d1d1"/>
    <path id="Trazado_715207" data-name="Trazado 715207" d="M345.958.758A407.112,407.112,0,0,0,53.734,123.915l-10.986,1.871,47.081-7.552-5.344,42.244A361.126,361.126,0,0,1,225.061,69.045a141.138,141.138,0,1,0,241.794,0A360.412,360.412,0,0,1,578.366,133.11L563.05,148.427l37.788,5.287c.09.092.177.185.267.275l39.384,5.759-5.537-39.089c-.567-.564-1.116-1.146-1.686-1.708l-5-35.738L612.083,99.393A406.743,406.743,0,0,0,345.958.758m0,234.771A93.631,93.631,0,1,1,439.59,141.9a93.631,93.631,0,0,1-93.633,93.63" transform="translate(64.011 1.135)" fill="#ffbb40"/>
    <path id="Trazado_715208" data-name="Trazado 715208" d="M496.926,337.553a407.057,407.057,0,0,0-119.9-289l6.064,39.619-38.5-4.855A360.945,360.945,0,0,1,428.64,216.659a141.14,141.14,0,1,0,0,241.791,360.254,360.254,0,0,1-60.152,106.766l-15.646-14.74-9.006,76.2,40.605-7.709c.255-.267.519-.527.774-.8l33.43-5.7L403.176,597.9a406.7,406.7,0,0,0,93.75-260.349M355.785,431.186a93.631,93.631,0,1,1,93.633-93.633,93.63,93.63,0,0,1-93.633,93.633" transform="translate(321.413 72.708)" fill="#ffdbdb"/>
    <path id="Trazado_715209" data-name="Trazado 715209" d="M362.281,497.043A407.174,407.174,0,0,0,658.166,370.09L617.561,377.8l9.006-76.2-1.611,1.374-4.1,37.331a361.049,361.049,0,0,1-137.679,88.456,141.138,141.138,0,1,0-241.794,0,361.328,361.328,0,0,1-150.3-102.094l16.331-16.331-75.571-9.907L42.2,375.547l15.209-15.209C132.2,444.21,241.064,497.043,362.281,497.043m0-234.771A93.631,93.631,0,1,1,268.648,355.9a93.632,93.632,0,0,1,93.633-93.633" transform="translate(47.688 321.588)" fill="#ff7056"/>
    <path id="Trazado_715210" data-name="Trazado 715210" d="M508.531,338.771A361.12,361.12,0,0,1,369.79,428.435l-.252.08a141.153,141.153,0,1,0-125.165,68.207m4.268-47.446a93.631,93.631,0,1,1,93.633-93.633A93.633,93.633,0,0,1,248.641,449.276Z" transform="translate(160.975 321.2)" fill="none" stroke="#442b1a" stroke-linecap="round" stroke-linejoin="round" stroke-width="1"/>
    <path id="Trazado_715211" data-name="Trazado 715211" d="M344.742,62.311a360.961,360.961,0,0,1,83.783,133.1v.008a141.155,141.155,0,1,0,68.259,120.892m-234.768,0a93.631,93.631,0,1,1,93.63,93.63A93.631,93.631,0,0,1,262.016,316.312Z" transform="translate(321.2 93.305)" fill="none" stroke="#442b1a" stroke-linecap="round" stroke-linejoin="round" stroke-width="1"/>
    <path id="Trazado_715212" data-name="Trazado 715212" d="M121.519,466.962a360.134,360.134,0,0,1-51.909-95.049l-.844-2.378A141.153,141.153,0,1,0,.5,248.641m47.508,0a93.631,93.631,0,1,1,93.633,93.63A93.632,93.632,0,0,1,48.008,248.641Z" transform="translate(0.749 160.975)" fill="none" stroke="#442b1a" stroke-linecap="round" stroke-linejoin="round" stroke-width="1"/>
    <path id="Trazado_715213" data-name="Trazado 715213" d="M440.773,68.569A141.063,141.063,0,0,0,320,.5M59.851,158.778A361.164,361.164,0,0,1,199.1,68.757h0a141.138,141.138,0,1,0,241.666-.187M320,48.008a93.631,93.631,0,1,1-93.633,93.63A93.633,93.633,0,0,1,320,48.008" transform="translate(89.621 0.749)" fill="none" stroke="#442b1a" stroke-linecap="round" stroke-linejoin="round" stroke-width="1"/>
    <path id="Trazado_715214" data-name="Trazado 715214" d="M46.276,125.493A409.61,409.61,0,0,1,159.958,42.387S231.181,4.868,329.309.645C332.965.488,336.639.5,340.323.5a406.787,406.787,0,0,1,267.412,99.724l.16-.16,15.759-15.759,10.614,75.826L558.439,149.52l15.606-15.606a360.443,360.443,0,0,0-112.83-65.16" transform="translate(69.294 0.749)" fill="none" stroke="#442b1a" stroke-linecap="round" stroke-linejoin="round" stroke-width="1"/>
    <path id="Trazado_715215" data-name="Trazado 715215" d="M350.857,458.3a360.331,360.331,0,0,1-60.325,107.026l-15.8-14.89-8.351,76.111,75.476-12.864-16.665-15.7a406.7,406.7,0,0,0,93.925-260.572A409.536,409.536,0,0,0,299.455,48.224" transform="translate(398.874 72.211)" fill="none" stroke="#442b1a" stroke-linecap="round" stroke-linejoin="round" stroke-width="1"/>
    <path id="Trazado_715216" data-name="Trazado 715216" d="M240.54,376.691A361.39,361.39,0,0,1,91.63,276.034l.6-.749,15.606-15.606L32.014,249.064l10.611,75.829,15.759-15.759-.47.469a408.376,408.376,0,0,0,598.71,9.505" transform="translate(47.938 372.949)" fill="none" stroke="#442b1a" stroke-linecap="round" stroke-linejoin="round" stroke-width="1"/>
    <path id="Trazado_715217" data-name="Trazado 715217" d="M68.762,216.927a360.315,360.315,0,0,1,60.607-107.363l-.432-.407,15.8,14.89,8.354-76.108L77.615,60.8,94.28,76.5l.232.652A408.442,408.442,0,0,0,84.136,585.484" transform="translate(0.749 71.783)" fill="none" stroke="#442b1a" stroke-linecap="round" stroke-linejoin="round" stroke-width="1"/>
    <path id="Trazado_715218" data-name="Trazado 715218" d="M140.095,28.534a6.283,6.283,0,0,1,2.035,4.548,7.434,7.434,0,0,1-2.038,4.885,6.677,6.677,0,0,1-5.25,2.567,9.424,9.424,0,0,1-6.056-2.637l-.822-.709a10.635,10.635,0,0,1-2.827-3.631,6.755,6.755,0,0,1-.584-3.908,7.223,7.223,0,0,1,1.756-3.631,7.244,7.244,0,0,1,4.478-2.675,6.76,6.76,0,0,1,4.92,1.376l-2.39,2.77a3.721,3.721,0,0,0-2.515-.9,3.544,3.544,0,0,0-2.22,1.391,3.112,3.112,0,0,0-.8,2.932,7.335,7.335,0,0,0,2.472,3.362l1.014.874a7.849,7.849,0,0,0,3.756,2.088,3.049,3.049,0,0,0,2.8-1.214,3.607,3.607,0,0,0,1.066-2.422A3.506,3.506,0,0,0,137.7,31.3Z" transform="translate(186.391 34.865)"/>
    <path id="Trazado_715219" data-name="Trazado 715219" d="M137.17,23.117a9.715,9.715,0,0,0-1,.787,2.581,2.581,0,0,0-1.014,2.77L141,33.029l-2.595,2.385-8.933-9.71,2.45-2.255,1.136,1.091A3.27,3.27,0,0,1,134,21.214a3.694,3.694,0,0,1,.917-.627Z" transform="translate(193.876 30.827)"/>
    <path id="Trazado_715220" data-name="Trazado 715220" d="M144.2,30a6.468,6.468,0,0,1-4.852,1.4,6.326,6.326,0,0,1-4.3-2.712l-.2-.275a7.954,7.954,0,0,1-1.511-3.309,5.654,5.654,0,0,1,.3-3.237,6.133,6.133,0,0,1,2.07-2.6,5.479,5.479,0,0,1,4.438-1.179,6.939,6.939,0,0,1,4.138,2.952l.862,1.154-6.735,5.022a3.262,3.262,0,0,0,2.063,1.046,3.127,3.127,0,0,0,2.213-.674,3.81,3.81,0,0,0,1.671-3.087l2.547.519a5.281,5.281,0,0,1-.677,2.685A7.027,7.027,0,0,1,144.2,30m-6.8-8.451a2.194,2.194,0,0,0-.939,1.586,3.678,3.678,0,0,0,.544,2.13l3.931-2.929-.167-.227a2.64,2.64,0,0,0-1.6-1.079,2.277,2.277,0,0,0-1.773.519" transform="translate(199.491 26.939)"/>
    <path id="Trazado_715221" data-name="Trazado 715221" d="M149.575,26.491a3.8,3.8,0,0,1-.894-.852,4.261,4.261,0,0,1-2.185,2.889,4.682,4.682,0,0,1-3.347.614,3.6,3.6,0,0,1-2.51-1.826,3.737,3.737,0,0,1-.242-3.566,7.666,7.666,0,0,1,3.344-3.212l1.409-.8-.375-.657a2.172,2.172,0,0,0-1.134-1.039,1.847,1.847,0,0,0-1.558.257,2.085,2.085,0,0,0-1,1.061,1.455,1.455,0,0,0,.14,1.269l-3.062,1.743a3.531,3.531,0,0,1-.437-2.193,4.707,4.707,0,0,1,.979-2.32,7.306,7.306,0,0,1,2.248-1.918,5.752,5.752,0,0,1,3.971-.854,4.287,4.287,0,0,1,2.949,2.285L150.7,22.34a6.319,6.319,0,0,0,1.861,2.21l.1.177Zm-3.746-.684a3.074,3.074,0,0,0,1.079-1.014,2.28,2.28,0,0,0,.385-1.294l-1.124-1.97-1.144.652q-2.3,1.307-1.541,2.984l.092.185a1.409,1.409,0,0,0,.939.714,1.8,1.8,0,0,0,1.314-.257" transform="translate(206.19 22.471)"/>
    <path id="Trazado_715222" data-name="Trazado 715222" d="M150.663,23.135a2.3,2.3,0,0,0,1.254-1.106,1.866,1.866,0,0,0,.035-1.561L155,19.191a4.533,4.533,0,0,1,.275,2.55,4.858,4.858,0,0,1-1.149,2.358,6.166,6.166,0,0,1-2.313,1.636A5.734,5.734,0,0,1,147,25.8a7.1,7.1,0,0,1-3.424-3.953l-.092-.215a7.026,7.026,0,0,1-.38-5.115,5.663,5.663,0,0,1,3.4-3.394,5.544,5.544,0,0,1,4.2-.232,4.979,4.979,0,0,1,2.85,2.872l-3.049,1.276a2.424,2.424,0,0,0-1.229-1.3,2.354,2.354,0,0,0-3.1,1.573,5.189,5.189,0,0,0,.542,2.929l.142.34a5.257,5.257,0,0,0,1.706,2.462,2.144,2.144,0,0,0,2.088.092" transform="translate(213.808 18.832)"/>
    <path id="Trazado_715223" data-name="Trazado 715223" d="M147.044,11.891a1.73,1.73,0,0,1,.112-1.4,2.285,2.285,0,0,1,2.75-.869,1.862,1.862,0,0,1,.784,2.5,2.256,2.256,0,0,1-2.732.864,1.725,1.725,0,0,1-.914-1.091M155.62,26.6l-3.374,1.066L148.27,15.083l3.371-1.066Z" transform="translate(220.039 14.134)"/>
    <path id="Trazado_715224" data-name="Trazado 715224" d="M150.714,21.789a7.833,7.833,0,0,1,.01-3.581,5.522,5.522,0,0,1,1.631-2.78,6.354,6.354,0,0,1,3.052-1.513,6.02,6.02,0,0,1,4.6.687,6.564,6.564,0,0,1,2.77,3.948l.212.877a6.894,6.894,0,0,1-.639,5.12,6.567,6.567,0,0,1-8.9,1.906,7.005,7.005,0,0,1-2.7-4.508ZM154.98,8.6l3.756-.8-2.512,4.4-2.8.6Zm-.767,12.7a4.933,4.933,0,0,0,1.294,2.665,2.543,2.543,0,0,0,3.938-.829,5.393,5.393,0,0,0,.045-3.227,4.884,4.884,0,0,0-1.3-2.645,2.336,2.336,0,0,0-2.19-.567,2.3,2.3,0,0,0-1.746,1.4,5.492,5.492,0,0,0-.04,3.2" transform="translate(225.377 11.666)"/>
    <path id="Trazado_715225" data-name="Trazado 715225" d="M159.517,9.886l.235,1.508a4.61,4.61,0,0,1,3.634-2.073,3.827,3.827,0,0,1,3.212.971,5.731,5.731,0,0,1,1.349,3.584l.7,8.5-3.511.29-.694-8.411a2.306,2.306,0,0,0-.619-1.583,2.2,2.2,0,0,0-1.658-.37,2.428,2.428,0,0,0-2.12,1.446l.764,9.273-3.514.292L156.21,10.158Z" transform="translate(233.909 13.924)"/>
    <path id="Trazado_715226" data-name="Trazado 715226" d="M170.07,18.026l3.2-7.942,3.764.355L170.32,25.116l-.357.664a4.022,4.022,0,0,1-4.131,2.208,5.56,5.56,0,0,1-1.531-.377l.252-2.66.532.062a2.867,2.867,0,0,0,1.516-.162,1.988,1.988,0,0,0,.867-.934l.514-1.041L164.623,9.27l3.776.355Z" transform="translate(246.025 13.881)"/>
    <path id="Trazado_715227" data-name="Trazado 715227" d="M177.065,21.531a2.312,2.312,0,0,0,1.671-.1,1.875,1.875,0,0,0,.989-1.209l3.187.877a4.533,4.533,0,0,1-1.356,2.175,4.856,4.856,0,0,1-2.358,1.149,6.2,6.2,0,0,1-2.827-.137,5.746,5.746,0,0,1-3.829-2.917,7.12,7.12,0,0,1-.257-5.227l.06-.222a7.042,7.042,0,0,1,2.855-4.263,5.661,5.661,0,0,1,4.773-.572,5.538,5.538,0,0,1,3.454,2.41,4.98,4.98,0,0,1,.47,4.018l-3.184-.877a2.432,2.432,0,0,0-.167-1.781,2.36,2.36,0,0,0-3.414-.674,5.2,5.2,0,0,0-1.376,2.642l-.1.352a5.283,5.283,0,0,0-.18,2.992,2.158,2.158,0,0,0,1.588,1.361" transform="translate(257.433 16.195)"/>
    <path id="Trazado_715228" data-name="Trazado 715228" d="M183.079,26.379a3.818,3.818,0,0,1,.122-1.229,4.257,4.257,0,0,1-3.621.055,4.669,4.669,0,0,1-2.547-2.255,3.6,3.6,0,0,1-.1-3.1,3.733,3.733,0,0,1,2.66-2.39,7.7,7.7,0,0,1,4.588.657l1.5.617.285-.7a2.159,2.159,0,0,0,.122-1.531,1.841,1.841,0,0,0-1.161-1.071,2.1,2.1,0,0,0-1.453-.135,1.444,1.444,0,0,0-.914.892l-3.262-1.339a3.573,3.573,0,0,1,1.461-1.7,4.685,4.685,0,0,1,2.432-.657,7.334,7.334,0,0,1,2.895.589,5.745,5.745,0,0,1,3.117,2.6,4.27,4.27,0,0,1,.017,3.729l-2.17,5.292a6.242,6.242,0,0,0-.592,2.827l-.082.192Zm-1.766-3.374a3.038,3.038,0,0,0,1.463.225,2.3,2.3,0,0,0,1.256-.492l.862-2.1-1.221-.5q-2.446-1-3.3.624l-.09.187a1.4,1.4,0,0,0,.017,1.179,1.8,1.8,0,0,0,1.011.877" transform="translate(264.483 18.711)"/>
    <path id="Trazado_715229" data-name="Trazado 715229" d="M196.156,26a7.893,7.893,0,0,1-3.616,3.566,4.435,4.435,0,0,1-4.156-.247,4.1,4.1,0,0,1-2.12-2.8l-3.072,5.409-3.064-1.738L189.139,14.3l2.842,1.613-.532,1.184a4.137,4.137,0,0,1,3.664.312,4.474,4.474,0,0,1,2.412,3.439,8.155,8.155,0,0,1-1.276,5Zm-2.937-1.96a5.189,5.189,0,0,0,.829-2.795,2.117,2.117,0,0,0-1.154-1.8,2.3,2.3,0,0,0-2.61-.022l-2.665,4.7a2.347,2.347,0,0,0,1.361,2.27q2.2,1.247,4.238-2.35" transform="translate(269.724 21.408)"/>
    <path id="Trazado_715230" data-name="Trazado 715230" d="M197.73,18.5l-1.881,2.645,1.838,1.306-1.5,2.105-1.841-1.306-3.816,5.367a1.569,1.569,0,0,0-.377,1.016,1.407,1.407,0,0,0,.689.882,5.679,5.679,0,0,0,.9.529l-1.551,2.178a7.265,7.265,0,0,1-1.921-.979Q185.249,30.1,187.361,27l4.118-5.794-1.568-1.116,1.5-2.108L192.98,19.1l1.881-2.645Z" transform="translate(279.254 24.643)"/>
    <path id="Trazado_715231" data-name="Trazado 715231" d="M194.389,33.7a4.421,4.421,0,0,1-3.759-1.191A4.161,4.161,0,0,1,189,29.456a5.207,5.207,0,0,1,1.5-3.436l5.707-6.5,2.647,2.323-5.632,6.413q-1.36,1.551.052,2.79a2.54,2.54,0,0,0,2.672.689l6.171-7.028,2.655,2.335-8.7,9.915-2.492-2.188Z" transform="translate(283.012 29.235)"/>
    <path id="Trazado_715232" data-name="Trazado 715232" d="M204.7,31.243a9.387,9.387,0,0,0-.789-1,2.583,2.583,0,0,0-2.775-1.009L194.8,35.1l-2.39-2.587,9.69-8.956L204.355,26l-1.086,1.141a3.269,3.269,0,0,1,3.329.924,3.8,3.8,0,0,1,.627.914Z" transform="translate(288.111 35.268)"/>
    <path id="Trazado_715233" data-name="Trazado 715233" d="M198.6,39.564a3.924,3.924,0,0,1,.732-.994,4.255,4.255,0,0,1-3.144-1.8,4.681,4.681,0,0,1-1.041-3.239,3.609,3.609,0,0,1,1.491-2.722,3.731,3.731,0,0,1,3.506-.7,7.688,7.688,0,0,1,3.611,2.9l.977,1.294.6-.455a2.184,2.184,0,0,0,.887-1.256,1.849,1.849,0,0,0-.457-1.513,2.093,2.093,0,0,0-1.181-.857,1.456,1.456,0,0,0-1.239.3l-2.123-2.812A3.556,3.556,0,0,1,203.339,27a4.685,4.685,0,0,1,2.427.674,7.325,7.325,0,0,1,2.193,1.983,5.764,5.764,0,0,1,1.354,3.829,4.282,4.282,0,0,1-1.886,3.219l-4.565,3.444a6.314,6.314,0,0,0-1.95,2.13l-.167.127Zm.2-3.8a3.027,3.027,0,0,0,1.146.939,2.276,2.276,0,0,0,1.331.215l1.811-1.364-.794-1.051q-1.592-2.113-3.157-1.146l-.175.115a1.413,1.413,0,0,0-.584,1.024,1.8,1.8,0,0,0,.422,1.269" transform="translate(292.191 40.432)"/>
    <path id="Trazado_715234" data-name="Trazado 715234" d="M198.425,138.554H178.338V61.122l-23.983,7.437V52.226l41.916-15.014h2.153Z" transform="translate(231.132 55.721)" fill="#ffbb40"/>
    <path id="Trazado_715235" data-name="Trazado 715235" d="M195.971,137.554H175.885V60.122L151.9,67.559V51.226l41.916-15.014h2.153Z" transform="translate(227.459 54.223)" fill="none" stroke="#020202" stroke-miterlimit="10" stroke-width="1"/>
    <path id="Trazado_715236" data-name="Trazado 715236" d="M225.393,152.518l-1.106,5.324,14.48,3.009-.742,3.581-14.485-3.009-1.091,5.252-2.9-.6,2.944-14.16Z" transform="translate(328.749 227.475)"/>
    <path id="Trazado_715237" data-name="Trazado 715237" d="M228.162,149.755a9.4,9.4,0,0,0-.472,1.181,2.577,2.577,0,0,0,.5,2.907l8.236,2.59-1.059,3.361-12.584-3.956,1-3.177,1.528.377a3.261,3.261,0,0,1-.849-3.347,3.68,3.68,0,0,1,.48-1Z" transform="translate(333.603 222.65)"/>
    <path id="Trazado_715238" data-name="Trazado 715238" d="M238.326,151.131A4,4,0,0,1,237.1,151a4.251,4.251,0,0,1,.022,3.621,4.676,4.676,0,0,1-2.28,2.527,3.609,3.609,0,0,1-3.1.075,3.733,3.733,0,0,1-2.365-2.682,7.66,7.66,0,0,1,.7-4.58l.629-1.5-.7-.292a2.18,2.18,0,0,0-1.531-.137,1.857,1.857,0,0,0-1.081,1.154,2.121,2.121,0,0,0-.147,1.451,1.456,1.456,0,0,0,.882.922l-1.366,3.249a3.548,3.548,0,0,1-1.681-1.476,4.676,4.676,0,0,1-.634-2.437,7.26,7.26,0,0,1,.614-2.889,5.763,5.763,0,0,1,2.635-3.094,4.286,4.286,0,0,1,3.729.017l5.27,2.22a6.313,6.313,0,0,0,2.825.619l.19.082Zm-3.389,1.733a3.04,3.04,0,0,0,.24-1.461,2.3,2.3,0,0,0-.482-1.261l-2.09-.879-.512,1.211q-1.026,2.439.594,3.307l.185.092a1.414,1.414,0,0,0,1.181,0,1.8,1.8,0,0,0,.884-1" transform="translate(336.089 216.364)"/>
    <path id="Trazado_715239" data-name="Trazado 715239" d="M227.9,144.884l1.381.659a4.6,4.6,0,0,1,.337-4.171,3.828,3.828,0,0,1,2.615-2.105,5.757,5.757,0,0,1,3.721.912l7.4,4.216-1.741,3.062-7.335-4.173a2.291,2.291,0,0,0-1.656-.382,2.173,2.173,0,0,0-1.241,1.159,2.417,2.417,0,0,0,0,2.567l8.084,4.6-1.741,3.062-11.468-6.526Z" transform="translate(338.802 208.459)"/>
    <path id="Trazado_715240" data-name="Trazado 715240" d="M240.373,141.468a1.129,1.129,0,0,0-1.2-.085,7.21,7.21,0,0,0-1.753,1.264q-3.578,3.214-6.006,1.431a3.616,3.616,0,0,1-1.5-2.907,5.864,5.864,0,0,1,1.3-3.769,6.327,6.327,0,0,1,3.329-2.542,3.725,3.725,0,0,1,3.372.6L235.83,138.3a1.692,1.692,0,0,0-1.3-.345,2.066,2.066,0,0,0-1.3.937,2.117,2.117,0,0,0-.492,1.349,1.271,1.271,0,0,0,.539,1,1.088,1.088,0,0,0,1.091.112,5.681,5.681,0,0,0,1.606-1.141,15.309,15.309,0,0,1,1.791-1.444q2.476-1.645,4.513-.155a3.451,3.451,0,0,1,1.441,2.977,6.677,6.677,0,0,1-1.466,3.886,7,7,0,0,1-2.218,2.025,4.93,4.93,0,0,1-2.5.669,3.771,3.771,0,0,1-2.228-.724l1.975-2.7a1.84,1.84,0,0,0,1.571.292,2.768,2.768,0,0,0,1.426-1.1,2.551,2.551,0,0,0,.594-1.463,1.192,1.192,0,0,0-.5-1.011" transform="translate(344.262 201.695)"/>
    <path id="Trazado_715241" data-name="Trazado 715241" d="M235,137.716l1.126.959a4.638,4.638,0,0,1,1.446-3.9,3.522,3.522,0,0,1,3.893-1.074,4.52,4.52,0,0,1,1.356-4.231,3.933,3.933,0,0,1,3.137-1.391,5.748,5.748,0,0,1,3.411,1.9l5.986,5.929-2.485,2.512-5.981-5.916a2.511,2.511,0,0,0-1.473-.844,1.959,1.959,0,0,0-1.458.737,2.2,2.2,0,0,0-.47,2.625l6.448,6.363-2.48,2.5-5.969-5.909a2.5,2.5,0,0,0-1.5-.847,1.954,1.954,0,0,0-1.444.732,2.284,2.284,0,0,0-.644,2.417l6.631,6.563-2.48,2.5-9.378-9.283Z" transform="translate(348.401 191.764)"/>
    <path id="Trazado_715242" data-name="Trazado 715242" d="M238.63,127.44a1.729,1.729,0,0,1-.395-1.351,2.285,2.285,0,0,1,2.26-1.791,1.856,1.856,0,0,1,1.623,2.058,2.261,2.261,0,0,1-2.248,1.781,1.721,1.721,0,0,1-1.241-.7m13.246,10.7-2.772,2.2-8.194-10.344,2.775-2.2Z" transform="translate(356.711 186.112)"/>
    <path id="Trazado_715243" data-name="Trazado 715243" d="M252.017,131.322a1.129,1.129,0,0,0-1.094-.494,7.232,7.232,0,0,0-2.08.582q-4.469,1.779-6.136-.729a3.643,3.643,0,0,1-.407-3.252,5.889,5.889,0,0,1,2.525-3.084,6.312,6.312,0,0,1,4-1.239,3.727,3.727,0,0,1,2.952,1.728l-2.937,1.95a1.681,1.681,0,0,0-1.1-.772,2.042,2.042,0,0,0-1.541.43,2.119,2.119,0,0,0-.927,1.1,1.27,1.27,0,0,0,.16,1.124,1.086,1.086,0,0,0,.984.482,5.717,5.717,0,0,0,1.9-.517,15.406,15.406,0,0,1,2.178-.734q2.892-.693,4.288,1.411a3.44,3.44,0,0,1,.325,3.292,6.688,6.688,0,0,1-2.717,3.142,6.993,6.993,0,0,1-2.78,1.134,4.925,4.925,0,0,1-2.577-.235,3.749,3.749,0,0,1-1.841-1.451l2.785-1.846a1.844,1.844,0,0,0,1.376.814,2.739,2.739,0,0,0,1.716-.542,2.543,2.543,0,0,0,1.064-1.166,1.2,1.2,0,0,0-.125-1.124" transform="translate(362.512 184.315)"/>
    <path id="Trazado_715244" data-name="Trazado 715244" d="M245.628,122.387a1.742,1.742,0,0,1-.162-1.4,2.287,2.287,0,0,1,2.527-1.389,1.862,1.862,0,0,1,1.259,2.3,2.267,2.267,0,0,1-2.512,1.381,1.721,1.721,0,0,1-1.111-.892M256.9,135.141l-3.1,1.7-6.351-11.568,3.1-1.7Z" transform="translate(367.442 178.999)"/>
    <path id="Trazado_715245" data-name="Trazado 715245" d="M250.007,132.1a7.841,7.841,0,0,1-.712-3.509,5.516,5.516,0,0,1,1.041-3.052,6.337,6.337,0,0,1,2.682-2.093,6.008,6.008,0,0,1,4.65-.252,6.548,6.548,0,0,1,3.506,3.309l.385.819a6.9,6.9,0,0,1,.4,5.142,6.575,6.575,0,0,1-8.339,3.656,7.021,7.021,0,0,1-3.554-3.876Zm1.528-13.781,3.516-1.541-1.576,4.817-2.625,1.151Zm1.8,12.6a4.888,4.888,0,0,0,1.8,2.35,2.538,2.538,0,0,0,3.689-1.6,5.4,5.4,0,0,0-.6-3.169,4.864,4.864,0,0,0-1.806-2.328,2.335,2.335,0,0,0-2.26-.117,2.3,2.3,0,0,0-1.428,1.726,5.459,5.459,0,0,0,.607,3.142" transform="translate(373.285 174.858)"/>
    <path id="Trazado_715246" data-name="Trazado 715246" d="M257.5,118.672l.544,1.429a4.6,4.6,0,0,1,3.127-2.78,3.822,3.822,0,0,1,3.344.285,5.763,5.763,0,0,1,2.058,3.227L269.019,129l-3.374,1.011-2.42-8.084a2.3,2.3,0,0,0-.934-1.421,2.181,2.181,0,0,0-1.7-.02,2.422,2.422,0,0,0-1.776,1.856l2.667,8.913-3.376,1.009-3.781-12.639Z" transform="translate(380.83 175.312)"/>
    <path id="Trazado_715247" data-name="Trazado 715247" d="M263.046,128.041l-2-.569.272-.867a6.346,6.346,0,0,0,.22-3.072l-.552-2.675,2.915-.6.482,2.393a6.327,6.327,0,0,1-.117,2.812,6.964,6.964,0,0,1-1.219,2.582" transform="translate(390.801 180.069)"/>
    <path id="Trazado_715248" data-name="Trazado 715248" d="M273.858,128.635a3.975,3.975,0,0,1-.43-1.159,4.26,4.26,0,0,1-3.227,1.646,4.683,4.683,0,0,1-3.282-.907,3.606,3.606,0,0,1-1.461-2.737,3.73,3.73,0,0,1,1.339-3.314,7.655,7.655,0,0,1,4.408-1.431l1.618-.107-.05-.754a2.174,2.174,0,0,0-.567-1.431,1.849,1.849,0,0,0-1.513-.447,2.093,2.093,0,0,0-1.364.517,1.45,1.45,0,0,0-.43,1.2l-3.514.232a3.526,3.526,0,0,1,.564-2.163,4.643,4.643,0,0,1,1.893-1.661,7.29,7.29,0,0,1,2.859-.747,5.76,5.76,0,0,1,3.943.966,4.287,4.287,0,0,1,1.658,3.342l.38,5.707a6.32,6.32,0,0,0,.712,2.8l.015.2Zm-3.069-2.253a3.037,3.037,0,0,0,1.411-.442,2.3,2.3,0,0,0,.914-1l-.152-2.263-1.314.087q-2.641.176-2.687,2.013v.207a1.41,1.41,0,0,0,.532,1.051,1.8,1.8,0,0,0,1.3.342" transform="translate(397.379 172.734)"/>
    <rect id="Rectángulo_353397" data-name="Rectángulo 353397" width="18.731" height="3.537" transform="translate(676.762 301.256) rotate(-88.949)"/>
    <path id="Trazado_715249" data-name="Trazado 715249" d="M278.469,115.77l-.095,1.476a4.632,4.632,0,0,1,4-1.176,3.522,3.522,0,0,1,3.187,2.477,4.52,4.52,0,0,1,4.2-1.444,3.935,3.935,0,0,1,2.992,1.681,5.759,5.759,0,0,1,.517,3.871L292.1,131l-3.5-.489,1.164-8.334a2.514,2.514,0,0,0-.207-1.683,1.935,1.935,0,0,0-1.461-.729,2.2,2.2,0,0,0-2.385,1.194l-1.244,8.973-3.489-.487,1.166-8.321a2.511,2.511,0,0,0-.217-1.706,1.976,1.976,0,0,0-1.451-.719,2.286,2.286,0,0,0-2.323.932l-1.294,9.238-3.489-.487,1.826-13.069Z" transform="translate(409.344 172.666)"/>
    <path id="Trazado_715250" data-name="Trazado 715250" d="M288.744,131.08a4.066,4.066,0,0,1,0-1.234,4.262,4.262,0,0,1-3.6.412,4.674,4.674,0,0,1-2.757-2,3.618,3.618,0,0,1-.41-3.074,3.728,3.728,0,0,1,2.413-2.64,7.667,7.667,0,0,1,4.63.2l1.553.465.217-.724a2.16,2.16,0,0,0-.03-1.536A1.855,1.855,0,0,0,289.5,120a2.1,2.1,0,0,0-1.461.01,1.437,1.437,0,0,0-.819.976l-3.377-1.011a3.517,3.517,0,0,1,1.286-1.828,4.65,4.65,0,0,1,2.353-.894,7.291,7.291,0,0,1,2.939.3,5.776,5.776,0,0,1,3.359,2.283,4.285,4.285,0,0,1,.385,3.711l-1.638,5.482a6.3,6.3,0,0,0-.312,2.872l-.06.2Zm-2.09-3.182a3.044,3.044,0,0,0,1.478.08,2.3,2.3,0,0,0,1.2-.614l.652-2.173-1.261-.377q-2.536-.76-3.224.944l-.07.195a1.4,1.4,0,0,0,.132,1.171,1.8,1.8,0,0,0,1.091.774" transform="translate(421.979 175.519)"/>
    <path id="Trazado_715251" data-name="Trazado 715251" d="M291.847,129.636a2.313,2.313,0,0,0,1.668.132,1.887,1.887,0,0,0,1.144-1.064l3.039,1.3a4.534,4.534,0,0,1-1.641,1.97,4.817,4.817,0,0,1-2.495.819,6.215,6.215,0,0,1-2.78-.522,5.735,5.735,0,0,1-3.394-3.411,7.11,7.11,0,0,1,.454-5.212l.092-.212a7.028,7.028,0,0,1,3.406-3.834,5.661,5.661,0,0,1,4.808.082,5.56,5.56,0,0,1,3.094,2.857,5,5,0,0,1-.082,4.046l-3.037-1.3a2.437,2.437,0,0,0,.075-1.788,2.357,2.357,0,0,0-3.289-1.134,5.216,5.216,0,0,0-1.726,2.43l-.142.337a5.3,5.3,0,0,0-.584,2.939,2.152,2.152,0,0,0,1.389,1.563" transform="translate(429.875 178.352)"/>
    <path id="Trazado_715252" data-name="Trazado 715252" d="M295.281,134.48a6.487,6.487,0,0,1-3.217-3.891,6.335,6.335,0,0,1,.774-5.025l.17-.295a7.939,7.939,0,0,1,2.432-2.7,5.653,5.653,0,0,1,3.087-1.016,6.1,6.1,0,0,1,3.209.862,5.479,5.479,0,0,1,2.852,3.6,6.926,6.926,0,0,1-1.054,4.972l-.714,1.249-7.292-4.171a3.265,3.265,0,0,0-.135,2.31,3.111,3.111,0,0,0,1.5,1.758,3.805,3.805,0,0,0,3.5.3l.539,2.542a5.284,5.284,0,0,1-2.732.455,7.074,7.074,0,0,1-2.917-.944m5.035-9.61a2.2,2.2,0,0,0-1.828-.227,3.674,3.674,0,0,0-1.736,1.349l4.255,2.435.14-.245a2.642,2.642,0,0,0,.355-1.893,2.28,2.28,0,0,0-1.186-1.419" transform="translate(437.003 182.006)"/>
    <path id="Trazado_715253" data-name="Trazado 715253" d="M306.135,125.762l-.819,1.291a4.6,4.6,0,0,1,4.1.837,3.825,3.825,0,0,1,1.776,2.847,5.756,5.756,0,0,1-1.351,3.584l-5.072,6.848-2.832-2.1,5.025-6.78a2.293,2.293,0,0,0,.577-1.6,2.19,2.19,0,0,0-1-1.374,2.419,2.419,0,0,0-2.547-.31l-5.537,7.475-2.832-2.1,7.852-10.6Z" transform="translate(442.656 185.359)"/>
    <path id="Trazado_715254" data-name="Trazado 715254" d="M304.83,141.349a3.943,3.943,0,0,1,.549-1.1,4.257,4.257,0,0,1-3.4-1.241,4.67,4.67,0,0,1-1.571-3.019,3.6,3.6,0,0,1,1.011-2.932,3.727,3.727,0,0,1,3.336-1.281,7.691,7.691,0,0,1,4.053,2.255l1.179,1.109.517-.549a2.167,2.167,0,0,0,.662-1.389,1.851,1.851,0,0,0-.7-1.414,2.105,2.105,0,0,0-1.311-.647,1.452,1.452,0,0,0-1.171.507l-2.567-2.415a3.541,3.541,0,0,1,1.97-1.061,4.692,4.692,0,0,1,2.5.255,7.288,7.288,0,0,1,2.495,1.586,5.765,5.765,0,0,1,1.98,3.546,4.293,4.293,0,0,1-1.316,3.489l-3.921,4.166a6.4,6.4,0,0,0-1.566,2.43l-.14.15Zm-.445-3.781a2.988,2.988,0,0,0,1.286.732,2.281,2.281,0,0,0,1.351-.01l1.553-1.653-.959-.9q-1.929-1.813-3.307-.6l-.15.142a1.406,1.406,0,0,0-.407,1.106,1.807,1.807,0,0,0,.632,1.181" transform="translate(449.801 191.812)"/>
    <path id="Trazado_715255" data-name="Trazado 715255" d="M316.115,134.1l-1.091,1a4.639,4.639,0,0,1,3.694,1.918,3.515,3.515,0,0,1,.579,4,4.536,4.536,0,0,1,4.033,1.873,3.935,3.935,0,0,1,.989,3.284,5.731,5.731,0,0,1-2.31,3.149l-6.623,5.207L313.2,151.74l6.613-5.2a2.506,2.506,0,0,0,1.021-1.359,1.947,1.947,0,0,0-.549-1.536,2.2,2.2,0,0,0-2.547-.792l-7.115,5.607-2.178-2.77,6.606-5.192a2.484,2.484,0,0,0,1.024-1.379,1.966,1.966,0,0,0-.544-1.526,2.286,2.286,0,0,0-2.32-.939l-7.335,5.764-2.178-2.77,10.377-8.154Z" transform="translate(454.758 196.903)"/>
    <path id="Trazado_715256" data-name="Trazado 715256" d="M310.6,150.067l-1.831-3.024,11.286-6.835,1.833,3.024Zm12.272-11.805a1.72,1.72,0,0,1,1.389-.222,2.29,2.29,0,0,1,1.493,2.465,1.709,1.709,0,0,1-.839,1.136,1.734,1.734,0,0,1-1.409.217,2.267,2.267,0,0,1-1.483-2.45,1.716,1.716,0,0,1,.849-1.146" transform="translate(462.349 206.61)"/>
    <path id="Trazado_715257" data-name="Trazado 715257" d="M311.509,151.777a6.494,6.494,0,0,1-.492-5.025,6.334,6.334,0,0,1,3.451-3.731l.307-.15a7.966,7.966,0,0,1,3.529-.882,5.658,5.658,0,0,1,3.127.887,6.08,6.08,0,0,1,2.18,2.51,5.472,5.472,0,0,1,.35,4.578A6.956,6.956,0,0,1,320.3,153.5l-1.291.634-3.711-7.54a3.288,3.288,0,0,0-1.4,1.841,3.112,3.112,0,0,0,.26,2.3,3.8,3.8,0,0,0,2.73,2.2l-.976,2.413a5.3,5.3,0,0,1-2.515-1.154,7.021,7.021,0,0,1-1.888-2.415m9.548-5.147a2.205,2.205,0,0,0-1.389-1.214,3.671,3.671,0,0,0-2.193.15l2.165,4.4.252-.125a2.606,2.606,0,0,0,1.351-1.374,2.262,2.262,0,0,0-.187-1.836" transform="translate(465.268 212.616)"/>
    <path id="Trazado_715258" data-name="Trazado 715258" d="M325.832,149.7l-1.4.609a4.6,4.6,0,0,1,2.929,2.989,3.84,3.84,0,0,1-.122,3.354,5.766,5.766,0,0,1-3.127,2.213L316.07,161.7l-1.171-3.324,7.959-2.8a2.283,2.283,0,0,0,1.371-1,2.18,2.18,0,0,0-.06-1.7,2.421,2.421,0,0,0-1.935-1.683l-8.778,3.089-1.171-3.324,12.447-4.383Z" transform="translate(467.615 219.474)"/>
    <path id="Trazado_715259" data-name="Trazado 715259" d="M330.576,156.263l-3.149.777.539,2.19-2.51.619-.542-2.19-6.391,1.573a1.572,1.572,0,0,0-.952.524,1.419,1.419,0,0,0-.052,1.119,5.757,5.757,0,0,0,.332.986l-2.592.639a7.325,7.325,0,0,1-.819-2q-.888-3.6,2.73-4.565l6.9-1.7-.459-1.871,2.51-.619.46,1.871,3.149-.774Z" transform="translate(470.581 227.223)"/>
    <path id="Trazado_715260" data-name="Trazado 715260" d="M321.019,155.928a7.832,7.832,0,0,1,3.571.237,5.552,5.552,0,0,1,2.672,1.806,6.351,6.351,0,0,1,1.314,3.139,6.011,6.011,0,0,1-.979,4.553,6.559,6.559,0,0,1-4.116,2.512l-.889.157a6.905,6.905,0,0,1-5.067-.967,6.571,6.571,0,0,1-1.339-9,7.021,7.021,0,0,1,4.673-2.41Zm.267,3.524a4.949,4.949,0,0,0-2.745,1.121,2.54,2.54,0,0,0,.579,3.981,5.378,5.378,0,0,0,3.217.252,4.9,4.9,0,0,0,2.722-1.129,2.336,2.336,0,0,0,.7-2.15,2.3,2.3,0,0,0-1.289-1.831,5.46,5.46,0,0,0-3.189-.245" transform="translate(471.619 233.337)"/>
    <path id="Trazado_715261" data-name="Trazado 715261" d="M253.105,212.119l6.331-5.761,3.237,1.958-12.427,10.3-.609.442a4.022,4.022,0,0,1-4.678.192,5.443,5.443,0,0,1-1.214-1l1.381-2.285.452.287a2.916,2.916,0,0,0,1.439.512,2.008,2.008,0,0,0,1.184-.465l.917-.714,2.892-13.713,3.242,1.96Z" transform="translate(364.984 302.276)"/>
    <path id="Trazado_715262" data-name="Trazado 715262" d="M259.661,216.531a1.137,1.137,0,0,0-.232-1.181,7.27,7.27,0,0,0-1.678-1.359q-4.038-2.611-2.957-5.422a3.624,3.624,0,0,1,2.415-2.213,5.868,5.868,0,0,1,3.976.267,6.334,6.334,0,0,1,3.327,2.547,3.728,3.728,0,0,1,.3,3.409l-3.289-1.266a1.711,1.711,0,0,0-.007-1.341,2.055,2.055,0,0,0-1.244-1.006,2.094,2.094,0,0,0-1.431-.12,1.271,1.271,0,0,0-.822.779,1.089,1.089,0,0,0,.177,1.084,5.682,5.682,0,0,0,1.523,1.251,15.459,15.459,0,0,1,1.861,1.349q2.236,1.955,1.331,4.313a3.442,3.442,0,0,1-2.492,2.173,6.662,6.662,0,0,1-4.136-.4,6.979,6.979,0,0,1-2.535-1.608,4.954,4.954,0,0,1-1.3-2.238,3.789,3.789,0,0,1,.117-2.34l3.117,1.2a1.849,1.849,0,0,0,.135,1.593,2.742,2.742,0,0,0,1.436,1.089,2.553,2.553,0,0,0,1.566.192,1.207,1.207,0,0,0,.844-.754" transform="translate(377.818 308.648)"/>
    <path id="Trazado_715263" data-name="Trazado 715263" d="M262.785,221.412a6.474,6.474,0,0,1-4.156-2.867A6.326,6.326,0,0,1,258,213.5l.082-.335a7.941,7.941,0,0,1,1.6-3.264,5.648,5.648,0,0,1,2.695-1.821,6.131,6.131,0,0,1,3.322-.05,5.5,5.5,0,0,1,3.729,2.685,6.956,6.956,0,0,1,.34,5.077l-.345,1.394-8.154-2.023a3.264,3.264,0,0,0,.5,2.26,3.132,3.132,0,0,0,1.925,1.284,3.815,3.815,0,0,0,3.444-.667l1.214,2.3a5.29,5.29,0,0,1-2.5,1.184,7.107,7.107,0,0,1-3.064-.112m2.223-10.619a2.219,2.219,0,0,0-1.821.277,3.7,3.7,0,0,0-1.3,1.776l4.758,1.181.07-.275a2.6,2.6,0,0,0-.18-1.916,2.268,2.268,0,0,0-1.523-1.044" transform="translate(385.963 311.207)"/>
    <path id="Trazado_715264" data-name="Trazado 715264" d="M263.57,214.929a7.743,7.743,0,0,1,1.988-4.7,4.7,4.7,0,0,1,4.083-1.4,4.11,4.11,0,0,1,3.187,1.861l.287-1.219,3.172.362-1.444,12.672a5.661,5.661,0,0,1-1.121,2.907,5.053,5.053,0,0,1-2.42,1.686,7.8,7.8,0,0,1-3.394.29,7.248,7.248,0,0,1-2.747-.9,5.037,5.037,0,0,1-1.9-1.721l1.793-1.955a4.132,4.132,0,0,0,3.007,1.828,3.034,3.034,0,0,0,2.255-.5,2.823,2.823,0,0,0,1.016-2.028l.08-.7a4.076,4.076,0,0,1-3.344,1,4.665,4.665,0,0,1-3.611-2.283,7.735,7.735,0,0,1-.9-5.067Zm3.471.659a4.811,4.811,0,0,0,.4,2.877,2.281,2.281,0,0,0,1.846,1.239,2.451,2.451,0,0,0,2.428-.941l.629-5.519a2.433,2.433,0,0,0-2.128-1.458,2.3,2.3,0,0,0-2.1.8,5.4,5.4,0,0,0-1.074,3" transform="translate(394.203 312.65)"/>
    <path id="Trazado_715265" data-name="Trazado 715265" d="M277.612,221.089a4.416,4.416,0,0,1-3.586,1.643,4.149,4.149,0,0,1-3.254-1.166,5.2,5.2,0,0,1-1.2-3.551l-.14-8.646,3.524-.057.137,8.531q.034,2.064,1.911,2.035a2.551,2.551,0,0,0,2.445-1.286l-.152-9.35,3.534-.06.215,13.2-3.317.052Z" transform="translate(403.45 313.228)"/>
    <path id="Trazado_715266" data-name="Trazado 715266" d="M282.737,212.065a10.189,10.189,0,0,0-1.271.057,2.588,2.588,0,0,0-2.437,1.663l1.056,8.571-3.5.43-1.611-13.094,3.3-.407.287,1.548a3.26,3.26,0,0,1,2.695-2.16,3.667,3.667,0,0,1,1.111.02Z" transform="translate(411.748 312.42)"/>
    <path id="Trazado_715267" data-name="Trazado 715267" d="M278.286,208.56a1.723,1.723,0,0,1,.267-1.384,2.285,2.285,0,0,1,2.83-.562,1.867,1.867,0,0,1,.5,2.575,2.269,2.269,0,0,1-2.812.557,1.735,1.735,0,0,1-.789-1.186m6.905,15.561-3.469.687-2.567-12.939,3.469-.689Z" transform="translate(416.642 308.972)"/>
    <path id="Trazado_715268" data-name="Trazado 715268" d="M281.9,219.612a7.912,7.912,0,0,1-.095-5.1,4.487,4.487,0,0,1,3.094-2.847,4.047,4.047,0,0,1,3.464.46l-1.94-6.443,3.382-1.024,5.412,17.931-3.047.919-.567-1.291a4.165,4.165,0,0,1-2.77,2.555,4.481,4.481,0,0,1-4.111-.677,8.19,8.19,0,0,1-2.822-4.478m3.449-.769a5.229,5.229,0,0,0,1.441,2.54,2.112,2.112,0,0,0,2.085.4,2.373,2.373,0,0,0,1.808-1.988l-1.511-4.992a2.317,2.317,0,0,0-2.577-.664q-2.439.734-1.246,4.7" transform="translate(421.408 306.448)"/>
    <path id="Trazado_715269" data-name="Trazado 715269" d="M298.1,217.155a3.808,3.808,0,0,1-.807-.932,4.277,4.277,0,0,1-2.455,2.665,4.691,4.691,0,0,1-3.389.295,3.613,3.613,0,0,1-2.323-2.06,3.726,3.726,0,0,1,.1-3.571,7.666,7.666,0,0,1,3.634-2.88l1.478-.662-.31-.692A2.17,2.17,0,0,0,293,208.177a1.846,1.846,0,0,0-1.576.107,2.1,2.1,0,0,0-1.1.961,1.451,1.451,0,0,0,.018,1.276l-3.214,1.444a3.554,3.554,0,0,1-.225-2.225,4.683,4.683,0,0,1,1.2-2.215,7.266,7.266,0,0,1,2.42-1.7,5.764,5.764,0,0,1,4.033-.472,4.31,4.31,0,0,1,2.72,2.557l2.342,5.217a6.278,6.278,0,0,0,1.643,2.375l.085.19Zm-3.664-1.039a3.1,3.1,0,0,0,1.171-.907,2.316,2.316,0,0,0,.507-1.251l-.932-2.068-1.2.537q-2.413,1.086-1.818,2.825l.072.192a1.407,1.407,0,0,0,.869.8,1.8,1.8,0,0,0,1.331-.13" transform="translate(429.483 307.23)"/>
    <path id="Trazado_715270" data-name="Trazado 715270" d="M293.182,216.409a7.948,7.948,0,0,1-1.389-4.91,4.491,4.491,0,0,1,2.268-3.541,4.038,4.038,0,0,1,3.464-.437L294,201.782l3.014-1.848,9.8,15.961-2.712,1.666-.879-1.106a4.147,4.147,0,0,1-2.028,3.177,4.48,4.48,0,0,1-4.146.392,8.223,8.223,0,0,1-3.871-3.614m3.142-1.618a5.208,5.208,0,0,0,2.038,2.085,2.1,2.1,0,0,0,2.12-.14,2.357,2.357,0,0,0,1.241-2.38l-2.73-4.445a2.321,2.321,0,0,0-2.665.017q-2.169,1.334,0,4.862" transform="translate(436.891 299.382)"/>
    <path id="Trazado_715271" data-name="Trazado 715271" d="M329.779,245.362H260.411V231.6l32.738-34.891a81.035,81.035,0,0,0,9.975-12.859,20.676,20.676,0,0,0,3.232-10.427q0-6.739-3.406-10.6t-9.732-3.856a13.253,13.253,0,0,0-10.736,4.69q-3.93,4.694-3.928,12.34H258.4a33.172,33.172,0,0,1,4.415-16.892,31.079,31.079,0,0,1,12.474-11.99,37.937,37.937,0,0,1,18.281-4.343q15.64,0,24.295,7.507t8.651,21.2a34.033,34.033,0,0,1-3.891,15.292q-3.9,7.784-13.346,18.141l-23.009,24.257h43.512Z" transform="translate(386.923 213.783)" fill="#ffdbdb"/>
    <path id="Trazado_715272" data-name="Trazado 715272" d="M327,242.682H257.635V228.919l32.736-34.894a80.659,80.659,0,0,0,9.975-12.859,20.669,20.669,0,0,0,3.232-10.427q0-6.739-3.4-10.6t-9.732-3.858a13.26,13.26,0,0,0-10.739,4.693q-3.926,4.694-3.928,12.337H255.617a33.163,33.163,0,0,1,4.415-16.89,31.069,31.069,0,0,1,12.477-11.99,37.928,37.928,0,0,1,18.278-4.346q15.64,0,24.295,7.507t8.651,21.2a34.026,34.026,0,0,1-3.891,15.292q-3.892,7.784-13.346,18.141l-23.006,24.26H327Z" transform="translate(382.762 209.765)" fill="none" stroke="#020202" stroke-miterlimit="10" stroke-width="1"/>
    <path id="Trazado_715273" data-name="Trazado 715273" d="M131.034,261.828a6.349,6.349,0,0,1,1.191,3.122A11.718,11.718,0,0,1,132,269a7.912,7.912,0,0,1-1.853,3.731,6.7,6.7,0,0,1-3.429,1.993,10.259,10.259,0,0,1-4.6-.02l-1.179-.26a10.95,10.95,0,0,1-4.3-1.866,6.646,6.646,0,0,1-2.35-3.164,7.475,7.475,0,0,1-.155-4.088,7.4,7.4,0,0,1,2.532-4.5,6.439,6.439,0,0,1,4.735-1.121l-.767,3.479a3.552,3.552,0,0,0-2.41.574,3.433,3.433,0,0,0-1.184,2.093,3.242,3.242,0,0,0,.757,3.077,7.375,7.375,0,0,0,3.861,1.861l1.106.245a7.023,7.023,0,0,0,4.35-.13,3.628,3.628,0,0,0,2.06-2.73,4.047,4.047,0,0,0-.225-3.059l-2.989-.657-.714,3.249-2.635-.579,1.5-6.823Z" transform="translate(170.587 388.808)"/>
    <path id="Trazado_715274" data-name="Trazado 715274" d="M130.9,262.517a6.472,6.472,0,0,1-3.294,3.828,6.319,6.319,0,0,1-5.08.083l-.32-.117a7.918,7.918,0,0,1-3.077-1.94,5.661,5.661,0,0,1-1.521-2.872,6.13,6.13,0,0,1,.307-3.309,5.485,5.485,0,0,1,3.067-3.419,6.942,6.942,0,0,1,5.08.2l1.351.494-2.882,7.892a3.281,3.281,0,0,0,2.3-.257,3.119,3.119,0,0,0,1.481-1.778,3.8,3.8,0,0,0-.295-3.494l2.415-.961a5.3,5.3,0,0,1,.909,2.615,7.055,7.055,0,0,1-.442,3.034m-10.319-3.342a2.194,2.194,0,0,0,.085,1.841,3.67,3.67,0,0,0,1.623,1.484l1.681-4.605-.265-.1a2.622,2.622,0,0,0-1.928-.025,2.27,2.27,0,0,0-1.2,1.4" transform="translate(175.95 380.909)"/>
    <path id="Trazado_715275" data-name="Trazado 715275" d="M130.04,255.374a1.131,1.131,0,0,0-1.2.115,7.241,7.241,0,0,0-1.516,1.538q-2.993,3.769-5.687,2.415a3.63,3.63,0,0,1-1.968-2.62,5.893,5.893,0,0,1,.657-3.933,6.317,6.317,0,0,1,2.86-3.059,3.719,3.719,0,0,1,3.421.032l-1.578,3.149a1.709,1.709,0,0,0-1.339-.125,2.054,2.054,0,0,0-1.124,1.144,2.083,2.083,0,0,0-.257,1.409,1.265,1.265,0,0,0,.7.9,1.078,1.078,0,0,0,1.094-.075,5.661,5.661,0,0,0,1.394-1.391,15.384,15.384,0,0,1,1.526-1.721q2.165-2.038,4.423-.9a3.441,3.441,0,0,1,1.915,2.692,6.663,6.663,0,0,1-.8,4.076,6.97,6.97,0,0,1-1.848,2.37,4.957,4.957,0,0,1-2.355,1.076,3.759,3.759,0,0,1-2.318-.347l1.5-2.982a1.859,1.859,0,0,0,1.6.022,2.768,2.768,0,0,0,1.224-1.326,2.56,2.56,0,0,0,.342-1.538,1.2,1.2,0,0,0-.667-.914" transform="translate(179.036 373.495)"/>
    <path id="Trazado_715276" data-name="Trazado 715276" d="M122.513,245.817l2.752,1.716,1.194-1.916,2.193,1.369L127.46,248.9l5.587,3.484a1.593,1.593,0,0,0,1.039.317c.28-.047.557-.295.837-.744a5.754,5.754,0,0,0,.477-.924l2.265,1.411a7.186,7.186,0,0,1-.859,1.98q-1.959,3.147-5.177,1.229l-6.034-3.761-1.019,1.636-2.193-1.369,1.019-1.633-2.755-1.718Z" transform="translate(180.657 367.788)"/>
    <path id="Trazado_715277" data-name="Trazado 715277" d="M122.885,246.159a1.746,1.746,0,0,1-.752-1.194,2.285,2.285,0,0,1,1.681-2.343,1.864,1.864,0,0,1,2.128,1.531,2.264,2.264,0,0,1-1.671,2.33,1.732,1.732,0,0,1-1.386-.325m15.681,6.631-2.06,2.874-10.724-7.687,2.06-2.872Z" transform="translate(182.857 363.257)"/>
    <path id="Trazado_715278" data-name="Trazado 715278" d="M125.261,240.749l2.51-2.909.657,5.025-1.873,2.173Zm4.573,13.089a7.836,7.836,0,0,1-2.155-2.859,5.54,5.54,0,0,1-.38-3.2,6.355,6.355,0,0,1,1.516-3.047A6.012,6.012,0,0,1,132.9,242.5a6.553,6.553,0,0,1,4.59,1.471l.7.569A6.918,6.918,0,0,1,140.775,249a6.566,6.566,0,0,1-5.941,6.9,7.009,7.009,0,0,1-4.877-1.96Zm2.492-2.5a4.928,4.928,0,0,0,2.64,1.341,2.54,2.54,0,0,0,2.637-3.039,5.389,5.389,0,0,0-1.911-2.6,4.909,4.909,0,0,0-2.635-1.321,2.348,2.348,0,0,0-2.09.874,2.285,2.285,0,0,0-.542,2.17,5.487,5.487,0,0,0,1.9,2.575" transform="translate(187.566 356.141)"/>
    <path id="Trazado_715279" data-name="Trazado 715279" d="M131.732,239.394l1.106,1.054a4.611,4.611,0,0,1,1.616-3.861,3.834,3.834,0,0,1,3.137-1.191,5.774,5.774,0,0,1,3.254,2.018l5.739,6.3-2.607,2.375-5.682-6.241a2.288,2.288,0,0,0-1.456-.877,2.191,2.191,0,0,0-1.538.717,2.427,2.427,0,0,0-.8,2.442l6.264,6.88-2.607,2.373-8.881-9.757Z" transform="translate(193.584 352.438)"/>
    <path id="Trazado_715280" data-name="Trazado 715280" d="M145.212,240.146l-2.378-8.226,3.184-2.038,3.761,15.694.127.744a4.024,4.024,0,0,1-1.888,4.283,5.591,5.591,0,0,1-1.441.644L145.137,249l.46-.277a2.965,2.965,0,0,0,1.094-1.064,2.007,2.007,0,0,0,.1-1.271l-.237-1.136-11.031-8.644,3.192-2.048Z" transform="translate(202.939 344.226)"/>
    <path id="Trazado_715281" data-name="Trazado 715281" d="M146.1,226.381l1.336,2.957,2.055-.929,1.066,2.355-2.058.929,2.715,6a1.579,1.579,0,0,0,.687.842,1.414,1.414,0,0,0,1.109-.152,5.817,5.817,0,0,0,.909-.5l1.1,2.432a7.269,7.269,0,0,1-1.813,1.169q-3.379,1.525-4.987-1.856l-2.927-6.478-1.756.794-1.066-2.355,1.756-.794-1.336-2.957Z" transform="translate(213.334 338.984)"/>
    <path id="Trazado_715282" data-name="Trazado 715282" d="M154.331,228.96a9.466,9.466,0,0,0-1.224.342q-1.881.682-2,2.168l2.949,8.114-3.312,1.2-4.508-12.4,3.129-1.139.629,1.446a3.262,3.262,0,0,1,2.14-2.712,3.733,3.733,0,0,1,1.086-.225Z" transform="translate(218.971 338.051)"/>
    <path id="Trazado_715283" data-name="Trazado 715283" d="M160.174,237.476a3.915,3.915,0,0,1-.637-1.056,4.27,4.27,0,0,1-2.865,2.215,4.683,4.683,0,0,1-3.394-.28,3.615,3.615,0,0,1-1.943-2.42,3.723,3.723,0,0,1,.7-3.5,7.64,7.64,0,0,1,4.066-2.225l1.571-.407-.19-.732a2.183,2.183,0,0,0-.822-1.3,1.842,1.842,0,0,0-1.573-.16,2.092,2.092,0,0,0-1.244.764,1.452,1.452,0,0,0-.2,1.259l-3.409.884a3.52,3.52,0,0,1,.152-2.23,4.638,4.638,0,0,1,1.551-1.983,7.215,7.215,0,0,1,2.67-1.266,5.759,5.759,0,0,1,4.056.215,4.279,4.279,0,0,1,2.25,2.977l1.436,5.537a6.293,6.293,0,0,0,1.219,2.62l.052.2Zm-3.434-1.641a3.077,3.077,0,0,0,1.306-.7,2.281,2.281,0,0,0,.709-1.149l-.567-2.2-1.276.33q-2.562.663-2.268,2.477l.04.2a1.414,1.414,0,0,0,.719.936,1.807,1.807,0,0,0,1.336.095" transform="translate(224.794 336.58)"/>
    <path id="Trazado_715284" data-name="Trazado 715284" d="M168.584,232.789a7.981,7.981,0,0,1-.679,5.08,4.476,4.476,0,0,1-3.509,2.265,4.122,4.122,0,0,1-3.616-1.171l.032,1.411-3.142.425-2.51-18.561,3.494-.475.9,6.661a4,4,0,0,1,2.987-1.843,4.507,4.507,0,0,1,3.988,1.251,7.979,7.979,0,0,1,2.03,4.763Zm-3.526.217a5.264,5.264,0,0,0-1.019-2.81,2.145,2.145,0,0,0-2-.659,2.329,2.329,0,0,0-2.11,1.676l.7,5.162a2.355,2.355,0,0,0,2.5,1.061,2.174,2.174,0,0,0,2-1.968,8.662,8.662,0,0,0-.075-2.462" transform="translate(232.337 332.069)"/>
    <path id="Trazado_715285" data-name="Trazado 715285" d="M169.563,236.7a3.9,3.9,0,0,1-.375-1.176,4.263,4.263,0,0,1-3.3,1.481,4.689,4.689,0,0,1-3.232-1.071,3.6,3.6,0,0,1-1.319-2.807,3.722,3.722,0,0,1,1.5-3.244,7.679,7.679,0,0,1,4.475-1.206l1.621-.027-.012-.754a2.178,2.178,0,0,0-.492-1.456,1.848,1.848,0,0,0-1.491-.524,2.089,2.089,0,0,0-1.389.447,1.442,1.442,0,0,0-.487,1.181l-3.524.055a3.555,3.555,0,0,1,.672-2.133,4.686,4.686,0,0,1,1.975-1.561,7.282,7.282,0,0,1,2.892-.6,5.751,5.751,0,0,1,3.891,1.161,4.283,4.283,0,0,1,1.488,3.421l.092,5.719a6.341,6.341,0,0,0,.569,2.83l.005.207Zm-2.954-2.4a3.081,3.081,0,0,0,1.433-.37,2.3,2.3,0,0,0,.959-.949l-.037-2.27-1.316.022q-2.645.041-2.787,1.873l-.007.207a1.414,1.414,0,0,0,.48,1.079,1.809,1.809,0,0,0,1.276.407" transform="translate(241.58 334.375)"/>
    <path id="Trazado_715286" data-name="Trazado 715286" d="M173.113,226.774l-.956,13.881a4.722,4.722,0,0,1-1.391,3.309,4.413,4.413,0,0,1-3.416.979,7.018,7.018,0,0,1-1.726-.327l.192-2.785a6.693,6.693,0,0,0,1.1.185q1.592.112,1.711-1.581l.959-13.906Zm-3.574-3.669a1.75,1.75,0,0,1,.619-1.266,2.29,2.29,0,0,1,2.882.2,1.87,1.87,0,0,1-.192,2.615,2.259,2.259,0,0,1-2.857-.2,1.73,1.73,0,0,1-.452-1.351" transform="translate(248.004 331.555)"/>
    <path id="Trazado_715287" data-name="Trazado 715287" d="M169.5,229.63a7.827,7.827,0,0,1,1.3-3.337,5.51,5.51,0,0,1,2.522-2.008,6.382,6.382,0,0,1,3.391-.312,6,6,0,0,1,4.046,2.3,6.558,6.558,0,0,1,1.164,4.68l-.117.894a6.893,6.893,0,0,1-2.442,4.545,6.567,6.567,0,0,1-8.988-1.426,7.015,7.015,0,0,1-.9-5.182Zm3.441.8a4.927,4.927,0,0,0,.247,2.952,2.537,2.537,0,0,0,3.971.642,5.38,5.38,0,0,0,1.206-2.992,4.89,4.89,0,0,0-.262-2.934,2.338,2.338,0,0,0-1.841-1.319,2.282,2.282,0,0,0-2.13.682,5.449,5.449,0,0,0-1.191,2.969" transform="translate(253.584 335.235)"/>
    <path id="Trazado_715288" data-name="Trazado 715288" d="M182.273,236.507a2.326,2.326,0,0,0,1.673.007,1.894,1.894,0,0,0,1.064-1.146l3.124,1.074a4.525,4.525,0,0,1-1.488,2.088,4.849,4.849,0,0,1-2.425,1,6.136,6.136,0,0,1-2.812-.312,5.724,5.724,0,0,1-3.639-3.149,7.094,7.094,0,0,1,.065-5.23l.075-.217a7.036,7.036,0,0,1,3.112-4.078,5.655,5.655,0,0,1,4.8-.277,5.543,5.543,0,0,1,3.3,2.62,4.983,4.983,0,0,1,.222,4.038l-3.127-1.069a2.443,2.443,0,0,0-.055-1.791,2.363,2.363,0,0,0-3.367-.884,5.215,5.215,0,0,0-1.538,2.552l-.117.347a5.26,5.26,0,0,0-.365,2.974,2.15,2.15,0,0,0,1.5,1.456" transform="translate(265.494 338.21)"/>
    <path id="Trazado_715289" data-name="Trazado 715289" d="M183.129,231.959a7.816,7.816,0,0,1,2.2-2.827,5.546,5.546,0,0,1,3-1.2,6.328,6.328,0,0,1,3.336.672,6.019,6.019,0,0,1,3.219,3.362,6.564,6.564,0,0,1-.227,4.815l-.37.827a6.891,6.891,0,0,1-3.639,3.654,6.568,6.568,0,0,1-8.2-3.938,7.037,7.037,0,0,1,.619-5.222Zm3.069,1.753a4.9,4.9,0,0,0-.609,2.9,2.539,2.539,0,0,0,3.619,1.756,5.38,5.38,0,0,0,2.013-2.52,4.892,4.892,0,0,0,.589-2.889,2.341,2.341,0,0,0-1.386-1.791,2.294,2.294,0,0,0-2.235.042,5.441,5.441,0,0,0-1.99,2.5" transform="translate(272.795 341.275)"/>
    <rect id="Rectángulo_353398" data-name="Rectángulo 353398" width="18.73" height="3.538" transform="matrix(0.513, -0.858, 0.858, 0.513, 465.915, 585.819)"/>
    <path id="Trazado_715290" data-name="Trazado 715290" d="M194.239,245.751a3.9,3.9,0,0,1,.4-1.166,4.27,4.27,0,0,1-3.536-.794A4.671,4.671,0,0,1,189.159,241a3.607,3.607,0,0,1,.622-3.042,3.723,3.723,0,0,1,3.144-1.7,7.676,7.676,0,0,1,4.308,1.706l1.316.952.44-.614a2.173,2.173,0,0,0,.477-1.461,1.849,1.849,0,0,0-.882-1.311,2.1,2.1,0,0,0-1.381-.472,1.458,1.458,0,0,0-1.1.654l-2.857-2.063a3.54,3.54,0,0,1,1.816-1.306,4.686,4.686,0,0,1,2.517-.072,7.311,7.311,0,0,1,2.677,1.249,5.739,5.739,0,0,1,2.422,3.259,4.294,4.294,0,0,1-.852,3.634l-3.347,4.635a6.336,6.336,0,0,0-1.239,2.612l-.12.17Zm-.932-3.694a3.083,3.083,0,0,0,1.371.559,2.273,2.273,0,0,0,1.336-.187l1.329-1.838-1.069-.772q-2.146-1.547-3.354-.165l-.132.162a1.411,1.411,0,0,0-.26,1.149,1.817,1.817,0,0,0,.779,1.091" transform="translate(283.092 347.605)"/>
    <path id="Trazado_715291" data-name="Trazado 715291" d="M205.951,250.409a8,8,0,0,1-4.345,2.722,4.482,4.482,0,0,1-3.983-1.254,4.127,4.127,0,0,1-1.409-3.531l-1.064.924-2.335-2.145L205.5,233.339l2.592,2.385-4.548,4.945a4.023,4.023,0,0,1,3.327,1.121,4.521,4.521,0,0,1,1.586,3.871,8.01,8.01,0,0,1-2.373,4.605Zm-2.422-2.575a5.271,5.271,0,0,0,1.511-2.58,2.137,2.137,0,0,0-.767-1.956,2.333,2.333,0,0,0-2.64-.557l-3.524,3.834a2.356,2.356,0,0,0,.782,2.607,2.172,2.172,0,0,0,2.792.28,8.639,8.639,0,0,0,1.846-1.628" transform="translate(288.722 349.403)"/>
    <path id="Trazado_715292" data-name="Trazado 715292" d="M200.381,241.785a7.825,7.825,0,0,1,3.154-1.693,5.5,5.5,0,0,1,3.222.115,6.32,6.32,0,0,1,2.78,1.965,6,6,0,0,1,1.583,4.378,6.544,6.544,0,0,1-2.155,4.311l-.672.6a6.889,6.889,0,0,1-4.807,1.868,6.565,6.565,0,0,1-5.909-6.923,7.015,7.015,0,0,1,2.685-4.523Zm2.1,2.844a4.9,4.9,0,0,0-1.728,2.4,2.536,2.536,0,0,0,2.6,3.069,5.4,5.4,0,0,0,2.86-1.491,4.9,4.9,0,0,0,1.708-2.4,2.333,2.333,0,0,0-.542-2.2,2.3,2.3,0,0,0-2.063-.869,5.5,5.5,0,0,0-2.835,1.486" transform="translate(295.793 359.235)"/>
    <path id="Trazado_715293" data-name="Trazado 715293" d="M212.6,251.763a9.2,9.2,0,0,0-.642-1.1,2.578,2.578,0,0,0-2.6-1.386l-7.1,4.915-2-2.9,10.846-7.507,1.9,2.735-1.236.976a3.267,3.267,0,0,1,3.167,1.384,3.72,3.72,0,0,1,.495.992Z" transform="translate(299.85 365.05)"/>
    <path id="Trazado_715294" data-name="Trazado 715294" d="M205.265,259.3a3.9,3.9,0,0,1,.862-.887,4.271,4.271,0,0,1-2.877-2.205,4.683,4.683,0,0,1-.592-3.352,3.612,3.612,0,0,1,1.843-2.495,3.725,3.725,0,0,1,3.569-.22,7.666,7.666,0,0,1,3.187,3.364l.8,1.414.657-.367a2.184,2.184,0,0,0,1.046-1.126,1.851,1.851,0,0,0-.245-1.561,2.094,2.094,0,0,0-1.056-1.009,1.452,1.452,0,0,0-1.269.13l-1.723-3.074a3.53,3.53,0,0,1,2.2-.42,4.675,4.675,0,0,1,2.313,1,7.226,7.226,0,0,1,1.906,2.258,5.754,5.754,0,0,1,.824,3.976,4.285,4.285,0,0,1-2.3,2.937l-4.987,2.8a6.319,6.319,0,0,0-2.223,1.848l-.18.1Zm.712-3.741a3.055,3.055,0,0,0,1.006,1.086,2.3,2.3,0,0,0,1.294.395l1.978-1.111-.647-1.149q-1.3-2.308-2.972-1.561l-.187.092a1.413,1.413,0,0,0-.722.934,1.821,1.821,0,0,0,.25,1.314" transform="translate(303.314 370.551)"/>
    <path id="Trazado_715295" data-name="Trazado 715295" d="M220.665,255.175l-2.964,1.311.912,2.065-2.365,1.046-.912-2.065-6.021,2.667a1.588,1.588,0,0,0-.847.679,1.411,1.411,0,0,0,.145,1.111,5.768,5.768,0,0,0,.5.912l-2.44,1.081a7.135,7.135,0,0,1-1.154-1.823q-1.5-3.386,1.891-4.97l6.5-2.877-.782-1.763,2.368-1.044.777,1.758,2.967-1.309Z" transform="translate(307.049 376.606)"/>
    <path id="Trazado_715296" data-name="Trazado 715296" d="M207.122,264.094l-1.216-3.319,12.39-4.535,1.214,3.319Zm14.308-9.225a1.738,1.738,0,0,1,1.406.052,2.282,2.282,0,0,1,.994,2.7,1.859,1.859,0,0,1-2.462.9,2.252,2.252,0,0,1-.986-2.69,1.733,1.733,0,0,1,1.049-.964" transform="translate(308.324 381.457)"/>
    <path id="Trazado_715297" data-name="Trazado 715297" d="M211.691,265.846l9.22.02.974,3.551-13.9-.814-.889-3.244,11.55-7.777.974,3.554Z" transform="translate(310.106 385.703)"/>
    <path id="Trazado_715298" data-name="Trazado 715298" d="M214.22,263.484a7.817,7.817,0,0,1,3.574.215,5.553,5.553,0,0,1,2.682,1.793,6.336,6.336,0,0,1,1.331,3.129,6.015,6.015,0,0,1-.954,4.56,6.556,6.556,0,0,1-4.1,2.532l-.889.162a6.886,6.886,0,0,1-5.07-.934,6.575,6.575,0,0,1-1.391-9,7.015,7.015,0,0,1,4.66-2.435Zm.287,3.521a4.944,4.944,0,0,0-2.735,1.134,2.542,2.542,0,0,0,.6,3.981,5.4,5.4,0,0,0,3.217.235,4.911,4.911,0,0,0,2.717-1.146,2.341,2.341,0,0,0,.694-2.155,2.3,2.3,0,0,0-1.3-1.823,5.476,5.476,0,0,0-3.192-.225" transform="translate(311.75 394.377)"/>
    <path id="Trazado_715299" data-name="Trazado 715299" d="M20.653,159.663,19.6,165.992l3.409,1.8-.637,3.836L5.943,162.2l.557-3.344,18.606-3.639-.642,3.839Zm-3.811,4.865.729-4.378-6.923,1.109Z" transform="translate(8.899 232.416)"/>
    <path id="Trazado_715300" data-name="Trazado 715300" d="M9.6,156.394l1.491.337a4.6,4.6,0,0,1-.594-4.141,3.82,3.82,0,0,1,2.083-2.632,5.755,5.755,0,0,1,3.829.06l8.159,2.472-1.021,3.371L15.47,153.42a2.28,2.28,0,0,0-1.7-.005,2.165,2.165,0,0,0-.952,1.4,2.42,2.42,0,0,0,.567,2.5l8.906,2.692-1.021,3.374L8.64,159.568Z" transform="translate(12.938 224.103)"/>
    <path id="Trazado_715301" data-name="Trazado 715301" d="M9.429,146.865l1.543-3.521,2.105,4.613-1.149,2.625Zm17.787,6.076a3.959,3.959,0,0,1-1.226-.147,4.264,4.264,0,0,1-.027,3.621,4.7,4.7,0,0,1-2.318,2.492,3.623,3.623,0,0,1-3.1.03,3.726,3.726,0,0,1-2.323-2.717,7.66,7.66,0,0,1,.764-4.57l.652-1.486-.692-.3a2.182,2.182,0,0,0-1.531-.16,1.855,1.855,0,0,0-1.1,1.136,2.111,2.111,0,0,0-.17,1.451,1.454,1.454,0,0,0,.869.934L15.6,156.45a3.55,3.55,0,0,1-1.658-1.5,4.664,4.664,0,0,1-.6-2.447,7.27,7.27,0,0,1,.654-2.88,5.761,5.761,0,0,1,2.677-3.054,4.288,4.288,0,0,1,3.731.072l5.237,2.3a6.285,6.285,0,0,0,2.815.659l.187.085ZM23.8,154.627a3.058,3.058,0,0,0,.26-1.456A2.307,2.307,0,0,0,23.6,151.9l-2.078-.909-.527,1.2q-1.064,2.427.544,3.314l.185.1a1.4,1.4,0,0,0,1.179.007,1.791,1.791,0,0,0,.9-.989" transform="translate(14.119 214.644)"/>
    <rect id="Rectángulo_353399" data-name="Rectángulo 353399" width="3.536" height="18.731" transform="translate(27.369 353.63) rotate(-61.335)"/>
    <path id="Trazado_715302" data-name="Trazado 715302" d="M13.621,141.715a1.744,1.744,0,0,1-.827-1.141,2.283,2.283,0,0,1,1.526-2.447,1.726,1.726,0,0,1,1.391.235,1.745,1.745,0,0,1,.832,1.159,2.265,2.265,0,0,1-1.518,2.432,1.752,1.752,0,0,1-1.4-.237m16.073,5.612-1.871,3-11.2-6.983,1.873-3Z" transform="translate(19.103 206.747)"/>
    <path id="Trazado_715303" data-name="Trazado 715303" d="M26.88,141.829a1.139,1.139,0,0,0-1.2-.092,7.238,7.238,0,0,0-1.763,1.249q-3.607,3.18-6.021,1.374a3.624,3.624,0,0,1-1.476-2.922,5.876,5.876,0,0,1,1.339-3.756,6.317,6.317,0,0,1,3.352-2.51,3.721,3.721,0,0,1,3.364.632l-2.11,2.825a1.71,1.71,0,0,0-1.294-.36,2.09,2.09,0,0,0-1.309.924,2.123,2.123,0,0,0-.5,1.346,1.287,1.287,0,0,0,.529,1.006,1.09,1.09,0,0,0,1.089.12,5.667,5.667,0,0,0,1.618-1.129,15.676,15.676,0,0,1,1.8-1.424q2.491-1.622,4.513-.112a3.44,3.44,0,0,1,1.414,2.989,6.677,6.677,0,0,1-1.5,3.871,6.967,6.967,0,0,1-2.235,2,4.942,4.942,0,0,1-2.507.649,3.756,3.756,0,0,1-2.22-.747l2-2.675a1.865,1.865,0,0,0,1.568.3,2.77,2.77,0,0,0,1.439-1.089,2.537,2.537,0,0,0,.607-1.456,1.2,1.2,0,0,0-.494-1.021" transform="translate(24.584 202.176)"/>
    <path id="Trazado_715304" data-name="Trazado 715304" d="M18.522,134.612a1.734,1.734,0,0,1-.624-1.261,2.29,2.29,0,0,1,1.913-2.158,1.861,1.861,0,0,1,1.958,1.746,2.257,2.257,0,0,1-1.9,2.143,1.719,1.719,0,0,1-1.344-.47m14.907,8.224-2.348,2.647-9.87-8.758,2.348-2.645Z" transform="translate(26.798 196.439)"/>
    <path id="Trazado_715305" data-name="Trazado 715305" d="M32,136.593a1.134,1.134,0,0,0-1.166-.295,7.3,7.3,0,0,0-1.945.937q-4.087,2.536-6.166.352a3.613,3.613,0,0,1-.969-3.127,5.865,5.865,0,0,1,1.945-3.481,6.336,6.336,0,0,1,3.724-1.918,3.738,3.738,0,0,1,3.212,1.186l-2.55,2.432a1.717,1.717,0,0,0-1.216-.569,2.068,2.068,0,0,0-1.444.694,2.109,2.109,0,0,0-.719,1.241,1.267,1.267,0,0,0,.352,1.079,1.092,1.092,0,0,0,1.054.3,5.714,5.714,0,0,0,1.783-.842,15.144,15.144,0,0,1,2.015-1.1q2.727-1.184,4.47.642a3.439,3.439,0,0,1,.894,3.182,6.677,6.677,0,0,1-2.125,3.569,6.951,6.951,0,0,1-2.54,1.6,4.914,4.914,0,0,1-2.58.217,3.76,3.76,0,0,1-2.065-1.1l2.42-2.305a1.844,1.844,0,0,0,1.493.562,2.767,2.767,0,0,0,1.6-.834,2.563,2.563,0,0,0,.842-1.334,1.2,1.2,0,0,0-.32-1.086" transform="translate(32.513 193.224)"/>
    <path id="Trazado_715306" data-name="Trazado 715306" d="M36.654,133.617l-2.6-8.154,3.122-2.125,4.2,15.581.15.742a4.024,4.024,0,0,1-1.771,4.333,5.425,5.425,0,0,1-1.421.684l-1.5-2.205.452-.292a2.889,2.889,0,0,0,1.061-1.094,1.988,1.988,0,0,0,.07-1.271l-.267-1.131-11.268-8.334,3.134-2.133Z" transform="translate(40.241 184.687)"/>
    <path id="Trazado_715307" data-name="Trazado 715307" d="M44.379,133.184a6.482,6.482,0,0,1-5.037.362A6.348,6.348,0,0,1,35.7,130l-.142-.312a7.965,7.965,0,0,1-.789-3.549,5.666,5.666,0,0,1,.969-3.1,6.133,6.133,0,0,1,2.565-2.115,5.47,5.47,0,0,1,4.585-.227,6.936,6.936,0,0,1,3.436,3.746l.6,1.309-7.632,3.514a3.27,3.27,0,0,0,1.8,1.448,3.091,3.091,0,0,0,2.3-.2,3.8,3.8,0,0,0,2.273-2.675l2.385,1.039a5.283,5.283,0,0,1-1.216,2.487,7.02,7.02,0,0,1-2.462,1.823m-4.9-9.677a2.2,2.2,0,0,0-1.249,1.359,3.68,3.68,0,0,0,.092,2.2l4.453-2.05-.12-.257a2.635,2.635,0,0,0-1.336-1.389,2.282,2.282,0,0,0-1.841.142" transform="translate(52.061 180.123)"/>
    <path id="Trazado_715308" data-name="Trazado 715308" d="M46.007,123.472l.882-4.433,3.579-1.176-1.553,7.312,5.819,5.175-3.591,1.179-3.529-3.207-.932,4.67-3.6,1.181,1.621-7.617-5.574-4.972,3.594-1.179Z" transform="translate(58.585 176.488)"/>
    <path id="Trazado_715309" data-name="Trazado 715309" d="M57.7,122.829a7.909,7.909,0,0,1-.385,5.062,4.441,4.441,0,0,1-3.3,2.54,4.1,4.1,0,0,1-3.444-.719l1.236,6.1-3.454.7-3.634-17.9,3.2-.652L48.3,119.2a4.137,4.137,0,0,1,2.969-2.17,4.472,4.472,0,0,1,4.076,1.011,8.151,8.151,0,0,1,2.318,4.608Zm-3.5.45a5.2,5.2,0,0,0-1.2-2.652,2.13,2.13,0,0,0-2.058-.6,2.309,2.309,0,0,0-1.983,1.7l1.074,5.295a2.339,2.339,0,0,0,2.517.819q2.476-.5,1.653-4.553" transform="translate(66.968 175.063)"/>
    <rect id="Rectángulo_353400" data-name="Rectángulo 353400" width="3.537" height="18.73" transform="translate(125.849 285.516) rotate(-6.323)"/>
    <path id="Trazado_715310" data-name="Trazado 715310" d="M53.358,122.913a7.857,7.857,0,0,1,.682-3.521,5.53,5.53,0,0,1,2.125-2.423,6.344,6.344,0,0,1,3.279-.909,6.012,6.012,0,0,1,4.393,1.538,6.559,6.559,0,0,1,1.978,4.4l.045.9a6.894,6.894,0,0,1-1.591,4.9,6.572,6.572,0,0,1-9.1.2,7.028,7.028,0,0,1-1.808-4.937Zm3.529.17a4.943,4.943,0,0,0,.769,2.864,2.548,2.548,0,0,0,4.023-.075,5.417,5.417,0,0,0,.652-3.159,4.87,4.87,0,0,0-.782-2.842A2.342,2.342,0,0,0,59.5,118.9a2.3,2.3,0,0,0-1.978,1.054,5.483,5.483,0,0,0-.639,3.132" transform="translate(79.896 173.786)"/>
    <path id="Trazado_715311" data-name="Trazado 715311" d="M64.8,115.187l-.242,3.234,2.25.167-.192,2.58-2.25-.17-.492,6.566a1.578,1.578,0,0,0,.2,1.069,1.411,1.411,0,0,0,1.049.395,5.484,5.484,0,0,0,1.039-.007l-.2,2.662a7.214,7.214,0,0,1-2.15.157q-3.7-.273-3.491-4.013l.532-7.09-1.923-.145.195-2.577,1.921.142.242-3.232Z" transform="translate(88.243 172.089)"/>
    <path id="Trazado_715312" data-name="Trazado 715312" d="M69.807,130.461a3.958,3.958,0,0,1-.147-1.224,4.274,4.274,0,0,1-3.521.847,4.691,4.691,0,0,1-2.979-1.646,3.606,3.606,0,0,1-.779-3,3.73,3.73,0,0,1,2.073-2.912,7.669,7.669,0,0,1,4.618-.362l1.6.272.127-.747a2.166,2.166,0,0,0-.217-1.518,1.837,1.837,0,0,0-1.369-.789,2.1,2.1,0,0,0-1.448.185,1.449,1.449,0,0,0-.694,1.069l-3.474-.594a3.522,3.522,0,0,1,1.054-1.973,4.678,4.678,0,0,1,2.23-1.171,7.33,7.33,0,0,1,2.952-.06,5.739,5.739,0,0,1,3.609,1.861,4.276,4.276,0,0,1,.834,3.636l-.959,5.637a6.3,6.3,0,0,0,.037,2.889l-.032.2Zm-2.46-2.9a3.038,3.038,0,0,0,1.478-.1,2.293,2.293,0,0,0,1.119-.754l.38-2.235-1.3-.222c-1.738-.295-2.77.145-3.084,1.329l-.047.2a1.423,1.423,0,0,0,.272,1.149,1.807,1.807,0,0,0,1.179.634" transform="translate(93.316 174.765)"/>
    <path id="Trazado_715313" data-name="Trazado 715313" d="M72.852,128.659a2.313,2.313,0,0,0,1.673-.07,1.881,1.881,0,0,0,1.009-1.189l3.172.927a4.508,4.508,0,0,1-1.394,2.153,4.814,4.814,0,0,1-2.375,1.109,6.251,6.251,0,0,1-2.825-.182,5.733,5.733,0,0,1-3.779-2.982,7.108,7.108,0,0,1-.172-5.227l.062-.22a7.032,7.032,0,0,1,2.924-4.216,5.639,5.639,0,0,1,4.78-.494,5.556,5.556,0,0,1,3.416,2.465,4.99,4.99,0,0,1,.4,4.026l-3.172-.932a2.438,2.438,0,0,0-.137-1.781,2.359,2.359,0,0,0-3.4-.732,5.2,5.2,0,0,0-1.419,2.62l-.1.352a5.255,5.255,0,0,0-.227,2.987,2.145,2.145,0,0,0,1.563,1.386" transform="translate(101.457 176.638)"/>
    <path id="Trazado_715314" data-name="Trazado 715314" d="M75.589,135.467l-3.3-1.281,4.775-12.3,3.3,1.276Zm2.52-16.837a1.738,1.738,0,0,1,.969-1.024,2.278,2.278,0,0,1,2.687,1.041,1.864,1.864,0,0,1-.954,2.442,2.259,2.259,0,0,1-2.672-1.036,1.741,1.741,0,0,1-.03-1.424" transform="translate(108.25 175.905)"/>
    <path id="Trazado_715315" data-name="Trazado 715315" d="M76.15,127.114a7.772,7.772,0,0,1,2.23-2.8,5.53,5.53,0,0,1,3.009-1.164,6.37,6.37,0,0,1,3.329.712,6.024,6.024,0,0,1,3.179,3.4,6.555,6.555,0,0,1-.285,4.812l-.382.822a6.887,6.887,0,0,1-3.681,3.611,6.572,6.572,0,0,1-8.159-4.041,7.029,7.029,0,0,1,.689-5.212ZM79.2,128.9a4.89,4.89,0,0,0-.644,2.89,2.541,2.541,0,0,0,3.6,1.8,5.419,5.419,0,0,0,2.045-2.5,4.916,4.916,0,0,0,.624-2.88,2.333,2.333,0,0,0-1.364-1.808,2.3,2.3,0,0,0-2.24.012A5.48,5.48,0,0,0,79.2,128.9m8.5-9.473,3.441,1.706-4.708,1.886-2.567-1.274Z" transform="translate(112.534 178.838)"/>
    <path id="Trazado_715316" data-name="Trazado 715316" d="M89.394,124.871l-.747,1.331a4.613,4.613,0,0,1,4.141.609,3.836,3.836,0,0,1,1.931,2.745,5.743,5.743,0,0,1-1.149,3.654l-4.688,7.118-2.944-1.935,4.643-7.048a2.3,2.3,0,0,0,.487-1.631,2.2,2.2,0,0,0-1.079-1.314,2.421,2.421,0,0,0-2.56-.165L82.311,136l-2.942-1.935,7.255-11.021Z" transform="translate(118.847 184.252)"/>
    <path id="Trazado_715317" data-name="Trazado 715317" d="M88.924,131.7a7.932,7.932,0,0,1,4.38-2.62,4.494,4.494,0,0,1,4.008,1.271,4.039,4.039,0,0,1,1.326,3.232l4.623-4.892,2.57,2.427L92.967,144.734l-2.313-2.188.839-1.136a4.138,4.138,0,0,1-3.594-1.131,4.473,4.473,0,0,1-1.456-3.9,8.2,8.2,0,0,1,2.48-4.678m2.383,2.612a5.192,5.192,0,0,0-1.486,2.512,2.1,2.1,0,0,0,.687,2.01,2.35,2.35,0,0,0,2.62.577l3.584-3.791A2.325,2.325,0,0,0,96,133.054q-1.851-1.753-4.7,1.259" transform="translate(129.397 192.702)"/>
    <path id="Trazado_715318" data-name="Trazado 715318" d="M92.125,144.455a6.47,6.47,0,0,1-1.663-4.768,6.335,6.335,0,0,1,2.477-4.438l.26-.22a7.96,7.96,0,0,1,3.224-1.686,5.638,5.638,0,0,1,3.247.125,6.091,6.091,0,0,1,2.71,1.923,5.475,5.475,0,0,1,1.419,4.365,6.918,6.918,0,0,1-2.722,4.3l-1.1.922-5.382-6.451a3.259,3.259,0,0,0-.932,2.12,3.123,3.123,0,0,0,.794,2.17,3.816,3.816,0,0,0,3.174,1.5l-.382,2.57a5.312,5.312,0,0,1-2.72-.527,7.009,7.009,0,0,1-2.4-1.9m8.064-7.252a2.2,2.2,0,0,0-1.633-.852,3.682,3.682,0,0,0-2.1.662l3.142,3.766.217-.182a2.632,2.632,0,0,0,.989-1.651,2.281,2.281,0,0,0-.617-1.743" transform="translate(135.43 199.4)"/>
    <path id="Trazado_715319" data-name="Trazado 715319" d="M98.944,140.991a7.931,7.931,0,0,1,4.95-1.254,4.478,4.478,0,0,1,3.474,2.368,4.021,4.021,0,0,1,.342,3.474l5.831-3.359,1.766,3.064-16.231,9.348-1.586-2.757,1.129-.847A4.157,4.157,0,0,1,95.5,148.91a4.484,4.484,0,0,1-.277-4.153,8.234,8.234,0,0,1,3.721-3.766m1.533,3.184a5.176,5.176,0,0,0-2.14,1.98,2.091,2.091,0,0,0,.075,2.12,2.365,2.365,0,0,0,2.348,1.309l4.52-2.6a2.327,2.327,0,0,0,.057-2.662q-1.277-2.21-4.86-.142" transform="translate(142.015 209.175)"/>
    <path id="Trazado_715320" data-name="Trazado 715320" d="M99.4,155.971a3.85,3.85,0,0,1,.949-.789,4.253,4.253,0,0,1-2.62-2.5,4.673,4.673,0,0,1-.227-3.4A3.608,3.608,0,0,1,99.6,147a3.717,3.717,0,0,1,3.569.17,7.617,7.617,0,0,1,2.8,3.686l.637,1.493.7-.3a2.187,2.187,0,0,0,1.159-1.006,1.844,1.844,0,0,0-.077-1.578,2.1,2.1,0,0,0-.939-1.116,1.447,1.447,0,0,0-1.276-.007L104.8,145.1a3.545,3.545,0,0,1,2.228-.182,4.7,4.7,0,0,1,2.193,1.239,7.3,7.3,0,0,1,1.648,2.455,5.759,5.759,0,0,1,.395,4.041,4.294,4.294,0,0,1-2.607,2.67l-5.262,2.245a6.3,6.3,0,0,0-2.408,1.6l-.19.082Zm1.109-3.641a3.052,3.052,0,0,0,.884,1.186,2.27,2.27,0,0,0,1.244.529l2.085-.889-.519-1.209q-1.038-2.439-2.787-1.873l-.195.067a1.414,1.414,0,0,0-.817.854,1.806,1.806,0,0,0,.1,1.334" transform="translate(145.668 216.854)"/>
    <path id="Trazado_715321" data-name="Trazado 715321" d="M115.317,153.43l-3.092.984.682,2.148-2.462.782-.684-2.148-6.273,2a1.557,1.557,0,0,0-.917.584,1.409,1.409,0,0,0,.022,1.119,6.027,6.027,0,0,0,.395.962l-2.542.809a7.241,7.241,0,0,1-.949-1.938q-1.124-3.533,2.422-4.735l6.775-2.155L108.11,150l2.465-.784.582,1.838,3.092-.984Z" transform="translate(148.581 223.438)"/>
    <path id="Trazado_715322" data-name="Trazado 715322" d="M105.807,153.537a7.728,7.728,0,0,1,3.579,0,5.525,5.525,0,0,1,2.785,1.623,6.332,6.332,0,0,1,1.518,3.047,6.013,6.013,0,0,1-.674,4.605,6.568,6.568,0,0,1-3.943,2.78l-.877.215a6.884,6.884,0,0,1-5.12-.627,6.57,6.57,0,0,1-1.928-8.9,7.02,7.02,0,0,1,4.5-2.715Zm.5,3.5a4.9,4.9,0,0,0-2.66,1.3,2.538,2.538,0,0,0,.839,3.936,5.376,5.376,0,0,0,3.224.037,4.851,4.851,0,0,0,2.64-1.306,2.327,2.327,0,0,0,.564-2.193,2.3,2.3,0,0,0-1.409-1.741,5.482,5.482,0,0,0-3.2-.032" transform="translate(149.952 229.592)"/>
    <path id="Trazado_715323" data-name="Trazado 715323" d="M105.106,167a1.139,1.139,0,0,0,.954-.734,7.281,7.281,0,0,0,.462-2.11q.536-4.776,3.531-5.065a3.633,3.633,0,0,1,3.062,1.169,5.857,5.857,0,0,1,1.533,3.681,6.332,6.332,0,0,1-.792,4.113,3.723,3.723,0,0,1-2.914,1.793l-.34-3.509a1.713,1.713,0,0,0,1.2-.6,2.068,2.068,0,0,0,.342-1.566,2.1,2.1,0,0,0-.532-1.334,1.266,1.266,0,0,0-1.064-.387,1.085,1.085,0,0,0-.889.644,5.769,5.769,0,0,0-.442,1.921,15.026,15.026,0,0,1-.375,2.265q-.753,2.881-3.267,3.119a3.437,3.437,0,0,1-3.054-1.264,6.672,6.672,0,0,1-1.493-3.871,7.02,7.02,0,0,1,.307-2.992,4.976,4.976,0,0,1,1.424-2.163,3.8,3.8,0,0,1,2.145-.942l.32,3.327a1.839,1.839,0,0,0-1.366.829,2.762,2.762,0,0,0-.335,1.773,2.575,2.575,0,0,0,.529,1.486,1.2,1.2,0,0,0,1.051.42" transform="translate(151.223 238.191)"/>
    <path id="Trazado_715324" data-name="Trazado 715324" d="M174.358,294.118h10.7q7.646,0,11.331-3.821t3.684-10.149q0-6.117-3.649-9.523t-10.045-3.406a14.824,14.824,0,0,0-9.662,3.162,10.117,10.117,0,0,0-3.891,8.239H152.74a24.71,24.71,0,0,1,4.276-14.215,28.469,28.469,0,0,1,11.955-9.835,39.907,39.907,0,0,1,16.925-3.546q16.056,0,25.161,7.68t9.108,21.168a21.313,21.313,0,0,1-4.241,12.789,27.545,27.545,0,0,1-11.123,8.966q8.552,3.061,12.757,9.176a24.9,24.9,0,0,1,4.2,14.457q0,13.486-9.832,21.618T185.9,355.007q-15.153,0-24.779-7.992t-9.627-21.131h20.089a11.645,11.645,0,0,0,4.273,9.313,15.756,15.756,0,0,0,10.532,3.614q7.159,0,11.228-3.789a13.079,13.079,0,0,0,4.063-10.045q0-15.149-16.683-15.152H174.358Z" transform="translate(226.84 375.883)" fill="#ff7056"/>
    <path id="Trazado_715325" data-name="Trazado 715325" d="M172.316,292.118h10.7q7.646,0,11.328-3.821t3.686-10.149q0-6.117-3.651-9.523t-10.042-3.406a14.824,14.824,0,0,0-9.662,3.162,10.117,10.117,0,0,0-3.891,8.239H150.7a24.71,24.71,0,0,1,4.276-14.215,28.469,28.469,0,0,1,11.955-9.835,39.906,39.906,0,0,1,16.925-3.546q16.056,0,25.161,7.68t9.106,21.168a21.327,21.327,0,0,1-4.238,12.789,27.545,27.545,0,0,1-11.123,8.966q8.552,3.061,12.754,9.176a24.878,24.878,0,0,1,4.206,14.457q0,13.486-9.835,21.618t-26.03,8.132q-15.153,0-24.779-7.992t-9.628-21.131h20.089a11.645,11.645,0,0,0,4.273,9.313,15.756,15.756,0,0,0,10.532,3.614q7.159,0,11.226-3.789a13.081,13.081,0,0,0,4.066-10.045q0-15.149-16.683-15.152H172.316Z" transform="translate(223.782 372.888)" fill="none" stroke="#020202" stroke-miterlimit="10" stroke-width="1"/>
    <path id="Trazado_715326" data-name="Trazado 715326" d="M106.379,206.756h11.471v16.193H106.379v21.9H86.292v-21.9H44.8l-.9-12.649,42.191-66.656h20.3Zm-42.468,0H86.292V171.028l-1.321,2.3Z" transform="translate(65.723 215.093)" fill="#06d1d1"/>
    <path id="Trazado_715327" data-name="Trazado 715327" d="M103.822,204.757h11.471v16.193H103.822v21.9H83.735v-21.9h-41.5l-.9-12.649,42.191-66.658h20.3Zm-42.468,0H83.735V169.03l-1.321,2.293Z" transform="translate(61.894 212.097)" fill="none" stroke="#020202" stroke-miterlimit="10" stroke-width="1"/>
  </g>
</svg>
