<svg id="Grupo_1003484" data-name="Grupo 1003484" xmlns="http://www.w3.org/2000/svg" xmlns:xlink="http://www.w3.org/1999/xlink" width="110.845" height="93.537" viewBox="0 0 110.845 93.537">
  <defs>
    <clipPath id="clip-path">
      <rect id="Rectángulo_353427" data-name="Rectángulo 353427" width="110.845" height="93.537" fill="none"/>
    </clipPath>
  </defs>
  <g id="Grupo_1003483" data-name="Grupo 1003483" clip-path="url(#clip-path)">
    <path id="Trazado_715448" data-name="Trazado 715448" d="M15.742,57.128a11.819,11.819,0,0,0-1.126-1.7,13.144,13.144,0,0,1-3.647-9.01,57.737,57.737,0,0,0-.461-6.084c-.922-6.443,2.6-9.785,7.453-11.586,1.973-.732,2.62-1.6,2.507-3.646-.174-3.122-.115-6.265.007-9.393A11.29,11.29,0,0,1,30.99,4.516c5.343-.375,10.728-.2,16.093-.173a3.539,3.539,0,0,0,3.54-1.767,5.83,5.83,0,0,1,9.924.414,2.383,2.383,0,0,0,2.4,1.349c4.92-.057,9.841-.044,14.762-.019,7.962.042,12.916,5,12.947,12.933.013,3.255,0,6.51,0,9.966a14.6,14.6,0,0,1,2.649.385,9.522,9.522,0,0,1,3.554,1.623,31.938,31.938,0,0,1,3.735,4.753,6.337,6.337,0,0,1,.38,6.875,8.978,8.978,0,0,0-.992,3.958c.149,4.538-1,8.46-4.567,11.474a1.223,1.223,0,0,0-.3.475,1.32,1.32,0,0,0,.011.443,26.881,26.881,0,0,1,4.266.457c6.481,1.73,9.665,6.364,10.491,12.709.543,4.17.707,8.393.942,12.6.13,2.325-.413,2.824-2.754,2.828q-11.789.022-23.578.006H82.318c0,1.481-.008,2.744,0,4.007.028,3.61-.088,3.727-3.788,3.727H53.8q-11.12,0-22.239,0c-2.687,0-3.058-.4-3.045-3.139.007-1.456,0-2.912,0-4.594H26.363q-11.6,0-23.194,0C.316,85.8-.161,85.418.04,82.592A125.743,125.743,0,0,1,1.385,68.711c1.343-7.283,6.065-11.02,13.5-11.372a6.541,6.541,0,0,0,.856-.211M78.826,89.9c.011-6.088-.275-12.048-1.89-17.862a12.159,12.159,0,0,0-9.9-9.263,4.857,4.857,0,0,0-3.153.6,64.426,64.426,0,0,0-6.617,4.557c-1.554,1.215-2.756,1.081-4.229-.119-2.025-1.651-4.172-3.161-6.344-4.616a3.477,3.477,0,0,0-2.27-.587c-4.757.808-8.327,3.387-9.992,7.94-2.265,6.194-2.325,12.723-2.415,19.352h7.074c0-1.913,0-3.743,0-5.572,0-2.236-.1-4.484.1-6.7.058-.619,1.056-1.15,1.623-1.722.566.565,1.335,1.039,1.639,1.721a5.965,5.965,0,0,1,.1,2.273c0,3.3,0,6.607,0,9.956H68.3c0-3.6-.044-7.045.022-10.485.026-1.354-.567-3.365,1.668-3.4,2.213-.031,1.743,1.936,1.76,3.324.042,3.5.014,7,.014,10.605ZM23.93,27.168a19.968,19.968,0,0,1,3.931.766,9.474,9.474,0,0,1,2.828,2.076c.8.782,1.317,1.846,2.095,2.655,2.207,2.3,2.984,4.912,1.631,7.475A12.077,12.077,0,0,0,33.2,46.218a12.531,12.531,0,0,1-4.154,9.736,10.146,10.146,0,0,0-1.049,1.5,13.21,13.21,0,0,1,9.94,2.8,1.779,1.779,0,0,0,1.509.194,15.04,15.04,0,0,1,8.669-1.138c-.41-1.124-.481-2.171-1.041-2.712a16.215,16.215,0,0,1-4.925-12.445,43.7,43.7,0,0,0-.458-5.7c-.812-6.552.017-10.634,7.768-14.466,1.08-.534,2.279-.825,3.383-1.317.383-.171.916-.606.924-.93.072-3,.68-6.208-.17-8.949-.605-1.954-3.211-3.287-4.924-4.9-5.881.031-11.765-.056-17.64.136a7.7,7.7,0,0,0-7.05,6.964c-.226,4.006-.052,8.035-.052,12.176M62.567,58.951c2.457.214,4.451-.047,6.054.626,2.56,1.074,4.423.689,6.753-.749,1.93-1.192,4.512-1.327,7.02-1.986a5.706,5.706,0,0,0-.789-1.223,12.781,12.781,0,0,1-3.847-8.72c-.182-2.479-.193-4.976-.486-7.44-.553-4.648,1.652-7.691,5.474-9.836.993-.557,2.175-.792,3.131-1.394a2.657,2.657,0,0,0,1.215-1.739c.121-3.127.07-6.261.053-9.392-.03-5.843-3.3-9.161-9.111-9.2-4.919-.034-9.839.04-14.757-.038A2.709,2.709,0,0,0,60.386,9.4c-.441.838-1.447,1.376-2.191,2.056-.313.286-.862.589-.868.892-.064,3.16-.04,6.322-.04,9.445,1.561.154,2.839.223,4.1.418A5.784,5.784,0,0,1,66,25.221a11.075,11.075,0,0,0,2.167,2.816c2.8,2.627,3.9,6.1,2.215,9.135a14.708,14.708,0,0,0-1.552,7.714,15.158,15.158,0,0,1-5.17,11.905,6.79,6.79,0,0,0-1.088,2.161M82.1,82.137H98.794c0-.792,0-1.427,0-2.061,0-2.366-.019-4.732.014-7.1.016-1.145.5-2.062,1.778-2.053s1.726.9,1.718,2.076c0,.639,0,1.279,0,1.918,0,2.4,0,4.8,0,7.219h5.43c-.6-4.687-.981-9.2-1.8-13.629A9.313,9.313,0,0,0,100,61.479c-1.706-.708-3.373-.958-5.013.416-1.414,1.185-3.063,2.084-4.532,3.209a2.52,2.52,0,0,1-3.595.007c-1.272-1.062-2.663-1.984-4.015-2.948-2.543-1.812-5.119-1.508-7.449.929,5.7,5.068,5.842,12.142,6.705,19.046M35.485,63.027c-2.7-2.412-4.928-2.644-7.59-.862-1.536,1.029-3.077,2.056-4.565,3.152a2.151,2.151,0,0,1-2.941,0c-1.459-1.134-3.1-2.061-4.459-3.295-1.6-1.445-3.251-1.267-4.972-.579a8.973,8.973,0,0,0-5.193,4.831,21.609,21.609,0,0,0-1.528,5.492c-.446,3.438-.605,6.913-.884,10.384h5.2c0-.861,0-1.558,0-2.255,0-2.3.006-4.6,0-6.9,0-1.176.445-2.062,1.717-2.072s1.726.907,1.785,2.049c.03.573.009,1.149.009,1.724,0,2.471,0,4.943,0,7.6,5.436,0,10.656.028,15.874-.064.34-.006.9-.905.96-1.432.709-6.494,1.279-13.019,6.59-17.776M65.736,44.093,65.371,44c0-.638.009-1.276,0-1.914-.034-2.1-1-2.793-2.993-2.138A18.306,18.306,0,0,1,49.3,39.776c-1.32-.541-3.728.782-3.679,2.109a35.215,35.215,0,0,0,.641,7.007A9.827,9.827,0,0,0,55.014,56.3a9.45,9.45,0,0,0,9.154-5.993,43.185,43.185,0,0,0,1.568-6.215m.645-7.079c1.794-2.388,1.645-4-.214-6.088-1.207-1.354-2.2-2.9-3.417-4.243a3.608,3.608,0,0,0-1.924-1.014A16.127,16.127,0,0,0,47.6,29.179c-2.566,2-3.227,4.7-2.372,7.993a11.281,11.281,0,0,0,1.422-1.018,2.008,2.008,0,0,1,2.743-.3c3.993,2.336,8.146,2.193,12.317.583,1.715-.662,3.34-1.46,4.666.577M29.7,45.673c0-.319,0-.637,0-.956-.008-2.535-.184-2.65-2.64-1.937a15.209,15.209,0,0,1-9.748-.23,1.988,1.988,0,0,0-2.859,1.821,22.085,22.085,0,0,0,.467,4.92,7.433,7.433,0,0,0,8.877,5.56c3.731-.958,5.887-4.309,5.9-9.176m66.81-.082c.074-2.712.429-3.831-3.3-2.672a13.712,13.712,0,0,1-9.176-.379,1.949,1.949,0,0,0-2.77,1.74,22.063,22.063,0,0,0,.226,4.187c.856,4.745,5.31,7.632,9.555,6.292,3.382-1.067,5.455-4.546,5.465-9.168m1.09-6.931.436.342c1.349-3.76-3.217-4.7-3.825-7.527-3.508-1.191-6.791-.437-9.91,1.262-2.972,1.618-3.955,3.614-3.462,5.906,1.15,0,2.354-.355,3.159.062,3.389,1.755,6.711,1.549,10.175.339a15.127,15.127,0,0,1,3.428-.384m-66.814-.017.45.361c1.383-3.78-2.819-4.89-3.973-7.479-.726-1.63-7.512-.362-10.427,1.621-2.576,1.753-3.326,3.518-2.677,5.618,1.083-.061,2.263-.5,3-.107,3.447,1.842,6.83,1.6,10.355.341a13.791,13.791,0,0,1,3.274-.355M50.945,59.523c.139.858,0,2.043.517,2.7A11.334,11.334,0,0,0,54.5,64.489a1.517,1.517,0,0,0,1.311.1c1.443-.892,2.815-1.9,4.181-2.847l-.666-2.222Zm7.033-53.48a2.552,2.552,0,1,0-5.1.115,2.553,2.553,0,1,0,5.1-.115M25.028,58.59c-1.887-.1-3.571-.212-5.257-.26-.307-.009-.861.206-.886.377a1.708,1.708,0,0,0,.227,1.309,35.355,35.355,0,0,0,2.874,2.138c.893-1.388,3.487-1.223,3.041-3.564m63.615,3.755c1-1.562,3.611-1.458,3.156-3.9H85.694c-.612,2.477,2.073,2.3,2.949,3.9" transform="translate(0 0)"/>
    <path id="Trazado_715449" data-name="Trazado 715449" d="M130.3,190.505h-7.062c0-3.61.028-7.108-.014-10.6-.017-1.388.453-3.356-1.76-3.324-2.235.032-1.642,2.043-1.668,3.4-.066,3.44-.022,6.882-.022,10.485H94.024c0-3.35,0-6.653,0-9.956a5.97,5.97,0,0,0-.1-2.272c-.3-.682-1.073-1.156-1.638-1.721-.567.572-1.565,1.1-1.623,1.722-.207,2.217-.1,4.465-.1,6.7,0,1.829,0,3.659,0,5.572H83.487c.089-6.63.149-13.158,2.415-19.352,1.665-4.553,5.235-7.132,9.992-7.94a3.481,3.481,0,0,1,2.271.587c2.172,1.455,4.319,2.965,6.343,4.616,1.473,1.2,2.675,1.335,4.229.119a64.364,64.364,0,0,1,6.617-4.557,4.852,4.852,0,0,1,3.153-.6,12.159,12.159,0,0,1,9.9,9.263c1.615,5.814,1.9,11.774,1.89,17.862" transform="translate(-51.47 -100.602)" fill="#ff0a0a"/>
    <path id="Trazado_715450" data-name="Trazado 715450" d="M203.3,180.047c-.863-6.9-1.007-13.977-6.705-19.046,2.331-2.437,4.907-2.741,7.45-.929,1.353.964,2.743,1.886,4.015,2.948a2.52,2.52,0,0,0,3.595-.007c1.469-1.125,3.118-2.024,4.532-3.208,1.64-1.374,3.307-1.124,5.013-.416a9.313,9.313,0,0,1,5.934,7.031c.822,4.43,1.2,8.942,1.8,13.629h-5.43c0-2.42,0-4.82,0-7.219,0-.639-.007-1.279,0-1.918.007-1.177-.445-2.065-1.718-2.075s-1.762.908-1.778,2.052c-.033,2.365-.013,4.731-.014,7.1,0,.635,0,1.269,0,2.062Z" transform="translate(-121.203 -97.909)" fill="#ffc403"/>
    <path id="Trazado_715451" data-name="Trazado 715451" d="M40.875,160.969c-5.311,4.758-5.881,11.283-6.59,17.777-.058.527-.62,1.426-.96,1.432-5.218.092-10.439.064-15.874.064,0-2.659,0-5.13,0-7.6,0-.575.021-1.151-.009-1.724-.059-1.142-.512-2.058-1.784-2.048s-1.719.9-1.717,2.072c0,2.3,0,4.6,0,6.9,0,.7,0,1.393,0,2.254h-5.2c.28-3.471.438-6.946.884-10.384a21.623,21.623,0,0,1,1.529-5.492,8.974,8.974,0,0,1,5.192-4.831c1.721-.687,3.376-.865,4.972.579,1.363,1.234,3,2.16,4.459,3.3a2.151,2.151,0,0,0,2.941,0c1.488-1.1,3.029-2.123,4.565-3.152,2.663-1.783,4.89-1.55,7.59.862" transform="translate(-5.389 -97.942)" fill="#ffc403"/>
    <path id="Trazado_715452" data-name="Trazado 715452" d="M139.076,107.836a43.132,43.132,0,0,1-1.568,6.215,9.449,9.449,0,0,1-9.153,5.993,9.827,9.827,0,0,1-8.751-7.409,35.213,35.213,0,0,1-.642-7.007c-.049-1.327,2.359-2.65,3.679-2.109a18.3,18.3,0,0,0,13.075.175c1.991-.655,2.959.041,2.993,2.138.01.638,0,1.276,0,1.914l.365.09" transform="translate(-73.339 -63.743)" fill="#ffdbdb"/>
    <path id="Trazado_715453" data-name="Trazado 715453" d="M138.527,77.848c-1.326-2.037-2.95-1.238-4.666-.576-4.171,1.609-8.324,1.752-12.317-.584a2.008,2.008,0,0,0-2.743.3,11.314,11.314,0,0,1-1.422,1.018c-.855-3.291-.194-5.993,2.372-7.994A16.128,16.128,0,0,1,132.971,66.5a3.6,3.6,0,0,1,1.924,1.014c1.215,1.346,2.21,2.889,3.417,4.243,1.86,2.086,2.008,3.7.214,6.088" transform="translate(-72.146 -40.834)" fill="#8a3d02"/>
    <path id="Trazado_715454" data-name="Trazado 715454" d="M52.928,113.813c-.016,4.867-2.172,8.218-5.9,9.176a7.433,7.433,0,0,1-8.877-5.56,22.083,22.083,0,0,1-.467-4.92,1.988,1.988,0,0,1,2.859-1.821,15.207,15.207,0,0,0,9.748.231c2.456-.713,2.632-.6,2.64,1.937,0,.319,0,.637,0,.956" transform="translate(-23.23 -68.139)" fill="#ffdbdb"/>
    <path id="Trazado_715455" data-name="Trazado 715455" d="M227.13,113.723c-.01,4.622-2.083,8.1-5.464,9.168-4.245,1.34-8.7-1.547-9.555-6.292a22.063,22.063,0,0,1-.226-4.187,1.949,1.949,0,0,1,2.77-1.74,13.713,13.713,0,0,0,9.177.379c3.727-1.159,3.373-.04,3.3,2.672" transform="translate(-130.622 -68.131)" fill="#ffdbdb"/>
    <path id="Trazado_715456" data-name="Trazado 715456" d="M227.35,88.33a15.13,15.13,0,0,0-3.428.384c-3.465,1.21-6.786,1.416-10.175-.339-.8-.416-2.008-.062-3.159-.062-.493-2.292.49-4.288,3.462-5.906,3.119-1.7,6.4-2.453,9.91-1.262.609,2.827,5.175,3.767,3.826,7.527l-.436-.342" transform="translate(-129.753 -49.668)" fill="#8a3d02"/>
    <path id="Trazado_715457" data-name="Trazado 715457" d="M53.185,88.124a13.792,13.792,0,0,0-3.274.355c-3.524,1.263-6.907,1.5-10.355-.341-.736-.393-1.915.045-3,.107-.649-2.1.1-3.865,2.677-5.618,2.915-1.983,9.7-3.251,10.427-1.621,1.154,2.59,5.355,3.7,3.973,7.479l-.45-.361" transform="translate(-22.402 -49.481)" fill="#8a3d02"/>
    <path id="Trazado_715458" data-name="Trazado 715458" d="M132.841,155.21h8.383l.666,2.222c-1.366.946-2.737,1.954-4.181,2.847a1.518,1.518,0,0,1-1.311-.1,11.333,11.333,0,0,1-3.039-2.261c-.521-.662-.379-1.847-.518-2.705" transform="translate(-81.896 -95.687)" fill="#ffdbdb"/>
    <path id="Trazado_715459" data-name="Trazado 715459" d="M142.975,11.733a2.553,2.553,0,1,1-5.1.115,2.552,2.552,0,1,1,5.1-.115" transform="translate(-84.997 -5.69)" fill="#06d1d1"/>
    <path id="Trazado_715460" data-name="Trazado 715460" d="M55.343,152.358c.446,2.341-2.148,2.177-3.041,3.564a35.276,35.276,0,0,1-2.874-2.138,1.709,1.709,0,0,1-.227-1.309c.024-.171.578-.386.886-.377,1.686.048,3.37.16,5.257.26" transform="translate(-30.315 -93.768)" fill="#ffdbdb"/>
    <path id="Trazado_715461" data-name="Trazado 715461" d="M226.257,156.294c-.876-1.605-3.561-1.426-2.949-3.9h6.105c.455,2.445-2.153,2.342-3.156,3.9" transform="translate(-137.614 -93.949)" fill="#ffdbdb"/>
  </g>
</svg>
