<svg id="Grupo_1003480" data-name="Grupo 1003480" xmlns="http://www.w3.org/2000/svg" xmlns:xlink="http://www.w3.org/1999/xlink" width="98.736" height="98.731" viewBox="0 0 98.736 98.731">
  <defs>
    <clipPath id="clip-path">
      <rect id="Rectángulo_353425" data-name="Rectángulo 353425" width="98.736" height="98.731" fill="none"/>
    </clipPath>
  </defs>
  <g id="Grupo_1003479" data-name="Grupo 1003479" clip-path="url(#clip-path)">
    <path id="Trazado_715421" data-name="Trazado 715421" d="M89.847,148.432c1.162.251,1.488,1,1.482,2.139-.036,6.778.033,13.556-.058,20.333-.019,1.432.426,1.737,1.714,1.628s2.566-.019,3.85-.024c1.242-.005,1.922.524,1.9,1.847q-.043,2.7,0,5.391c.023,1.387-.659,1.928-1.993,1.9-1.9-.036-3.8-.009-5.7-.009q-33.123,0-66.245.012c-1.164,0-2.174-.087-2.5-1.45.3-1.414,1.36-1.414,2.5-1.413q34.536.02,69.072.021c1.2,0,2.058.118,2.1-1.664.043-1.907-.927-1.735-2.157-1.735q-44.48.018-88.961,0c-1.191,0-2.1-.138-2.074,1.656.027,1.648.677,1.783,2.01,1.759,3.9-.072,7.811,0,11.717-.039,1.055-.009,1.817.252,2.065,1.373-.187,1.114-.885,1.5-1.965,1.491q-7.325-.032-14.649,0C.6,181.655-.026,181.07,0,179.7c.034-1.8.024-3.6,0-5.4A1.574,1.574,0,0,1,1.8,172.513c1.439-.009,2.884-.081,4.316.02,1.118.079,1.343-.328,1.336-1.375-.047-6.681-.025-13.362-.023-20.044,0-1.986.357-2.368,2.285-2.373q6.939-.016,13.878,0c1.927,0,2.33.422,2.331,2.357,0,6.63.046,13.26-.035,19.889-.017,1.357.419,1.578,1.637,1.565,1.235-.013,1.766-.154,1.754-1.641-.083-9.661-.044-19.324-.042-28.986,0-2.26.3-2.552,2.583-2.553q6.708,0,13.416,0c2.16,0,2.471.313,2.472,2.523q.006,14.416.015,28.832c0,.577-.341,1.487.287,1.675a5.673,5.673,0,0,0,2.741.011c.56-.124.277-.9.277-1.383q.022-17.808.012-35.616c0-1.9.023-3.8-.007-5.7-.023-1.438.651-2.026,2.07-2.017,4.729.031,9.458.005,14.186.015,1.855,0,2.218.379,2.219,2.283q.007,20.352.017,40.7c0,.575-.352,1.478.279,1.673a5.685,5.685,0,0,0,2.731.045c.577-.119.273-.894.274-1.363q.026-15.264.013-30.529,0-9.174,0-18.348c0-1.823.416-2.232,2.276-2.235q7.016-.011,14.032,0c1.817,0,2.181.36,2.182,2.14.006,6.836-.012,13.671.017,20.506,0,1.12-.253,1.923-1.487,2.1-1.25-.243-1.393-1.148-1.389-2.211.022-6.116-.007-12.232.046-18.348.009-1.081-.3-1.405-1.385-1.384-3.34.065-6.683.071-10.022,0-1.143-.025-1.34.412-1.338,1.428q.049,23.436.013,46.873c0,1.113.235,1.52,1.432,1.487,3.133-.086,6.273-.1,9.4,0,1.444.051,1.922-.277,1.9-1.828-.1-6.629-.029-13.26-.052-19.89,0-1.116.122-2.067,1.4-2.388M32.194,159.763c-.02,3.892-.023,7.785-.075,11.677-.011.839.344,1.036,1.1,1.03q5.227-.037,10.454,0c.749.006,1.111-.171,1.1-1.018-.052-5.019-.061-10.038-.085-15.057.019-4.3.016-8.609.073-12.913.011-.887-.294-1.129-1.147-1.12-3.434.039-6.869.034-10.3,0-.818-.008-1.188.177-1.179,1.1.051,5.432.046,10.864.06,16.3m34.429-8.217h.01c0-6.52-.021-13.04.022-19.559.007-1.034-.217-1.431-1.34-1.407-3.387.072-6.777.054-10.165.008-.9-.012-1.237.184-1.235,1.175q.056,19.79.012,39.58c0,.983.32,1.195,1.23,1.182,3.285-.048,6.573-.075,9.857.01,1.243.032,1.655-.265,1.64-1.583-.07-6.468-.032-12.937-.032-19.405m-56.366,10.5h.017c0,3.077.028,6.155-.017,9.232-.014.908.222,1.269,1.2,1.254q5.154-.075,10.31,0c.959.015,1.213-.3,1.209-1.228q-.045-9.232.021-18.464c.007-.934-.243-1.232-1.2-1.216-3.436.056-6.874.067-10.31,0-1.095-.023-1.256.415-1.242,1.348.045,3.026.017,6.052.017,9.078" transform="translate(0 -82.921)" fill="#070807"/>
    <path id="Trazado_715422" data-name="Trazado 715422" d="M39.229,45.027a1.6,1.6,0,0,1,2.008-1.405c2.894.545,4.582-.993,6.334-2.979,4.756-5.39,9.705-10.609,14.518-15.95a6.008,6.008,0,0,1,4.865-2.145c3.442.059,6.886.012,10.329.02a2.083,2.083,0,0,0,1.683-.52c4.171-4.18,8.37-8.332,12.73-12.66a13.22,13.22,0,0,0-3.783-.238c-1.708-.072-2.094-.426-2.105-2.1-.011-1.747.011-3.494-.006-5.241a1.567,1.567,0,0,1,1.782-1.8c5.139,0,10.279-.046,15.417.029a4.4,4.4,0,0,1,4.389,4.6c.025,4.984-.019,9.969.025,14.952.013,1.467-.617,2.051-2.033,2.021-1.746-.037-3.495-.03-5.242,0a1.666,1.666,0,0,1-1.9-1.881c-.019-1.215,0-2.431,0-3.725-.651.1-.879.539-1.179.837-4.333,4.314-8.674,8.62-12.965,12.976a5.981,5.981,0,0,1-4.653,1.937c-3.339-.074-6.681.023-10.02-.047a2.827,2.827,0,0,0-2.36,1.063c-5.388,5.928-10.838,11.8-16.2,17.749a6.285,6.285,0,0,1-5.118,2.255c-6.731-.088-13.464-.03-20.2-.034-1.84,0-2.252-.408-2.268-2.251-.015-1.644,0-3.289,0-4.933A1.743,1.743,0,0,1,25.25,43.58c2.724,0,5.447.017,8.171-.008a1.805,1.805,0,0,1,2.052,1.533c-.2,1.128-.943,1.467-2.007,1.45-2-.031-4.014.082-6.011-.037-1.615-.1-1.183.963-1.24,1.807-.063.942-.061,1.626,1.3,1.609,6.166-.076,12.334-.039,18.5-.028a3.058,3.058,0,0,0,2.437-1.059C54.2,42.542,59.983,36.276,65.712,29.959a3.3,3.3,0,0,1,2.7-1.156c3.546.03,7.093-.03,10.638.032a4.1,4.1,0,0,0,3.262-1.324c5.3-5.381,10.664-10.7,16.005-16.038.518-.518,1.034-1.036,1.871-.719.874.331,1.029,1.037,1.019,1.869-.02,1.7.056,3.394-.024,5.086-.062,1.3.8,1.106,1.523,1.036s1.872.545,1.861-1.027c-.032-4.265,0-8.53-.024-12.8a1.845,1.845,0,0,0-1.994-2.057c-4.265-.023-8.531-.008-12.8-.013-1.571,0-.871,1.192-.973,1.911-.109.767-.167,1.558,1.086,1.484,1.485-.087,2.98-.027,4.47-.017.864.006,1.832-.143,2.25.9.4.994-.252,1.617-.894,2.257Q88.156,16.895,80.663,24.44a3.477,3.477,0,0,1-2.729,1.105c-3.7-.048-7.4.011-11.1-.036A3.1,3.1,0,0,0,64.276,26.6c-5.042,5.552-10.253,10.957-15.127,16.651-2.134,2.494-4.331,3.8-7.626,3.35-1.162-.157-1.974-.386-2.293-1.57" transform="translate(-16.086 0)" fill="#070807"/>
    <path id="Trazado_715423" data-name="Trazado 715423" d="M259.559,154.728c-1.279.321-1.405,1.273-1.4,2.388.023,6.63-.044,13.261.052,19.89.022,1.551-.456,1.878-1.9,1.828-3.132-.11-6.271-.091-9.4,0-1.2.033-1.433-.374-1.432-1.487q.043-23.436-.012-46.873c0-1.016.2-1.454,1.338-1.428,3.339.074,6.682.067,10.022,0,1.081-.021,1.394.3,1.385,1.384-.052,6.116-.024,12.232-.046,18.348,0,1.063.139,1.967,1.389,2.211q0,1.871.009,3.742" transform="translate(-169.711 -89.217)" fill="#ffe8ce"/>
    <path id="Trazado_715424" data-name="Trazado 715424" d="M45.789,51.422c.319,1.183,1.132,1.412,2.293,1.57,3.3.446,5.492-.857,7.627-3.35,4.874-5.694,10.085-11.1,15.127-16.651A3.1,3.1,0,0,1,73.393,31.9c3.7.048,7.4-.012,11.1.036a3.477,3.477,0,0,0,2.729-1.105q7.477-7.562,15.024-15.055c.642-.64,1.294-1.263.894-2.257-.418-1.04-1.386-.891-2.25-.9-1.49-.01-2.985-.07-4.47.017-1.253.074-1.195-.717-1.086-1.484.1-.719-.6-1.913.973-1.911,4.266.005,8.531-.01,12.8.013a1.845,1.845,0,0,1,1.994,2.057c.027,4.265-.008,8.53.024,12.8.012,1.573-1.129.957-1.861,1.027s-1.584.264-1.523-1.036c.08-1.692,0-3.391.024-5.086.01-.832-.145-1.537-1.019-1.869-.837-.318-1.353.2-1.871.719-5.342,5.34-10.706,10.657-16.005,16.038a4.1,4.1,0,0,1-3.262,1.324c-3.545-.062-7.092,0-10.638-.032a3.3,3.3,0,0,0-2.7,1.156c-5.728,6.317-11.513,12.583-17.255,18.888A3.058,3.058,0,0,1,52.579,56.3c-6.167-.01-12.335-.048-18.5.028-1.365.017-1.367-.667-1.3-1.609.057-.844-.375-1.9,1.24-1.807,2,.119,4.007.006,6.011.037,1.064.017,1.8-.322,2.007-1.45l3.757-.079" transform="translate(-22.646 -6.395)" fill="#ffc403"/>
    <path id="Trazado_715425" data-name="Trazado 715425" d="M24.789,304.443c-.249-1.121-1.01-1.383-2.065-1.373-3.906.035-7.813-.033-11.717.039C9.673,303.134,9.024,303,9,301.35c-.03-1.794.883-1.657,2.074-1.656q44.48.022,88.961,0c1.23,0,2.2-.172,2.157,1.735-.04,1.782-.9,1.665-2.1,1.664q-34.536-.023-69.072-.021c-1.14,0-2.2,0-2.5,1.413l-3.73-.044" transform="translate(-6.22 -207.206)" fill="#516fbe"/>
    <path id="Trazado_715426" data-name="Trazado 715426" d="M187.418,175.4c0,6.469-.039,12.937.032,19.4.014,1.318-.4,1.616-1.64,1.583-3.284-.085-6.572-.058-9.857-.01-.91.013-1.232-.2-1.23-1.182q.044-19.79-.012-39.581c0-.991.332-1.187,1.234-1.175,3.388.046,6.778.064,10.165-.007,1.122-.024,1.346.373,1.34,1.407-.043,6.52-.022,13.039-.022,19.559Z" transform="translate(-120.795 -106.773)" fill="#06d1d1"/>
    <path id="Trazado_715427" data-name="Trazado 715427" d="M33.2,233.029c0-3.026.028-6.053-.017-9.078-.014-.933.147-1.371,1.242-1.348,3.435.072,6.874.06,10.31,0,.959-.016,1.209.281,1.2,1.216q-.067,9.232-.021,18.464c0,.932-.25,1.243-1.209,1.228q-5.154-.079-10.31,0c-.974.014-1.21-.346-1.2-1.254.045-3.077.017-6.154.017-9.232H33.2" transform="translate(-22.942 -153.907)" fill="#06d1d1"/>
    <path id="Trazado_715428" data-name="Trazado 715428" d="M116.652,206.645c.019-4.3.016-8.608.073-12.912.012-.888-.293-1.129-1.146-1.12-3.434.039-6.869.034-10.3,0-.818-.007-1.188.177-1.179,1.1.051,5.432.046,10.864.06,16.3-.02,3.892-.023,7.785-.075,11.677-.011.839.344,1.035,1.1,1.03q5.227-.037,10.454,0c.749.005,1.111-.172,1.1-1.018-.052-5.019-.062-10.038-.085-15.058" transform="translate(-71.961 -133.172)" fill="#ffc403"/>
  </g>
</svg>
