<svg xmlns="http://www.w3.org/2000/svg" xmlns:xlink="http://www.w3.org/1999/xlink" width="85.885" height="85.862" viewBox="0 0 85.885 85.862">
  <defs>
    <clipPath id="clip-path">
      <rect id="Rectángulo_353662" data-name="Rectángulo 353662" width="85.885" height="85.862" fill="none"/>
    </clipPath>
  </defs>
  <g id="Grupo_1003618" data-name="Grupo 1003618" clip-path="url(#clip-path)">
    <path id="Trazado_716042" data-name="Trazado 716042" d="M58.692,57.855H49.146c-.67,0-1.343.036-2.011-.008-1.21-.08-2.159-.038-2.623,1.485-.418,1.371-1.81,1.539-3.126,1.537q-11.4-.013-22.8,0c-3.844,0-7.688.007-11.532,0C2.54,60.853,0,58.31,0,53.808Q0,33.961,0,14.115C0,9.729,2.488,7.236,6.883,7.209c1.241-.008,2.483,0,3.665,0a17.6,17.6,0,0,1,.6-2.868A6.234,6.234,0,0,1,16.614.259c8.059-.993,15.144,1.4,21.6,6.085.357.26.723.508.781.549,3.338-1.734,6.414-3.546,9.661-4.965A25.629,25.629,0,0,1,62.571.3a6.245,6.245,0,0,1,5.3,5.581c.034.391.088.78.151,1.328,1.379,0,2.706-.015,4.034,0,4.1.057,6.57,2.5,6.577,6.624q.033,18.3,0,36.608c0,2.092-.517,2.7-2.692,3.349-.747,3.576-.776,3.6-5.884,4.211.557.291.85.477,1.167.605,5.817,2.349,10.167,6.526,14.024,11.3a2.367,2.367,0,0,1,.1,3.107c-4.046,5.095-8.621,9.553-14.934,11.769-6.539,2.3-12.467.751-17.992-3.01a40.482,40.482,0,0,1-8.782-8.4,2.654,2.654,0,0,1,.061-3.755c3.966-4.807,8.408-9.009,14.4-11.227.112-.042.192-.169.594-.539m3.841-11.7c-.051-12.29-.031-24.579-.031-36.869,0-3.844,0-3.865-3.855-3.861-5.764.006-10.765,2.129-15.332,5.511a2.662,2.662,0,0,0-1.245,2.418c.04,12.558.025,25.116.025,37.674v1.49c.587-.32.987-.587,1.423-.769,2.827-1.179,5.635-2.408,8.5-3.478,1.455-.542,10.517-.9,10.512-2.116M36.55,52.339c.018-.036.054-.074.054-.112q.025-19.775.023-39.55a1.627,1.627,0,0,0-.537-1.127C30.642,7.257,24.63,4.737,17.508,5.614c-1.126.139-1.409.6-1.407,1.624q.027,19.375-.007,38.749c0,1.247.42,1.656,1.656,1.559a26.263,26.263,0,0,1,11.71,1.561c2.395.932,4.688,2.127,7.089,3.232m12.7,19.21c2.835,3.243,5.96,6.119,10.025,7.783a13.015,13.015,0,0,0,10.136.019c4.087-1.647,7.2-4.544,10.061-7.769-9.661-11.37-19.8-12.115-30.222-.033" transform="translate(0 -0.001)" fill="#161615"/>
    <path id="Trazado_716043" data-name="Trazado 716043" d="M168.273,65.824c-3.288,1.138-6.508,2.447-9.748,3.7-.5.193-.958.477-1.631.818V68.758c0-13.368.017-26.737-.029-40.106a2.782,2.782,0,0,1,1.427-2.574,30.491,30.491,0,0,1,17.576-5.867c4.419,0,4.419.019,4.419,4.111,0,13.083-.023,26.167.036,39.25.006,1.3-10.383,1.675-12.05,2.252" transform="translate(-115.956 -16.794)" fill="#fff0c0"/>
    <path id="Trazado_716044" data-name="Trazado 716044" d="M83.1,71.216c-2.711-1.2-5.3-2.5-8-3.51a30.739,30.739,0,0,0-13.222-1.7c-1.4.106-1.874-.339-1.87-1.693q.052-21.041.008-42.083c0-1.109.318-1.613,1.59-1.764,8.041-.952,14.83,1.785,20.98,6.447a1.74,1.74,0,0,1,.606,1.224q.022,21.476-.025,42.952c0,.041-.041.083-.061.122" transform="translate(-46.565 -17.666)" fill="#fff0c0"/>
    <path id="Trazado_716045" data-name="Trazado 716045" d="M183.625,242.818c10.423-12.082,20.56-11.337,30.222.033-2.86,3.225-5.974,6.122-10.061,7.769a13.015,13.015,0,0,1-10.136-.019c-4.066-1.664-7.191-4.539-10.025-7.782m18.7,0a3.585,3.585,0,1,0-7.167-.032,3.584,3.584,0,1,0,7.167.032" transform="translate(-134.378 -171.27)" fill="#03a4a4"/>
    <path id="Trazado_716046" data-name="Trazado 716046" d="M233.807,256.7a3.584,3.584,0,1,1-7.167-.032,3.585,3.585,0,1,1,7.167.032" transform="translate(-165.856 -185.146)" fill="#161615"/>
    <path id="Trazado_716047" data-name="Trazado 716047" d="M18.371,41.174s-7.121-2.1-7.121,4.017v38.62s.456,4.382,7.852,3.561c9.891-1.1,25.762.365,25.762.365V85.912s-6.041-6.253-26.036-3.7c-1.567.2-.456-41.041-.456-41.041" transform="translate(-8.233 -29.877)" fill="#f5db8a"/>
    <path id="Trazado_716048" data-name="Trazado 716048" d="M183.357,34.366s7.121-2.1,7.121,4.017V73.626s-.456,7.761-7.852,6.939c-9.891-1.1-25.762.365-25.762.365v-1.1s19.653-7.943,25.881-4.93c1.423.688.612-40.537.612-40.537" transform="translate(-114.795 -24.895)" fill="#f5db8a"/>
  </g>
</svg>
