<svg xmlns="http://www.w3.org/2000/svg" xmlns:xlink="http://www.w3.org/1999/xlink" width="83.148" height="83.149" viewBox="0 0 83.148 83.149">
  <defs>
    <clipPath id="clip-path">
      <rect id="Rectángulo_353482" data-name="Rectángulo 353482" width="62.638" height="62.633" fill="none"/>
    </clipPath>
  </defs>
  <g id="Grupo_1003504" data-name="Grupo 1003504" transform="translate(-286.852 -3069.799)">
    <path id="Trazado_715529" data-name="Trazado 715529" d="M83.148,66.463A41.574,41.574,0,1,1,41.574,24.889,41.574,41.574,0,0,1,83.148,66.463" transform="translate(286.852 3044.91)" fill="#ffc403"/>
    <g id="Grupo_1003503" data-name="Grupo 1003503" transform="translate(295.862 3081.7)">
      <g id="Grupo_1003502" data-name="Grupo 1003502" clip-path="url(#clip-path)">
        <path id="Trazado_715533" data-name="Trazado 715533" d="M37.857,33.289l4.091,4.051c.117-.1.264-.228.405-.359.887-.829,1.221-.839,2.084.02q5.2,5.174,10.379,10.363c2.085,2.084,4.2,4.136,6.242,6.262a5.161,5.161,0,0,1-2.047,8.6,4.865,4.865,0,0,1-5.275-1.194q-8.423-8.347-16.779-16.76c-.793-.795-.727-1.035.421-2.39L33.27,37.792a20.745,20.745,0,0,1-17.7,3.277A20.252,20.252,0,0,1,3.638,32.6,20.82,20.82,0,0,1,6.812,5.462,21.067,21.067,0,0,1,33.484,4.117a21.163,21.163,0,0,1,4.373,29.173M21.02,2.241a18.709,18.709,0,1,0,18.7,18.686A18.728,18.728,0,0,0,21.02,2.241M39.272,43.429c.076.088.2.252.348.4Q47.2,51.4,54.784,58.972a5.156,5.156,0,0,0,1.329.981,2.92,2.92,0,0,0,4.2-2.633,3.733,3.733,0,0,0-1.426-2.77q-7.348-7.365-14.707-14.718c-.242-.242-.5-.47-.7-.652l-4.208,4.25m-.331-3.138,1.278-1.258-3.762-3.816-1.2,1.057,3.687,4.018" transform="translate(0 0)" fill="#161615"/>
        <path id="Trazado_715534" data-name="Trazado 715534" d="M8.593,206.008c-.086-.134-.125-.191-.16-.251-1.422-2.38-3.407-3.575-6.252-3a5.185,5.185,0,0,1-.967.008v-2.059c1.764,0,3.552-.031,5.337.03.3.01.64.378.884.65.924,1.032,1.815,2.092,2.75,3.178a9.6,9.6,0,0,1,7.186-1.648,9.363,9.363,0,0,1,6.384,14.057c-.224.367-.539,1.021-.39,1.208.463.584.878,1.292,1.874,1.261,2.218-.07,4.439-.021,6.659-.017a4.033,4.033,0,0,1,.442.053v1.967c-.283.019-.581.055-.879.056-1.942.005-3.889-.08-5.825.03a3.511,3.511,0,0,1-3.426-1.43c-.4-.571-.773-.538-1.364-.149a9.337,9.337,0,0,1-12.669-13.32c.141-.2.269-.4.42-.628m8.218-1.028v5.7c0,2.533,0,2.533-2.52,2.533H8.571a7.088,7.088,0,0,0,4.2,5.485,6.99,6.99,0,0,0,7.132-.726l-2.764-2.918,1.425-1.594,3.026,2.856a7.24,7.24,0,0,0-4.781-11.339m-5.232,1.1,1.89,2.274-1.648,1.4-1.92-2.16L8.495,211H14.6v-6.087l-3.022,1.166" transform="translate(-0.961 -158.914)" fill="#161615"/>
        <path id="Trazado_715535" data-name="Trazado 715535" d="M223.213,137.742H218.62c-3.117,0-6.234.008-9.351-.01a2.111,2.111,0,0,1-1.186-.225c-1.756-1.338-3.465-2.737-5.237-4.154l1.3-1.63c1.48,1.179,2.886,2.343,4.345,3.434a2.514,2.514,0,0,0,1.389.48c4.052.037,8.1.021,12.156.021h1.178Z" transform="translate(-160.613 -104.298)" fill="#161615"/>
        <rect id="Rectángulo_353468" data-name="Rectángulo 353468" width="1.959" height="10.28" transform="translate(60.646 0.178)" fill="#161615"/>
        <rect id="Rectángulo_353469" data-name="Rectángulo 353469" width="10.318" height="1.956" transform="translate(48.131 23.105)" fill="#161615"/>
        <rect id="Rectángulo_353470" data-name="Rectángulo 353470" width="10.314" height="1.936" transform="translate(48.16 35.589)" fill="#161615"/>
        <rect id="Rectángulo_353471" data-name="Rectángulo 353471" width="1.97" height="8.193" transform="translate(56.459 2.29)" fill="#161615"/>
        <rect id="Rectángulo_353472" data-name="Rectángulo 353472" width="1.988" height="6.131" transform="translate(52.286 4.362)" fill="#161615"/>
        <rect id="Rectángulo_353473" data-name="Rectángulo 353473" width="6.131" height="1.957" transform="translate(48.132 14.778)" fill="#161615"/>
        <rect id="Rectángulo_353474" data-name="Rectángulo 353474" width="6.133" height="1.954" transform="translate(56.459 14.778)" fill="#161615"/>
        <rect id="Rectángulo_353475" data-name="Rectángulo 353475" width="6.121" height="1.957" transform="translate(48.156 18.916)" fill="#161615"/>
        <rect id="Rectángulo_353476" data-name="Rectángulo 353476" width="6.121" height="1.957" transform="translate(56.484 18.916)" fill="#161615"/>
        <rect id="Rectángulo_353477" data-name="Rectángulo 353477" width="6.126" height="1.948" transform="translate(48.134 27.273)" fill="#161615"/>
        <rect id="Rectángulo_353478" data-name="Rectángulo 353478" width="6.131" height="1.953" transform="translate(56.46 27.271)" fill="#161615"/>
        <rect id="Rectángulo_353479" data-name="Rectángulo 353479" width="1.953" height="4.051" transform="translate(48.157 6.443)" fill="#161615"/>
        <rect id="Rectángulo_353480" data-name="Rectángulo 353480" width="1.96" height="1.956" transform="translate(60.628 23.112)" fill="#161615"/>
        <rect id="Rectángulo_353481" data-name="Rectángulo 353481" width="1.993" height="1.919" transform="translate(60.646 35.611)" fill="#161615"/>
        <path id="Trazado_715536" data-name="Trazado 715536" d="M29.794,10.764A18.709,18.709,0,1,1,11.081,29.433,18.735,18.735,0,0,1,29.794,10.764M21.078,39.912l.014.18a66.148,66.148,0,0,0,7.528-.647,19.672,19.672,0,0,0,15.766-18.85c.032-1.207-.322-1.552-1.513-1.556-2.116-.008-4.232.024-6.347-.009a23.517,23.517,0,0,0-7.178.837A19.823,19.823,0,0,0,15.2,38.353c-.031,1.208.323,1.551,1.513,1.558,1.457.009,2.913,0,4.37,0" transform="translate(-8.774 -8.523)" fill="#06d1d1"/>
        <path id="Trazado_715537" data-name="Trazado 715537" d="M188.624,192.426l4.208-4.251c.2.183.453.41.7.652q7.356,7.357,14.707,14.718a3.733,3.733,0,0,1,1.426,2.771,2.92,2.92,0,0,1-4.2,2.632,5.15,5.15,0,0,1-1.329-.98q-7.6-7.559-15.163-15.145c-.146-.146-.272-.31-.348-.4" transform="translate(-149.352 -148.996)" fill="#b20d0d"/>
        <path id="Trazado_715538" data-name="Trazado 715538" d="M173.014,174.221l-3.687-4.018,1.2-1.057,3.762,3.816-1.278,1.258" transform="translate(-134.072 -133.929)" fill="#a03d3d"/>
        <path id="Trazado_715539" data-name="Trazado 715539" d="M44.789,221.253a7.24,7.24,0,0,1,4.78,11.339l-3.026-2.856-1.425,1.594,2.764,2.918a6.99,6.99,0,0,1-7.132.726,7.088,7.088,0,0,1-4.2-5.485h5.721c2.52,0,2.52,0,2.52-2.533v-5.7" transform="translate(-28.939 -175.187)" fill="#03a4a4"/>
        <path id="Trazado_715540" data-name="Trazado 715540" d="M39.268,222.1l3.022-1.166v6.087H36.183l1.407-3.41,1.92,2.16,1.648-1.4-1.89-2.274" transform="translate(-28.65 -174.931)" fill="#a03d3d"/>
        <path id="Trazado_715541" data-name="Trazado 715541" d="M36.718,71.325c-1.457,0-2.913.007-4.37,0-1.19-.007-1.544-.35-1.513-1.558A19.823,19.823,0,0,1,44.988,51.279a23.5,23.5,0,0,1,7.178-.837c2.115.033,4.231,0,6.347.009,1.191,0,1.546.35,1.513,1.556A19.673,19.673,0,0,1,44.261,70.858a66.24,66.24,0,0,1-7.528.647l-.014-.18m-3.655-2.3c3.07,0,6.165.234,9.212-.045A17.375,17.375,0,0,0,57.8,52.57c-1.834,0-3.668-.073-5.494.02a35.6,35.6,0,0,0-5.97.582A17.352,17.352,0,0,0,33.063,69.024" transform="translate(-24.414 -39.935)" fill="#161615"/>
        <path id="Trazado_715542" data-name="Trazado 715542" d="M41.544,77.036A17.352,17.352,0,0,1,54.82,61.183,35.6,35.6,0,0,1,60.79,60.6c1.826-.093,3.66-.02,5.494-.02A17.375,17.375,0,0,1,50.756,76.991c-3.047.278-6.141.045-9.212.045m12.322-14.4a6.26,6.26,0,1,0,6.3,6.217,6.23,6.23,0,0,0-6.3-6.217" transform="translate(-32.894 -47.946)" fill="#ffdbdb"/>
        <path id="Trazado_715543" data-name="Trazado 715543" d="M77.1,70.573a6.26,6.26,0,1,1-6.212,6.3,6.24,6.24,0,0,1,6.212-6.3m3.487,8.394A5.354,5.354,0,0,1,75,73.45a3.891,3.891,0,0,0-1.957,3.887,4.073,4.073,0,0,0,3.232,3.5,3.936,3.936,0,0,0,4.312-1.872m-3.1-6.212a2.735,2.735,0,0,0,.607,3.159,2.622,2.622,0,0,0,3.1.56c-.381-2.224-1.386-3.244-3.707-3.719" transform="translate(-56.13 -55.879)" fill="#161615"/>
        <path id="Trazado_715544" data-name="Trazado 715544" d="M88.617,89.908A3.936,3.936,0,0,1,84.3,91.779a4.073,4.073,0,0,1-3.232-3.5,3.892,3.892,0,0,1,1.956-3.887,5.354,5.354,0,0,0,5.588,5.517" transform="translate(-64.16 -66.82)" fill="#fff"/>
        <path id="Trazado_715545" data-name="Trazado 715545" d="M101.632,81.055c2.321.474,3.326,1.495,3.707,3.719a2.622,2.622,0,0,1-3.1-.56,2.735,2.735,0,0,1-.607-3.159" transform="translate(-80.269 -64.179)" fill="#06d1d1"/>
      </g>
    </g>
  </g>
</svg>
