<svg id="Grupo_1003482" data-name="Grupo 1003482" xmlns="http://www.w3.org/2000/svg" xmlns:xlink="http://www.w3.org/1999/xlink" width="113" height="112.847" viewBox="0 0 113 112.847">
  <defs>
    <clipPath id="clip-path">
      <rect id="Rectángulo_353426" data-name="Rectángulo 353426" width="113" height="112.847" fill="none"/>
    </clipPath>
  </defs>
  <g id="Grupo_1003481" data-name="Grupo 1003481" clip-path="url(#clip-path)">
    <path id="Trazado_715429" data-name="Trazado 715429" d="M24.215,195.533H4.191s-.366-17.386,1.351-21.618,16.748-7.569,16.748-7.569,5.258,9.58,11.009-.868l13.613,3.9,27.375,1.53,10.623-5.43s2.752,8.566,11.936.868l10.535,3.033s10.535,3.221,7.023,24.744Z" transform="translate(-2.692 -107.118)" fill="#06d1d1"/>
    <path id="Trazado_715430" data-name="Trazado 715430" d="M165.272,220.344h-7.059c.209-2.067-.782-4.169,1.04-5.985a1.891,1.891,0,0,0-.133-1.827,1.934,1.934,0,0,0-1.8-.459c-1.3.858-2.614,1.823-2.5,3.734.085,1.452.017,2.914.017,4.484h-2.924c-.76-3.233-1.421-6.289-2.225-9.306a9.4,9.4,0,0,0-1.348-2.46c-.594-.929-1.413-1.52-2.5-.811s-.9,1.647-.279,2.6a14.892,14.892,0,0,1,2.469,8.834,14.668,14.668,0,0,1-14.45,13.806c-7.606.01-14.272-6.343-14.462-13.782-.281-11.015,10.17-18.177,20.369-13.947,1.1.458,2.236.852,2.864-.529s-.361-2.025-1.487-2.485c-.753-.308-1.5-.629-2.4-1.006l.869-2.105c3.271,1.68,4.7,1.18,6.322-2.133.927-1.9,1.8-3.822,2.834-5.662a1.871,1.871,0,0,1,1.525-.813c2.353.47,4.7,1.026,6.995,1.719a11.159,11.159,0,0,1,8.207,10.158c.237,5.917.056,11.852.056,17.975M125.879,222.6c-.9,4.335,2.17,6.867,5.767,4.631,1.7-1.057,3.081-.329,4.6.341,2.138.947,4.013.442,4.764-1.4a6.183,6.183,0,0,0,.292-3.077,4.313,4.313,0,0,1,1.31-3.915c2.809-2.972,1.94-5.793-2.052-6.572a4.7,4.7,0,0,1-3.593-2.6c-1.911-3.483-4.863-3.49-6.781-.032a4.663,4.663,0,0,1-3.572,2.637c-4,.728-4.882,3.555-2.133,6.552,1.044,1.139,1.973,2.215,1.4,3.437" transform="translate(-77.102 -123.303)" fill="#abffff"/>
    <path id="Trazado_715431" data-name="Trazado 715431" d="M148.107,240.782c0-8.292-6.41-15.015-14.317-15.015s-14.318,6.723-14.318,15.015,6.41,15.015,14.318,15.015,14.317-6.723,14.317-15.015" transform="translate(-77.337 -146.145)" fill="#ffc403"/>
    <path id="Trazado_715432" data-name="Trazado 715432" d="M30.58,60.67c-3.13,5.6-9.418,5.086-12.086-.073a100.958,100.958,0,0,0-9.9,3.326c-3.583,1.6-5.135,4.823-5.307,8.7a9.286,9.286,0,0,1-.078,2.45c-.218.645-.925,1.124-1.416,1.676C1.2,76.213.162,75.726.1,75.141c-.73-7.259,2.465-12.74,8.746-14.973,2.7-.961,5.5-1.666,8.223-2.571.5-.164,1.215-.747,1.206-1.121-.023-.956-.081-2.357-.685-2.781a13.81,13.81,0,0,1-6.157-12.711c.128-2.984-.169-6.086.55-8.926,2.429-9.6,13.525-13,21.1-6.664.3.254.621.492,1.294,1.024-.7-8.9,1.612-16.365,8.609-21.817A21.219,21.219,0,0,1,57.808.052,21.684,21.684,0,0,1,73.854,8.465c4.138,5.144,5.183,11.178,4.731,17.283,2.377-1.084,4.629-2.522,7.088-3.156a12.557,12.557,0,0,1,15.456,10.182,54.391,54.391,0,0,1-.2,12.965c-.335,3.285-2.485,5.836-5.281,7.57-1.437.891-1.17,2.1-.98,3.2.091.521,1.062,1.052,1.735,1.28,2.274.771,4.606,1.373,6.895,2.1a13.349,13.349,0,0,1,9.538,15.123c-.093.628-1.059,1.127-1.619,1.685-.52-.584-1.354-1.1-1.495-1.767-.3-1.419-.086-2.944-.362-4.372a9.082,9.082,0,0,0-6.1-7.171c-2.861-1.037-5.816-1.815-8.7-2.7-4.9,5.362-8.512,5.38-12.209-.028l-9.1,2.77c.007.112.015.225.023.337,2.292.588,4.587,1.163,6.875,1.765A14.766,14.766,0,0,1,91.462,79.913c.039,2.1.006,4.2.006,6.4h7.307c0-1.621.012-3.239,0-4.857-.012-1.122.292-2.076,1.572-2.119,1.4-.048,1.719.933,1.7,2.141-.029,1.573-.007,3.147-.007,4.825h7.622a14.48,14.48,0,0,1,.064-3.273,2.637,2.637,0,0,1,1.46-1.751c1.087-.259,1.688.613,1.715,1.71.036,1.469-.017,2.941.024,4.41.046,1.642-.689,2.313-2.343,2.3-5.644-.049-11.288-.018-16.932-.018H91.475c0,2.834.009,5.518,0,8.2-.01,2.2-.358,2.56-2.563,2.567-4.644.016-9.289.038-13.933-.019a1.879,1.879,0,0,0-2.055,1.36c-3.18,7.1-8.682,11.087-16.5,11.064s-13.3-4.026-16.454-11.142a1.763,1.763,0,0,0-1.927-1.276c-4.644.042-9.289.026-13.934.014-2.334-.006-2.645-.327-2.654-2.654-.009-2.631,0-5.262,0-8.116H19.374q-8.466,0-16.932,0c-1.961,0-2.395-.435-2.421-2.36C0,85.9.007,84.486.026,83.075c.014-1.1.534-1.864,1.676-1.839s1.6.806,1.577,1.914c-.022.991,0,1.984,0,3.116h7.619c0-1.557.022-3.069-.007-4.58-.024-1.218.123-2.389,1.66-2.352,1.518.037,1.628,1.236,1.611,2.434-.021,1.462,0,2.924,0,4.512h7.3c0-1.665.078-3.3-.013-4.918A15.135,15.135,0,0,1,33.927,65.214,27.042,27.042,0,0,0,39.7,63.45L30.58,60.67M88.17,97.041c0-6.124.181-12.058-.056-17.975a11.158,11.158,0,0,0-8.207-10.158c-2.3-.693-4.642-1.248-6.995-1.719A1.872,1.872,0,0,0,71.387,68c-1.029,1.84-1.906,3.765-2.834,5.662-1.62,3.313-3.051,3.813-6.322,2.133l-.87,2.105c.9.377,1.644.7,2.4,1.006,1.126.46,2.114,1.105,1.487,2.485s-1.761.987-2.864.529c-10.2-4.23-20.65,2.932-20.369,13.947.19,7.44,6.856,13.792,14.461,13.782a14.668,14.668,0,0,0,14.45-13.806,14.894,14.894,0,0,0-2.469-8.835c-.623-.952-.795-1.9.279-2.6s1.905-.118,2.5.81a9.4,9.4,0,0,1,1.348,2.46c.8,3.017,1.465,6.073,2.225,9.306h2.924c0-1.57.068-3.032-.017-4.484-.112-1.911,1.2-2.876,2.5-3.734a1.934,1.934,0,0,1,1.8.459,1.891,1.891,0,0,1,.133,1.826c-1.822,1.816-.831,3.918-1.04,5.985ZM45.11,28.718C47.327,26.763,50,27.1,52.551,27.236c4.627.255,8.08-1.473,10.441-5.466A38.54,38.54,0,0,1,65.2,18.589c.634-.861,1.465-1.25,2.423-.542a1.614,1.614,0,0,1,.253,2.475q-.4.581-.789,1.167c-1.35,2.02-1.187,3.058.913,4.374a7.527,7.527,0,0,0,2.9,1.09,31.544,31.544,0,0,0,4.175.046c1.011-8.889-1-16.2-8.9-21.148A18.355,18.355,0,0,0,44.9,7.326c-6.47,5.116-8.086,11.832-6.971,19.876,2.358.48,5.057-1.152,7.178,1.516M31.829,97.04c-.166-2.211.687-4.365-1.148-6.139a1.737,1.737,0,0,1,.213-1.672c.415-.389,1.441-.7,1.815-.456,1.307.858,2.612,1.826,2.5,3.738-.087,1.495-.017,3-.017,4.489h3.474c-.28-9.505,4.138-15.794,12.911-19.128L50.7,75.829c-3.426,1.633-4.715,1.16-6.4-2.291-.9-1.846-1.857-3.666-2.69-5.542a1.236,1.236,0,0,0-1.757-.824c-2.03.569-4.105.978-6.141,1.53a11.638,11.638,0,0,0-9,11.758c-.029,4.293-.006,8.585-.007,12.878v3.7Zm31.76-70.518A12.9,12.9,0,0,1,53,30.453c-.644-.038-1.293-.006-1.939-.005-4.17,0-6.265,2.086-6.263,6.236,0,1.293-.021,2.588.027,3.88a11.646,11.646,0,0,0,23.263-.036c.082-2.467-.059-4.942.06-7.406.1-1.975.011-3.642-2.227-4.514-.861-.335-1.479-1.294-2.334-2.085M34.476,38.7l-.187-.016c0-1.234.03-2.469-.005-3.7A9.774,9.774,0,0,0,24.616,25.5a9.674,9.674,0,0,0-9.778,9.326c-.082,2.642-.071,5.29-.01,7.933a9.663,9.663,0,0,0,19.025,2.208,44.405,44.405,0,0,0,.621-6.272m63.622.211h-.006c0-1.411.052-2.824-.01-4.231a9.659,9.659,0,0,0-8.7-9.119c-4.631-.516-9.4,2.421-10.244,7a47.482,47.482,0,0,0-.418,10.858c.252,5.095,4.877,8.946,10.088,8.8a9.586,9.586,0,0,0,9.277-9.25c.051-1.35.008-2.7.008-4.055M37.65,40.994c.107,5.43-1.856,9.679-6.339,12.7-1.3.877-.667,3.512.864,3.99,2.566.8,5.352,1.186,7.667,2.442,2.924,1.586,4.758.792,6.622-1.482.89-1.085,1.747-5.344,1.053-6.541a1.477,1.477,0,0,0-.377-.364,15.533,15.533,0,0,1-5.7-10.382l-3.792-.36m33.813.359c-.492,3.507-1.629,6.7-4.235,8.952A5.3,5.3,0,0,0,65.26,55.5c.105.786-.014,1.8.43,2.3a36.74,36.74,0,0,0,3.889,3.539c.13.11.535-.065.8-.153,3.265-1.1,6.54-2.163,9.781-3.327.729-.262,1.785-.774,1.9-1.336.24-1.154.409-2.393-1.039-3.356a12.261,12.261,0,0,1-5.591-9.5c-.082-.9-.207-1.8-.309-2.668l-3.658.357m-20.5,12.6c0,2.668-.047,5.06.04,7.447a2.071,2.071,0,0,0,.865,1.338c4.436,3.145,4.445,3.132,8.98.169a2.516,2.516,0,0,0,.583-.383c.212-.252.5-.561.5-.85.039-2.492.023-4.985.023-7.676A15.438,15.438,0,0,1,50.96,53.95m2.5,13.881c-1.808-2.017-5.392-2.089-6.051-5.571-.96.865-1.89,1.657-2.756,2.512-.244.241-.518.77-.413,1,1.184,2.555,2.439,5.078,3.792,7.848l5.428-5.787M64.893,73.62c1.353-2.775,2.567-5.22,3.718-7.694a1.152,1.152,0,0,0-.22-1.032c-.925-.914-1.926-1.751-2.937-2.649-.655,3.583-4.368,3.572-5.975,5.6l5.415,5.771M27.417,55.506H21.551c.126,2.027-.634,4.265,1.6,5.429a3.5,3.5,0,0,0,2.9-.079c2.074-1.223,1.279-3.378,1.359-5.35m58.054-.013c.182,1.963-.743,4.193,1.485,5.412a3.461,3.461,0,0,0,2.9-.019c2.128-1.242,1.454-3.423,1.438-5.393ZM56.483,70.044c-3.564,2.949-3.576,2.993-1.945,6.3.052.105.088.219.149.318.612.98,3,.929,3.584-.074,1.793-3.062,1.761-3.3-.8-5.7-.293-.274-.608-.525-.989-.851m-15.16-39.48c-3.108-.249-3.653.25-3.664,3.123,0,.41,0,.82,0,1.229.025,2.706.853,3.323,3.664,2.675ZM71.6,37.749c3.24.25,3.658-.123,3.67-3.061,0-.41,0-.82,0-1.229-.024-2.7-.924-3.392-3.67-2.741Z" transform="translate(0 0)"/>
    <path id="Trazado_715433" data-name="Trazado 715433" d="M114.135,34.684c-2.121-2.668-4.82-1.035-7.178-1.516-1.115-8.043.5-14.76,6.971-19.875A18.355,18.355,0,0,1,135.2,12.017c7.9,4.95,9.912,12.259,8.9,21.148a31.544,31.544,0,0,1-4.175-.046,7.532,7.532,0,0,1-2.9-1.09c-2.1-1.317-2.263-2.354-.914-4.374q.391-.586.789-1.168a1.614,1.614,0,0,0-.253-2.474c-.958-.708-1.789-.319-2.423.542a38.62,38.62,0,0,0-2.209,3.181c-2.361,3.993-5.814,5.722-10.441,5.466-2.549-.141-5.224-.473-7.441,1.482" transform="translate(-69.026 -5.966)" fill="#ffc403"/>
    <path id="Trazado_715434" data-name="Trazado 715434" d="M77.163,220.142H70.041v-3.7c0-4.293-.023-8.585.006-12.878a11.639,11.639,0,0,1,9-11.758c2.035-.553,4.11-.961,6.141-1.53a1.236,1.236,0,0,1,1.757.824c.833,1.876,1.789,3.7,2.69,5.542,1.684,3.451,2.973,3.923,6.4,2.29l.877,2.044C88.139,204.307,83.721,210.6,84,220.1H80.527c0-1.49-.069-2.994.017-4.489.111-1.912-1.193-2.88-2.5-3.738-.374-.246-1.4.067-1.815.456A1.738,1.738,0,0,0,76.015,214c1.834,1.773.982,3.927,1.148,6.139" transform="translate(-45.334 -123.102)" fill="#abffff"/>
    <path id="Trazado_715435" data-name="Trazado 715435" d="M145.812,75.2c.855.791,1.473,1.751,2.334,2.086,2.238.871,2.323,2.538,2.228,4.513-.119,2.464.022,4.94-.061,7.406a11.645,11.645,0,0,1-23.262.036c-.049-1.292-.027-2.587-.027-3.88,0-4.15,2.092-6.234,6.263-6.236.646,0,1.3-.032,1.939.005A12.9,12.9,0,0,0,145.812,75.2" transform="translate(-82.223 -48.68)" fill="#ffe8ce"/>
    <path id="Trazado_715436" data-name="Trazado 715436" d="M61.6,85.5a44.4,44.4,0,0,1-.622,6.272,9.663,9.663,0,0,1-19.025-2.208c-.062-2.643-.073-5.291.01-7.933A9.673,9.673,0,0,1,51.744,72.3a9.774,9.774,0,0,1,9.668,9.477c.035,1.233.005,2.468.005,3.7l.187.015" transform="translate(-27.128 -46.803)" fill="#ffe8ce"/>
    <path id="Trazado_715437" data-name="Trazado 715437" d="M242.379,85.705c0,1.352.044,2.705-.008,4.055a9.586,9.586,0,0,1-9.277,9.25c-5.211.146-9.836-3.7-10.088-8.8a47.485,47.485,0,0,1,.418-10.859c.844-4.576,5.613-7.512,10.244-7a9.659,9.659,0,0,1,8.7,9.119c.062,1.408.009,2.821.009,4.231h.006" transform="translate(-144.282 -46.8)" fill="#ffe8ce"/>
    <path id="Trazado_715438" data-name="Trazado 715438" d="M144.472,152.973a15.437,15.437,0,0,0,10.994.046c0,2.691.017,5.184-.023,7.676,0,.289-.291.6-.5.85a2.532,2.532,0,0,1-.583.383c-4.535,2.963-4.544,2.976-8.98-.169a2.073,2.073,0,0,1-.865-1.338c-.087-2.387-.04-4.779-.04-7.447" transform="translate(-93.513 -99.024)" fill="#ffe8ce"/>
    <path id="Trazado_715439" data-name="Trazado 715439" d="M134.629,182.108l-5.428,5.787c-1.353-2.77-2.608-5.293-3.792-7.848-.105-.227.169-.757.413-1,.867-.856,1.8-1.647,2.756-2.512.659,3.482,4.243,3.554,6.051,5.571" transform="translate(-81.165 -114.277)" fill="#fff"/>
    <path id="Trazado_715440" data-name="Trazado 715440" d="M174.064,187.871l-5.416-5.771c1.607-2.031,5.321-2.02,5.976-5.6,1.011.9,2.012,1.735,2.937,2.649a1.152,1.152,0,0,1,.22,1.032c-1.151,2.474-2.365,4.919-3.718,7.694" transform="translate(-109.17 -114.251)" fill="#fff"/>
    <path id="Trazado_715441" data-name="Trazado 715441" d="M66.923,157.387c-.08,1.972.715,4.127-1.359,5.35a3.5,3.5,0,0,1-2.9.079c-2.236-1.165-1.476-3.4-1.6-5.429Z" transform="translate(-39.506 -101.881)" fill="#ffe8ce"/>
    <path id="Trazado_715442" data-name="Trazado 715442" d="M242.276,157.348H248.1c.017,1.97.691,4.152-1.438,5.394a3.461,3.461,0,0,1-2.9.019c-2.229-1.22-1.3-3.449-1.486-5.412" transform="translate(-156.805 -101.856)" fill="#ffe8ce"/>
    <path id="Trazado_715443" data-name="Trazado 715443" d="M154.664,198.606c.381.327.7.577.989.851,2.561,2.4,2.592,2.633.8,5.7-.587,1-2.972,1.054-3.584.074-.062-.1-.1-.213-.149-.318-1.631-3.309-1.619-3.354,1.945-6.3" transform="translate(-98.182 -128.563)" fill="#fff"/>
    <path id="Trazado_715444" data-name="Trazado 715444" d="M110.439,86.557v7.028c-2.81.648-3.639.03-3.664-2.675,0-.41,0-.819,0-1.229.011-2.873.556-3.372,3.664-3.123" transform="translate(-69.117 -55.994)" fill="#fff"/>
    <path id="Trazado_715445" data-name="Trazado 715445" d="M203.008,93.711V86.679c2.746-.651,3.646.038,3.67,2.741,0,.41,0,.82,0,1.229-.012,2.938-.43,3.311-3.67,3.061" transform="translate(-131.413 -55.962)" fill="#fff"/>
    <path id="Trazado_715446" data-name="Trazado 715446" d="M132.816,253.641c.571-1.221-.358-2.3-1.4-3.437-2.748-3-1.867-5.824,2.134-6.552a4.663,4.663,0,0,0,3.571-2.637c1.918-3.458,4.87-3.451,6.781.032a4.7,4.7,0,0,0,3.593,2.6c3.992.779,4.861,3.6,2.051,6.572a4.313,4.313,0,0,0-1.309,3.914,6.192,6.192,0,0,1-.292,3.077c-.751,1.841-2.626,2.346-4.764,1.4-1.515-.671-2.9-1.4-4.6-.342-3.6,2.236-6.661-.3-5.766-4.63m12.171,2.058c-.923-3.562.1-6.248,2.834-8.552-3.637-.193-5.961-1.967-7.339-5.8-1.324,3.9-3.724,5.576-7.318,5.829,2.909,2.267,3.625,5.106,2.57,8.975,3.353-2.29,6.217-2.409,9.253-.451" transform="translate(-84.038 -154.341)"/>
    <path id="Trazado_715447" data-name="Trazado 715447" d="M151.12,261.051c-3.036-1.958-5.9-1.839-9.253.451,1.055-3.87.34-6.709-2.57-8.975,3.594-.254,5.993-1.927,7.318-5.829,1.378,3.835,3.7,5.609,7.339,5.8-2.73,2.3-3.757,4.99-2.834,8.552" transform="translate(-90.171 -159.694)" fill="#efff03"/>
  </g>
</svg>
