<svg xmlns="http://www.w3.org/2000/svg" xmlns:xlink="http://www.w3.org/1999/xlink" width="189.816" height="191.407" viewBox="0 0 189.816 191.407">
  <defs>
    <clipPath id="clip-path">
      <rect id="Rectángulo_353658" data-name="Rectángulo 353658" width="189.816" height="191.407" fill="none"/>
    </clipPath>
  </defs>
  <g id="Grupo_1003615" data-name="Grupo 1003615" transform="translate(-0.014)">
    <g id="Grupo_1003614" data-name="Grupo 1003614" transform="translate(0.014)" clip-path="url(#clip-path)">
      <path id="Trazado_716022" data-name="Trazado 716022" d="M62.707,135.607l-8.6,8.753c.584.567,1.243,1.2,1.89,1.832a7.615,7.615,0,0,1,2.381,4.357,6.289,6.289,0,0,1-1.626,5.555c-1.939,2.011-3.923,3.981-5.921,5.935a2.146,2.146,0,0,1-3.4-.047c-1.243-1.214-2.451-2.464-3.741-3.763-.244.209-.467.373-.658.567Q30.456,171.39,17.873,183.979A10.309,10.309,0,0,1,.983,181.061,9.652,9.652,0,0,1,2.9,169.927c3.857-4.079,7.9-7.987,11.868-11.957q6.934-6.934,13.9-13.846c.37-.368.267-.594-.047-.9q-1.633-1.612-3.228-3.259a2.236,2.236,0,0,1,.011-3.633q2.623-2.691,5.263-5.369a7.044,7.044,0,0,1,9.959-.216c.058.056.116.113.172.17.748.733,1.479,1.486,2.142,2.154l8.87-8.578c-1.136-1.1-2.157-2.09-3.173-3.085a8.77,8.77,0,0,1-.483-12.392l.028-.03q2.635-2.733,5.361-5.377a1.118,1.118,0,0,0,.31-1.434,57.266,57.266,0,0,1-4.056-22.309,55.982,55.982,0,0,1,1.469-11.1c.056-.252.11-.5.179-.817a4.894,4.894,0,0,0-.584-.075c-13.948.008-27.894-.007-41.846.046a8.753,8.753,0,0,1-8.481-6.1A11,11,0,0,1,.11,58.853C.078,50.549.1,42.242.09,33.937a8.607,8.607,0,0,1,7.746-8.616C8.52,25.289,9.2,25.2,9.887,25.2q30.656-.011,61.309,0c2.788,0,5.38.6,7.258,2.835a29.426,29.426,0,0,1,2.111,3.3c.613-.278,1.349-.6,2.079-.943a56.078,56.078,0,0,1,74.306,27.714c.082.177.162.357.242.536a55.707,55.707,0,0,1-15.981,66.335,55.065,55.065,0,0,1-27.477,11.944,56.569,56.569,0,0,1-11.9.467,55.529,55.529,0,0,1-16.836-3.968,1,1,0,0,0-1.3.263c-1.634,1.716-3.29,3.42-4.98,5.084a8.691,8.691,0,0,1-12.286.417c-.126-.117-.247-.238-.366-.363-1.083-1.04-2.169-2.076-3.355-3.211m18.03-79.534h.044c0,1.05.026,2.109,0,3.163a8.554,8.554,0,0,1-5.135,7.889,10.537,10.537,0,0,1-5.259.766.99.99,0,0,0-1.126.8,36.161,36.161,0,0,0-1.823,17.127,37.417,37.417,0,0,0,13.188,24.69,38.6,38.6,0,1,0,41.437-64.26,33.943,33.943,0,0,0-11.334-3.218,41.528,41.528,0,0,0-11.105.1A38.572,38.572,0,0,0,81.263,51.4a1.582,1.582,0,0,0-.5,1.041c-.062,1.209-.023,2.424-.023,3.637M64.558,67.868H63.54c-2.188,0-4.377.025-6.564-.013-.56-.009-.764.148-.9.7a52.7,52.7,0,0,0-1.42,16.62A50.6,50.6,0,0,0,59.064,102.6a51.155,51.155,0,0,0,15.173,19.333,49.745,49.745,0,0,0,24.9,10.406,51.135,51.135,0,0,0,46.808-18.557,49.636,49.636,0,0,0,11.132-27.141,50.894,50.894,0,0,0-2.868-23.149,50.107,50.107,0,0,0-18.872-24.347,51.162,51.162,0,0,0-35.155-8.895,50.022,50.022,0,0,0-18.864,5.907.964.964,0,0,0-.592.986c.039,2.5.042,5.008.058,7.513v1.176A44.165,44.165,0,0,1,95.724,39.1a42.109,42.109,0,0,1,16.316-.777,44.618,44.618,0,0,1,15.4,5.2,43.516,43.516,0,0,1-34.886,79.247,42.09,42.09,0,0,1-21.683-15.756C62.334,95.065,60.426,82,64.558,67.868M40.54,63.161v.015H71.779a5.589,5.589,0,0,0,1.255-.1,3.9,3.9,0,0,0,3-4.182c0-7.88-.071-15.763.04-23.642.042-3.057-1.256-5.434-5.418-5.4-16.027.117-32.055.06-48.085.07-4.561,0-9.121-.012-13.682.041a3.843,3.843,0,0,0-4.073,3.595,3.884,3.884,0,0,0,0,.4c-.044,1.4-.014,2.793-.013,4.19.006,6.933-.013,13.865.037,20.8a3.992,3.992,0,0,0,3.738,4.232,3.946,3.946,0,0,0,.643-.012H40.54m-8.184,83.847c-.167.151-.326.284-.467.43Q19.521,159.791,7.161,172.152a13.918,13.918,0,0,0-1.176,1.284,5.275,5.275,0,0,0-.6,5.8,5.327,5.327,0,0,0,4.89,3.2,6.242,6.242,0,0,0,4.785-2.227Q27.22,168.031,39.4,155.883a11.692,11.692,0,0,1,1.01-.817l-8.053-8.06m23.936-39.468a3.063,3.063,0,0,0-.452.3c-1.284,1.284-2.583,2.561-3.851,3.863-2.115,2.173-2.075,4.327.081,6.482q8.582,8.58,17.157,17.169a4.037,4.037,0,0,0,6.146.07c1.373-1.31,2.719-2.646,4.072-3.978a1.992,1.992,0,0,0,.239-.408,56.11,56.11,0,0,1-23.394-23.5M35.73,133.2a13.254,13.254,0,0,0-1.965,1.264c-1.117,1.04-2.132,2.188-3.213,3.268-.358.358-.279.557.054.888q9.046,9.011,18.054,18.059c.391.393.608.371.954.02,1.073-1.089,2.178-2.145,3.236-3.247,1.343-1.4,1.324-2.486-.021-3.9-.327-.343-.668-.673-1-1.008-2.093-2.08-4.193-4.153-6.278-6.242-2.625-2.63-5.219-5.289-7.872-7.891a10.884,10.884,0,0,0-1.943-1.21m23.837-1.113-4.426-4.153-8.571,8.476,4.295,4.385,8.7-8.708" transform="translate(-0.016 4.21)" fill="#040405"/>
      <path id="Trazado_716023" data-name="Trazado 716023" d="M110.1,127.407q15.5,0,31-.006c5.516-.011,9.259,3.44,9.321,8.942.093,8.249.063,16.5.009,24.751a8.343,8.343,0,0,1-5.167,8.17,10.652,10.652,0,0,1-4.144.817q-31.162.075-62.324.029a8.636,8.636,0,0,1-8.806-6.808,11.762,11.762,0,0,1-.205-2.436c-.011-8.012-.025-16.026.027-24.043a12.087,12.087,0,0,1,.552-3.794,8.49,8.49,0,0,1,8.1-5.619c5.984-.014,11.969,0,17.953,0H110.1Zm.084,4.737H84.877c-2.161,0-4.318-.021-6.484.008a3.779,3.779,0,0,0-3.881,3.673c0,.027,0,.055,0,.082q-.012,12.771,0,25.542a3.824,3.824,0,0,0,3.1,3.771,13.758,13.758,0,0,0,2.516.161q29.42.012,58.841.006c1,0,2,.008,3.005-.026a3.791,3.791,0,0,0,3.745-3.735c.049-1.4.026-2.793.026-4.19,0-7.063-.043-14.128.021-21.193a4.343,4.343,0,0,0-4.258-4.139c-10.439.083-20.879.037-31.318.037" transform="translate(11.645 21.291)" fill="#040405"/>
      <path id="Trazado_716024" data-name="Trazado 716024" d="M71.129,53.567c0-1.213-.039-2.428.023-3.637a1.582,1.582,0,0,1,.5-1.041,38.563,38.563,0,0,1,18.36-8.263,41.48,41.48,0,0,1,11.105-.1,33.943,33.943,0,0,1,11.334,3.218A38.606,38.606,0,1,1,71.011,108a37.417,37.417,0,0,1-13.188-24.69,36.161,36.161,0,0,1,1.822-17.127.994.994,0,0,1,1.126-.8,10.536,10.536,0,0,0,5.259-.764,8.554,8.554,0,0,0,5.135-7.889c.032-1.05,0-2.109,0-3.163h-.042M89.867,82.384c-.537-.54-.952-.942-1.349-1.362-2.517-2.659-5.048-5.306-7.54-7.989A8.636,8.636,0,0,0,76.094,70.2a7.78,7.78,0,0,0-8.937,6.42,7.644,7.644,0,0,0-.1,1.018,8.357,8.357,0,0,0,2.62,6.057c2.568,2.647,5.1,5.335,7.641,8.006,2.417,2.538,4.81,5.1,7.262,7.6a6.87,6.87,0,0,0,4.357,2.018,8.065,8.065,0,0,0,6.975-2.8Q105.069,88.741,114.276,79c2.931-3.1,5.9-6.167,8.861-9.239a8.6,8.6,0,0,0,2.256-4.006,7.77,7.77,0,0,0-8.27-9.423,8.424,8.424,0,0,0-5.312,2.973Q101.51,70.135,91.2,80.948c-.434.455-.852.927-1.327,1.445" transform="translate(9.592 6.718)" fill="#9ad4e3"/>
      <path id="Trazado_716025" data-name="Trazado 716025" d="M56.752,67.192c-4.13,14.133-2.223,27.194,6.318,39.137a42.079,42.079,0,0,0,21.683,15.756,43.54,43.54,0,0,0,34.886-79.247,44.618,44.618,0,0,0-15.4-5.2,42.109,42.109,0,0,0-16.316.777,44.162,44.162,0,0,0-14.939,6.73V43.972c-.015-2.5-.02-5.008-.057-7.513a.964.964,0,0,1,.592-.985,50.035,50.035,0,0,1,18.862-5.9,51.155,51.155,0,0,1,35.155,8.893A50.107,50.107,0,0,1,146.41,62.811a50.878,50.878,0,0,1,2.868,23.149A49.636,49.636,0,0,1,138.146,113.1a51.139,51.139,0,0,1-46.808,18.557,49.756,49.756,0,0,1-24.9-10.407,51.155,51.155,0,0,1-15.173-19.333,50.6,50.6,0,0,1-4.412-17.425,52.717,52.717,0,0,1,1.413-16.617c.139-.547.342-.7.9-.7,2.188.039,4.377.015,6.565.014h1.018" transform="translate(7.789 4.886)" fill="#ffb400"/>
      <path id="Trazado_716026" data-name="Trazado 716026" d="M39.855,62.5H8.536a3.991,3.991,0,0,1-4.383-4.225c-.049-6.932-.029-13.864-.035-20.8,0-1.4-.032-2.794.012-4.19a3.846,3.846,0,0,1,4.078-4c4.56-.054,9.121-.039,13.681-.041,16.028-.012,32.056.044,48.085-.071,4.162-.03,5.461,2.348,5.418,5.4-.111,7.88-.034,15.762-.039,23.643a3.9,3.9,0,0,1-3,4.182,5.589,5.589,0,0,1-1.255.1q-15.62.009-31.239,0Zm-.181-7.928v.009H65.452a9.1,9.1,0,0,0,1.726-.144,2.247,2.247,0,0,0,.419-4.268,4.629,4.629,0,0,0-1.609-.31q-26.136-.023-52.272,0a6.284,6.284,0,0,0-1.4.165,2.231,2.231,0,0,0-1.744,2.248,2.265,2.265,0,0,0,1.835,2.179,10.1,10.1,0,0,0,1.73.127q12.771.012,25.542,0m8.03-12.647H65.349a9.859,9.859,0,0,0,1.807-.14,2.266,2.266,0,0,0,1.813-2.131,2.335,2.335,0,0,0-1.563-2.241,5,5,0,0,0-1.473-.225q-17.958-.018-35.917,0a5.937,5.937,0,0,0-1.483.183,2.285,2.285,0,0,0,.04,4.426,5.649,5.649,0,0,0,1.329.117q8.9.011,17.8,0M17.036,41.8v.117c1.29,0,2.58.026,3.869-.008a2.346,2.346,0,0,0,2.265-1.427,2.175,2.175,0,0,0-.384-2.426,2.809,2.809,0,0,0-2.282-.878q-3.475-.016-6.949,0a4.962,4.962,0,0,0-1.322.179,2.131,2.131,0,0,0-1.615,1.751,2.169,2.169,0,0,0,1.615,2.607,2.249,2.249,0,0,0,.232.041c1.517.125,3.046.029,4.57.029" transform="translate(0.67 4.876)" fill="#fff"/>
      <path id="Trazado_716027" data-name="Trazado 716027" d="M31.672,129.565l8.053,8.06a11.692,11.692,0,0,0-1.01.817q-12.176,12.151-24.337,24.32a6.242,6.242,0,0,1-4.785,2.227,5.327,5.327,0,0,1-4.891-3.2,5.275,5.275,0,0,1,.6-5.8,13.768,13.768,0,0,1,1.176-1.284Q18.836,142.343,31.2,129.99c.146-.146.3-.278.467-.43" transform="translate(0.669 21.652)" fill="#ffb400"/>
      <path id="Trazado_716028" data-name="Trazado 716028" d="M49.071,95.747a56.11,56.11,0,0,0,23.394,23.5,1.961,1.961,0,0,1-.239.408c-1.352,1.331-2.7,2.667-4.072,3.978a4.039,4.039,0,0,1-5.7.389,4.18,4.18,0,0,1-.449-.46q-8.575-8.591-17.157-17.169c-2.154-2.154-2.194-4.309-.079-6.482,1.269-1.3,2.568-2.581,3.851-3.863a3.052,3.052,0,0,1,.451-.3" transform="translate(7.205 16.001)" fill="#ffb400"/>
      <path id="Trazado_716029" data-name="Trazado 716029" d="M31.385,117.734a10.916,10.916,0,0,1,1.942,1.21c2.653,2.6,5.252,5.261,7.872,7.891,2.084,2.088,4.185,4.161,6.278,6.242.336.335.677.664,1,1.008,1.346,1.416,1.366,2.5.022,3.9-1.059,1.1-2.164,2.159-3.238,3.248-.35.35-.563.372-.954-.02q-9-9.053-18.053-18.059c-.331-.33-.412-.53-.054-.888,1.081-1.08,2.1-2.228,3.213-3.268a13.326,13.326,0,0,1,1.967-1.264" transform="translate(4.324 19.675)" fill="#ffb400"/>
      <path id="Trazado_716030" data-name="Trazado 716030" d="M52.894,117.375l-8.7,8.708L39.9,121.7l8.571-8.476,4.426,4.153" transform="translate(6.651 18.921)" fill="#ffb400"/>
      <path id="Trazado_716031" data-name="Trazado 716031" d="M109.509,131.47c10.439,0,20.879.047,31.318-.037a4.345,4.345,0,0,1,4.258,4.139c-.064,7.063-.021,14.122-.022,21.192,0,1.4.023,2.794-.025,4.19a3.791,3.791,0,0,1-3.745,3.735c-1,.035-2,.026-3.005.026H79.447a13.972,13.972,0,0,1-2.516-.161,3.827,3.827,0,0,1-3.1-3.772q-.012-12.771,0-25.541a3.78,3.78,0,0,1,3.8-3.756h.078c2.162-.028,4.318-.007,6.486-.008h25.309m-.17,20.574H83.088a5.248,5.248,0,0,0-1.1.095,2.267,2.267,0,0,0-1.832,2.26,2.319,2.319,0,0,0,1.867,2.24,7.231,7.231,0,0,0,1.409.135q26.013.011,52.028-.007a5.5,5.5,0,0,0,1.769-.3,2.156,2.156,0,0,0,1.423-2.156,2.38,2.38,0,0,0-1.73-2.124,5.991,5.991,0,0,0-1.329-.141q-13.127-.012-26.251,0m8.32-12.655v.007H99.722a7.559,7.559,0,0,0-1.258.078,2.2,2.2,0,0,0-1.928,2.081,2.39,2.39,0,0,0,1.707,2.386,5.866,5.866,0,0,0,1.481.176q17.9.012,35.806-.006a5.234,5.234,0,0,0,1.765-.322,2.157,2.157,0,0,0,1.353-2.2,2.371,2.371,0,0,0-1.713-2.054,5.924,5.924,0,0,0-1.329-.144q-8.972-.012-17.943,0m-31.174.012V139.4c-1.264,0-2.528-.008-3.792,0a2.358,2.358,0,0,0-.333,4.7,2.3,2.3,0,0,0,.348,0c2.6.088,5.214.058,7.82.011a2.421,2.421,0,0,0,2.451-1.849,2.367,2.367,0,0,0-1.832-2.8,2.325,2.325,0,0,0-.636-.046c-1.341-.054-2.684-.011-4.028-.011" transform="translate(12.321 21.965)" fill="#fff"/>
      <path id="Trazado_716032" data-name="Trazado 716032" d="M88.5,80.078c.475-.518.893-.99,1.327-1.445Q100.137,67.814,110.445,57a8.429,8.429,0,0,1,5.312-2.973,7.771,7.771,0,0,1,8.27,9.423,8.623,8.623,0,0,1-2.256,4.006c-2.962,3.071-5.931,6.137-8.861,9.238q-9.2,9.741-18.363,19.521a8.065,8.065,0,0,1-6.975,2.8,6.87,6.87,0,0,1-4.357-2.018c-2.451-2.5-4.845-5.066-7.263-7.6-2.544-2.672-5.071-5.359-7.641-8.006a8.353,8.353,0,0,1-2.62-6.057,7.781,7.781,0,0,1,9.039-7.432,8.636,8.636,0,0,1,4.884,2.831c2.492,2.684,5.019,5.33,7.54,7.989.4.419.817.817,1.349,1.362m-18.068-4.81A3.385,3.385,0,0,0,71.7,78.14q7.071,7.46,14.155,14.911c1.7,1.786,3.367,1.8,5.112.027,1.8-1.821,3.584-3.646,5.338-5.506,4.917-5.216,9.8-10.46,14.724-15.671,2.479-2.625,5.031-5.182,7.509-7.808a3.12,3.12,0,0,0,.1-4.411c-.039-.04-.078-.079-.118-.117a3.034,3.034,0,0,0-4.289.139c-.05.054-.1.11-.146.167-1.182,1.2-2.34,2.429-3.5,3.654q-9.963,10.55-19.92,21.1c-1.545,1.634-2.768,1.663-4.356.054-1.036-1.05-2.019-2.153-3.035-3.227-2.55-2.7-5.087-5.419-7.664-8.1a3.054,3.054,0,0,0-5.182,1.908" transform="translate(10.962 9.023)" fill="#040405"/>
      <path id="Trazado_716033" data-name="Trazado 716033" d="M38.747,51.611H13.206a10.22,10.22,0,0,1-1.73-.127A2.266,2.266,0,0,1,9.639,49.3a2.232,2.232,0,0,1,1.751-2.248,6.335,6.335,0,0,1,1.406-.165q26.136-.012,52.27.006a4.64,4.64,0,0,1,1.611.31,2.247,2.247,0,0,1-.42,4.267,9.1,9.1,0,0,1-1.726.144q-12.89.012-25.778.006V51.61" transform="translate(1.594 7.835)" fill="#040405"/>
      <path id="Trazado_716034" data-name="Trazado 716034" d="M44.446,40.775h-17.8a5.649,5.649,0,0,1-1.329-.117,2.286,2.286,0,0,1-.04-4.426,5.99,5.99,0,0,1,1.483-.182q17.958-.014,35.917,0a5,5,0,0,1,1.473.225,2.335,2.335,0,0,1,1.563,2.241,2.267,2.267,0,0,1-1.82,2.112,9.962,9.962,0,0,1-1.807.14q-8.822.014-17.641.007" transform="translate(3.925 6.024)" fill="#040405"/>
      <path id="Trazado_716035" data-name="Trazado 716035" d="M16.113,40.656c-1.524,0-3.057.1-4.57-.029a2.167,2.167,0,0,1-1.888-2.416,2.249,2.249,0,0,1,.041-.232,2.131,2.131,0,0,1,1.615-1.751,4.962,4.962,0,0,1,1.322-.179q3.475-.026,6.949,0a2.809,2.809,0,0,1,2.282.878,2.175,2.175,0,0,1,.384,2.426,2.346,2.346,0,0,1-2.265,1.427c-1.284.034-2.579.008-3.869.008v-.117" transform="translate(1.594 6.022)" fill="#040405"/>
      <path id="Trazado_716036" data-name="Trazado 716036" d="M108.43,149.094h26.251a5.921,5.921,0,0,1,1.329.141,2.381,2.381,0,0,1,1.731,2.124,2.156,2.156,0,0,1-1.423,2.156,5.531,5.531,0,0,1-1.769.3q-26.013.023-52.028.007a7.229,7.229,0,0,1-1.409-.135,2.316,2.316,0,0,1-1.867-2.241,2.266,2.266,0,0,1,1.832-2.258,5.247,5.247,0,0,1,1.1-.095q13.127-.009,26.251,0" transform="translate(13.227 24.915)" fill="#040405"/>
      <path id="Trazado_716037" data-name="Trazado 716037" d="M114.411,138.249q8.972,0,17.943.006a5.856,5.856,0,0,1,1.329.142,2.374,2.374,0,0,1,1.713,2.054,2.157,2.157,0,0,1-1.354,2.2,5.225,5.225,0,0,1-1.764.321q-17.9.028-35.807.006a5.864,5.864,0,0,1-1.481-.176,2.391,2.391,0,0,1-1.707-2.386,2.2,2.2,0,0,1,1.927-2.08,7.434,7.434,0,0,1,1.258-.078q8.972-.009,17.943,0Z" transform="translate(15.573 23.104)" fill="#040405"/>
      <path id="Trazado_716038" data-name="Trazado 716038" d="M85.576,138.261c1.343,0,2.684-.043,4.028.011a2.366,2.366,0,0,1,2.468,2.847,2.421,2.421,0,0,1-2.451,1.849c-2.606.048-5.216.077-7.82-.01a2.358,2.358,0,0,1-.363-4.7,2.309,2.309,0,0,1,.348,0c1.264-.012,2.528,0,3.792,0v.01" transform="translate(13.23 23.103)" fill="#040405"/>
      <path id="Trazado_716039" data-name="Trazado 716039" d="M69.756,74.588a3.055,3.055,0,0,1,5.182-1.908c2.577,2.677,5.114,5.393,7.664,8.1,1.013,1.074,2,2.177,3.035,3.227,1.588,1.611,2.81,1.584,4.356-.054q9.961-10.55,19.92-21.1c1.158-1.225,2.316-2.451,3.5-3.654a3.035,3.035,0,0,1,4.268-.452c.057.047.113.1.167.146a3.119,3.119,0,0,1,.137,4.409c-.039.041-.077.079-.117.118-2.478,2.626-5.03,5.183-7.509,7.808-4.922,5.211-9.8,10.456-14.724,15.671-1.751,1.859-3.543,3.686-5.338,5.506-1.751,1.771-3.413,1.759-5.112-.027Q78.1,84.925,71.03,77.461a3.385,3.385,0,0,1-1.265-2.873" transform="translate(11.641 9.704)" fill="#a00011"/>
    </g>
  </g>
</svg>
