<svg xmlns="http://www.w3.org/2000/svg" xmlns:xlink="http://www.w3.org/1999/xlink" width="83.869" height="83.869" viewBox="0 0 83.869 83.869">
  <defs>
    <clipPath id="clip-path">
      <rect id="Rectángulo_353630" data-name="Rectángulo 353630" width="66.994" height="66.91" fill="none"/>
    </clipPath>
  </defs>
  <g id="Grupo_1003698" data-name="Grupo 1003698" transform="translate(-812.683 -6848.88)">
    <path id="Trazado_715803" data-name="Trazado 715803" d="M83.869,66.824A41.934,41.934,0,1,1,41.934,24.889,41.935,41.935,0,0,1,83.869,66.824" transform="translate(812.683 6823.991)" fill="#ffc403"/>
    <g id="Grupo_1003581" data-name="Grupo 1003581" transform="translate(821.12 6853.676)">
      <g id="Grupo_1003580" data-name="Grupo 1003580" clip-path="url(#clip-path)">
        <path id="Trazado_715856" data-name="Trazado 715856" d="M66.244,139.834h6.533a31.619,31.619,0,0,1-.253,4.1,2.728,2.728,0,0,1-2.3,2.162,7.878,7.878,0,0,1-1.557.132q-27.222.01-54.444,0a9.427,9.427,0,0,1-1.557-.126,2.9,2.9,0,0,1-2.374-2.336c-.15-1.266-.137-2.551-.2-3.9.486-.023.824-.053,1.161-.053,6.758,0,13.515-.013,20.273.019a2.913,2.913,0,0,1,1.506.493,8.71,8.71,0,0,0,4.877,1.594q3.5.015,7,0a8.814,8.814,0,0,0,4.885-1.574,3.165,3.165,0,0,1,1.6-.513c3.8-.043,7.593-.023,11.39-.023H64v-2.244H62.949c-4.11,0-8.221-.02-12.33.025a2.69,2.69,0,0,0-1.565.569,6.541,6.541,0,0,1-4.105,1.6,71.754,71.754,0,0,1-7.816-.184,7.736,7.736,0,0,1-3.17-1.39,3.291,3.291,0,0,0-1.893-.628c-4.737.023-9.474.012-14.212.012H16.651V103.1c.332-.02.635-.055.938-.056,5.608,0,11.216.011,16.824-.019a1.33,1.33,0,0,1,1.362.82A14.939,14.939,0,0,0,51.1,111.568a14.688,14.688,0,0,0,11.023-7.585c.391-.684.761-1.044,1.587-.954a24.589,24.589,0,0,0,2.538.018Zm-17.1-15.183c-1.666,1.33-3.284,2.593-4.867,3.9-.664.547-1.241,1.069-2.19.524a1.389,1.389,0,0,0-1.209-.028c-1.344.9-2.243,0-3.223-.663a23.633,23.633,0,0,1-2.065-1.412,1.8,1.8,0,0,1-.605-1.142A3.406,3.406,0,0,0,32,122.483a3.063,3.063,0,0,0-3.4,2.688c-.019,1.482-.87,1.944-1.817,2.547-.645.411-1.3.817-1.9,1.284a1.483,1.483,0,0,1-1.76.205,3.15,3.15,0,0,0-4.181,2.01,3.248,3.248,0,0,0,2.334,4.139c1.786.423,3.818-.752,3.83-2.555.009-1.428.787-1.911,1.717-2.5.734-.466,1.469-.935,2.167-1.452a1.249,1.249,0,0,1,1.485-.182,2.3,2.3,0,0,0,1.791.213c1.376-.841,2.246,0,3.224.671.717.491,1.483.918,2.156,1.463a1.557,1.557,0,0,1,.547,1.048,3.244,3.244,0,1,0,6.469-.211,1.668,1.668,0,0,1,.493-1.2c1.316-1.137,2.722-2.169,4.053-3.29.772-.651,1.484-1.223,2.556-.6a1.077,1.077,0,0,0,.907.006c1.21-.686,2.056-.061,2.919.681.527.453,1.143.805,1.648,1.278a1.356,1.356,0,0,1,.4.927,3.274,3.274,0,0,0,3.171,3.637,3.192,3.192,0,0,0,3.229-3.453,2.939,2.939,0,0,0-3.628-2.894c-1.463.4-2.244-.252-3.18-.966a15.923,15.923,0,0,1-1.4-1.084,1.243,1.243,0,0,1-.373-.842,3.247,3.247,0,0,0-1.807-3.36,2.969,2.969,0,0,0-3.332.3,3.159,3.159,0,0,0-1.168,3.656M35.968,105.343H18.878v14.981h17.09Zm6.575,12.787H64.007v-2.066H42.543Zm17.315,25.842h8.476v-2.023H59.858ZM40.323,116H38.31c-.431,2.2-.109,2.515,2.013,2.071ZM23.136,143.961h2.053v-1.988H23.136Zm-6.613-2h-2.01v2.022h2.01Zm2.324,2h2.025v-1.972H18.847Z" transform="translate(-7.988 -81.482)" fill="#abffff"/>
        <path id="Trazado_715857" data-name="Trazado 715857" d="M134.88,53.688c3.359,1.394,6.636,2.807,9.96,4.1a2.875,2.875,0,0,1,1.874,2.079c.991,3.21,2.106,6.383,3.17,9.571.063.189.1.387.149.572-3.582,1.473-9.093-.139-12.359-3.573-3.2-3.367-4.5-9.127-2.794-12.752" transform="translate(-106.089 -42.466)" fill="#a03d3d"/>
        <path id="Trazado_715858" data-name="Trazado 715858" d="M211.04,31.6a12.823,12.823,0,0,1-4.534,20.325q-1.315-3.935-2.626-7.861a20.343,20.343,0,0,0-.858-2.559,1.461,1.461,0,0,1,.471-1.959c2.345-2.276,4.643-4.6,6.938-6.928a5.019,5.019,0,0,0,.609-1.019" transform="translate(-160.423 -24.992)" fill="#06d1d1"/>
        <path id="Trazado_715859" data-name="Trazado 715859" d="M141.477,17.6a12.815,12.815,0,0,1,19.669-3.918c-.223.247-.436.506-.671.743-2.359,2.365-4.747,4.7-7.066,7.1a1.329,1.329,0,0,1-1.781.321c-3.34-1.446-6.711-2.818-10.15-4.25" transform="translate(-111.904 -8.413)" fill="#8d0a0a"/>
        <path id="Trazado_715860" data-name="Trazado 715860" d="M22.835,121.4H20.728v-1.161c0-11.248.047-22.5-.035-33.742a3.531,3.531,0,0,1,3.823-3.86c5.64.083,11.282.027,16.923.03.307,0,.615.033.976.053l.431,2.081H41.7q-8.1,0-16.192,0c-1.89,0-2.668.774-2.669,2.648q0,16.3,0,32.594V121.4" transform="translate(-16.367 -65.362)" fill="#978a8a"/>
        <path id="Trazado_715861" data-name="Trazado 715861" d="M273.129,121.482h-2.107v-1.211c0-10.619-.048-21.238.031-31.857.022-2.94-.9-3.717-3.5-3.524-.411.031-.827,0-1.231,0-.224-1.812.052-2.137,1.745-2.136.626,0,1.254-.015,1.88.014a3.112,3.112,0,0,1,3.176,3.272c.019,3.9.007,7.8.008,11.7q0,11.281,0,22.561v1.179" transform="translate(-210.599 -65.457)" fill="#978a8a"/>
        <path id="Trazado_715862" data-name="Trazado 715862" d="M82.054,190.128a3.159,3.159,0,0,1,1.168-3.656,2.969,2.969,0,0,1,3.332-.3,3.247,3.247,0,0,1,1.807,3.36,1.242,1.242,0,0,0,.372.842,15.913,15.913,0,0,0,1.4,1.084c.936.714,1.717,1.362,3.18.966a2.939,2.939,0,0,1,3.628,2.894,3.192,3.192,0,0,1-3.229,3.453,3.274,3.274,0,0,1-3.171-3.637,1.355,1.355,0,0,0-.4-.927c-.505-.473-1.121-.825-1.648-1.278-.863-.742-1.709-1.367-2.919-.681a1.077,1.077,0,0,1-.907-.006c-1.073-.622-1.784-.049-2.556.6-1.331,1.121-2.737,2.153-4.053,3.29a1.668,1.668,0,0,0-.493,1.2,3.244,3.244,0,1,1-6.469.211,1.559,1.559,0,0,0-.547-1.048c-.672-.545-1.439-.972-2.156-1.463-.978-.67-1.848-1.512-3.224-.671a2.3,2.3,0,0,1-1.791-.213,1.249,1.249,0,0,0-1.486.182c-.7.517-1.433.986-2.167,1.452-.929.589-1.707,1.073-1.717,2.5-.012,1.8-2.044,2.978-3.83,2.555a3.248,3.248,0,0,1-2.334-4.139,3.15,3.15,0,0,1,4.181-2.01,1.483,1.483,0,0,0,1.76-.205c.6-.467,1.257-.873,1.9-1.284.947-.6,1.8-1.065,1.817-2.547a3.063,3.063,0,0,1,3.4-2.688,3.406,3.406,0,0,1,2.983,3.346,1.8,1.8,0,0,0,.605,1.142,23.682,23.682,0,0,0,2.065,1.412c.98.664,1.88,1.562,3.223.663a1.388,1.388,0,0,1,1.209.028c.949.545,1.527.024,2.19-.524,1.583-1.306,3.2-2.57,4.867-3.9M94,194.318h-.47c-.269.41-.7.8-.767,1.237a.822.822,0,0,0,1.039.954c.39-.1.93-.613.941-.955.013-.4-.473-.823-.743-1.236m-29.108-4.3-.477-.008c-.271.405-.768.821-.749,1.212.018.367.636,1.028.894.985a1.545,1.545,0,0,0,1.08-.958c.063-.355-.475-.816-.748-1.231M54.7,198.894l.478-.006c.263-.413.775-.865.719-1.228a1.458,1.458,0,0,0-1.045-.927c-.284-.033-.9.6-.906.941-.01.4.481.813.755,1.22m19.384-.008.476.01c.276-.406.769-.816.762-1.216a1.43,1.43,0,0,0-.918-.978.831.831,0,0,0-1.062.935c.051.439.481.834.742,1.249M85.4,190.225c.266-.4.8-.864.73-1.2-.082-.4-.676-.705-1.048-1.051-.325.35-.845.659-.931,1.061-.133.619.319,1.013,1.249,1.191" transform="translate(-40.896 -146.959)" fill="#161615"/>
        <path id="Trazado_715863" data-name="Trazado 715863" d="M69.187,129.135H52.1V114.154h17.09ZM54.2,126.909h12.85v-10.59H54.2Z" transform="translate(-41.207 -90.292)" fill="#161615"/>
        <rect id="Rectángulo_353624" data-name="Rectángulo 353624" width="21.464" height="2.066" transform="translate(34.555 34.582)" fill="#161615"/>
        <path id="Trazado_715864" data-name="Trazado 715864" d="M146.448,165.148v2.071c-2.122.444-2.443.125-2.013-2.071h2.013Z" transform="translate(-114.113 -130.627)" fill="#161615"/>
        <path id="Trazado_715865" data-name="Trazado 715865" d="M249.314,226.562c.27.413.756.832.743,1.236-.011.343-.55.859-.941.956a.822.822,0,0,1-1.039-.954c.064-.44.5-.826.767-1.237h.47" transform="translate(-196.213 -179.204)" fill="#b20d0d"/>
        <path id="Trazado_715866" data-name="Trazado 715866" d="M110.143,205.96c.273.414.811.876.748,1.231a1.547,1.547,0,0,1-1.08.958c-.257.043-.875-.618-.894-.985-.02-.391.477-.807.749-1.212l.477.008" transform="translate(-86.15 -162.902)" fill="#b20d0d"/>
        <path id="Trazado_715867" data-name="Trazado 715867" d="M63.17,240.274c-.274-.407-.764-.82-.755-1.22.008-.345.622-.974.906-.941a1.458,1.458,0,0,1,1.045.927c.057.363-.456.815-.719,1.227l-.478.007" transform="translate(-49.369 -188.34)" fill="#b20d0d"/>
        <path id="Trazado_715868" data-name="Trazado 715868" d="M155.922,240.033c-.261-.415-.691-.81-.742-1.249a.831.831,0,0,1,1.062-.935,1.43,1.43,0,0,1,.918.978c.008.4-.486.81-.761,1.216l-.476-.01" transform="translate(-122.737 -188.107)" fill="#b20d0d"/>
        <path id="Trazado_715869" data-name="Trazado 715869" d="M208.076,198.461c-.931-.179-1.382-.573-1.249-1.191.086-.4.606-.71.931-1.061.372.346.966.647,1.048,1.051.068.337-.464.8-.73,1.2" transform="translate(-163.576 -155.196)" fill="#b20d0d"/>
        <path id="Trazado_715870" data-name="Trazado 715870" d="M62.169,124.51h12.85V135.1H62.169Zm2.151,4.14c.429.019.8.048,1.174.049,1.913,0,3.826,0,5.74,0,1.838,0,1.839,0,1.7-1.819a.838.838,0,0,0-.113-.259h-8.5Zm.024,4.278H72.9v-1.986H64.344Z" transform="translate(-49.174 -98.484)" fill="#06d1d1"/>
        <path id="Trazado_715871" data-name="Trazado 715871" d="M72.459,136.646v-2.027h8.5a.831.831,0,0,1,.113.259c.144,1.819.142,1.819-1.7,1.819-1.913,0-3.826,0-5.74,0-.372,0-.745-.03-1.174-.049" transform="translate(-57.313 -106.48)" fill="#161615"/>
        <rect id="Rectángulo_353629" data-name="Rectángulo 353629" width="8.555" height="1.986" transform="translate(15.17 32.459)" fill="#161615"/>
        <path id="Trazado_715872" data-name="Trazado 715872" d="M2.111,57.238H23.994a22.485,22.485,0,0,0,10.4,2.286c5.714-.228,8.8-2.286,8.8-2.286H65.022V63.3s.572,1.942-4.571,1.942H3.651s-2.514-.8-2.171-4.228S2.111,57.238,2.111,57.238Z" transform="translate(0.206 0.241)" fill="#a9a3a3"/>
        <rect id="Rectángulo_353628" data-name="Rectángulo 353628" width="2.025" height="1.972" transform="translate(10.859 60.509)" fill="#161615"/>
        <rect id="Rectángulo_353627" data-name="Rectángulo 353627" width="2.01" height="2.022" transform="translate(6.524 60.484)" fill="#161615"/>
        <rect id="Rectángulo_353626" data-name="Rectángulo 353626" width="2.053" height="1.988" transform="translate(15.148 60.492)" fill="#161615"/>
        <rect id="Rectángulo_353625" data-name="Rectángulo 353625" width="8.476" height="2.023" transform="translate(51.87 60.467)" fill="#161615"/>
        <path id="Trazado_715855" data-name="Trazado 715855" d="M25.844,15.1a15.155,15.155,0,0,1,30.311,0c.847,0,1.7,0,2.561,0,3.843.018,6.033,2.23,6.036,6.136q.011,16.72,0,33.44v1.362h2.241a61.293,61.293,0,0,1-.4,7.041c-.362,2.162-2.529,3.652-4.809,3.811-.347.024-.7.015-1.045.015H6.194C2.122,66.909,0,64.8,0,60.754c0-1.522,0-3.043,0-4.644H2.138V54.723q0-16.72,0-33.44a5.812,5.812,0,0,1,2.258-5.117A6.105,6.105,0,0,1,8.132,15.1q8.255.005,16.511,0h1.2M58.257,58.352V21.565a24.587,24.587,0,0,1-2.538-.019c-.827-.09-1.2.27-1.587.954a14.688,14.688,0,0,1-11.023,7.585,14.94,14.94,0,0,1-15.322-7.718,1.329,1.329,0,0,0-1.362-.82c-5.608.03-11.216.016-16.824.019-.3,0-.606.035-.938.056V56.085H9.87c4.737,0,9.475.011,14.212-.012a3.293,3.293,0,0,1,1.893.628,7.738,7.738,0,0,0,3.17,1.39,71.746,71.746,0,0,0,7.816.184,6.541,6.541,0,0,0,4.105-1.6,2.69,2.69,0,0,1,1.565-.569c4.11-.046,8.22-.025,12.33-.025h1.049v2.244h-1.2c-3.8,0-7.594-.02-11.39.023a3.167,3.167,0,0,0-1.6.513,8.814,8.814,0,0,1-4.885,1.574q-3.5.009-7,0a8.71,8.71,0,0,1-4.877-1.594,2.911,2.911,0,0,0-1.506-.492c-6.758-.032-13.515-.022-20.273-.019-.337,0-.674.03-1.161.053.061,1.35.048,2.635.2,3.9a2.9,2.9,0,0,0,2.374,2.336,9.43,9.43,0,0,0,1.557.126q27.222.009,54.444,0a7.877,7.877,0,0,0,1.557-.132,2.728,2.728,0,0,0,2.3-2.162,31.619,31.619,0,0,0,.253-4.1ZM28.791,11.222c-1.707,3.624-.408,9.385,2.794,12.752,3.266,3.435,8.777,5.046,12.359,3.573-.048-.185-.086-.383-.149-.572-1.064-3.188-2.179-6.36-3.17-9.571a2.875,2.875,0,0,0-1.874-2.079c-3.323-1.3-6.6-2.709-9.96-4.1M50.617,6.6a5.025,5.025,0,0,1-.609,1.019c-2.3,2.327-4.593,4.651-6.938,6.928-.621.6-.892,1.1-.471,1.959a20.342,20.342,0,0,1,.858,2.559q1.308,3.93,2.626,7.861A12.823,12.823,0,0,0,50.617,6.6M29.573,9.183c3.439,1.432,6.811,2.8,10.15,4.251a1.33,1.33,0,0,0,1.781-.321c2.319-2.4,4.707-4.74,7.066-7.1.236-.236.449-.5.671-.743A12.815,12.815,0,0,0,29.573,9.183M6.468,56.037V54.68q0-16.3,0-32.593c0-1.874.779-2.647,2.669-2.648q8.1-.005,16.192,0h1.148l-.431-2.081c-.361-.02-.668-.053-.976-.053-5.641,0-11.283.053-16.923-.03a3.531,3.531,0,0,0-3.823,3.86c.083,11.247.036,22.495.036,33.742v1.161Zm56.062-.011V54.847q0-11.281,0-22.561c0-3.9.011-7.8-.008-11.7a3.112,3.112,0,0,0-3.176-3.272c-.625-.028-1.253-.013-1.88-.014-1.693,0-1.969.324-1.745,2.136.4,0,.819.026,1.231,0,2.6-.192,3.524.585,3.5,3.524-.08,10.618-.031,21.238-.031,31.857v1.211Z" transform="translate(0 0)" fill="#161615"/>
      </g>
    </g>
  </g>
</svg>
