<svg id="Grupo_1003468" data-name="Grupo 1003468" xmlns="http://www.w3.org/2000/svg" xmlns:xlink="http://www.w3.org/1999/xlink" width="111.64" height="123.63" viewBox="0 0 111.64 123.63">
  <defs>
    <clipPath id="clip-path">
      <rect id="Rectángulo_353402" data-name="Rectángulo 353402" width="111.64" height="123.63" fill="none"/>
    </clipPath>
  </defs>
  <g id="Grupo_1003467" data-name="Grupo 1003467" clip-path="url(#clip-path)">
    <path id="Trazado_715328" data-name="Trazado 715328" d="M0,60.829Q0,33.92,0,7.011C0,2.454,2.44,0,6.972,0Q49.5,0,92.036,0c4,0,6.142,1.7,6.917,5.6.132.664.456.577.867.576,1.761,0,3.523-.012,5.284,0a6.193,6.193,0,0,1,6.529,6.55q.013,29.677.006,59.354,0,19.184,0,38.367c0,4.539-2.448,6.993-6.974,7-1.59,0-3.18.015-4.769-.008-.571-.008-.844.043-.961.769a6.121,6.121,0,0,1-6.44,5.417q-41.887.012-83.774,0c-5.236,0-8.712-3.494-8.714-8.722Q-.008,87.866,0,60.829M4.168,11.845q0,2.449,0,4.9,0,9.14,0,18.281,0,2.45,0,4.9,0,9.14,0,18.281,0,2.449,0,4.9,0,9.14,0,18.281,0,2.449,0,4.9,0,9.14,0,18.281V108.1l3.053-.958,18.3-.044,4.9.005,18.3-.005,4.9.005,18.3-.005,4.9.005c5.266.013,10.532.041,15.8.03a2.011,2.011,0,0,0,2.236-2.234c.01-5.26-.017-10.521-.03-15.782q0-2.449,0-4.9,0-9.14,0-18.281,0-2.45,0-4.9,0-9.14,0-18.281,0-2.45,0-4.9,0-9.14,0-18.281,0-2.449,0-4.9c.014-2.814.056-5.628.03-8.441a1.962,1.962,0,0,0-2.089-2.1c-2.133-.032-4.267.015-6.4.029l-4.9,0-18.3,0-4.9,0-18.3,0-4.9,0-18.3,0-4.9,0c-1.832-.013-3.664-.054-5.5-.031A2.018,2.018,0,0,0,4.137,6.355c-.023,1.83.017,3.66.031,5.491m90.67,99.107a9.972,9.972,0,0,1-3.439.329q-32.222,0-64.445,0c-6.187,0-12.373-.021-18.56.009a4.077,4.077,0,0,0-3.752,6.037,4.339,4.339,0,0,0,4.21,2.182q36.6-.031,73.21-.014c3.48,0,6.96.01,10.44,0,1.352-.006,2.263-.611,2.31-1.745.093-2.217.027-4.441.027-6.789m12.674-49.006v-30q0-9.593,0-19.186c0-1.694-.749-2.437-2.429-2.451-1.762-.015-3.523.027-5.285-.01-.617-.012-.814.169-.8.791a36.42,36.42,0,0,1-.02,4.118c-.093,1.114.3,1.328,1.339,1.3,3.119-.07,3.094-.022,3.088,3.1,0,.749-.121,1.1-.969,1.013-.808-.082-1.635.035-2.446-.033-.777-.065-1.036.151-1.009.975.067,2.015.081,4.036,0,6.05-.042,1.007.24,1.276,1.254,1.259,3.4-.06,3.386-.018,3.179,3.4-.034.57-.194.737-.744.714-.944-.038-1.894.039-2.834-.027-.719-.05-.845.24-.835.877.032,2.145.055,4.294-.018,6.437-.029.863.3,1,1.033.95.9-.056,1.8.007,2.706-.022.482-.015.636.128.684.639.321,3.485.336,3.483-3.11,3.49a3.6,3.6,0,0,1-.515,0c-.628-.092-.807.176-.787.788.042,1.329,0,2.661.015,3.991.01,1.109-.369,2.553.184,3.234.583.718,2.088.159,3.188.226.171.01.344,0,.515,0,.29-.008.505.066.5.414-.028,1.194.235,2.508-.2,3.533-.241.572-1.66.114-2.545.186a2.8,2.8,0,0,1-.644,0c-.76-.115-1.043.123-1.016.958.066,2.015.076,4.036-.01,6.05-.043,1.011.246,1.275,1.255,1.257,3.285-.06,3.259-.018,3.173,3.275-.018.707-.241.868-.887.832-.9-.05-1.805.017-2.706-.023-.577-.025-.838.093-.826.758.041,2.232.048,4.465,0,6.7-.017.745.294.836.907.809.943-.041,1.891,0,2.835-.026.484-.015.636.133.683.642.323,3.493.338,3.492-3.112,3.5a2.4,2.4,0,0,1-.386,0c-.742-.12-.931.2-.917.92.043,2.059.078,4.123-.02,6.179-.049,1.026.314,1.171,1.223,1.16,3.3-.042,3.279-.009,3.2,3.243-.015.646-.143.919-.847.871-.9-.062-1.806.026-2.7-.028-.673-.041-.877.174-.862.854.043,2.059.08,4.123-.011,6.179-.046,1.044.3,1.255,1.276,1.238,3.273-.056,3.246-.018,3.155,3.293-.02.717-.261.857-.9.824-.9-.046-1.805.021-2.706-.02-.593-.027-.834.132-.816.775q.065,2.315,0,4.634c-.017.619.172.809.792.793,1.589-.041,3.179-.013,4.769-.014,2.37,0,2.96-.59,2.96-2.962q0-24.207,0-48.415" transform="translate(0 0)"/>
    <path id="Trazado_715329" data-name="Trazado 715329" d="M101.433,288.726c0,2.348.066,4.571-.027,6.789-.048,1.134-.958,1.739-2.31,1.745-3.48.015-6.96,0-10.44,0q-36.6,0-73.21.014a4.339,4.339,0,0,1-4.21-2.182,4.077,4.077,0,0,1,3.753-6.037c6.187-.03,12.373-.01,18.56-.009q32.223,0,64.445,0a9.974,9.974,0,0,0,3.439-.329" transform="translate(-6.595 -177.774)" fill="#5484b1"/>
    <path id="Trazado_715330" data-name="Trazado 715330" d="M265.961,78.443q0,24.207,0,48.415c0,2.373-.59,2.96-2.96,2.962-1.59,0-3.18-.027-4.769.014-.621.016-.809-.174-.792-.793q.062-2.316,0-4.634c-.018-.644.223-.8.816-.775.9.041,1.806-.026,2.706.02.635.033.876-.107.9-.824.091-3.311.118-3.349-3.155-3.292-.978.017-1.323-.194-1.276-1.238.091-2.056.054-4.119.011-6.179-.015-.68.189-.895.862-.854.9.055,1.807-.033,2.7.028.7.048.833-.226.847-.871.074-3.252.093-3.285-3.2-3.243-.908.012-1.272-.134-1.223-1.16.1-2.056.063-4.119.02-6.179-.015-.716.175-1.04.917-.92a2.394,2.394,0,0,0,.386,0c3.451-.01,3.435-.009,3.112-3.5-.047-.509-.2-.657-.683-.642-.945.03-1.892-.016-2.835.026-.612.027-.924-.064-.906-.809.051-2.231.043-4.464,0-6.7-.012-.664.249-.783.826-.758.9.039,1.806-.027,2.706.023.646.036.869-.125.887-.832.086-3.293.111-3.335-3.173-3.275-1.01.018-1.3-.246-1.255-1.257.086-2.014.077-4.035.01-6.05-.027-.835.256-1.073,1.016-.958a2.794,2.794,0,0,0,.644,0c.885-.073,2.3.386,2.545-.186.431-1.025.168-2.339.2-3.533.008-.347-.207-.422-.5-.414-.172.005-.344.011-.515,0-1.1-.068-2.6.491-3.188-.226-.552-.681-.173-2.125-.184-3.234-.012-1.33.026-2.662-.015-3.991-.02-.612.159-.88.787-.788a3.6,3.6,0,0,0,.515,0c3.446-.007,3.431,0,3.11-3.49-.047-.511-.2-.654-.684-.639-.9.028-1.807-.035-2.706.022-.734.046-1.063-.087-1.033-.95.073-2.144.05-4.292.018-6.437-.009-.637.116-.928.835-.877.94.066,1.89-.011,2.834.027.55.022.71-.144.744-.714.207-3.416.224-3.458-3.179-3.4-1.013.018-1.3-.251-1.253-1.259.083-2.014.07-4.035,0-6.05-.027-.824.232-1.039,1.009-.975.811.068,1.638-.049,2.446.033.847.086.967-.264.969-1.013.006-3.121.03-3.168-3.089-3.1-1.043.023-1.431-.191-1.339-1.3a36.433,36.433,0,0,0,.02-4.118c-.018-.623.179-.8.8-.791,1.761.036,3.523-.005,5.285.01,1.68.015,2.426.757,2.429,2.451q.017,9.593,0,19.186v30" transform="translate(-158.448 -16.497)" fill="#abffff"/>
    <path id="Trazado_715331" data-name="Trazado 715331" d="M157.862,212.743l-18.3,0c.018-.543.461-.8.784-1.124,1.962-1.974,3.939-3.935,5.9-5.909.324-.326.761-.585.791-1.123,2.652-.015,5.3-.036,7.957-.042,3.239-.008,3.214,0,3.146-3.206-.015-.729-.218-.947-.943-.932-1.753.036-3.507-.012-5.261-.025.02-.543.461-.8.785-1.125q13.455-13.453,26.921-26.894c.324-.324.583-.765,1.126-.783l0,18.281c-.539.029-.8.467-1.123.79q-10.5,10.476-20.989,20.967c-.324.324-.762.584-.791,1.122" transform="translate(-85.932 -105.648)" fill="#598bbb"/>
    <path id="Trazado_715332" data-name="Trazado 715332" d="M10.846,41.693q0-9.14,0-18.281c.436-.01.673-.335.941-.6q5.526-5.516,11.047-11.035c.268-.268.593-.5.6-.94l18.3,0c-.033.592-.526.864-.879,1.217Q31.987,20.933,23.1,29.809c-.382.382-.92.673-.953,1.317-.6.26-1.618.113-1.283,1.3-.6.007-.878.5-1.232.848-2.558,2.54-5.1,5.094-7.659,7.635-.325.324-.583.767-1.127.785" transform="translate(-6.678 -6.668)" fill="#598bbb"/>
    <path id="Trazado_715333" data-name="Trazado 715333" d="M163.42,111.264q0,9.141-.005,18.281c-.54.03-.8.469-1.126.794q-15.911,15.883-31.811,31.778c-.325.325-.764.586-.794,1.125l-18.3.005c1.077-1.869,2.916-3.035,4.284-4.634.4-.471,1.05-.762,1.129-1.482.3-.012.6-.03.9-.036q22.82-.5,33.6-20.6a36.188,36.188,0,0,0,3.943-17.761c.544-.017.806-.454,1.132-.778,1.979-1.964,3.945-3.942,5.925-5.905.326-.324.583-.766,1.127-.785" transform="translate(-68.581 -68.507)" fill="#598bbb"/>
    <path id="Trazado_715334" data-name="Trazado 715334" d="M74.254,10.833l18.3,0c-.018.542-.459.8-.782,1.122q-3.981,4-7.975,7.981c-.323.324-.759.585-.781,1.124a39.989,39.989,0,0,0-12.076,2.331c-2.457.918-2.466.893-1.361,3.319a3.585,3.585,0,0,1,.259.587c.188.757.6.744,1.229.477a25.055,25.055,0,0,1,6.261-1.885c.067.556-.344.844-.671,1.171Q71.212,32.5,65.762,37.939c-.3.3-.553.672-1.047.666-.6-2.872-1.233-5.737-1.782-8.619-.15-.789-.43-.942-1.191-.8-2.009.369-4.036.645-6.055.958,0-.653.54-.95.922-1.332q8.374-8.386,16.76-16.76c.354-.354.842-.629.886-1.215" transform="translate(-34.288 -6.668)" fill="#598bbb"/>
    <path id="Trazado_715335" data-name="Trazado 715335" d="M37.093,240.718l-18.3.044c.025-.645.563-.936.944-1.317Q30.366,228.8,41.009,218.175c.36-.36.668-.77,1-1.157a41.609,41.609,0,0,0,13.13,4.747c.078.543-.271.864-.61,1.2-1.156,1.145-2.328,2.275-3.445,3.457-.574.608-1.383,1.036-1.616,1.933-2.652.015-5.3.038-7.957.045-3.239.008-3.214,0-3.146,3.206.016.729.219.947.944.932,1.752-.036,3.507.012,5.26.025-.02.542-.462.8-.785,1.124-1.962,1.974-3.938,3.934-5.9,5.909-.324.325-.762.584-.792,1.122" transform="translate(-11.57 -133.622)" fill="#598bbb"/>
    <path id="Trazado_715336" data-name="Trazado 715336" d="M10.846,220.529q0-9.14,0-18.281c.586-.043.859-.529,1.213-.88q6.094-6.067,12.177-12.146c.353-.352.624-.841,1.212-.88a44.608,44.608,0,0,0,8.582,8.953c-.014.59-.475.89-.832,1.246q-10.608,10.607-21.227,21.2c-.325.324-.583.767-1.128.785" transform="translate(-6.678 -115.966)" fill="#598bbb"/>
    <path id="Trazado_715337" data-name="Trazado 715337" d="M199.158,10.775c2.134-.014,4.268-.061,6.4-.029a1.962,1.962,0,0,1,2.089,2.1c.027,2.813-.016,5.627-.03,8.441-.587.043-.86.531-1.215.884q-6.471,6.444-12.931,12.9c-.385.384-.7.9-1.337.921a44.224,44.224,0,0,0-8.961-8.574c.04-.586.528-.857.88-1.209q7.106-7.119,14.224-14.227c.352-.352.837-.626.88-1.21" transform="translate(-112.784 -6.61)" fill="#598bbb"/>
    <path id="Trazado_715338" data-name="Trazado 715338" d="M149.082,10.833l18.3,0c-.032.59-.523.861-.875,1.213q-6.164,6.18-12.343,12.346a3.448,3.448,0,0,0-.983,1.166A40.779,40.779,0,0,0,139.543,21.3c-.095-.662.4-.992.786-1.378q3.981-3.985,7.966-7.967c.323-.324.759-.583.787-1.119" transform="translate(-85.912 -6.668)" fill="#598bbb"/>
    <path id="Trazado_715339" data-name="Trazado 715339" d="M10.846,102.721q0-9.14,0-18.281a1.119,1.119,0,0,0,.764-.422q4.9-4.9,9.81-9.8a1.165,1.165,0,0,0,.467-.874L27.448,72.3c-.058.213-.057.312-.1.372A37.651,37.651,0,0,0,19.02,95.253c-.541.023-.8.461-1.127.784-1.978,1.962-3.942,3.938-5.92,5.9-.325.322-.583.765-1.126.784" transform="translate(-6.678 -44.517)" fill="#598bbb"/>
    <path id="Trazado_715340" data-name="Trazado 715340" d="M225.3,50.945q0,9.14,0,18.281c-.537.029-.8.465-1.12.787q-3.135,3.111-6.253,6.24c-.36.36-.684.786-1.287.7a41.092,41.092,0,0,0-4.752-13.119c.358-.3.739-.581,1.07-.91q5.569-5.546,11.128-11.1c.354-.352.626-.845,1.219-.878" transform="translate(-130.459 -31.368)" fill="#598bbb"/>
    <path id="Trazado_715341" data-name="Trazado 715341" d="M10.846,170.506q0-9.14,0-18.281c.538-.028.8-.466,1.123-.789q3.007-2.983,6-5.984c.362-.362.689-.784,1.293-.7a40.76,40.76,0,0,0,4.262,13.624,3.028,3.028,0,0,0-1.079.892q-5.194,5.175-10.382,10.356c-.354.352-.625.844-1.217.877" transform="translate(-6.678 -89.122)" fill="#598bbb"/>
    <path id="Trazado_715342" data-name="Trazado 715342" d="M217.948,231.9c.013,5.26.04,10.521.03,15.782a2.011,2.011,0,0,1-2.236,2.234c-5.266.01-10.532-.017-15.8-.031.007-.493.4-.739.692-1.035q8.133-8.134,16.275-16.259c.3-.3.543-.684,1.036-.691" transform="translate(-123.11 -142.788)" fill="#598bbb"/>
    <path id="Trazado_715343" data-name="Trazado 715343" d="M159.005,192.532c.03-.54.469-.8.795-1.125q15.9-15.895,31.81-31.777c.326-.325.586-.764,1.126-.794l0,4.9c-.544.018-.8.46-1.126.784q-13.467,13.44-26.921,26.893c-.324.324-.765.583-.785,1.125l-4.9,0" transform="translate(-97.903 -97.799)" fill="#5484b1"/>
    <path id="Trazado_715344" data-name="Trazado 715344" d="M97.48,265.626l-18.3.005c.018-.543.461-.8.784-1.124,1.962-1.975,3.939-3.935,5.9-5.909.324-.325.761-.585.791-1.123l18.3,0c-.02.542-.462.8-.785,1.124-1.962,1.974-3.938,3.934-5.9,5.909-.324.325-.762.584-.792,1.122" transform="translate(-48.753 -158.531)" fill="#598bbb"/>
    <path id="Trazado_715345" data-name="Trazado 715345" d="M10.846,234.874c.545-.019.8-.461,1.128-.785q10.62-10.6,21.227-21.2c.357-.357.818-.656.832-1.246l3.084,2.067c-.332.387-.64.8-1,1.157Q25.483,225.5,14.843,236.133c-.381.381-.919.672-.944,1.317l-3.053.958Z" transform="translate(-6.678 -130.31)" fill="#5484b1"/>
    <path id="Trazado_715346" data-name="Trazado 715346" d="M210.091,224.055c-.494.008-.74.4-1.036.691q-8.142,8.125-16.275,16.258c-.3.3-.684.542-.692,1.035l-4.9,0c.03-.538.467-.8.791-1.122q10.488-10.49,20.989-20.967c.325-.324.584-.761,1.123-.79q0,2.449,0,4.9" transform="translate(-115.252 -134.939)" fill="#5484b1"/>
    <path id="Trazado_715347" data-name="Trazado 715347" d="M64.754,10.833c-.044.587-.532.861-.886,1.215q-8.375,8.385-16.76,16.76c-.382.382-.919.679-.921,1.332a48.494,48.494,0,0,1-5.929.984c.032-.643.571-.935.953-1.317q8.873-8.887,17.76-17.762c.353-.353.846-.625.878-1.217l4.9,0" transform="translate(-24.788 -6.668)" fill="#5484b1"/>
    <path id="Trazado_715348" data-name="Trazado 715348" d="M175.052,25.554a3.44,3.44,0,0,1,.983-1.166q6.168-6.176,12.343-12.346c.352-.352.843-.623.875-1.213l4.9,0c-.043.584-.528.857-.88,1.21q-7.107,7.119-14.224,14.227c-.351.352-.84.623-.88,1.209l-3.121-1.924" transform="translate(-107.783 -6.668)" fill="#5484b1"/>
    <path id="Trazado_715349" data-name="Trazado 715349" d="M221.98,43.1c-.593.032-.864.526-1.219.878q-5.571,5.543-11.128,11.1c-.331.329-.712.608-1.07.91l-2.07-3.081c.641-.022.952-.538,1.337-.921q6.47-6.446,12.931-12.9c.354-.353.628-.84,1.214-.884q0,2.449.005,4.9" transform="translate(-127.142 -23.519)" fill="#5484b1"/>
    <path id="Trazado_715350" data-name="Trazado 715350" d="M10.846,192.355c.592-.033.863-.525,1.217-.877q5.2-5.17,10.382-10.356a3.028,3.028,0,0,1,1.079-.892l1.928,3.117c-.588.039-.859.528-1.212.88q-6.1,6.067-12.177,12.146c-.354.352-.627.838-1.213.88q0-2.449,0-4.9" transform="translate(-6.678 -110.971)" fill="#5484b1"/>
    <path id="Trazado_715351" data-name="Trazado 715351" d="M23.441,10.833c-.01.435-.335.672-.6.94q-5.522,5.52-11.047,11.035c-.269.268-.506.593-.941.6q0-2.45,0-4.9a1.764,1.764,0,0,0,.569-.246q3.453-3.419,6.876-6.869a1.76,1.76,0,0,0,.246-.568l4.9,0" transform="translate(-6.678 -6.668)" fill="#5484b1"/>
    <path id="Trazado_715352" data-name="Trazado 715352" d="M21.889,70.095a1.167,1.167,0,0,1-.467.874q-4.906,4.9-9.81,9.8a1.121,1.121,0,0,1-.764.422q0-2.449,0-4.9c.545-.019.8-.462,1.127-.785,2.557-2.541,5.1-5.1,7.659-7.636.355-.352.633-.841,1.232-.848.136.617.233,1.245.42,1.846.134.431-.158,1.1.6,1.225" transform="translate(-6.678 -41.267)" fill="#5484b1"/>
    <path id="Trazado_715353" data-name="Trazado 715353" d="M141.244,10.833c-.028.536-.465.8-.787,1.119q-3.976,3.99-7.966,7.967c-.385.385-.881.716-.786,1.378l-4.9-.24c.022-.539.458-.8.781-1.124q3.982-4,7.975-7.981c.322-.324.764-.581.782-1.122Z" transform="translate(-78.075 -6.668)" fill="#5484b1"/>
    <path id="Trazado_715354" data-name="Trazado 715354" d="M224.246,106.242c.6.087.927-.339,1.287-.7q3.124-3.122,6.253-6.24c.325-.322.583-.759,1.12-.787q0,2.45.005,4.9c-.545.019-.8.462-1.127.785-1.98,1.963-3.946,3.941-5.925,5.9-.327.324-.589.761-1.132.778l-.481-4.641" transform="translate(-138.073 -60.658)" fill="#5484b1"/>
    <path id="Trazado_715355" data-name="Trazado 715355" d="M19.262,136.926c-.6-.089-.931.334-1.293.7q-3,2.994-6,5.984c-.325.323-.584.76-1.123.789q0-2.45,0-4.9c.544-.018.8-.461,1.126-.784,1.978-1.962,3.942-3.938,5.92-5.9.326-.323.586-.761,1.127-.784l.242,4.9" transform="translate(-6.678 -81.292)" fill="#5484b1"/>
    <path id="Trazado_715356" data-name="Trazado 715356" d="M78.8,257.475c-.03.538-.467.8-.791,1.123-1.963,1.974-3.939,3.935-5.9,5.909-.323.325-.766.581-.784,1.124l-4.9-.005c.03-.538.468-.8.792-1.122,1.962-1.974,3.938-3.934,5.9-5.908.323-.325.765-.582.785-1.124l4.9,0" transform="translate(-40.896 -158.531)" fill="#5484b1"/>
    <path id="Trazado_715357" data-name="Trazado 715357" d="M126.8,265.626c.03-.538.468-.8.792-1.122,1.962-1.974,3.938-3.934,5.9-5.909.323-.325.765-.582.785-1.124l4.9,0c-.029.538-.467.8-.791,1.123-1.963,1.974-3.939,3.935-5.9,5.909-.323.325-.766.581-.784,1.124l-4.9-.005" transform="translate(-78.074 -158.531)" fill="#5484b1"/>
    <path id="Trazado_715358" data-name="Trazado 715358" d="M18.476,10.769a1.76,1.76,0,0,1-.246.568q-3.423,3.45-6.876,6.869a1.764,1.764,0,0,1-.569.246c-.013-1.83-.054-3.661-.031-5.491a2.018,2.018,0,0,1,2.226-2.224c1.831-.023,3.664.018,5.5.031" transform="translate(-6.617 -6.608)" fill="#598bbb"/>
    <path id="Trazado_715359" data-name="Trazado 715359" d="M104.014,250.733l-4.9,0-18.3,0-4.9,0c-1.754-.014-3.508-.061-5.261-.025-.725.015-.928-.2-.944-.932-.068-3.2-.093-3.2,3.146-3.206,2.652-.006,5.3-.029,7.956-.044l4.9.005,18.3-.005,4.9.005c1.754.014,3.508.061,5.261.025.725-.015.928.2.943.932.068,3.2.093,3.2-3.146,3.206-2.652.006-5.3.028-7.957.043" transform="translate(-42.907 -151.789)"/>
    <path id="Trazado_715360" data-name="Trazado 715360" d="M32.358,78.689l-.242-4.9A37.655,37.655,0,0,1,40.439,51.21c.048-.06.047-.159.1-.372l-5.559,1.044c-.763-.126-.471-.8-.6-1.225-.187-.6-.284-1.23-.42-1.846-.335-1.185.681-1.038,1.284-1.3a48.432,48.432,0,0,0,5.929-.984c2.019-.313,4.046-.589,6.055-.958.761-.139,1.041.015,1.191.8.549,2.881,1.181,5.747,1.782,8.619a13.745,13.745,0,0,0,.265,1.616c.241.848,0,1.21-.909,1.3a21,21,0,0,0-2.475.523c-.8-.129-.6-.847-.71-1.318-.382-1.638-.682-3.295-1.043-5.087a5.929,5.929,0,0,0-.546.464c-.531.615-1.08,1.217-1.572,1.861A30.75,30.75,0,0,0,37,68.095l.025-.006-.127.265a22.861,22.861,0,0,0-.571,5.442,30.629,30.629,0,0,0,3.445,15.431A10.54,10.54,0,0,0,41.4,92.093a29.046,29.046,0,0,0,8.736,9.288,13.761,13.761,0,0,0,3.38,2.1A30.16,30.16,0,0,0,67.987,107.5a18.954,18.954,0,0,0,5.157-.213,9.975,9.975,0,0,0,1.152-.06A32.689,32.689,0,0,0,95.224,95.046a30.868,30.868,0,0,0,6.824-16.62,18.564,18.564,0,0,0,.208-5.149,29.647,29.647,0,0,0-4.041-14.538,13.332,13.332,0,0,0-2.084-3.326,28.556,28.556,0,0,0-9.294-8.737A11.263,11.263,0,0,0,84,45.079a2.852,2.852,0,0,1-.6-.175,28.771,28.771,0,0,0-14.9-3.27,20.551,20.551,0,0,0-5.692.639,25.071,25.071,0,0,0-6.261,1.885c-.631.267-1.041.281-1.229-.477a3.553,3.553,0,0,0-.258-.587c-1.105-2.426-1.1-2.4,1.361-3.319A39.977,39.977,0,0,1,68.5,37.444l4.9.24a40.78,40.78,0,0,1,13.638,4.257l3.121,1.924a44.216,44.216,0,0,1,8.961,8.574l2.07,3.08a41.093,41.093,0,0,1,4.752,13.119q.24,2.32.48,4.641a36.2,36.2,0,0,1-3.943,17.761q-10.736,20.07-33.6,20.6c-.3.007-.6.023-.9.036l-4.646-.479a41.616,41.616,0,0,1-13.13-4.747l-3.084-2.067a44.6,44.6,0,0,1-8.582-8.953L36.62,92.313a40.761,40.761,0,0,1-4.262-13.624" transform="translate(-19.774 -23.055)"/>
    <path id="Trazado_715361" data-name="Trazado 715361" d="M104.293,229.373l4.646.479c-.078.719-.725,1.01-1.129,1.481-1.368,1.6-3.207,2.765-4.284,4.634l-4.9-.005c.233-.9,1.041-1.325,1.616-1.933,1.117-1.182,2.289-2.312,3.445-3.457.339-.336.688-.657.61-1.2" transform="translate(-60.724 -141.23)" fill="#5484b1"/>
    <path id="Trazado_715362" data-name="Trazado 715362" d="M53.814,65.121A21.072,21.072,0,0,1,56.29,64.6c.9-.086,1.149-.448.909-1.3a13.648,13.648,0,0,1-.265-1.615c.494.006.75-.37,1.047-.666q5.45-5.437,10.894-10.881c.327-.327.738-.615.671-1.171a20.534,20.534,0,0,1,5.692-.639c-.036.589-.524.863-.877,1.217q-9.044,9.053-18.1,18.1c-.353.353-.844.625-.877,1.215-2,.1-2,.1-2.106,2.1-.541.019-.8.458-1.122.78q-4,3.973-7.98,7.958c-.324.322-.582.759-1.118.791a22.86,22.86,0,0,1,.571-5.442l.127-.265-.024.006a1,1,0,0,0,.884-.417q4.6-4.627,9.2-9.252" transform="translate(-26.506 -29.75)" fill="#5484b1"/>
    <path id="Trazado_715363" data-name="Trazado 715363" d="M75.154,68.855c.033-.59.525-.863.877-1.215q9.043-9.053,18.1-18.1c.353-.353.841-.628.877-1.216a28.768,28.768,0,0,1,14.9,3.27,2.882,2.882,0,0,0,.6.175,3.123,3.123,0,0,0-.654.388q-3.913,3.879-7.8,7.786a2.485,2.485,0,0,0-.342.661c-3.685.015-7.371.056-11.055.028-.827-.006-1.1.2-1.079,1.06.061,2.1,0,4.2.029,6.293.008.606-.078.929-.817.921-4.542-.044-9.085-.042-13.627-.056" transform="translate(-46.274 -29.748)" fill="#598bbb"/>
    <path id="Trazado_715364" data-name="Trazado 715364" d="M102.27,193.454A30.156,30.156,0,0,1,87.8,189.438c.3-.357.584-.737.913-1.068q5.047-5.058,10.1-10.107c.353-.354.841-.628.885-1.215l18.3,0c-.034.589-.524.861-.876,1.213q-6.983,7-13.977,13.98c-.352.353-.84.627-.874,1.215" transform="translate(-54.058 -109.011)" fill="#598bbb"/>
    <path id="Trazado_715365" data-name="Trazado 715365" d="M167.786,144.09a30.868,30.868,0,0,1-6.824,16.62,32.69,32.69,0,0,1-20.928,12.179,9.821,9.821,0,0,1-1.152.06c0-.6.492-.88.845-1.233q6.867-6.877,13.743-13.745c.354-.354.841-.629.885-1.215.811-.015,1.622-.041,2.433-.042,3.024,0,3.032,0,2.969-3.088-.008-.405.262-1-.5-1.076a.979.979,0,0,1,.325-.671q3.714-3.706,7.425-7.418a1.069,1.069,0,0,1,.784-.372" transform="translate(-85.512 -88.719)" fill="#598bbb"/>
    <path id="Trazado_715366" data-name="Trazado 715366" d="M43.047,116.771c.536-.032.794-.469,1.118-.792q4-3.973,7.98-7.958c.324-.322.581-.761,1.122-.78q0,9.14,0,18.281a43.65,43.65,0,0,0-6.771,6.68,30.636,30.636,0,0,1-3.445-15.432" transform="translate(-26.494 -66.031)" fill="#598bbb"/>
    <path id="Trazado_715367" data-name="Trazado 715367" d="M194.176,92.858a29.655,29.655,0,0,1,4.041,14.538c-.592.025-.867.513-1.22.864-2.64,2.622-5.267,5.258-7.905,7.882-.325.323-.583.763-1.124.783q0-9.141,0-18.281c.535-.029.792-.465,1.118-.784q2.552-2.492,5.087-5" transform="translate(-115.735 -57.175)" fill="#598bbb"/>
    <path id="Trazado_715368" data-name="Trazado 715368" d="M65,184.8a29.053,29.053,0,0,1-8.736-9.288c1.193-.668,1.754-2.089,3.09-2.587-.2,1.29.345,1.6,1.617,1.577,4.8-.073,9.6-.007,14.406.007a1.224,1.224,0,0,1-.508.854q-4.447,4.442-8.893,8.886A1.457,1.457,0,0,1,65,184.8" transform="translate(-34.643 -106.472)" fill="#598bbb"/>
    <path id="Trazado_715369" data-name="Trazado 715369" d="M146.09,177.049c-.044.586-.531.861-.885,1.215q-6.866,6.878-13.743,13.745c-.353.354-.84.634-.845,1.233a18.937,18.937,0,0,1-5.157.213c.035-.588.522-.862.874-1.215q6.983-7,13.977-13.98c.352-.352.842-.624.876-1.213l4.9,0" transform="translate(-77.248 -109.011)" fill="#5484b1"/>
    <path id="Trazado_715370" data-name="Trazado 715370" d="M163.734,61.469a28.556,28.556,0,0,1,9.294,8.737,12.994,12.994,0,0,1-4.124,4.212c-.013-1.5-.1-3-.017-4.492.052-.981-.262-1.207-1.212-1.2-3.556.046-7.113,0-10.67-.017.032-.587.528-.848.868-1.209,1.923-2.042,4.077-3.859,5.86-6.035" transform="translate(-96.671 -37.848)" fill="#598bbb"/>
    <path id="Trazado_715371" data-name="Trazado 715371" d="M54.912,81.782q-4.6,4.626-9.2,9.252a1,1,0,0,1-.884.417A30.741,30.741,0,0,1,51.041,77.7c.492-.645,1.041-1.247,1.572-1.862a6.055,6.055,0,0,1,.546-.464c.36,1.792.661,3.449,1.043,5.087.11.472-.091,1.189.71,1.318" transform="translate(-27.603 -46.411)" fill="#598bbb"/>
    <path id="Trazado_715372" data-name="Trazado 715372" d="M79,187.337a1.457,1.457,0,0,0,.977-.551q4.444-4.445,8.893-8.886a1.225,1.225,0,0,0,.508-.854l4.9,0c-.044.586-.532.86-.885,1.215q-5.044,5.061-10.1,10.107c-.33.331-.61.711-.914,1.068a13.767,13.767,0,0,1-3.38-2.1" transform="translate(-48.641 -109.011)" fill="#5484b1"/>
    <path id="Trazado_715373" data-name="Trazado 715373" d="M187.827,140.218c.542-.02.8-.46,1.124-.782,2.639-2.624,5.265-5.26,7.905-7.882.354-.351.628-.839,1.22-.864a18.592,18.592,0,0,1-.208,5.149,1.068,1.068,0,0,0-.784.372q-3.71,3.712-7.424,7.418a.981.981,0,0,0-.325.671c-1.183.273-1.73-.093-1.567-1.4a24.869,24.869,0,0,0,.059-2.685" transform="translate(-115.596 -80.468)" fill="#5484b1"/>
    <path id="Trazado_715374" data-name="Trazado 715374" d="M155.877,58.91c-1.783,2.177-3.938,3.994-5.86,6.035-.34.362-.836.623-.868,1.209l-4.9-.006a2.492,2.492,0,0,1,.342-.661q3.886-3.908,7.8-7.787a3.1,3.1,0,0,1,.654-.388,11.248,11.248,0,0,1,2.835,1.6" transform="translate(-88.815 -35.289)" fill="#5484b1"/>
    <path id="Trazado_715375" data-name="Trazado 715375" d="M56.755,161.773c-1.335.5-1.9,1.919-3.09,2.587a10.55,10.55,0,0,1-1.623-2.867,43.678,43.678,0,0,1,6.771-6.679c.015,1.19.009,2.381.054,3.569.022.583-.146.931-.775.8-1.275-.257-1.4.461-1.3,1.441a8.6,8.6,0,0,1-.032,1.145" transform="translate(-32.043 -95.322)" fill="#5484b1"/>
    <path id="Trazado_715376" data-name="Trazado 715376" d="M187.967,88.417a12.989,12.989,0,0,0,4.124-4.212,13.333,13.333,0,0,1,2.085,3.326q-2.542,2.5-5.087,5c-.327.319-.583.755-1.118.784q0-2.449,0-4.9" transform="translate(-115.735 -51.847)" fill="#5484b1"/>
    <path id="Trazado_715377" data-name="Trazado 715377" d="M44.689,117.19l-.127.265.127-.265" transform="translate(-27.438 -72.156)" fill="#598bbb"/>
    <path id="Trazado_715378" data-name="Trazado 715378" d="M111.76,86.016q0,2.449,0,4.9,0,9.141,0,18.281a24.881,24.881,0,0,1-.059,2.685c-.162,1.3.385,1.671,1.567,1.4.766.075.5.671.5,1.076.062,3.086.054,3.083-2.97,3.088-.811,0-1.622.028-2.432.042l-4.9,0-18.3,0-4.9,0c-4.8-.014-9.605-.079-14.406-.007-1.272.019-1.82-.287-1.617-1.577a8.591,8.591,0,0,0,.032-1.145c-.1-.98.029-1.7,1.3-1.441.629.127.8-.221.775-.8-.045-1.189-.039-2.379-.054-3.569q0-9.141,0-18.281c.1-2,.1-2,2.105-2.1,4.543.014,9.085.012,13.627.056.74.007.825-.316.818-.922-.025-2.1.032-4.2-.03-6.293-.025-.857.252-1.066,1.079-1.06,3.684.027,7.37-.013,11.055-.028l4.9.006c3.556.013,7.114.063,10.67.017.95-.012,1.264.214,1.212,1.2-.08,1.493,0,2.994.017,4.492m-4.166,12.936c0-4.42-.022-8.839.019-13.258.008-.888-.111-1.259-1.155-1.249-6.142.057-12.285.043-18.427.011-.821,0-1.086.19-1.083,1.053Q87,98.9,86.955,112.284c0,.878.285,1.048,1.092,1.044q9.213-.042,18.427.011c.9.006,1.152-.216,1.142-1.129-.05-4.419-.022-8.839-.022-13.259m-24.768,4.063h-.008c0-3.088-.022-6.177.016-9.264.009-.751-.141-1.047-.976-1.036q-5.215.07-10.432-.005c-.867-.013-.956.334-.953,1.053.022,6.176.033,12.352-.009,18.528-.006.906.329,1.035,1.111,1.027,3.391-.036,6.784-.053,10.175.008.96.018,1.11-.328,1.1-1.175-.047-3.044-.018-6.09-.018-9.135" transform="translate(-39.528 -49.446)"/>
    <path id="Trazado_715379" data-name="Trazado 715379" d="M144.047,105.585c0,4.42-.027,8.84.022,13.258.01.913-.246,1.135-1.142,1.129q-9.213-.063-18.427-.012c-.807,0-1.1-.167-1.093-1.044q.047-13.387-.006-26.775c0-.863.262-1.058,1.083-1.053,6.142.032,12.285.047,18.427-.01,1.044-.01,1.163.361,1.154,1.249-.041,4.419-.019,8.839-.019,13.259m-14.5,2c2.128,0,2.128,0,2.128-2.027,0-2.094,0-2.094-2.062-2.094s-2.064,0-2.064,2.092c0,2.029,0,2.029,2,2.029m10.384-2.154c-.235-.709.74-2.112-1.289-2.01-2.833.142-2.84.032-2.847,2.478,0,.889-.326,1.821,1.288,1.737,2.834-.148,2.841-.035,2.848-2.2m-10.3-6.087c2.041,0,2.041,0,2.042-1.471,0-2.649,0-2.649-1.506-2.65-2.619,0-2.619,0-2.62,1.4,0,2.718,0,2.718,2.083,2.718m-.131,16.489c2.175-.006,2.175-.006,2.18-2.216.005-1.927.005-1.927-1.958-1.916-2.168.012-2.168.012-2.179,2.215-.01,1.923-.01,1.923,1.956,1.917m10.424-2c0-2.124,0-2.124-2.031-2.124-2.094,0-2.094,0-2.094,2.061s0,2.06,2.1,2.06c2.029,0,2.029,0,2.029-2m0-16.536c0-2.072,0-2.072-1.955-2.072-2.17,0-2.17,0-2.17,2.114,0,2.007,0,2.007,2.019,2.007,2.106,0,2.106,0,2.106-2.049" transform="translate(-75.981 -56.078)" fill="#06d1d1"/>
    <path id="Trazado_715380" data-name="Trazado 715380" d="M92.864,122.89c0,3.045-.028,6.091.019,9.135.013.847-.137,1.193-1.1,1.176-3.391-.061-6.783-.045-10.175-.009-.782.008-1.117-.12-1.111-1.026.042-6.176.032-12.352.009-18.528,0-.719.086-1.066.954-1.052q5.215.081,10.432.005c.835-.011.985.285.976,1.036-.038,3.088-.016,6.176-.016,9.264Zm-6.1-6.2c-2.147,0-2.147,0-2.147,2.146,0,2.017,0,2.017,2.016,2.017,2.151,0,2.151,0,2.151-2.149,0-2.014,0-2.014-2.02-2.013m2.012,10.277c0-2.036,0-2.036-1.994-2.036-2.165,0-2.165,0-2.165,2.115,0,2.039,0,2.039,1.991,2.039,2.168,0,2.168,0,2.168-2.119" transform="translate(-49.566 -69.32)" fill="#06d1d1"/>
    <path id="Trazado_715381" data-name="Trazado 715381" d="M136.185,127.442c-2,0-2,0-2-2.029,0-2.092,0-2.092,2.064-2.092s2.062,0,2.062,2.094c0,2.027,0,2.027-2.128,2.027" transform="translate(-82.622 -75.931)"/>
    <path id="Trazado_715382" data-name="Trazado 715382" d="M159.735,125.21c-.008,2.169-.013,2.057-2.848,2.2-1.615.084-1.292-.848-1.289-1.737.007-2.446.014-2.336,2.847-2.478,2.029-.1,1.054,1.3,1.289,2.01" transform="translate(-95.787 -75.853)"/>
    <path id="Trazado_715383" data-name="Trazado 715383" d="M136.269,105.995c-2.084,0-2.084,0-2.083-2.718,0-1.4,0-1.4,2.62-1.4,1.508,0,1.508,0,1.506,2.65,0,1.471,0,1.471-2.042,1.471" transform="translate(-82.621 -62.726)"/>
    <path id="Trazado_715384" data-name="Trazado 715384" d="M136.129,148.885c-1.966.006-1.966.006-1.956-1.917.011-2.2.011-2.2,2.179-2.215,1.963-.011,1.963-.011,1.958,1.916-.005,2.21-.005,2.21-2.18,2.216" transform="translate(-82.612 -89.126)"/>
    <path id="Trazado_715385" data-name="Trazado 715385" d="M159.782,146.892c0,2,0,2-2.029,2-2.1,0-2.1,0-2.1-2.06s0-2.061,2.094-2.061c2.031,0,2.031,0,2.031,2.124" transform="translate(-95.841 -89.137)"/>
    <path id="Trazado_715386" data-name="Trazado 715386" d="M159.782,103.946c0,2.049,0,2.049-2.106,2.049-2.019,0-2.019,0-2.019-2.007,0-2.114,0-2.114,2.17-2.114,1.955,0,1.955,0,1.955,2.072" transform="translate(-95.841 -62.726)"/>
    <path id="Trazado_715387" data-name="Trazado 715387" d="M93.352,123.277c2.02,0,2.02,0,2.02,2.013,0,2.149,0,2.149-2.151,2.15-2.016,0-2.016,0-2.016-2.017,0-2.145,0-2.145,2.147-2.146" transform="translate(-56.157 -75.904)"/>
    <path id="Trazado_715388" data-name="Trazado 715388" d="M95.364,146.76c0,2.119,0,2.119-2.168,2.119-1.991,0-1.991,0-1.991-2.039,0-2.115,0-2.115,2.165-2.115,1.994,0,1.994,0,1.994,2.036" transform="translate(-56.157 -89.109)"/>
  </g>
</svg>
