<svg xmlns="http://www.w3.org/2000/svg" xmlns:xlink="http://www.w3.org/1999/xlink" width="106.734" height="106.734" viewBox="0 0 106.734 106.734">
  <defs>
    <clipPath id="clip-path">
      <rect id="Rectángulo_353631" data-name="Rectángulo 353631" width="66.741" height="88.322" fill="none"/>
    </clipPath>
  </defs>
  <g id="Grupo_992318" data-name="Grupo 992318" transform="translate(-2.739)">
    <path id="Trazado_705812" data-name="Trazado 705812" d="M106.734,78.256A53.367,53.367,0,1,1,53.367,24.889a53.367,53.367,0,0,1,53.367,53.367" transform="translate(2.739 -24.889)" fill="#06d1d1"/>
    <g id="Grupo_1003584" data-name="Grupo 1003584" transform="translate(24.565 9.734)">
      <g id="Grupo_1003583" data-name="Grupo 1003583" clip-path="url(#clip-path)">
        <path id="Trazado_715873" data-name="Trazado 715873" d="M66.213,87.3H1.353c0-29.08,1.69-56.444,1.69-85.565,21.608,0,40.011.423,61.637.423,0,29.083,1.533,56.037,1.533,85.142M33.442,88.321H61.019c3.839,0,5.688-1.821,5.689-5.626q0-24.48,0-48.959a2.829,2.829,0,0,0-.123-1.347c-.244-.406-.786-.91-1.168-.886a2.062,2.062,0,0,0-1.312.9c-.22.323-.1.889-.1,1.347q0,20.687,0,41.374c0,2.712.011,5.424-.005,8.137a2.185,2.185,0,0,1-2.309,2.483c-.274.021-.551.008-.827.008H5.839c-.23,0-.46.009-.689,0a2.2,2.2,0,0,1-2.4-2.525c-.015-2.3-.011-4.6,0-6.9,0-.931-.286-1.738-1.306-1.763-1.11-.028-1.422.811-1.419,1.8.006,2.207-.01,4.413,0,6.62.022,3.43,1.961,5.335,5.424,5.336q14,0,27.991,0M2.746,36.992q0-15.867,0-31.734c0-1.9.753-2.67,2.66-2.691,2.253-.025,4.506-.021,6.759,0,.922.009,1.732-.143,1.708-1.273C13.854.21,13.076,0,12.143.007,9.982.029,7.82.013,5.659.014,1.854.015.026,1.853.025,5.7q0,31.458,0,62.915c0,.458-.108,1.013.106,1.349.281.44.835.975,1.268.971s.977-.548,1.251-.992c.21-.34.091-.893.091-1.352q0-15.8,0-31.6M40.638.014q-10.345,0-20.689,0c-1.032,0-2.4-.264-2.431,1.269C17.483,2.9,18.895,2.552,19.9,2.553q20.413.017,40.827.008c2.715,0,3.274.569,3.274,3.32q0,9.795,0,19.59c0,.368-.131.836.045,1.082.359.5.845,1.147,1.357,1.226.359.055.9-.688,1.254-1.157.158-.211.054-.624.054-.946q0-10.14,0-20.279C66.7,1.933,64.77.017,61.327.015Q50.983.009,40.638.014m-1.772,40.6c-5.462,0-10.925-.007-16.388.007-1.014,0-2.4-.3-2.406,1.274-.009,1.658,1.438,1.356,2.485,1.358q16.319.026,32.638,0a3.654,3.654,0,0,0,1.613-.181,1.644,1.644,0,0,0,.826-1.191,1.9,1.9,0,0,0-.893-1.178c-.3-.2-.8-.091-1.212-.091q-8.332-.006-16.663,0m-.119,12.964q8.345,0,16.69,0c.413,0,.927.132,1.217-.062.432-.291.974-.818.972-1.243s-.564-.925-1-1.2c-.3-.191-.8-.07-1.217-.07q-16.552,0-33.1,0c-.413,0-.923-.122-1.217.072-.436.288-1,.814-.989,1.229s.582.917,1.017,1.226c.248.176.714.052,1.081.052q8.276,0,16.552,0M24.971,78.724q-7.237,0-14.473,0c-.908,0-1.706.259-1.685,1.357.02,1.011.789,1.237,1.632,1.285.229.013.46,0,.689,0q13.784,0,27.568,0a2.487,2.487,0,0,0,1.214-.1c.449-.287,1.1-.84,1.046-1.195-.067-.483-.65-.977-1.128-1.29-.294-.193-.8-.065-1.217-.066q-6.823,0-13.646,0m8.038-40.653H43.746c.367,0,.824.124,1.081-.046.474-.315,1.13-.793,1.149-1.228.018-.419-.618-.942-1.073-1.276-.245-.181-.71-.078-1.076-.078q-10.806,0-21.612,0c-.365,0-.819-.09-1.077.087-.435.3-1.073.821-1.028,1.175.061.482.626.967,1.083,1.306.241.179.711.058,1.078.058q5.369,0,10.737,0M23,25.124H34.849c1.059,0,2.377.148,2.326-1.378-.048-1.44-1.365-1.208-2.345-1.209q-11.849-.016-23.7,0a2.984,2.984,0,0,0-1.352.109c-.412.231-.951.764-.922,1.123A2.28,2.28,0,0,0,9.8,25.053c.232.183.709.069,1.076.069q6.063,0,12.125,0M43.57,32.877c4.182,0,8.364.012,12.545-.007,1.3-.006,2.087-1.069,1.4-1.919a2.406,2.406,0,0,0-1.678-.626C50.917,30.277,46,30.3,41.083,30.3q-4.963,0-9.926,0c-.936,0-1.7.261-1.648,1.361.047,1,.774,1.227,1.654,1.224,4.136-.011,8.272,0,12.408-.005M32.677,12.163c-3.673,0-7.346.006-11.02,0-.945,0-1.828.1-1.827,1.314,0,1.126.861,1.3,1.733,1.3q11.02.018,22.039.007c.9,0,1.776-.24,1.783-1.276.007-1.088-.82-1.366-1.827-1.358-3.627.03-7.254.012-10.882.012M20.26,17.356c-3.216,0-6.432.008-9.648,0-.955,0-1.83.122-1.809,1.329.019,1.11.845,1.26,1.75,1.259q9.786-.009,19.572,0c.968,0,1.851-.173,1.822-1.338s-.957-1.259-1.9-1.254c-3.262.018-6.524.007-9.786.007m31.669-.546c0,.348-.008.441,0,.532.108,1.061-.413,2.625,1.362,2.6,1.616-.024,1.293-1.488,1.291-2.539a1.4,1.4,0,0,1,.857-1.493,4.47,4.47,0,0,0,2.512-4.77,4.709,4.709,0,0,0-4.541-4c-2.453-.045-4.628,1.6-4.793,3.8-.038.515.575,1.078.889,1.619a11.607,11.607,0,0,0,1.54-.98c.25-.215.231-.815.484-.942.72-.362,1.619-.925,2.257-.743a2.516,2.516,0,0,1,1.511,1.8,2.408,2.408,0,0,1-1.276,1.947c-1.979.5-2.257,1.772-2.094,3.181M12.765,30.3c-.642,0-1.284-.02-1.924,0-1.459.056-2.031.652-2.052,2.145q-.026,1.856,0,3.712a1.787,1.787,0,0,0,1.78,1.883,16.48,16.48,0,0,0,1.923.026c4.043,0,4.061-.017,4.061-4.045,0-3.69-.04-3.729-3.79-3.726M12.58,74.271c3.975,0,3.975,0,3.975-3.977,0-3.7-.091-3.8-3.737-3.8-4.034,0-4.034,0-4.034,4.04,0,3.661.072,3.732,3.8,3.732m-3.8-29.75c0,3.875,0,3.875,3.789,3.875,3.98,0,3.982,0,3.982-3.967,0-3.744-.074-3.817-3.869-3.817-3.874,0-3.9.028-3.9,3.91M29.7,58.768c2.614,0,5.228-.005,7.842,0,.933,0,1.854-.1,1.9-1.273.045-1.2-.881-1.354-1.811-1.355q-7.911-.01-15.822,0c-.881,0-1.744.153-1.755,1.269-.011,1.174.84,1.366,1.806,1.361,2.614-.012,5.228,0,7.842,0m.093,2.54c-2.615,0-5.229.009-7.844,0-.939-.005-1.853.088-1.9,1.265s.863,1.381,1.8,1.382q7.912.012,15.825,0c.868,0,1.747-.184,1.766-1.283.021-1.177-.844-1.362-1.8-1.359-2.615.009-5.229,0-7.844,0M40.427,66.5c-2.757,0-5.515.013-8.272-.007-.912-.007-1.739.14-1.79,1.226-.056,1.2.835,1.373,1.786,1.373q8.2,0,16.406,0c.91,0,1.727-.185,1.715-1.3-.012-1.08-.765-1.309-1.711-1.3-2.711.025-5.423.009-8.134.009m9.446-7.732q3.1,0,6.207,0c.878,0,1.577-.258,1.612-1.278.036-1.04-.676-1.337-1.542-1.34q-6.206-.022-12.413,0c-.853,0-1.616.245-1.618,1.273,0,1.081.747,1.355,1.686,1.352,2.023-.009,4.046,0,6.069,0M16.538,6.975c-1.97,0-3.94,0-5.909,0C9.7,6.98,8.8,7.113,8.8,8.315c.006,1.107.851,1.3,1.733,1.3q5.978.017,11.956,0c.921,0,1.732-.324,1.714-1.35s-.839-1.3-1.759-1.3c-1.97.006-3.94,0-5.909,0m34.483,74.4c1.694,0,3.388.008,5.082,0,.942-.007,1.836-.225,1.8-1.386-.034-1.067-.887-1.259-1.779-1.26q-4.945,0-9.89,0c-.918,0-1.731.268-1.739,1.31s.8,1.334,1.719,1.338c1.6.007,3.205,0,4.808,0M12.2,54.744c-.359-.48-.554-1-.911-1.16a2.843,2.843,0,0,0-1.887-.364c-.7.276-.74,1.065-.27,1.752.645.944,1.245,1.921,1.921,2.842.781,1.064,1.725,1.054,2.416-.057.941-1.513,1.79-3.084,2.7-4.618.437-.739.445-1.438-.306-1.907a1.293,1.293,0,0,0-1.956.6c-.549.929-1.091,1.862-1.7,2.911M39.86,19.929v0c1.327,0,2.655-.009,3.982,0,.927.008,1.65-.466,1.505-1.333a1.983,1.983,0,0,0-1.474-1.19c-2.6-.123-5.218-.124-7.821,0-.525.025-1.015.787-1.521,1.208.495.435.945,1.164,1.493,1.246a26.13,26.13,0,0,0,3.836.059M53.1,38.062v.006c1.057,0,2.114.016,3.17-.005.848-.017,1.556-.43,1.365-1.31a1.889,1.889,0,0,0-1.269-1.234c-2.1-.132-4.223-.085-6.335-.039-.763.016-1.462.455-1.229,1.282A2.043,2.043,0,0,0,50.082,38a15.381,15.381,0,0,0,3.02.058M24.831,45.8c-1.1,0-2.2.016-3.3,0-.874-.016-1.446.368-1.491,1.241-.046.9.524,1.334,1.387,1.34q3.3.022,6.6,0c.846-.005,1.463-.4,1.437-1.3-.025-.864-.6-1.281-1.47-1.277-1.053.006-2.107,0-3.16,0M24.8,71.7v0c-1.1,0-2.2,0-3.3,0-.858,0-1.465.363-1.462,1.265a1.239,1.239,0,0,0,1.42,1.312c2.2-.006,4.4,0,6.595-.007.871,0,1.523-.5,1.359-1.324a1.947,1.947,0,0,0-1.326-1.186A19.6,19.6,0,0,0,24.8,71.7M12.88,14.744v.006c1.007,0,2.016.044,3.02-.014.785-.045,1.421-.528,1.172-1.325a1.946,1.946,0,0,0-1.3-1.189,38.511,38.511,0,0,0-5.624,0c-.485.036-.919.752-1.377,1.156.409.455.752,1.193,1.24,1.306a12.949,12.949,0,0,0,2.869.061M23.866,66.5a9.96,9.96,0,0,0-2.453.052c-.529.138-.931.763-1.39,1.171.416.448.8,1.244,1.255,1.283a48.266,48.266,0,0,0,5.2.047c.816-.017,1.395-.567,1.176-1.316a2.122,2.122,0,0,0-1.335-1.185,9.976,9.976,0,0,0-2.453-.051M23.33,32.87v0a8.537,8.537,0,0,0,2.317-.055,1.763,1.763,0,0,0,1.1-1.226,1.65,1.65,0,0,0-1.09-1.208,21.23,21.23,0,0,0-4.38-.009c-.452.046-1.219.809-1.167,1.134a2.064,2.064,0,0,0,1.177,1.316,6.074,6.074,0,0,0,2.039.053M29.68,9.654c0-.012,0-.025,0-.038.458,0,1,.154,1.355-.035.567-.3,1.314-.755,1.443-1.277.21-.853-.554-1.282-1.37-1.311a13.792,13.792,0,0,0-3.145.078,1.812,1.812,0,0,0-1.114,1.275c-.047.352.6.966,1.07,1.17a5.309,5.309,0,0,0,1.759.138M55.4,66.519V66.5c-.321,0-.642,0-.963,0-.856-.013-1.451.342-1.486,1.245s.559,1.308,1.4,1.328a7.69,7.69,0,0,0,2.319-.092,1.626,1.626,0,0,0,.952-1.219c-.01-.421-.569-.93-1.009-1.206-.3-.186-.8-.035-1.215-.035m-.643-42.26q.013-.294.026-.588c-.5-.341-.991-.944-1.488-.945-.433,0-.867.676-1.3,1.054.4.452.744,1.192,1.208,1.276s1.032-.5,1.555-.8" transform="translate(0 0)" fill="#ffdbdb"/>
        <path id="Trazado_715874" data-name="Trazado 715874" d="M33.5,171.029q-14,0-27.991,0c-3.462,0-5.4-1.905-5.424-5.336-.014-2.207,0-4.413,0-6.62,0-.987.309-1.826,1.42-1.8,1.02.026,1.31.833,1.306,1.764-.01,2.3-.013,4.6,0,6.9a2.2,2.2,0,0,0,2.4,2.525c.229.013.46,0,.689,0H60.911c.276,0,.553.013.827-.008a2.186,2.186,0,0,0,2.309-2.483c.016-2.712.005-5.425.005-8.137q0-20.687,0-41.374c0-.458-.118-1.024.1-1.347a2.063,2.063,0,0,1,1.312-.9c.382-.024.924.48,1.168.886a2.832,2.832,0,0,1,.124,1.347q.007,24.479,0,48.959c0,3.8-1.85,5.625-5.689,5.626H33.5" transform="translate(-0.055 -82.708)" fill="#161615"/>
        <path id="Trazado_715875" data-name="Trazado 715875" d="M2.746,37.009q0,15.8,0,31.6c0,.458.119,1.011-.091,1.352-.274.444-.818.989-1.25.992s-.987-.532-1.269-.971c-.215-.336-.106-.891-.106-1.349q0-31.457,0-62.915C.026,1.871,1.854.033,5.66.031c2.161,0,4.322.015,6.483-.007.934-.009,1.711.2,1.734,1.288.024,1.13-.786,1.281-1.708,1.273-2.253-.021-4.506-.025-6.759,0-1.908.021-2.66.791-2.661,2.691q-.007,15.867,0,31.734" transform="translate(0 -0.017)" fill="#161615"/>
        <path id="Trazado_715876" data-name="Trazado 715876" d="M86.629.014q10.345,0,20.689,0c3.442,0,5.371,1.919,5.378,5.382q.02,10.14,0,20.28c0,.321.1.735-.054.946-.351.469-.894,1.212-1.253,1.157-.512-.079-1-.724-1.357-1.226-.176-.245-.045-.714-.045-1.082q0-9.794,0-19.589c0-2.75-.559-3.32-3.274-3.32q-20.413,0-40.827-.008c-1,0-2.413.343-2.379-1.267.033-1.533,1.4-1.268,2.431-1.269q10.345-.009,20.689,0" transform="translate(-45.991 0)" fill="#161615"/>
        <path id="Trazado_715877" data-name="Trazado 715877" d="M91.566,147.17q8.331,0,16.663,0c.412,0,.916-.1,1.212.091a1.893,1.893,0,0,1,.893,1.177,1.644,1.644,0,0,1-.826,1.191,3.65,3.65,0,0,1-1.613.181q-16.319.012-32.638,0c-1.047,0-2.495.3-2.485-1.358.009-1.571,1.392-1.271,2.406-1.274,5.462-.015,10.925-.007,16.388-.007" transform="translate(-52.699 -106.559)" fill="#161615"/>
        <path id="Trazado_715878" data-name="Trazado 715878" d="M91.509,187.363q-8.276,0-16.552,0c-.367,0-.833.124-1.081-.052-.435-.309-1.009-.8-1.018-1.226s.553-.94.989-1.229c.293-.194.8-.072,1.217-.072q16.552,0,33.1,0c.413,0,.919-.121,1.218.07.437.279,1,.79,1,1.2s-.54.952-.972,1.243c-.289.194-.8.062-1.217.062q-8.345,0-16.69,0" transform="translate(-52.762 -133.788)" fill="#161615"/>
        <path id="Trazado_715879" data-name="Trazado 715879" d="M48.108,285.3q6.823,0,13.646,0c.413,0,.923-.127,1.217.066.477.313,1.061.807,1.128,1.29.049.355-.6.907-1.046,1.195a2.483,2.483,0,0,1-1.214.1q-13.784.006-27.568,0c-.23,0-.46.008-.689,0-.843-.048-1.613-.274-1.632-1.285-.022-1.1.777-1.355,1.685-1.356q7.237-.012,14.473,0" transform="translate(-23.137 -206.581)" fill="#161615"/>
        <path id="Trazado_715880" data-name="Trazado 715880" d="M85.8,131.051q-5.369,0-10.737,0c-.367,0-.836.121-1.078-.058-.457-.339-1.023-.824-1.083-1.306-.045-.353.594-.875,1.029-1.175.257-.177.711-.087,1.077-.087q10.806,0,21.612,0c.366,0,.831-.1,1.076.078.454.335,1.091.857,1.072,1.276-.019.435-.675.913-1.149,1.228-.257.171-.714.046-1.081.046q-5.369,0-10.737,0" transform="translate(-52.794 -92.979)" fill="#161615"/>
        <path id="Trazado_715881" data-name="Trazado 715881" d="M46.253,84.233q-6.063,0-12.125,0c-.367,0-.844.114-1.076-.069a2.279,2.279,0,0,1-.941-1.287c-.03-.359.509-.892.922-1.123a2.98,2.98,0,0,1,1.352-.11q11.849-.007,23.7,0c.98,0,2.3-.23,2.345,1.209.051,1.527-1.267,1.378-2.326,1.378H46.253" transform="translate(-23.254 -59.108)" fill="#161615"/>
        <path id="Trazado_715882" data-name="Trazado 715882" d="M121.037,112.411c-4.136,0-8.272-.006-12.408.005-.88,0-1.608-.228-1.654-1.225-.052-1.1.712-1.362,1.648-1.361q4.963.006,9.926,0c4.917,0,9.834-.02,14.751.028a2.4,2.4,0,0,1,1.678.625c.691.851-.1,1.913-1.4,1.919-4.182.02-8.364.007-12.546.007" transform="translate(-77.467 -79.534)" fill="#161615"/>
        <path id="Trazado_715883" data-name="Trazado 715883" d="M84.742,44.065c3.627,0,7.255.018,10.882-.012,1.007-.008,1.834.27,1.827,1.358-.007,1.036-.879,1.276-1.783,1.276q-11.02,0-22.039-.007c-.872,0-1.732-.178-1.733-1.3,0-1.216.883-1.317,1.827-1.314,3.673.009,7.346,0,11.02,0" transform="translate(-52.064 -31.902)" fill="#161615"/>
        <path id="Trazado_715884" data-name="Trazado 715884" d="M43.372,62.905c3.262,0,6.524.011,9.786-.007.943,0,1.87.079,1.9,1.254s-.853,1.34-1.821,1.338q-9.786-.017-19.572,0c-.9,0-1.731-.148-1.75-1.259-.021-1.207.855-1.333,1.81-1.329,3.216.013,6.432,0,9.648,0" transform="translate(-23.111 -45.549)" fill="#161615"/>
        <path id="Trazado_715885" data-name="Trazado 715885" d="M179.573,35.537c-.162-1.409.115-2.684,2.094-3.181a2.407,2.407,0,0,0,1.276-1.948,2.516,2.516,0,0,0-1.51-1.8c-.638-.182-1.537.381-2.257.743-.253.127-.234.727-.484.942a11.637,11.637,0,0,1-1.54.98c-.314-.541-.927-1.1-.888-1.619.164-2.2,2.34-3.843,4.793-3.8a4.709,4.709,0,0,1,4.54,4,4.47,4.47,0,0,1-2.512,4.771,1.4,1.4,0,0,0-.857,1.492c0,1.051.325,2.515-1.291,2.539-1.775.026-1.254-1.538-1.362-2.6-.009-.091,0-.183,0-.532" transform="translate(-127.643 -18.727)" fill="#161615"/>
        <path id="Trazado_715886" data-name="Trazado 715886" d="M35.806,109.831c3.75,0,3.79.038,3.79,3.728,0,4.027-.018,4.046-4.061,4.044a16.481,16.481,0,0,1-1.923-.026,1.787,1.787,0,0,1-1.78-1.883q-.028-1.856,0-3.712c.021-1.493.594-2.089,2.052-2.145.64-.025,1.283,0,1.924-.006m1.157,4.9a6.517,6.517,0,0,0-.629-2,1.449,1.449,0,0,0-1.359.046,6.227,6.227,0,0,0-.392,1.953Z" transform="translate(-23.041 -79.532)" fill="#161615"/>
        <path id="Trazado_715887" data-name="Trazado 715887" d="M35.642,248.864c-3.724,0-3.8-.071-3.8-3.732,0-4.04,0-4.04,4.033-4.04,3.647,0,3.738.092,3.738,3.8,0,3.977,0,3.977-3.975,3.977m1.3-4.621-.378-.413a4.546,4.546,0,0,0-1.778.471,1.519,1.519,0,0,0,.075,1.48,1.484,1.484,0,0,0,1.457.168,4.439,4.439,0,0,0,.623-1.707" transform="translate(-23.062 -174.592)" fill="#161615"/>
        <path id="Trazado_715888" data-name="Trazado 715888" d="M31.845,151.146c0-3.883.028-3.91,3.9-3.91,3.795,0,3.869.073,3.869,3.817,0,3.965,0,3.967-3.982,3.967-3.789,0-3.789,0-3.789-3.874m2.676-1.04A5.859,5.859,0,0,0,35,152.149a1.584,1.584,0,0,0,1.463-.007,6.32,6.32,0,0,0,.375-2.036Z" transform="translate(-23.061 -106.624)" fill="#161615"/>
        <path id="Trazado_715889" data-name="Trazado 715889" d="M82.335,206.157c-2.614,0-5.228-.008-7.842,0-.966,0-1.817-.187-1.806-1.361.01-1.116.874-1.268,1.755-1.269q7.911-.008,15.822,0c.929,0,1.855.158,1.811,1.355-.044,1.172-.964,1.276-1.9,1.273-2.614-.008-5.228,0-7.842,0" transform="translate(-52.638 -147.389)" fill="#161615"/>
        <path id="Trazado_715890" data-name="Trazado 715890" d="M82.421,222.259c2.615,0,5.229.006,7.844,0,.961,0,1.825.182,1.8,1.359-.02,1.1-.9,1.281-1.766,1.283q-7.912.021-15.825,0c-.936,0-1.845-.2-1.8-1.382s.959-1.271,1.9-1.265c2.615.014,5.229,0,7.844,0" transform="translate(-52.631 -160.951)" fill="#161615"/>
        <path id="Trazado_715891" data-name="Trazado 715891" d="M120.143,241.068c2.711,0,5.423.016,8.134-.009.946-.009,1.7.22,1.711,1.3.012,1.116-.8,1.3-1.715,1.3q-8.2,0-16.406,0c-.951,0-1.842-.173-1.786-1.373.051-1.086.878-1.232,1.79-1.226,2.757.02,5.515.007,8.272.007" transform="translate(-79.715 -174.569)" fill="#161615"/>
        <path id="Trazado_715892" data-name="Trazado 715892" d="M160.453,206.16c-2.023,0-4.046-.006-6.069,0-.939,0-1.689-.271-1.686-1.352,0-1.028.765-1.271,1.618-1.273q6.207-.013,12.414,0c.865,0,1.577.3,1.542,1.34-.035,1.019-.734,1.278-1.612,1.278q-3.1,0-6.207,0" transform="translate(-110.58 -147.392)" fill="#161615"/>
        <path id="Trazado_715893" data-name="Trazado 715893" d="M39.652,25.284c1.97,0,3.94,0,5.909,0,.92,0,1.742.274,1.759,1.3s-.793,1.349-1.714,1.35q-5.978.007-11.956,0c-.882,0-1.726-.2-1.733-1.3-.007-1.2.9-1.336,1.825-1.339,1.97-.006,3.94,0,5.909,0" transform="translate(-23.113 -18.309)" fill="#161615"/>
        <path id="Trazado_715894" data-name="Trazado 715894" d="M167.839,288.058c-1.6,0-3.205,0-4.808,0-.914,0-1.727-.3-1.719-1.338s.821-1.311,1.739-1.31q4.945,0,9.89,0c.893,0,1.745.193,1.779,1.26.037,1.161-.857,1.379-1.8,1.386-1.694.012-3.388,0-5.082,0" transform="translate(-116.818 -206.685)" fill="#161615"/>
        <path id="Trazado_715895" data-name="Trazado 715895" d="M35.372,188.609c.613-1.049,1.155-1.982,1.7-2.911a1.293,1.293,0,0,1,1.956-.6c.752.469.743,1.168.306,1.907-.907,1.535-1.756,3.105-2.7,4.618-.691,1.111-1.635,1.121-2.416.057-.676-.921-1.276-1.9-1.921-2.842-.469-.687-.434-1.476.27-1.752a2.841,2.841,0,0,1,1.887.364c.357.162.552.68.911,1.16" transform="translate(-23.167 -133.865)" fill="#161615"/>
        <path id="Trazado_715896" data-name="Trazado 715896" d="M130.521,65.406a26.13,26.13,0,0,1-3.836-.059c-.548-.082-1-.811-1.493-1.246.506-.422,1-1.183,1.521-1.208,2.6-.126,5.218-.126,7.821,0a1.983,1.983,0,0,1,1.474,1.19c.145.867-.578,1.341-1.505,1.333-1.327-.012-2.655,0-3.982,0Z" transform="translate(-90.661 -45.476)" fill="#161615"/>
        <path id="Trazado_715897" data-name="Trazado 715897" d="M181.12,131.088a15.4,15.4,0,0,1-3.02-.057,2.043,2.043,0,0,1-1.277-1.244c-.233-.827.466-1.265,1.229-1.282,2.112-.046,4.23-.093,6.335.04a1.889,1.889,0,0,1,1.269,1.234c.19.88-.517,1.293-1.366,1.31-1.056.022-2.113.005-3.17.005v-.006" transform="translate(-128.018 -93.026)" fill="#161615"/>
        <path id="Trazado_715898" data-name="Trazado 715898" d="M77.444,166.045c1.054,0,2.107,0,3.161,0,.87,0,1.445.412,1.47,1.277.026.9-.592,1.294-1.437,1.3q-3.3.021-6.6,0c-.863-.006-1.433-.444-1.387-1.34.045-.873.617-1.258,1.491-1.242,1.1.021,2.2,0,3.3.006" transform="translate(-52.613 -120.241)" fill="#161615"/>
        <path id="Trazado_715899" data-name="Trazado 715899" d="M77.415,259.828a19.6,19.6,0,0,1,3.288.055,1.947,1.947,0,0,1,1.326,1.186c.164.822-.488,1.32-1.359,1.324-2.2.012-4.4,0-6.595.007a1.239,1.239,0,0,1-1.42-1.312c0-.9.6-1.267,1.462-1.265,1.1,0,2.2,0,3.3,0v0" transform="translate(-52.615 -188.129)" fill="#161615"/>
        <path id="Trazado_715900" data-name="Trazado 715900" d="M35.908,46.563A12.963,12.963,0,0,1,33.04,46.5c-.488-.113-.832-.85-1.24-1.306.458-.4.892-1.121,1.377-1.156a38.55,38.55,0,0,1,5.624,0,1.948,1.948,0,0,1,1.3,1.189c.248.8-.387,1.28-1.173,1.325-1,.058-2.013.014-3.02.014Z" transform="translate(-23.029 -31.819)" fill="#161615"/>
        <path id="Trazado_715901" data-name="Trazado 715901" d="M76.438,240.962a9.99,9.99,0,0,1,2.453.051,2.122,2.122,0,0,1,1.335,1.185c.218.75-.36,1.3-1.176,1.316a48.266,48.266,0,0,1-5.2-.047c-.453-.04-.839-.835-1.255-1.283.459-.407.861-1.032,1.39-1.171a9.961,9.961,0,0,1,2.453-.052" transform="translate(-52.571 -174.459)" fill="#161615"/>
        <path id="Trazado_715902" data-name="Trazado 715902" d="M76.133,112.314a6.074,6.074,0,0,1-2.039-.053,2.064,2.064,0,0,1-1.177-1.316c-.053-.325.714-1.088,1.167-1.134a21.23,21.23,0,0,1,4.38.009,1.65,1.65,0,0,1,1.09,1.208,1.765,1.765,0,0,1-1.1,1.226,8.548,8.548,0,0,1-2.317.054v0" transform="translate(-52.803 -79.444)" fill="#161615"/>
        <path id="Trazado_715903" data-name="Trazado 715903" d="M100.17,27.883a5.309,5.309,0,0,1-1.759-.138c-.467-.2-1.117-.818-1.07-1.17A1.811,1.811,0,0,1,98.455,25.3a13.776,13.776,0,0,1,3.145-.079c.816.029,1.58.458,1.37,1.311-.129.523-.875.978-1.443,1.277-.358.189-.9.035-1.355.035,0,.012,0,.025,0,.038" transform="translate(-70.49 -18.228)" fill="#161615"/>
        <path id="Trazado_715904" data-name="Trazado 715904" d="M194.43,241.013c.413,0,.92-.151,1.215.035.44.277,1,.785,1.009,1.206a1.625,1.625,0,0,1-.952,1.22,7.7,7.7,0,0,1-2.319.092c-.844-.02-1.439-.412-1.4-1.328s.631-1.257,1.486-1.244c.321,0,.642,0,.963,0v.018" transform="translate(-139.027 -174.494)" fill="#161615"/>
        <path id="Trazado_715905" data-name="Trazado 715905" d="M191.281,83.925c-.523.293-1.1.878-1.555.8s-.81-.823-1.208-1.276c.434-.378.868-1.055,1.3-1.054.5,0,.992.6,1.488.945q-.013.294-.026.588" transform="translate(-136.52 -59.666)" fill="#161615"/>
        <path id="Trazado_715906" data-name="Trazado 715906" d="M44.221,121.983H41.84a6.227,6.227,0,0,1,.392-1.953,1.449,1.449,0,0,1,1.359-.046,6.517,6.517,0,0,1,.629,2" transform="translate(-30.299 -86.782)" fill="#06d1d1"/>
        <path id="Trazado_715907" data-name="Trazado 715907" d="M44.239,251.433a4.439,4.439,0,0,1-.623,1.707,1.484,1.484,0,0,1-1.457-.168,1.519,1.519,0,0,1-.075-1.48,4.545,4.545,0,0,1,1.778-.471l.378.413" transform="translate(-30.36 -181.782)" fill="#06d1d1"/>
        <path id="Trazado_715908" data-name="Trazado 715908" d="M41.546,157.64h2.321a6.32,6.32,0,0,1-.375,2.036,1.584,1.584,0,0,1-1.463.007,5.859,5.859,0,0,1-.483-2.043" transform="translate(-30.087 -114.159)" fill="#06d1d1"/>
      </g>
    </g>
  </g>
</svg>
