<svg id="Grupo_1003486" data-name="Grupo 1003486" xmlns="http://www.w3.org/2000/svg" xmlns:xlink="http://www.w3.org/1999/xlink" width="89.642" height="93.32" viewBox="0 0 89.642 93.32">
  <defs>
    <clipPath id="clip-path">
      <path id="Rectángulo_353436" data-name="Rectángulo 353436" d="M0,0,89.642,1.041V91.975L0,93.32Z" fill="none"/>
    </clipPath>
  </defs>
  <g id="Grupo_1003485" data-name="Grupo 1003485" clip-path="url(#clip-path)">
    <path id="Trazado_715462" data-name="Trazado 715462" d="M44.7,48.057l-.589-.587-.583-.582L42.94,46.3l-.6-.6a30.354,30.354,0,0,1-4.794,3.437,24.9,24.9,0,0,1-5.141,2.239,23.409,23.409,0,0,1-5.495.978,25.878,25.878,0,0,1-5.855-.346,25.492,25.492,0,0,1-4.66-1.248A23.589,23.589,0,0,1,12.19,48.7,24.17,24.17,0,0,1,8.452,45.82a27.268,27.268,0,0,1-3.259-3.668,26.213,26.213,0,0,1-4.236-8.7A26.953,26.953,0,0,1,2.529,14.93,25.691,25.691,0,0,1,8.145,7.159,26.094,26.094,0,0,1,16.3,1.894a24.374,24.374,0,0,1,18.034-.118,25.881,25.881,0,0,1,8.139,5.112,25.31,25.31,0,0,1,5.577,7.548,27.041,27.041,0,0,1,2.6,9.286A26.6,26.6,0,0,1,49.7,33.7a27.656,27.656,0,0,1-5.1,9.641l.57.589.574.593.582.6.595.615a.4.4,0,0,0-.043.017c-.007,0-.008.005,0,0l.018-.006a.124.124,0,0,0,.026-.016,19.4,19.4,0,0,1,1.537-1.2,1.719,1.719,0,0,1,1.037-.365,1.838,1.838,0,0,1,1.01.5c.384.313.843.774,1.454,1.389l2.5,2.513,2.5,2.509q1.248,1.253,2.493,2.507T61.931,56.1a7.322,7.322,0,0,1,1.4,1.955,5.6,5.6,0,0,1,.558,2.07,4.978,4.978,0,0,1-.291,2.037,5.535,5.535,0,0,1-1.148,1.854,5.3,5.3,0,0,1-1.74,1.275,4.489,4.489,0,0,1-1.953.389,5.044,5.044,0,0,1-2.015-.5,6.909,6.909,0,0,1-1.924-1.379l-2.7-2.694-2.7-2.7-2.706-2.706L44,53a10.063,10.063,0,0,1-1.02-1.131,1.294,1.294,0,0,1-.027-1.735,10.16,10.16,0,0,1,.982-1.165c.063-.068.125-.137.186-.208s.122-.144.184-.22l.19-.233c.065-.08.133-.162.2-.247M25.648,49.271a21.868,21.868,0,0,0,8.662-1.86,22.183,22.183,0,0,0,7.017-4.92,22.916,22.916,0,0,0,4.707-7.257,23.858,23.858,0,0,0,.016-17.806,23.082,23.082,0,0,0-4.719-7.3A22.211,22.211,0,0,0,34.3,5.173,21.551,21.551,0,0,0,17,5.113a22.659,22.659,0,0,0-7.158,4.925A23.151,23.151,0,0,0,3.2,26.356,23.962,23.962,0,0,0,5.12,35.813a22.563,22.563,0,0,0,5.045,7.308,22.17,22.17,0,0,0,7.173,4.649,20.882,20.882,0,0,0,8.31,1.5m20.888,1.354L48.58,52.9l2.006,2.234,1.977,2.2,1.954,2.176.856-.863.772-.778.671-.676.553-.557-2.009-2.252-2-2.238L51.375,49.92,49.391,47.7l-.81.831-.751.77-.684.7-.61.626M56.947,61.611a4.141,4.141,0,0,0,.943.714,2.3,2.3,0,0,0,.912.28,1.729,1.729,0,0,0,.849-.151,2.4,2.4,0,0,0,1.214-1.376,1.972,1.972,0,0,0,.071-.87,2.557,2.557,0,0,0-.317-.9,4.069,4.069,0,0,0-.7-.9l-.726.784-.733.791-.746.8-.764.825" transform="translate(25.697 26.367)"/>
    <path id="Trazado_715463" data-name="Trazado 715463" d="M7.557,3.115a7.3,7.3,0,0,0,.116-1.058,6.389,6.389,0,0,1,.112-1,1.342,1.342,0,0,1,.4-.75,1.458,1.458,0,0,1,.988-.3,1.544,1.544,0,0,1,.988.279,1.318,1.318,0,0,1,.437.718,4.5,4.5,0,0,1,.123.974c.015.347.017.706.045,1.047l.4.021.387.022c.127.007.254.013.379.017s.25.007.375.007l2.494,0,2.491,0h2.487l2.484,0a5.7,5.7,0,0,1,.742.037,1.974,1.974,0,0,1,.643.182,1.079,1.079,0,0,1,.458.43,1.622,1.622,0,0,1,.187.78,1.789,1.789,0,0,1-.15.83,1.107,1.107,0,0,1-.444.479,1.877,1.877,0,0,1-.657.219,4.912,4.912,0,0,1-.789.052q-2.057,0-4.117,0l-4.127,0-4.137,0-4.147.006a7.122,7.122,0,0,0-1.344.1,1.491,1.491,0,0,0-.79.372,1.477,1.477,0,0,0-.373.786A7.024,7.024,0,0,0,3.127,8.7q0,1.729,0,3.459t0,3.459q0,1.73,0,3.459t0,3.459a5.8,5.8,0,0,0,.084,1.127,1.287,1.287,0,0,0,.32.671,1.262,1.262,0,0,0,.666.322,5.585,5.585,0,0,0,1.121.08q2-.007,4-.018l4-.023,3.987-.026,3.977-.025.284,0,.284-.006c.095,0,.189,0,.284,0s.189,0,.283.012a4.4,4.4,0,0,1,.734.105,1.879,1.879,0,0,1,.615.258,1.144,1.144,0,0,1,.41.486,1.685,1.685,0,0,1,.119.79,1.754,1.754,0,0,1-.178.714,1.236,1.236,0,0,1-.405.458,1.713,1.713,0,0,1-.585.246,3.273,3.273,0,0,1-.718.075q-2.217.012-4.437.029l-4.448.034q-2.228.017-4.46.028t-4.471.012a4.71,4.71,0,0,1-1.764-.335A4.361,4.361,0,0,1,.433,25.2a4.733,4.733,0,0,1-.371-1.788Q.031,21.43.015,19.444T0,15.472Q0,13.486.016,11.5T.064,7.528A4.686,4.686,0,0,1,.421,5.775,4.185,4.185,0,0,1,1.355,4.4,4.373,4.373,0,0,1,2.749,3.49a5.058,5.058,0,0,1,1.739-.369c.249-.009.5-.015.747-.017s.5,0,.756,0l.772.007c.261,0,.525,0,.8,0" transform="translate(0 37.415)"/>
    <path id="Trazado_715464" data-name="Trazado 715464" d="M14.44,9.483,11.771,9.46,9.1,9.438,6.421,9.413,3.741,9.385a5.56,5.56,0,0,1-1.653-.237A2.855,2.855,0,0,1,.931,8.464,2.848,2.848,0,0,1,.246,7.311a5.53,5.53,0,0,1-.24-1.645A19.957,19.957,0,0,1,.123,2.611,2.943,2.943,0,0,1,.83.913,2.859,2.859,0,0,1,2.5.192,19.067,19.067,0,0,1,5.506.065L10.4.122l4.875.056,4.862.057,4.848.059A7,7,0,0,1,26.8.511a2.615,2.615,0,0,1,1.183.662,2.658,2.658,0,0,1,.646,1.2,7.215,7.215,0,0,1,.2,1.829A19.176,19.176,0,0,1,28.7,7.121a2.834,2.834,0,0,1-.687,1.623,2.764,2.764,0,0,1-1.6.692,18.478,18.478,0,0,1-2.888.128L14.44,9.483m11.4-5.923-22.6-.241V6.1l22.6.223Z" transform="translate(0.015 0.026)"/>
    <path id="Trazado_715465" data-name="Trazado 715465" d="M14.184.12,16.82.14l2.632.019L22.08.18Q23.393.192,24.7.209a5.021,5.021,0,0,1,1.571.24,2.73,2.73,0,0,1,1.1.685,2.884,2.884,0,0,1,.656,1.145,5.6,5.6,0,0,1,.23,1.622,18.078,18.078,0,0,1-.127,2.92,2.955,2.955,0,0,1-.7,1.653,2.8,2.8,0,0,1-1.6.731,16.649,16.649,0,0,1-2.843.154l-4.738-.025L13.5,9.31,8.741,9.284,3.963,9.255a6.583,6.583,0,0,1-1.838-.23A2.755,2.755,0,0,1,.9,8.315,2.888,2.888,0,0,1,.219,7.05,7.2,7.2,0,0,1,0,5.157q0-.2,0-.4t0-.4q0-.2,0-.4t0-.4A5.105,5.105,0,0,1,.247,2.038,2.893,2.893,0,0,1,.9.932,2.715,2.715,0,0,1,1.973.264,4.484,4.484,0,0,1,3.459.041q1.344,0,2.687.01T8.83.072L11.509.1,14.184.12M3.079,6.077l22.1.139V3.333l-22.1-.158Z" transform="translate(42.362 12.809)"/>
    <path id="Trazado_715466" data-name="Trazado 715466" d="M10.887,9.273l-1.82-.015L7.246,9.243,5.422,9.226,3.6,9.205A5.279,5.279,0,0,1,2,8.971,2.729,2.729,0,0,1,.892,8.3,2.8,2.8,0,0,1,.235,7.168,5.568,5.568,0,0,1,.005,5.549,19.88,19.88,0,0,1,.119,2.556,2.9,2.9,0,0,1,.8.894,2.742,2.742,0,0,1,2.416.189,18.242,18.242,0,0,1,5.32.065L8.621.1l3.3.036,3.289.039Q16.848.2,18.488.222A5.062,5.062,0,0,1,20.05.457a2.547,2.547,0,0,1,1.067.672,2.88,2.88,0,0,1,.627,1.144,6.447,6.447,0,0,1,.241,1.65,16.888,16.888,0,0,1-.054,2.6A3.449,3.449,0,0,1,21.3,8.268a2.725,2.725,0,0,1-1.588.923,10.32,10.32,0,0,1-2.937.15c-.489-.029-.979-.047-1.469-.057s-.981-.014-1.472-.014-.983,0-1.474,0-.984,0-1.475,0m8.059-5.865L3.091,3.239V6l15.855.157Z" transform="translate(67.634 0.809)"/>
    <path id="Trazado_715467" data-name="Trazado 715467" d="M10.824,9.408a7.638,7.638,0,0,0-.114,1.024,5.574,5.574,0,0,1-.124.972,1.285,1.285,0,0,1-.423.722,1.543,1.543,0,0,1-1.011.273,1.512,1.512,0,0,1-.975-.287,1.27,1.27,0,0,1-.4-.712,5.61,5.61,0,0,1-.114-.965,8.412,8.412,0,0,0-.1-1.045l-.918,0-.931,0-.94-.005q-.471,0-.944-.011a6.125,6.125,0,0,1-1.741-.242A2.787,2.787,0,0,1,.9,8.429a2.841,2.841,0,0,1-.676-1.2A6.361,6.361,0,0,1,0,5.46,18.786,18.786,0,0,1,.14,2.536,2.914,2.914,0,0,1,.833.9,2.76,2.76,0,0,1,2.428.186,17.264,17.264,0,0,1,5.267.048L7.659.065l2.388.016Q11.24.09,12.432.1t2.381.031a4.737,4.737,0,0,1,1.521.247,2.781,2.781,0,0,1,1.085.684,2.887,2.887,0,0,1,.655,1.118A5.1,5.1,0,0,1,18.3,3.73q0,.217,0,.434t0,.434q0,.217,0,.434t0,.434A6.757,6.757,0,0,1,18.089,7.3,2.769,2.769,0,0,1,17.4,8.53a2.761,2.761,0,0,1-1.225.684,6.725,6.725,0,0,1-1.838.212l-.852,0-.863,0-.885-.006-.918-.006m4.32-6.1L3.213,3.219V6.176l11.931.075Z" transform="translate(0.019 12.468)"/>
    <path id="Trazado_715468" data-name="Trazado 715468" d="M8.995,9.348l-1.4-.01-1.4-.009q-.7,0-1.405-.013T3.376,9.293a4.345,4.345,0,0,1-1.422-.249A2.829,2.829,0,0,1,.909,8.38,2.872,2.872,0,0,1,.257,7.321,4.483,4.483,0,0,1,.016,5.887Q.01,5.545.005,5.2T0,4.515q0-.343,0-.686t.017-.685A3.94,3.94,0,0,1,.254,1.909,2.953,2.953,0,0,1,.836.939,2.581,2.581,0,0,1,1.729.3,2.973,2.973,0,0,1,2.894.072q1.53-.008,3.058,0T9,.106q1.525.02,3.048.047L15.095.2a1.939,1.939,0,0,1,.273.025,2.569,2.569,0,0,1,.274.06c.091.025.181.054.27.087s.175.068.26.106a2.771,2.771,0,0,1,1.088.876,4.082,4.082,0,0,1,.663,1.421,7.234,7.234,0,0,1,.22,1.886A12.061,12.061,0,0,1,17.9,6.935a3.065,3.065,0,0,1-.394,1.022,2.794,2.794,0,0,1-.708.773,3.175,3.175,0,0,1-.983.49,4.211,4.211,0,0,1-1.22.173q-.7,0-1.4,0t-1.4-.012l-1.4-.016-1.4-.015M14.9,3.38,3.1,3.254v2.8L14.9,6.165Z" transform="translate(31.91 0.396)"/>
    <path id="Trazado_715469" data-name="Trazado 715469" d="M11.635,12.074q0,.887,0,1.774t0,1.774q0,.887,0,1.774t-.009,1.774a6.667,6.667,0,0,1-.338,2.132,4.324,4.324,0,0,1-.944,1.583,4.081,4.081,0,0,1-1.51.993,5.866,5.866,0,0,1-2.034.361q-.632.008-1.265.013l-1.265.008-1.266.007q-.634,0-1.267.011a2.538,2.538,0,0,1-.7-.081,1.484,1.484,0,0,1-.548-.272,1.234,1.234,0,0,1-.359-.481A1.834,1.834,0,0,1,0,22.738a1.6,1.6,0,0,1,.129-.68,1.237,1.237,0,0,1,.361-.465,1.6,1.6,0,0,1,.531-.272,2.5,2.5,0,0,1,.64-.1c.422-.016.845-.026,1.267-.032s.844-.008,1.266-.01l1.266,0c.422,0,.843-.007,1.264-.016a4.444,4.444,0,0,0,.972-.1,1.213,1.213,0,0,0,.6-.316,1.247,1.247,0,0,0,.3-.612,4.652,4.652,0,0,0,.085-.992q0-1.758.007-3.516t0-3.516q0-1.758,0-3.516T8.678,5.069a4.186,4.186,0,0,0-.1-1.005,1.388,1.388,0,0,0-.335-.645,1.347,1.347,0,0,0-.629-.348,3.968,3.968,0,0,0-.984-.113q-.615-.008-1.23-.012t-1.231,0q-.616,0-1.232,0L1.7,2.956a2.6,2.6,0,0,1-.664-.071A1.466,1.466,0,0,1,.51,2.641,1.155,1.155,0,0,1,.155,2.2a1.689,1.689,0,0,1-.143-.665A1.774,1.774,0,0,1,.123.811,1.129,1.129,0,0,1,.477.337a1.467,1.467,0,0,1,.55-.258A2.78,2.78,0,0,1,1.728,0q.685,0,1.37,0L4.467,0q.684,0,1.368,0T7.2.021A5.03,5.03,0,0,1,9.011.382a3.984,3.984,0,0,1,1.383.944,4.236,4.236,0,0,1,.893,1.459,5.794,5.794,0,0,1,.337,1.908q.016.922.02,1.845t0,1.845q0,.923-.007,1.845t0,1.845" transform="translate(77.971 40.513)"/>
    <path id="Trazado_715470" data-name="Trazado 715470" d="M9.062,9.328q-.706,0-1.412,0H6.237q-.707,0-1.414-.009T3.408,9.288a4.763,4.763,0,0,1-1.483-.254A2.677,2.677,0,0,1,.878,8.367a2.827,2.827,0,0,1-.63-1.094A5.326,5.326,0,0,1,.018,5.74c0-.229-.01-.459-.013-.688S0,4.592,0,4.363,0,3.9.01,3.675s.017-.458.033-.686A3.862,3.862,0,0,1,.307,1.795,2.877,2.877,0,0,1,.9.87a2.581,2.581,0,0,1,.886-.6A3.065,3.065,0,0,1,2.932.055q1.539-.009,3.077,0T9.08.074q1.534.015,3.066.034t3.061.035c.069,0,.139,0,.209.011s.141.016.21.028.139.027.208.045.136.038.2.061a2.789,2.789,0,0,1,1.126.733,3.468,3.468,0,0,1,.722,1.251A6.6,6.6,0,0,1,18.2,4.035a13.434,13.434,0,0,1-.085,2.272A4.341,4.341,0,0,1,17.8,7.555a2.95,2.95,0,0,1-.635.938,2.756,2.756,0,0,1-.943.6,3.77,3.77,0,0,1-1.243.238c-.492.016-.984.024-1.476.027s-.985,0-1.478-.006-.987-.013-1.48-.02-.987-.013-1.481-.016v.009m5.931-6.057L3.132,3.186V6.135l11.861.075Z" transform="translate(21.335 12.65)"/>
    <path id="Trazado_715471" data-name="Trazado 715471" d="M8.174.078q.616,0,1.231.005l1.231,0q.615,0,1.23.011t1.228.029a3.717,3.717,0,0,1,1.25.245,2.7,2.7,0,0,1,.942.619,2.8,2.8,0,0,1,.609.964,4.033,4.033,0,0,1,.25,1.278q.016.372.025.744t.009.745q0,.373-.009.745t-.028.743a4.03,4.03,0,0,1-.23,1.181,2.842,2.842,0,0,1-.543.923,2.429,2.429,0,0,1-.837.608,2.9,2.9,0,0,1-1.111.235q-1.312.031-2.627.042t-2.632,0Q6.844,9.2,5.526,9.172T2.886,9.11A3.109,3.109,0,0,1,1.823,8.9,2.525,2.525,0,0,1,.99,8.364a2.729,2.729,0,0,1-.577-.83,3.691,3.691,0,0,1-.3-1.089Q.06,5.99.031,5.527T0,4.6q0-.464.023-.927T.1,2.754A3.469,3.469,0,0,1,.418,1.622,2.651,2.651,0,0,1,1.049.787a2.812,2.812,0,0,1,.908-.53A3.886,3.886,0,0,1,3.1.04l.069,0h.206l1.2.01,1.2.01,1.2.01,1.2.01Zm4.919,3.155L3.136,3.162v2.9l9.956.063Z" transform="translate(73.448 13.058)"/>
    <path id="Trazado_715472" data-name="Trazado 715472" d="M5.891,9.283c-.242,0-.485,0-.728,0l-.728,0c-.243,0-.486,0-.728-.007s-.485-.014-.727-.029a3.537,3.537,0,0,1-1.174-.264A2.77,2.77,0,0,1,.9,8.372a2.837,2.837,0,0,1-.6-.927A3.753,3.753,0,0,1,.044,6.239Q.021,5.829.01,5.417T0,4.592q0-.412.013-.824T.05,2.947A3.667,3.667,0,0,1,.294,1.809,2.793,2.793,0,0,1,.852.92,2.522,2.522,0,0,1,1.689.333,2.933,2.933,0,0,1,2.769.1Q3.548.076,4.329.068t1.56,0Q6.668.077,7.447.1T9,.166a3.08,3.08,0,0,1,1.146.273,2.617,2.617,0,0,1,.868.649,2.946,2.946,0,0,1,.559.967,3.978,3.978,0,0,1,.217,1.229q.01.375.015.75t.005.75q0,.375-.006.75t-.018.749a3.623,3.623,0,0,1-.232,1.192,2.856,2.856,0,0,1-.582.935,2.723,2.723,0,0,1-.888.626A3.256,3.256,0,0,1,8.937,9.3c-.253.013-.506.019-.759.021s-.507,0-.761-.006S6.908,9.3,6.654,9.3s-.508-.011-.762-.013M3.076,6.03l5.765.057V3.3L3.076,3.238Z" transform="translate(52.855 0.615)"/>
    <path id="Trazado_715473" data-name="Trazado 715473" d="M3.009,6.209q0,.544,0,1.087t0,1.087q0,.543,0,1.087t0,1.087a2.61,2.61,0,0,1-.09.7,1.556,1.556,0,0,1-.271.547,1.237,1.237,0,0,1-.464.361,1.691,1.691,0,0,1-.67.139,1.639,1.639,0,0,1-.68-.117,1.174,1.174,0,0,1-.466-.353A1.525,1.525,0,0,1,.1,11.285a2.636,2.636,0,0,1-.087-.694Q.005,9.485,0,8.379T0,6.167Q0,5.061,0,3.954T.007,1.742A2.746,2.746,0,0,1,.09,1.05,1.57,1.57,0,0,1,.35.5,1.177,1.177,0,0,1,.809.132,1.624,1.624,0,0,1,1.49,0,1.709,1.709,0,0,1,2.162.13a1.234,1.234,0,0,1,.47.352,1.52,1.52,0,0,1,.278.54,2.526,2.526,0,0,1,.095.694q.005.562.006,1.123t0,1.123q0,.562,0,1.123t0,1.123" transform="translate(7.697 46.712)"/>
    <path id="Trazado_715474" data-name="Trazado 715474" d="M3.013,3.045c0,.144.012.295.026.447s.03.3.039.454a2.5,2.5,0,0,1-.006.429,1.039,1.039,0,0,1-.108.373,2.931,2.931,0,0,1-.275.418,3.2,3.2,0,0,1-.362.392,2.033,2.033,0,0,1-.4.291.86.86,0,0,1-.392.115.9.9,0,0,1-.4-.119,2.153,2.153,0,0,1-.427-.3,2.31,2.31,0,0,1-.356-.4,1.125,1.125,0,0,1-.189-.408c-.053-.278-.093-.562-.12-.85S0,3.308,0,3.018s.012-.581.037-.868S.1,1.578.153,1.3A1.267,1.267,0,0,1,.344.866,2.6,2.6,0,0,1,.7.434,2.094,2.094,0,0,1,1.11.112a.611.611,0,0,1,.36-.1A1.182,1.182,0,0,1,1.9.167a2.335,2.335,0,0,1,.417.319A3.51,3.51,0,0,1,2.687.9a3.546,3.546,0,0,1,.291.442,1,1,0,0,1,.11.37,2.453,2.453,0,0,1,.005.43c-.009.149-.026.3-.04.455s-.027.3-.027.448H3.013" transform="translate(7.65 28.157)"/>
    <path id="Trazado_715475" data-name="Trazado 715475" d="M22.449,46.012a20.881,20.881,0,0,1-8.31-1.5,22.17,22.17,0,0,1-7.173-4.649,22.563,22.563,0,0,1-5.045-7.308A23.961,23.961,0,0,1,0,23.1,23.152,23.152,0,0,1,6.646,6.778,22.659,22.659,0,0,1,13.8,1.854a21.55,21.55,0,0,1,17.3.06,22.211,22.211,0,0,1,7.029,4.951,23.082,23.082,0,0,1,4.719,7.3,23.859,23.859,0,0,1-.016,17.806,22.916,22.916,0,0,1-4.707,7.257,22.183,22.183,0,0,1-7.017,4.92,21.867,21.867,0,0,1-8.662,1.86M3.032,23.122a20.328,20.328,0,0,0,1.521,7.772,20,20,0,0,0,4.16,6.342A19.35,19.35,0,0,0,14.87,41.5a18.744,18.744,0,0,0,7.514,1.55,18.364,18.364,0,0,0,7.491-1.622,19.834,19.834,0,0,0,6.162-4.354,20.489,20.489,0,0,0,4.17-6.374A19.917,19.917,0,0,0,41.723,23,20.126,20.126,0,0,0,36.06,9.043a19.41,19.41,0,0,0-6.112-4.262,18.827,18.827,0,0,0-15.019-.043A19.386,19.386,0,0,0,8.752,9a20.028,20.028,0,0,0-4.179,6.343,20.391,20.391,0,0,0-1.542,7.783" transform="translate(28.895 29.626)" fill="#ffc403"/>
    <path id="Trazado_715476" data-name="Trazado 715476" d="M0,3.006.61,2.38l.684-.7.751-.77.81-.831L4.839,2.3,6.826,4.528l2,2.238,2.009,2.252-.553.557-.671.676-.772.778-.856.863L6.026,9.717,4.05,7.516,2.044,5.282,0,3.006" transform="translate(72.234 73.987)" fill="#06d1d1"/>
    <path id="Trazado_715477" data-name="Trazado 715477" d="M0,3.219l.764-.825.745-.8L2.242.8,2.969.014a4.069,4.069,0,0,1,.7.9,2.557,2.557,0,0,1,.317.9,1.973,1.973,0,0,1-.071.87,2.231,2.231,0,0,1-.461.8,2.24,2.24,0,0,1-.753.579,1.729,1.729,0,0,1-.849.151,2.3,2.3,0,0,1-.912-.28A4.139,4.139,0,0,1,0,3.219" transform="translate(82.644 84.759)" fill="#03a4a4"/>
    <path id="Rectángulo_353428" data-name="Rectángulo 353428" d="M0,0,22.6.241V3L0,2.777Z" transform="translate(3.248 3.344)" fill="#fff"/>
    <path id="Rectángulo_353429" data-name="Rectángulo 353429" d="M0,0,22.1.158V3.041L0,2.9Z" transform="translate(45.441 15.984)" fill="#fff"/>
    <path id="Rectángulo_353430" data-name="Rectángulo 353430" d="M0,0,15.855.169V2.916L0,2.759Z" transform="translate(70.725 4.047)" fill="#fff"/>
    <path id="Rectángulo_353431" data-name="Rectángulo 353431" d="M0,0,11.931.085V3.032L0,2.957Z" transform="translate(3.232 15.687)" fill="#fff"/>
    <path id="Rectángulo_353432" data-name="Rectángulo 353432" d="M0,0,11.792.126V2.912L0,2.8Z" transform="translate(35.013 3.65)" fill="#fff"/>
    <path id="Rectángulo_353433" data-name="Rectángulo 353433" d="M0,0,11.861.085V3.024L0,2.949Z" transform="translate(24.467 15.836)" fill="#fff"/>
    <path id="Rectángulo_353434" data-name="Rectángulo 353434" d="M0,0,9.956.071V2.963L0,2.9Z" transform="translate(76.584 16.219)" fill="#fff"/>
    <path id="Rectángulo_353435" data-name="Rectángulo 353435" d="M0,0,5.765.062V2.849L0,2.792Z" transform="translate(55.931 3.853)" fill="#fff"/>
    <path id="Trazado_715478" data-name="Trazado 715478" d="M0,19.969a20.39,20.39,0,0,1,1.542-7.783A20.028,20.028,0,0,1,5.721,5.843,19.385,19.385,0,0,1,11.9,1.586a18.828,18.828,0,0,1,15.019.043A19.41,19.41,0,0,1,33.028,5.89a20.044,20.044,0,0,1,4.128,6.287,20.242,20.242,0,0,1,1.535,7.674,19.917,19.917,0,0,1-1.516,7.7,20.489,20.489,0,0,1-4.17,6.374,19.834,19.834,0,0,1-6.162,4.354A18.364,18.364,0,0,1,19.352,39.9a18.744,18.744,0,0,1-7.514-1.55,19.35,19.35,0,0,1-6.157-4.264,20,20,0,0,1-4.16-6.342A20.328,20.328,0,0,1,0,19.969M3.01,19.9a17.233,17.233,0,0,0,1.268,6.606A16.841,16.841,0,0,0,7.793,31.89,16.272,16.272,0,0,0,13.015,35.5a15.886,15.886,0,0,0,12.707-.066,16.522,16.522,0,0,0,5.171-3.621,17.221,17.221,0,0,0,3.573-18.362A16.828,16.828,0,0,0,31,8.095a16.33,16.33,0,0,0-5.175-3.63A15.97,15.97,0,0,0,13.1,4.406,16.4,16.4,0,0,0,7.874,7.992a16.949,16.949,0,0,0-3.542,5.346A17.241,17.241,0,0,0,3.01,19.9" transform="translate(31.927 32.779)"/>
    <path id="Trazado_715479" data-name="Trazado 715479" d="M0,16.813a17.241,17.241,0,0,1,1.323-6.564A16.949,16.949,0,0,1,4.865,4.9a16.4,16.4,0,0,1,5.221-3.586,15.971,15.971,0,0,1,12.731.059,16.33,16.33,0,0,1,5.175,3.63,16.828,16.828,0,0,1,3.465,5.354,17.18,17.18,0,0,1-3.573,18.362,16.522,16.522,0,0,1-5.171,3.621,15.886,15.886,0,0,1-12.707.066A16.272,16.272,0,0,1,4.784,28.8a16.841,16.841,0,0,1-3.516-5.382A17.233,17.233,0,0,1,0,16.813m16.432-.147q.366,1.009.711,1.97t.681,1.888c.224.619.445,1.228.666,1.832s.442,1.2.665,1.8c.077.207.151.434.236.654a3.127,3.127,0,0,0,.3.614,1.123,1.123,0,0,0,.451.412,1.037,1.037,0,0,0,.685.047,1.777,1.777,0,0,0,.5-.211,2.99,2.99,0,0,0,.485-.365,3.72,3.72,0,0,0,.424-.46,3.19,3.19,0,0,0,.32-.5q.656-1.282,1.291-2.575t1.262-2.589q.626-1.3,1.246-2.594T27.606,14a8.937,8.937,0,0,0,.487-1.175,2.472,2.472,0,0,0,.139-.851,1.065,1.065,0,0,0-.213-.609,1.689,1.689,0,0,0-.57-.451,1.446,1.446,0,0,0-.674-.194,1.051,1.051,0,0,0-.611.2,2.483,2.483,0,0,0-.593.63,8.063,8.063,0,0,0-.618,1.087l-.938,1.927-.952,1.954-.979,2.009-1.019,2.091c-.268-.735-.526-1.451-.777-2.152s-.5-1.388-.743-2.063-.49-1.339-.739-2-.5-1.3-.767-1.949a3.218,3.218,0,0,0-.288-.535,3.83,3.83,0,0,0-.4-.513,2.44,2.44,0,0,0-.457-.389.932.932,0,0,0-.448-.163A.842.842,0,0,0,16,11a2.412,2.412,0,0,0-.468.376,3.748,3.748,0,0,0-.419.506,2.887,2.887,0,0,0-.295.529c-.27.658-.531,1.32-.785,1.988s-.5,1.343-.752,2.025-.5,1.372-.747,2.072-.506,1.408-.77,2.128l-.22-.422-.192-.366c-.06-.115-.117-.224-.171-.33s-.106-.209-.157-.313q-.454-.927-.906-1.856l-.905-1.858q-.453-.929-.909-1.857T7.39,11.77a2.477,2.477,0,0,0-.348-.532,1.474,1.474,0,0,0-.441-.351,1.161,1.161,0,0,0-.535-.125,1.6,1.6,0,0,0-.631.146,1.623,1.623,0,0,0-.571.395,1.2,1.2,0,0,0-.272.515,1.733,1.733,0,0,0-.033.6,3.371,3.371,0,0,0,.147.662,1.562,1.562,0,0,0,.064.165c.024.054.051.107.079.16s.057.106.085.158.056.106.082.159q.663,1.364,1.321,2.73t1.32,2.728Q8.32,20.548,8.991,21.9t1.361,2.7a2.487,2.487,0,0,0,.317.463,3.263,3.263,0,0,0,.436.424,2.311,2.311,0,0,0,.48.3.971.971,0,0,0,.451.1.916.916,0,0,0,.424-.161,2.333,2.333,0,0,0,.428-.369,3.641,3.641,0,0,0,.377-.483,3.1,3.1,0,0,0,.271-.5c.253-.613.5-1.23.737-1.854s.475-1.254.71-1.893.47-1.288.71-1.948.485-1.333.739-2.02" transform="translate(34.937 35.869)" fill="#abffff"/>
    <path id="Trazado_715480" data-name="Trazado 715480" d="M11.885,5.946c-.254.687-.5,1.359-.739,2.02s-.475,1.309-.71,1.948-.47,1.269-.71,1.893-.484,1.241-.737,1.854a3.1,3.1,0,0,1-.271.5,3.64,3.64,0,0,1-.377.483,2.333,2.333,0,0,1-.428.369.916.916,0,0,1-.424.161.97.97,0,0,1-.451-.1,2.311,2.311,0,0,1-.48-.3,3.263,3.263,0,0,1-.436-.424,2.487,2.487,0,0,1-.317-.463q-.69-1.344-1.361-2.7T3.111,8.466Q2.448,7.1,1.79,5.739T.469,3.009C.443,2.955.415,2.9.387,2.85S.329,2.744.3,2.691s-.055-.106-.079-.16a1.559,1.559,0,0,1-.064-.165A3.372,3.372,0,0,1,.012,1.7a1.733,1.733,0,0,1,.033-.6A1.2,1.2,0,0,1,.317.583,1.623,1.623,0,0,1,.888.188,1.6,1.6,0,0,1,1.519.042a1.162,1.162,0,0,1,.535.125A1.474,1.474,0,0,1,2.5.518a2.476,2.476,0,0,1,.348.532Q3.3,1.976,3.76,2.9t.909,1.857l.905,1.858q.452.929.906,1.856c.051.1.1.207.157.313s.111.215.171.33L7,9.484l.22.422q.4-1.08.77-2.128t.747-2.072c.248-.682.5-1.357.752-2.025s.515-1.33.785-1.988a2.888,2.888,0,0,1,.295-.529,3.747,3.747,0,0,1,.419-.506,2.413,2.413,0,0,1,.468-.376A.842.842,0,0,1,11.9.143a.932.932,0,0,1,.448.163A2.44,2.44,0,0,1,12.8.7a3.828,3.828,0,0,1,.4.513,3.219,3.219,0,0,1,.288.535c.264.644.518,1.292.767,1.949s.494,1.32.739,2,.491,1.362.743,2.063.509,1.418.777,2.152l1.019-2.091L18.517,5.8l.952-1.954.938-1.927A8.068,8.068,0,0,1,21.024.834,2.484,2.484,0,0,1,21.617.2a1.051,1.051,0,0,1,.611-.2A1.447,1.447,0,0,1,22.9.2a1.689,1.689,0,0,1,.57.451,1.065,1.065,0,0,1,.213.609,2.471,2.471,0,0,1-.139.851,8.937,8.937,0,0,1-.487,1.175q-.625,1.294-1.246,2.592T20.567,8.469q-.626,1.3-1.262,2.589t-1.292,2.575a3.19,3.19,0,0,1-.32.5,3.72,3.72,0,0,1-.424.46,2.991,2.991,0,0,1-.485.365,1.777,1.777,0,0,1-.5.211,1.037,1.037,0,0,1-.685-.046,1.123,1.123,0,0,1-.451-.411,3.129,3.129,0,0,1-.3-.614c-.085-.22-.159-.448-.236-.654-.223-.6-.444-1.2-.665-1.8S13.5,10.423,13.278,9.8s-.45-1.247-.681-1.888-.468-1.3-.711-1.97" transform="translate(39.484 46.588)"/>
  </g>
</svg>
