<svg xmlns="http://www.w3.org/2000/svg" xmlns:xlink="http://www.w3.org/1999/xlink" width="85.366" height="85.409" viewBox="0 0 85.366 85.409">
  <defs>
    <clipPath id="clip-path">
      <rect id="Rectángulo_353657" data-name="Rectángulo 353657" width="85.366" height="85.409" fill="none"/>
    </clipPath>
  </defs>
  <g id="Grupo_1003612" data-name="Grupo 1003612" clip-path="url(#clip-path)">
    <path id="Trazado_716000" data-name="Trazado 716000" d="M81.4,0a1.481,1.481,0,0,0,.278.162,4.868,4.868,0,0,1,3.654,4.943q0,19.59,0,39.18c0,5.613-.088,11.228.036,16.838.065,2.96-1.911,5.6-5.767,5.559-7.939-.079-15.88-.024-23.82-.024H54.772c.869.869,1.638,1.67,2.452,2.424.139.128.481.107.716.07a2.756,2.756,0,0,1,2.433.741c2.772,2.607,5.545,5.213,8.291,7.846a2.534,2.534,0,0,1,.122,3.744c-1.013,1.093-2.077,2.144-3.169,3.163a2.7,2.7,0,0,1-3.72.035q-4.284-3.963-8.494-8a2.554,2.554,0,0,1-.747-2.375.864.864,0,0,0-.157-.643c-.8-.9-1.64-1.774-2.445-2.633-1.088.594-1.926,1.111-2.814,1.527a16.752,16.752,0,0,1-20.8-5.3,1.339,1.339,0,0,0-1.261-.612q-9.9.021-19.793.005a5.009,5.009,0,0,1-5.3-4.039A6.663,6.663,0,0,1,0,61.291Q0,33.323,0,5.355C0,2.576,1.107,1.061,3.818.114,3.865.1,3.9.039,3.933,0ZM55.734,63.9a1.939,1.939,0,0,0,.3.031c7.91,0,15.819.01,23.729-.024,2.121-.009,2.789-.747,2.789-2.809q0-22.461,0-44.923v-.949H2.76v.929q0,22.5,0,45.006c0,2.011.771,2.769,2.842,2.77q8.995.007,17.99,0c.293,0,.585-.036.722-.045L23.23,57.277c-.562,0-1.246.022-1.928-.005-.955-.038-1.533-.564-1.528-1.346s.584-1.3,1.542-1.342c.655-.029,1.315.016,1.969-.023.217-.013.557-.135.613-.288.331-.9.595-1.818.905-2.808-1.148,0-2.23.012-3.311,0s-1.708-.515-1.717-1.344.606-1.341,1.693-1.353c1.4-.016,2.8-.034,4.2.009a1.5,1.5,0,0,0,1.35-.659,16.828,16.828,0,0,1,22.946-2.942c.757.557,1.457,1.188,2.291,1.873,0-1.9,0-3.671,0-5.441,0-1.333.429-1.756,1.768-1.759q1.628,0,3.255,0c1.255,0,1.717.428,1.719,1.642q.013,7.126,0,14.252c0,1.184-.446,1.6-1.64,1.635-.244.006-.487.038-.542.043L55.734,63.9m-14.1-51.466q18.935,0,37.87.015c.8,0,1.1-.189,1.083-1.015-.054-2.138,0-4.279-.031-6.418a6.131,6.131,0,0,0-.26-1.465c-.161-.608-.55-.85-1.249-.849q-36.756.028-73.512.017c-1.86,0-2.667.768-2.683,2.569-.017,2-.005,4,0,6,0,1.142,0,1.143,1.173,1.143H41.635M40.007,44.648A13.591,13.591,0,0,0,26.226,58.2c.023,7.271,6.306,13.316,13.823,13.3a13.432,13.432,0,1,0-.042-26.855M58.6,72.054l-3.132,2.74,8.091,7.654,3.11-2.765L58.6,72.054M55.029,42.57c0,2.393.093,4.7-.033,6.994-.085,1.552.644,2.8,1.123,4.292V42.57ZM52.143,69.1l2.4,2.591.586-.631L54.9,71.2,52.65,68.556l-.507.545" transform="translate(0)" fill="#161615"/>
    <path id="Trazado_716001" data-name="Trazado 716001" d="M65.032,117.035l1.079-6.481c.056,0,.3-.036.543-.043,1.193-.032,1.638-.451,1.64-1.635q.013-7.126,0-14.252c0-1.214-.464-1.637-1.719-1.641q-1.628-.006-3.255,0c-1.339,0-1.766.426-1.768,1.759,0,1.769,0,3.539,0,5.441-.834-.685-1.533-1.316-2.291-1.873a16.829,16.829,0,0,0-22.946,2.942,1.5,1.5,0,0,1-1.35.659c-1.4-.043-2.8-.025-4.2-.009-1.088.012-1.7.52-1.694,1.353s.628,1.327,1.717,1.344,2.164,0,3.312,0c-.311.991-.574,1.911-.905,2.808-.056.152-.4.275-.613.288-.655.039-1.314-.006-1.969.023-.957.041-1.538.564-1.542,1.342s.573,1.309,1.528,1.347c.682.027,1.366.005,1.928.005l1.083,6.608c-.136.009-.429.045-.722.045q-8.995.005-17.99,0c-2.071,0-2.842-.759-2.842-2.77q0-22.5,0-45.006v-.929H91.852v.949q0,22.461,0,44.923c0,2.061-.669,2.8-2.789,2.809-7.91.034-15.819.021-23.729.024a1.948,1.948,0,0,1-.3-.031M32.383,97.394a12.7,12.7,0,1,0-13-12.744,12.827,12.827,0,0,0,13,12.744m53.175.2q0-5.666,0-11.333c0-1.176-.45-1.631-1.628-1.644s-2.341-.013-3.512,0c-1.132.013-1.586.459-1.607,1.581-.017.916,0,1.833,0,2.75q0,9.833,0,19.666c0,1.548.367,1.893,1.975,1.895,1,0,2,0,3,0,1.35,0,1.778-.423,1.779-1.748q0-5.583,0-11.167M70.147,99.606c0,3.082-.007,6.164,0,9.246,0,1.183.5,1.651,1.723,1.657,1.17.006,2.34.01,3.51,0a1.386,1.386,0,0,0,1.569-1.472c.027-.582.007-1.166.007-1.749q0-8.288,0-16.576c0-1.505-.422-1.906-1.986-1.908-1,0-2,0-3,0-1.373,0-1.827.447-1.829,1.807q-.007,4.5,0,9M68.077,76.426H80.749c1.464,0,2.1-.426,2.082-1.385-.018-.923-.631-1.319-2.062-1.319q-12.672,0-25.344,0a5.164,5.164,0,0,0-1.021.068,1.224,1.224,0,0,0-1.064,1.229,1.207,1.207,0,0,0,.965,1.3,4.266,4.266,0,0,0,1.1.1q6.336.009,12.672,0M61.4,82.032c2.166,0,4.331-.006,6.5,0a1.414,1.414,0,0,0,1.45-.816c.431-.955-.3-1.868-1.555-1.873q-6.368-.025-12.737,0c-1.074,0-1.706.512-1.726,1.329-.021.865.6,1.355,1.746,1.358,2.109.006,4.217,0,6.326,0M23.009,101.907c-.741,0-1.484-.029-2.223.008a1.332,1.332,0,1,0-.025,2.661c1.48.048,2.965.046,4.445,0a1.356,1.356,0,0,0,1.382-1.318,1.38,1.38,0,0,0-1.441-1.343c-.711-.035-1.425-.007-2.138-.006m-.038,8.5v.01h2.053c.057,0,.114,0,.171-.01a1.4,1.4,0,0,0,1.394-1.311,1.34,1.34,0,0,0-1.344-1.348c-1.509-.05-3.022-.052-4.531,0a1.281,1.281,0,0,0-1.327,1.342,1.3,1.3,0,0,0,1.362,1.31c.739.043,1.482.009,2.223.009" transform="translate(-9.299 -53.138)" fill="#fff0c0"/>
    <path id="Trazado_716002" data-name="Trazado 716002" d="M51.218,21.856H13.605c-1.17,0-1.172,0-1.173-1.143,0-2-.013-4,0-6,.016-1.8.823-2.569,2.683-2.569q36.756,0,73.512-.017c.7,0,1.088.242,1.249.849a6.144,6.144,0,0,1,.26,1.465c.028,2.139-.023,4.28.031,6.418.021.826-.281,1.016-1.083,1.015q-18.935-.032-37.87-.015M18.6,17.016a2.136,2.136,0,0,0,2.162,2.114,2.244,2.244,0,0,0,2.178-2.147,2.2,2.2,0,0,0-2.212-2.1A2.1,2.1,0,0,0,18.6,17.016m8.058-.061a2.134,2.134,0,0,0,2.115,2.166A2.226,2.226,0,0,0,30.983,17a2.2,2.2,0,0,0-2.2-2.113,2.116,2.116,0,0,0-2.121,2.067m8.056.036a2.137,2.137,0,0,0,2.149,2.125,2.113,2.113,0,1,0,.017-4.226,2.13,2.13,0,0,0-2.166,2.1" transform="translate(-9.583 -9.425)" fill="#fff0c0"/>
    <path id="Trazado_716003" data-name="Trazado 716003" d="M128.369,200.48a13.432,13.432,0,1,1,.042,26.855c-7.517.017-13.8-6.028-13.823-13.3a13.592,13.592,0,0,1,13.781-13.556m.007,1.438A12.128,12.128,0,0,0,116.1,214.151c.026,6.4,5.675,11.747,12.385,11.714a11.977,11.977,0,1,0-.112-23.948" transform="translate(-88.362 -155.832)" fill="#03a4a4"/>
    <path id="Trazado_716004" data-name="Trazado 716004" d="M245.5,323.54l8.069,7.629-3.11,2.765-8.091-7.654,3.132-2.74" transform="translate(-186.895 -251.486)" fill="#ffc403"/>
    <path id="Trazado_716005" data-name="Trazado 716005" d="M240.3,191.148h1.091v11.286c-.479-1.492-1.208-2.74-1.123-4.292.126-2.294.033-4.6.033-6.994" transform="translate(-185.274 -148.578)" fill="#ffc403"/>
    <path id="Trazado_716006" data-name="Trazado 716006" d="M227.828,308.378l.507-.545,2.246,2.645.235-.141-.586.631-2.4-2.591" transform="translate(-175.685 -239.277)" fill="#fff"/>
    <path id="Trazado_716007" data-name="Trazado 716007" d="M57.059,110.113A12.7,12.7,0,1,1,70.127,97.58a12.826,12.826,0,0,1-13.068,12.534m3.988-3.441c-1.673-2.771-3.293-5.413-4.857-8.087a3.481,3.481,0,0,1-.459-1.635c-.045-2.832-.021-5.666-.021-8.5v-.939c-4.338.835-7.26,3.139-8.459,7.145a9.255,9.255,0,0,0,3.085,10.257c3.117,2.679,6.737,3.113,10.711,1.756m6.1-10.678c-.282-4.061-4.173-7.836-8.585-8.368v8.368Zm-3.759,8.953c1.644-.789,3.335-3.755,3.575-5.45.077-.546-.308-.557-.706-.556q-2.648.005-5.3,0H59.751l3.634,6.006" transform="translate(-33.975 -65.858)" fill="#161615"/>
    <path id="Trazado_716008" data-name="Trazado 716008" d="M310.428,154.294q0,5.583,0,11.166c0,1.325-.429,1.743-1.779,1.748-1,0-2,0-3,0-1.609,0-1.974-.347-1.975-1.895q0-9.833,0-19.666c0-.917-.013-1.834,0-2.75.021-1.122.475-1.568,1.607-1.581q1.756-.02,3.512,0c1.178.013,1.627.468,1.628,1.644q.007,5.667,0,11.333m-3.9,10.17h1.063V144.037h-1.063Z" transform="translate(-234.169 -109.837)" fill="#161615"/>
    <path id="Trazado_716009" data-name="Trazado 716009" d="M265.853,170.939q0-4.5,0-9c0-1.36.456-1.8,1.829-1.807q1.5,0,3,0c1.564,0,1.985.4,1.985,1.907q0,8.288,0,16.576c0,.583.02,1.167-.007,1.749a1.385,1.385,0,0,1-1.568,1.472c-1.17.012-2.34.008-3.51,0-1.219-.006-1.719-.474-1.723-1.657-.01-3.082,0-6.164,0-9.246m3.958-8.039h-1.145V179.1h1.145Z" transform="translate(-205.005 -124.472)" fill="#161615"/>
    <path id="Trazado_716010" data-name="Trazado 716010" d="M207.159,95.126q-6.336,0-12.672,0a4.259,4.259,0,0,1-1.1-.1,1.207,1.207,0,0,1-.965-1.3,1.225,1.225,0,0,1,1.064-1.229,5.2,5.2,0,0,1,1.021-.068q12.672-.005,25.344,0c1.431,0,2.044.4,2.062,1.32.019.96-.618,1.385-2.082,1.385H207.159" transform="translate(-148.38 -71.837)" fill="#161615"/>
    <path id="Trazado_716011" data-name="Trazado 716011" d="M200.466,120.333c-2.109,0-4.217,0-6.326,0-1.15,0-1.766-.493-1.746-1.358.019-.817.652-1.327,1.726-1.329q6.368-.014,12.737,0c1.254,0,1.987.918,1.555,1.873a1.414,1.414,0,0,1-1.45.816c-2.166-.01-4.331,0-6.5,0" transform="translate(-148.36 -91.437)" fill="#161615"/>
    <path id="Trazado_716012" data-name="Trazado 716012" d="M47.7,218.943c.713,0,1.427-.028,2.138.007a1.38,1.38,0,0,1,1.441,1.344,1.356,1.356,0,0,1-1.382,1.317c-1.48.048-2.965.051-4.445,0a1.332,1.332,0,1,1,.025-2.661c.739-.037,1.482-.008,2.223-.009" transform="translate(-33.99 -170.175)" fill="#161615"/>
    <path id="Trazado_716013" data-name="Trazado 716013" d="M47.662,247.73c-.741,0-1.484.034-2.223-.009a1.3,1.3,0,0,1-1.362-1.31,1.281,1.281,0,0,1,1.327-1.342c1.509-.05,3.022-.048,4.53,0a1.34,1.34,0,0,1,1.344,1.348,1.4,1.4,0,0,1-1.394,1.311c-.057.006-.114.01-.171.01H47.662v-.01" transform="translate(-33.989 -190.462)" fill="#161615"/>
    <path id="Trazado_716014" data-name="Trazado 716014" d="M39.416,26.649a2.1,2.1,0,0,1,2.128-2.131,2.2,2.2,0,0,1,2.212,2.1,2.244,2.244,0,0,1-2.178,2.147,2.136,2.136,0,0,1-2.162-2.113" transform="translate(-30.395 -19.058)" fill="#161615"/>
    <path id="Trazado_716015" data-name="Trazado 716015" d="M74.624,26.6a2.116,2.116,0,0,1,2.121-2.067,2.2,2.2,0,0,1,2.2,2.113,2.226,2.226,0,0,1-2.205,2.12A2.133,2.133,0,0,1,74.624,26.6" transform="translate(-57.545 -19.068)" fill="#161615"/>
    <path id="Trazado_716016" data-name="Trazado 716016" d="M109.823,26.641a2.13,2.13,0,0,1,2.166-2.1,2.113,2.113,0,1,1-.017,4.226,2.137,2.137,0,0,1-2.149-2.125" transform="translate(-84.688 -19.075)" fill="#161615"/>
    <path id="Trazado_716017" data-name="Trazado 716017" d="M133.481,206.939a11.977,11.977,0,1,1,.112,23.948c-6.709.032-12.359-5.311-12.384-11.714a12.128,12.128,0,0,1,12.273-12.233m0,2.719A9.27,9.27,0,1,0,143,218.891a9.387,9.387,0,0,0-9.524-9.233" transform="translate(-93.467 -160.852)" fill="#161615"/>
    <path id="Trazado_716018" data-name="Trazado 716018" d="M70.218,116.4c-3.974,1.356-7.594.923-10.711-1.757a9.255,9.255,0,0,1-3.085-10.257c1.2-4.006,4.12-6.311,8.459-7.145v.939c0,2.833-.024,5.666.021,8.5a3.481,3.481,0,0,0,.459,1.635c1.564,2.674,3.185,5.316,4.857,8.087" transform="translate(-43.146 -75.582)" fill="#b20d0d"/>
    <path id="Trazado_716019" data-name="Trazado 716019" d="M116,106.112h-8.585c0-2.8,0-5.585,0-8.369,4.412.532,8.3,4.308,8.585,8.369" transform="translate(-82.829 -75.975)" fill="#06d1d1"/>
    <path id="Trazado_716020" data-name="Trazado 716020" d="M116.255,154.554l-3.634-6.006h1.208q2.648,0,5.3,0c.4,0,.784.011.706.556-.24,1.7-1.931,4.661-3.575,5.45" transform="translate(-86.845 -115.465)" fill="#ffc403"/>
    <rect id="Rectángulo_353655" data-name="Rectángulo 353655" width="1.063" height="20.427" transform="translate(72.36 34.2)" fill="#06d1d1"/>
    <rect id="Rectángulo_353656" data-name="Rectángulo 353656" width="1.145" height="16.195" transform="translate(63.661 38.429)" fill="#b20d0d"/>
    <path id="Trazado_716021" data-name="Trazado 716021" d="M142.8,219.149a9.27,9.27,0,1,1,.042,18.534,9.27,9.27,0,1,1-.042-18.534" transform="translate(-102.79 -170.343)" fill="#fff0c0"/>
  </g>
</svg>
