<svg id="Grupo_1003473" data-name="Grupo 1003473" xmlns="http://www.w3.org/2000/svg" xmlns:xlink="http://www.w3.org/1999/xlink" width="139.691" height="139.2" viewBox="0 0 139.691 139.2">
  <defs>
    <clipPath id="clip-path">
      <rect id="Rectángulo_353404" data-name="Rectángulo 353404" width="139.691" height="139.2" fill="none"/>
    </clipPath>
  </defs>
  <g id="Grupo_1003473-2" data-name="Grupo 1003473" clip-path="url(#clip-path)">
    <path id="Trazado_715396" data-name="Trazado 715396" d="M0,130.228v-13.6a27.027,27.027,0,0,1,2.842.111c1.388.193,1.7-.311,1.7-1.683Q4.472,79.379,4.5,43.7a12.133,12.133,0,0,1,2.212-7.665,11.5,11.5,0,0,1,9.8-4.6c11.979.031,23.959,0,35.938.034,1.095,0,1.63-.135,1.6-1.416a21.1,21.1,0,0,1,.609-5.113C57.654,11.906,67.272,2.628,80.5.467A30.413,30.413,0,0,1,106.41,7.823a30.223,30.223,0,0,1,10.7,22.491c.032.863.256,1.189,1.169,1.153,1.767-.071,3.539-.024,5.308-.019a11.218,11.218,0,0,1,9.394,4.585,12.123,12.123,0,0,1,2.212,7.665q-.02,34.526.006,69.052c0,1.292-.607,3.1.27,3.743.9.654,2.61.2,3.966.219a.893.893,0,0,0,.259-.078v13.6c-.509.278-.452.827-.605,1.272a11.485,11.485,0,0,1-4.768,6.026,25.708,25.708,0,0,1-4.158,1.675H8.986c-.143-.427-.568-.408-.883-.5a11.243,11.243,0,0,1-7.071-6.063c-.4-.787-.312-1.77-1.032-2.409m117.254-11.212c-.223,2.223-.223,2.223-2.556,2.223-8.3,0-16.608.011-24.912-.016a3.125,3.125,0,0,0-2.1.722,16.279,16.279,0,0,1-10.155,3.709c-5.127.052-10.255.04-15.382.014a16.593,16.593,0,0,1-10.535-3.809,2.713,2.713,0,0,0-1.854-.634c-2.9.034-5.808.014-8.712.014-11.708,0-23.415.016-35.122-.026-1.135,0-1.49.294-1.424,1.428.1,1.671.022,3.352.028,5.028a6.928,6.928,0,0,0,.755,3.408c1.478,2.682,3.827,3.619,6.792,3.617q57.789-.034,115.578-.017c.453,0,.907-.018,1.359-.051a6.468,6.468,0,0,0,6.077-6.05c.117-2.033-.007-4.079.1-6.113.056-1.086-.374-1.259-1.33-1.244-3.266.052-6.534.02-9.8.02-2.278,0-2.278,0-2.393-2.2.015-.452.044-.9.044-1.356q0-35.615,0-71.231a5,5,0,0,1,0-.679c.1-.722-.2-.931-.916-.914-1.86.045-3.723.07-5.58-.009a1.569,1.569,0,0,0-1.642,1.035A30.714,30.714,0,0,1,95.125,61.325,31.387,31.387,0,0,1,57.635,45.966a1.8,1.8,0,0,0-1.867-1.111q-18.174.051-36.349-.01c-1.227-.005-1.468.321-1.466,1.491q.056,34.46,0,68.92c0,1.153.215,1.508,1.456,1.5,10.482-.058,20.965-.018,31.448-.055a3.8,3.8,0,0,1,2.918,1.046,11.821,11.821,0,0,0,7.54,3.352c4.894.332,9.8.073,14.694.141a13.379,13.379,0,0,0,9.906-3.709,2.844,2.844,0,0,1,2.181-.817q13.273.033,26.547.009c2.422,0,2.422,0,2.609,2.292M91.807,57.549c-2.668-8.007-5.316-15.933-7.939-23.867-.226-.685-.78-.827-1.311-1.048C75.417,29.66,68.264,26.715,61.142,23.7c-1.111-.471-1.482-.359-1.806.858A27.035,27.035,0,0,0,72.67,55.147a26.461,26.461,0,0,0,19.138,2.4M106.335,14.16a.929.929,0,0,0-.237.124q-8.722,8.557-17.45,17.107a1.3,1.3,0,0,0-.336,1.559c2.392,7.111,4.755,14.233,7.151,21.343.629,1.868.9,1.956,2.587,1.09.443-.228.869-.487,1.3-.736,14.383-8.289,17.834-28.29,6.986-40.488M84.719,4.466C75.155,4.92,67.3,9.371,62,18.2c-.437.728-.268.935.436,1.226q10.853,4.48,21.679,9.023a1.115,1.115,0,0,0,1.418-.27q8.4-8.3,16.855-16.546c.756-.734.464-1.009-.178-1.5-4.963-3.811-10.628-5.5-17.489-5.666M8.988,79v34.937c0,2.791,0,2.716,2.837,2.822,1.354.051,1.734-.282,1.731-1.693q-.076-34.6-.035-69.194c0-3.846,1.6-5.435,5.451-5.436q14.567,0,29.134,0c2.088,0,4.175-.024,6.262.012.739.013.975-.148.718-.919a8.758,8.758,0,0,1-.516-2.381c-.044-1.106-.567-1.275-1.547-1.273q-18.106.046-36.214.021c-5.143,0-7.822,2.658-7.823,7.761q0,17.672,0,35.344m121.716.063q0-17.945,0-35.89c-.005-4.414-2.818-7.227-7.213-7.277q-1.5-.017-3,0c-1.176.015-2.737-.4-3.422.2-.747.645-.649,2.237-.98,3.4-.209.735-.008.968.75.953,1.678-.033,3.358-.014,5.037.011a4.278,4.278,0,0,1,3.465,1.85,5.614,5.614,0,0,1,.835,3.631q-.006,33.852,0,67.7c0,3.1,0,3.047,3.125,3.113,1.1.023,1.441-.221,1.437-1.392-.048-12.1-.03-24.2-.03-36.3" transform="translate(0 0)" fill="#020202"/>
    <path id="Trazado_715397" data-name="Trazado 715397" d="M155.289,214.018c-.187-2.292-.187-2.292-2.609-2.292q-13.274,0-26.547-.009a2.844,2.844,0,0,0-2.181.817,13.379,13.379,0,0,1-9.906,3.709c-4.9-.068-9.8.19-14.694-.141a11.821,11.821,0,0,1-7.54-3.352,3.8,3.8,0,0,0-2.918-1.046c-10.483.037-20.965,0-31.448.055-1.241.007-1.457-.349-1.456-1.5q.053-34.46,0-68.92c0-1.17.239-1.5,1.466-1.491q18.174.081,36.348.01a1.8,1.8,0,0,1,1.867,1.111,31.386,31.386,0,0,0,37.489,15.359,30.714,30.714,0,0,0,18.452-15.437,1.569,1.569,0,0,1,1.642-1.035c1.857.079,3.721.054,5.581.009.711-.017,1.015.192.916.914a5.05,5.05,0,0,0,0,.679q0,35.615,0,71.231c0,.452-.028.9-.043,1.356l-4.41-.026M94.19,187.4a6.691,6.691,0,1,0-13.347.216c.072.674.114,1.144-.578,1.586-2.785,1.782-5.531,3.626-8.263,5.488a1.119,1.119,0,0,1-1.453.008,5.807,5.807,0,0,0-3.366-.909,6.729,6.729,0,1,0,6.717,5.969,1.292,1.292,0,0,1,.672-1.428q4.093-2.678,8.145-5.42a1.186,1.186,0,0,1,1.464-.077,6.3,6.3,0,0,0,6.594.029,1.268,1.268,0,0,1,1.569.081c2.093,1.433,4.19,2.863,6.331,4.223,1.443.916,2.513,1.64,2.477,3.849-.062,3.853,3.7,6.689,7.406,6.175a6.679,6.679,0,0,0,5.754-7.925,1.312,1.312,0,0,1,.464-1.518q5.616-4.406,11.161-8.9a1.241,1.241,0,0,1,1.56-.234,5.941,5.941,0,0,0,5.737-.073,1.484,1.484,0,0,1,1.83.209c1.861,1.445,3.727,2.888,5.659,4.234.94.655,1.455,1.28,1.109,2.507a4.231,4.231,0,0,0,.113,2.009,6.722,6.722,0,1,0,3.671-7.523,1.339,1.339,0,0,1-1.668-.133c-2.073-1.614-4.19-3.175-6.306-4.733a1.165,1.165,0,0,1-.562-1.323c.562-3.646-1.119-6.328-4.63-7.544a6.394,6.394,0,0,0-6.605,1.255,6.263,6.263,0,0,0-2.173,6.348,1.332,1.332,0,0,1-.591,1.569q-5.549,4.381-11.047,8.827a1.233,1.233,0,0,1-1.555.23,5.914,5.914,0,0,0-5.969.215,1.337,1.337,0,0,1-1.682-.123q-3.708-2.521-7.47-4.962c-.9-.58-1.677-1.133-1.169-2.2M78.333,175.8c5.671,0,11.342-.022,17.013.022.962.007,1.2-.275,1.2-1.216q-.05-14.542,0-29.084c0-.912-.274-1.128-1.152-1.126q-16.878.041-33.755,0c-.918,0-1.116.289-1.113,1.149q.041,14.542,0,29.084c0,.96.26,1.2,1.207,1.2,5.535-.045,11.07-.022,16.605-.022m54.215-4.446h19.6c3.087,0,3.02,0,3.111-3.094.036-1.229-.335-1.471-1.506-1.467-13.52.044-27.04.028-40.559.028-3.241,0-3.186,0-3.252,3.233-.023,1.118.343,1.329,1.375,1.323,7.077-.043,14.155-.022,21.232-.022m-31.569-2.333c0,2.333,0,2.333,2.338,2.333,2.2,0,2.2,0,2.2-2.2,0-2.335,0-2.335-2.341-2.335-2.2,0-2.2,0-2.2,2.2" transform="translate(-38.035 -95.002)" fill="#abffff"/>
    <path id="Trazado_715398" data-name="Trazado 715398" d="M126.776,371.15l4.411.026c.115,2.2.115,2.2,2.393,2.2,3.267,0,6.535.032,9.8-.02.956-.015,1.386.158,1.329,1.244-.1,2.034.02,4.08-.1,6.113a6.469,6.469,0,0,1-6.077,6.05c-.452.034-.906.051-1.36.052q-57.789,0-115.577.017c-2.965,0-5.314-.935-6.793-3.617a6.929,6.929,0,0,1-.755-3.409c-.005-1.676.069-3.357-.028-5.028-.066-1.134.288-1.432,1.424-1.428,11.707.042,23.415.026,35.122.026,2.9,0,5.809.02,8.712-.014a2.713,2.713,0,0,1,1.854.633A16.593,16.593,0,0,0,71.673,377.8c5.127.026,10.255.037,15.382-.014a16.279,16.279,0,0,0,10.155-3.708,3.124,3.124,0,0,1,2.1-.723c8.3.027,16.608.016,24.913.016,2.333,0,2.333,0,2.556-2.223m.008,11.2H132.5c3.281,0,3.225,0,3.27-3.218.016-1.148-.419-1.331-1.422-1.321-4.444.044-8.888.019-13.331.019-3.415,0-3.387,0-3.334,3.465.013.827.24,1.088,1.077,1.073,2.674-.048,5.35-.018,8.026-.018M27.5,380.179c0-2.348,0-2.348-2.2-2.348-2.308,0-2.308,0-2.308,2.269,0,2.25,0,2.25,2.286,2.25,2.219,0,2.219,0,2.219-2.172m6.7,2.172c2.294,0,2.294,0,2.294-2.23v-.135c0-2.155,0-2.155-2.118-2.155-2.378,0-2.378,0-2.377,2.326,0,2.193,0,2.193,2.2,2.193m11.285-2.183c0-2.337,0-2.337-2.216-2.337s-2.23,0-2.23,2.205c0,2.314,0,2.314,2.232,2.314,2.215,0,2.215,0,2.215-2.183" transform="translate(-9.522 -252.134)" fill="#03a4a4"/>
    <path id="Trazado_715399" data-name="Trazado 715399" d="M215.644,107.2a26.461,26.461,0,0,1-19.138-2.4,27.033,27.033,0,0,1-13.333-30.593c.323-1.217.695-1.329,1.806-.858,7.121,3.02,14.275,5.964,21.416,8.938.53.221,1.084.363,1.311,1.048,2.623,7.934,5.271,15.859,7.939,23.867" transform="translate(-123.836 -49.652)" fill="#b20d0d"/>
    <path id="Trazado_715400" data-name="Trazado 715400" d="M293.167,44.16c10.848,12.2,7.4,32.2-6.986,40.487-.432.249-.857.508-1.3.736-1.682.866-1.957.778-2.587-1.09-2.4-7.11-4.758-14.231-7.151-21.343a1.3,1.3,0,0,1,.336-1.559q8.745-8.533,17.45-17.107a.913.913,0,0,1,.237-.124" transform="translate(-186.832 -29.999)" fill="#ffc403"/>
    <path id="Trazado_715401" data-name="Trazado 715401" d="M215.553,13.926c6.861.17,12.527,1.855,17.489,5.666.642.493.934.768.178,1.5q-8.474,8.225-16.855,16.546a1.115,1.115,0,0,1-1.418.27q-10.83-4.535-21.679-9.024c-.7-.291-.873-.5-.436-1.226,5.3-8.828,13.156-13.279,22.72-13.733" transform="translate(-130.834 -9.46)" fill="#abffff"/>
    <path id="Trazado_715402" data-name="Trazado 715402" d="M28.027,155q0-17.672,0-35.345c0-5.1,2.68-7.76,7.823-7.76q18.107,0,36.214-.021c.98,0,1.5.166,1.547,1.272a8.76,8.76,0,0,0,.516,2.381c.257.771.021.932-.718.919-2.087-.036-4.175-.012-6.262-.012q-14.567,0-29.134,0c-3.855,0-5.45,1.59-5.451,5.436q0,34.6.035,69.194c0,1.411-.377,1.744-1.731,1.693-2.834-.106-2.837-.031-2.837-2.822V155" transform="translate(-19.039 -76)" fill="#03a4a4"/>
    <path id="Trazado_715403" data-name="Trazado 715403" d="M376.469,154.847c0,12.1-.019,24.2.03,36.3,0,1.171-.334,1.415-1.437,1.392-3.124-.066-3.125-.016-3.125-3.113q0-33.851,0-67.7a5.614,5.614,0,0,0-.835-3.631,4.278,4.278,0,0,0-3.465-1.85c-1.679-.025-3.359-.044-5.037-.011-.758.015-.959-.218-.75-.953.331-1.162.233-2.755.98-3.4.685-.592,2.247-.181,3.422-.2q1.5-.019,3,0c4.395.05,7.208,2.863,7.213,7.277q.022,17.945,0,35.891" transform="translate(-245.766 -75.783)" fill="#03a4a4"/>
    <path id="Trazado_715404" data-name="Trazado 715404" d="M103.912,263.634c-.508,1.069.272,1.622,1.169,2.2q3.766,2.433,7.471,4.962a1.336,1.336,0,0,0,1.682.123,5.913,5.913,0,0,1,5.969-.215,1.234,1.234,0,0,0,1.555-.231q5.495-4.449,11.047-8.827a1.331,1.331,0,0,0,.59-1.569,6.265,6.265,0,0,1,2.173-6.349,6.394,6.394,0,0,1,6.606-1.255c3.511,1.215,5.192,3.9,4.63,7.543a1.165,1.165,0,0,0,.562,1.323c2.116,1.559,4.232,3.119,6.305,4.733a1.34,1.34,0,0,0,1.668.134,6.7,6.7,0,1,1-3.671,7.522,4.231,4.231,0,0,1-.113-2.009c.345-1.227-.17-1.852-1.11-2.507-1.932-1.346-3.8-2.789-5.659-4.234a1.485,1.485,0,0,0-1.83-.209,5.94,5.94,0,0,1-5.737.073,1.241,1.241,0,0,0-1.56.234q-5.557,4.481-11.161,8.9a1.312,1.312,0,0,0-.464,1.518,6.679,6.679,0,0,1-5.754,7.925c-3.7.514-7.467-2.322-7.406-6.175.035-2.208-1.034-2.933-2.477-3.849-2.141-1.359-4.238-2.79-6.331-4.223a1.268,1.268,0,0,0-1.57-.081,6.3,6.3,0,0,1-6.594-.03,1.186,1.186,0,0,0-1.465.078q-4.053,2.738-8.145,5.42a1.293,1.293,0,0,0-.672,1.428,6.682,6.682,0,1,1-6.717-5.969,5.8,5.8,0,0,1,3.367.909,1.119,1.119,0,0,0,1.453-.008c2.732-1.862,5.478-3.706,8.263-5.488.692-.443.65-.913.578-1.586a6.691,6.691,0,1,1,13.347-.216m36.076-7.066a2.213,2.213,0,1,0,2.215,2.286,2.264,2.264,0,0,0-2.215-2.286m-42.712,4.469a2.244,2.244,0,0,0-.167,4.483,2.243,2.243,0,1,0,.167-4.483m60.973,8.982a2.243,2.243,0,1,0,0,4.486,2.351,2.351,0,0,0,2.215-2.178,2.323,2.323,0,0,0-2.212-2.309M77,278.958a2.222,2.222,0,0,0,2.222-2.254,2.264,2.264,0,0,0-2.179-2.179,2.291,2.291,0,0,0-2.3,2.206A2.241,2.241,0,0,0,77,278.958m40.523-.006a2.164,2.164,0,0,0,2.151-2.294,2.213,2.213,0,0,0-4.424.118,2.166,2.166,0,0,0,2.273,2.176" transform="translate(-47.757 -171.231)" fill="#020202"/>
    <path id="Trazado_715405" data-name="Trazado 715405" d="M87.931,185.427c-5.535,0-11.07-.023-16.605.022-.947.008-1.211-.235-1.207-1.195q.055-14.542,0-29.084c0-.86.2-1.152,1.113-1.149q16.877.047,33.755,0c.879,0,1.156.214,1.153,1.126q-.049,14.542,0,29.084c0,.94-.238,1.223-1.2,1.216-5.671-.044-11.342-.022-17.013-.022m.23-26.939c-4.128,0-8.256.032-12.383-.023-.974-.013-1.2.282-1.192,1.216q.059,10.055,0,20.11c-.006.937.226,1.219,1.2,1.214q12.315-.059,24.631,0c.971,0,1.2-.287,1.193-1.218q-.057-10.055,0-20.11c.005-.938-.232-1.225-1.2-1.212-4.082.054-8.165.023-12.247.023" transform="translate(-47.634 -104.631)" fill="#020202"/>
    <path id="Trazado_715406" data-name="Trazado 715406" d="M246.841,228.432c-7.077,0-14.155-.02-21.232.022-1.032.006-1.4-.2-1.375-1.323.066-3.232.011-3.233,3.252-3.233,13.52,0,27.04.016,40.56-.028,1.171,0,1.542.238,1.506,1.467-.09,3.093-.023,3.094-3.111,3.094h-19.6" transform="translate(-152.328 -152.083)" fill="#020202"/>
    <path id="Trazado_715407" data-name="Trazado 715407" d="M196.288,226.159c0-2.2,0-2.2,2.2-2.2,2.341,0,2.341,0,2.341,2.335,0,2.2,0,2.2-2.2,2.2-2.338,0-2.338,0-2.338-2.333" transform="translate(-133.345 -152.142)" fill="#020202"/>
    <path id="Trazado_715408" data-name="Trazado 715408" d="M346.368,396.463c-2.675,0-5.351-.03-8.026.018-.837.015-1.064-.246-1.077-1.073-.053-3.465-.081-3.465,3.334-3.465,4.444,0,8.888.025,13.331-.019,1-.01,1.438.172,1.422,1.321-.046,3.217.011,3.218-3.27,3.218h-5.713" transform="translate(-229.107 -266.246)" fill="#020202"/>
    <path id="Trazado_715409" data-name="Trazado 715409" d="M46.531,394.333c0,2.172,0,2.172-2.219,2.172-2.286,0-2.286,0-2.286-2.25,0-2.269,0-2.269,2.308-2.269,2.2,0,2.2,0,2.2,2.348" transform="translate(-28.55 -266.288)" fill="#020202"/>
    <path id="Trazado_715410" data-name="Trazado 715410" d="M72.294,396.5c-2.2,0-2.2,0-2.2-2.193,0-2.326,0-2.326,2.377-2.326,2.118,0,2.118,0,2.118,2.155v.135c0,2.23,0,2.23-2.294,2.23" transform="translate(-47.616 -266.287)" fill="#020202"/>
    <path id="Trazado_715411" data-name="Trazado 715411" d="M102.731,394.322c0,2.183,0,2.183-2.215,2.183-2.232,0-2.232,0-2.232-2.314,0-2.205,0-2.205,2.23-2.205s2.216,0,2.216,2.337" transform="translate(-66.767 -266.288)" fill="#020202"/>
    <path id="Trazado_715412" data-name="Trazado 715412" d="M282.8,266.123a2.285,2.285,0,0,1,2.215,2.286,2.246,2.246,0,1,1-2.215-2.286" transform="translate(-190.565 -180.785)" fill="#bdda83"/>
    <path id="Trazado_715413" data-name="Trazado 715413" d="M149.579,280.057a2.244,2.244,0,1,1-2.286,2.226,2.319,2.319,0,0,1,2.286-2.226" transform="translate(-100.061 -190.251)" fill="#bdda83"/>
    <path id="Trazado_715414" data-name="Trazado 715414" d="M339.742,308.068a2.323,2.323,0,0,1,2.212,2.308,2.351,2.351,0,0,1-2.215,2.178,2.244,2.244,0,1,1,0-4.487" transform="translate(-229.25 -209.28)" fill="#bdda83"/>
    <path id="Trazado_715415" data-name="Trazado 715415" d="M86.417,326.551a2.24,2.24,0,0,1-2.258-2.227,2.291,2.291,0,0,1,2.3-2.206,2.264,2.264,0,0,1,2.179,2.179,2.222,2.222,0,0,1-2.222,2.254" transform="translate(-57.172 -218.825)" fill="#bdda83"/>
    <path id="Trazado_715416" data-name="Trazado 715416" d="M212.758,326.547a2.166,2.166,0,0,1-2.273-2.176,2.213,2.213,0,0,1,4.424-.118,2.163,2.163,0,0,1-2.151,2.294" transform="translate(-142.99 -218.827)" fill="#bdda83"/>
    <path id="Trazado_715417" data-name="Trazado 715417" d="M97.625,167.9c4.082,0,8.165.031,12.247-.023.966-.013,1.2.274,1.2,1.212q-.059,10.055,0,20.11c.005.931-.223,1.222-1.193,1.218q-12.315-.058-24.631,0c-.969,0-1.2-.277-1.2-1.214q.059-10.055,0-20.11c-.005-.935.219-1.229,1.192-1.216,4.127.055,8.255.023,12.383.023m0,4.536H91.905c-3.346,0-3.3,0-3.327,3.281-.007.98.3,1.194,1.225,1.184,4.491-.047,8.982-.021,13.474-.021,3.423,0,3.39,0,3.34-3.413-.013-.865-.3-1.059-1.1-1.046-2.631.042-5.262.016-7.894.016m-.086,13.423h5.852c3.251,0,3.213,0,3.23-3.253.005-.949-.26-1.222-1.213-1.212-4.49.048-8.982.021-13.473.021-3.412,0-3.383,0-3.348,3.388.009.818.2,1.093,1.059,1.074,2.63-.055,5.262-.02,7.893-.02" transform="translate(-57.098 -114.043)" fill="#bdda83"/>
    <path id="Trazado_715418" data-name="Trazado 715418" d="M107.215,182.061c2.631,0,5.263.026,7.893-.016.8-.013,1.09.182,1.1,1.046.05,3.413.083,3.413-3.34,3.413-4.491,0-8.983-.026-13.473.021-.93.01-1.232-.2-1.225-1.184.024-3.28-.019-3.281,3.327-3.281h5.716" transform="translate(-66.691 -123.668)" fill="#020202"/>
    <path id="Trazado_715419" data-name="Trazado 715419" d="M107.125,214.5c-2.631,0-5.263-.035-7.893.02-.856.018-1.05-.257-1.059-1.075-.035-3.389-.064-3.389,3.348-3.389,4.491,0,8.983.026,13.473-.021.953-.01,1.218.262,1.213,1.211-.017,3.253.02,3.253-3.23,3.253h-5.852" transform="translate(-66.688 -142.681)" fill="#020202"/>
  </g>
</svg>
