<svg xmlns="http://www.w3.org/2000/svg" xmlns:xlink="http://www.w3.org/1999/xlink" width="106.734" height="106.734" viewBox="0 0 106.734 106.734">
  <defs>
    <clipPath id="clip-path">
      <rect id="Rectángulo_353641" data-name="Rectángulo 353641" width="85.551" height="85.605" fill="none"/>
    </clipPath>
  </defs>
  <g id="Grupo_1003699" data-name="Grupo 1003699" transform="translate(-1107.372 -7200)">
    <path id="Trazado_705812" data-name="Trazado 705812" d="M106.734,78.256A53.367,53.367,0,1,1,53.367,24.889a53.367,53.367,0,0,1,53.367,53.367" transform="translate(1107.372 7175.111)" fill="#06d1d1"/>
    <g id="Grupo_1003589" data-name="Grupo 1003589" transform="translate(1113.389 7209.191)">
      <g id="Grupo_1003588" data-name="Grupo 1003588" clip-path="url(#clip-path)">
        <path id="Trazado_715937" data-name="Trazado 715937" d="M30.358,52.592c-2.616-.286-2.6-.288-3.051-2.844-.173-.984-.42-1.955-.566-2.623a79.71,79.71,0,0,1-8.586-.808C8.8,44.429,1.412,35.964.19,26.492A23.438,23.438,0,0,1,19.284.419C27.532-1.073,34.69,1.453,40.6,7.462a2.908,2.908,0,0,0,1.847.819q12.138.082,24.276.016A3.273,3.273,0,0,1,69.27,9.348c5.079,5.127,10.215,10.2,15.263,15.354a3.769,3.769,0,0,1,.975,2.39q.081,28.146.041,56.292c0,1.894-.331,2.22-2.251,2.22q-25.38,0-50.76,0c-1.832,0-2.179-.342-2.179-2.151q0-14.694,0-29.387V52.592M82.726,27.64c-4.851,0-9.541,0-14.231,0-1.935,0-2.26-.318-2.262-2.208q0-6.418,0-12.835V11.144H43.773a62.657,62.657,0,0,1,2.531,7.49,67.885,67.885,0,0,1,.761,8.153c.75.156,1.769.4,2.8.574,2.458.409,2.691.676,2.547,3.107A23.5,23.5,0,0,1,34.3,51.83c-1.019.226-1.2.621-1.2,1.545.03,9.431.018,18.861.02,28.292,0,.354.034.709.053,1.082H82.726ZM43.774,26.132c1.415-6.06-1.587-15.816-10.161-20.663A20.7,20.7,0,0,0,6.357,35.15c5.259,7.74,14.9,10.1,19.658,8.612-.05-.443-.068-.9-.157-1.345-1.229-6.11-2.475-12.217-3.7-18.328-.275-1.374.5-2.16,1.859-1.9,2.923.567,5.837,1.179,8.756,1.762,3.637.726,7.276,1.441,11,2.178M30.1,49.613c11.669-.523,19.5-10.766,19.379-19.495L25.236,25.28c1.658,8.3,3.253,16.278,4.863,24.332M69.047,24.774H80.181L69.047,13.6Z" transform="translate(0 0)" fill="#161615"/>
        <path id="Trazado_715938" data-name="Trazado 715938" d="M169.611,56.893V112H120.06c-.019-.374-.053-.728-.053-1.082,0-9.431.009-18.861-.02-28.292,0-.924.178-1.319,1.2-1.545A23.5,23.5,0,0,0,139.3,59.72c.144-2.431-.089-2.7-2.547-3.107-1.032-.172-2.052-.418-2.8-.574a67.885,67.885,0,0,0-.761-8.153,62.636,62.636,0,0,0-2.531-7.49h22.459v1.451q0,6.418,0,12.835c0,1.891.327,2.207,2.262,2.208,4.69,0,9.38,0,14.231,0M155.618,95.535c-1.24,0-2.48-.015-3.72,0a4.1,4.1,0,0,0-4.293,4.224c-.032,2.575.014,5.152-.017,7.727-.015,1.263.515,1.86,1.8,1.855q7.863-.028,15.726,0c1.29,0,1.819-.6,1.8-1.857-.029-2.529.007-5.06-.013-7.589a4.133,4.133,0,0,0-4.436-4.362c-1.2-.01-2.409,0-3.614,0a5.982,5.982,0,0,0,3.844-4.767,18.1,18.1,0,0,0,0-4.267,5.488,5.488,0,0,0-10.814-.4,21.775,21.775,0,0,0-.161,3.017,6.132,6.132,0,0,0,3.883,6.415M134.093,79.52l-6.935,9.187-1.812-3.449-2.422,1.271c.931,1.864,1.768,3.643,2.7,5.369a1.34,1.34,0,0,0,2.439.219c2.751-3.594,5.45-7.228,8.226-10.924l-2.2-1.673m-11.172,23.564c.927,1.857,1.763,3.634,2.693,5.359.629,1.165,1.7,1.227,2.526.146,2.716-3.566,5.392-7.164,8.146-10.834l-2.2-1.66-6.942,9.182-1.786-3.459-2.437,1.266m43.932-43.34H147.709v2.6h19.144Zm-24.711,8.1h19.144v-2.6H142.142Zm.013-5.514h2.586V59.715h-2.586Zm24.7,2.916h-2.621v2.6h2.621Z" transform="translate(-86.886 -29.253)" fill="#fff0c0"/>
        <path id="Trazado_715939" data-name="Trazado 715939" d="M51.07,33.5c-3.723-.737-7.363-1.452-11-2.178-2.92-.583-5.834-1.195-8.756-1.762-1.363-.265-2.134.521-1.859,1.9,1.223,6.111,2.469,12.218,3.7,18.328.089.444.107.9.157,1.345-4.758,1.483-14.4-.872-19.658-8.612A20.7,20.7,0,0,1,40.909,12.841c8.574,4.847,11.575,14.6,10.161,20.663M22.537,21.114H44.491V18.521H22.537Zm16.437,2.95H17.02v2.595H38.974ZM16.984,21.1h2.641V18.553H16.984Zm24.86,5.521h2.634V24.057H41.845Z" transform="translate(-7.296 -7.372)" fill="#b20d0d"/>
        <path id="Trazado_715940" data-name="Trazado 715940" d="M96.341,115.971,91.478,91.639l24.243,4.837c.12,8.728-7.711,18.972-19.38,19.495" transform="translate(-66.242 -66.359)" fill="#ffc403"/>
        <path id="Trazado_715941" data-name="Trazado 715941" d="M250.288,60.482V49.312l11.134,11.17Z" transform="translate(-181.241 -35.708)" fill="#fff0c0"/>
        <path id="Trazado_715942" data-name="Trazado 715942" d="M228.075,204.038a6.132,6.132,0,0,1-3.883-6.415,21.766,21.766,0,0,1,.161-3.017,5.488,5.488,0,0,1,10.814.4,18.1,18.1,0,0,1,0,4.267,5.981,5.981,0,0,1-3.844,4.766c1.2,0,2.409-.009,3.614,0a4.133,4.133,0,0,1,4.436,4.362c.02,2.529-.016,5.06.013,7.589.015,1.261-.514,1.861-1.8,1.857q-7.863-.028-15.726,0c-1.29,0-1.819-.593-1.8-1.855.03-2.576-.015-5.152.016-7.727a4.1,4.1,0,0,1,4.293-4.224c1.24-.018,2.48,0,3.72,0m8.535,10.994c0-2.3.007-4.451,0-6.6a1.45,1.45,0,0,0-1.617-1.623q-5.305-.011-10.611,0a1.365,1.365,0,0,0-1.541,1.4c-.045,2.241-.015,4.485-.015,6.8h1.4v-5.343h2.772v5.332h5.532v-5.368h2.722v5.407Zm-4.149-17.871h.008c0-.46.023-.921,0-1.379a2.814,2.814,0,0,0-2.692-2.777,2.773,2.773,0,0,0-2.806,2.8,23.921,23.921,0,0,0,.014,2.9,2.768,2.768,0,0,0,2.743,2.572,2.8,2.8,0,0,0,2.731-2.591c.047-.5.007-1.011.007-1.517" transform="translate(-159.342 -137.756)" fill="#161615"/>
        <path id="Trazado_715943" data-name="Trazado 715943" d="M141.805,182.214l2.2,1.673c-2.776,3.7-5.475,7.33-8.226,10.924a1.34,1.34,0,0,1-2.439-.22c-.932-1.727-1.769-3.5-2.7-5.369l2.422-1.27,1.812,3.449,6.935-9.187" transform="translate(-94.598 -131.947)" fill="#161615"/>
        <path id="Trazado_715944" data-name="Trazado 715944" d="M130.627,249.288l2.437-1.266,1.786,3.459,6.942-9.182,2.2,1.66c-2.755,3.67-5.43,7.268-8.146,10.834-.824,1.081-1.9,1.019-2.527-.146-.931-1.725-1.766-3.5-2.693-5.359" transform="translate(-94.591 -175.456)" fill="#161615"/>
        <rect id="Rectángulo_353633" data-name="Rectángulo 353633" width="19.144" height="2.598" transform="translate(60.824 30.492)" fill="#161615"/>
        <rect id="Rectángulo_353634" data-name="Rectángulo 353634" width="19.144" height="2.597" transform="translate(55.256 35.99)" fill="#161615"/>
        <rect id="Rectángulo_353635" data-name="Rectángulo 353635" width="2.586" height="2.611" transform="translate(55.269 30.462)" fill="#161615"/>
        <rect id="Rectángulo_353636" data-name="Rectángulo 353636" width="2.621" height="2.597" transform="translate(77.352 35.989)" fill="#161615"/>
        <rect id="Rectángulo_353637" data-name="Rectángulo 353637" width="21.954" height="2.593" transform="translate(15.241 11.149)" fill="#161615"/>
        <rect id="Rectángulo_353638" data-name="Rectángulo 353638" width="21.954" height="2.595" transform="translate(9.724 16.693)" fill="#161615"/>
        <rect id="Rectángulo_353639" data-name="Rectángulo 353639" width="2.641" height="2.544" transform="translate(9.688 11.182)" fill="#161615"/>
        <rect id="Rectángulo_353640" data-name="Rectángulo 353640" width="2.634" height="2.561" transform="translate(34.548 16.685)" fill="#161615"/>
        <path id="Trazado_715945" data-name="Trazado 715945" d="M243.876,258.51H242.51V253.1h-2.722v5.368h-5.532v-5.332h-2.772v5.343h-1.4c0-2.311-.031-4.554.015-6.8a1.365,1.365,0,0,1,1.541-1.4q5.305-.014,10.611,0a1.45,1.45,0,0,1,1.617,1.623c.01,2.154,0,4.308,0,6.6" transform="translate(-166.608 -181.233)" fill="#03a4a4"/>
        <path id="Trazado_715946" data-name="Trazado 715946" d="M250.53,204.429c0,.506.04,1.015-.007,1.517a2.8,2.8,0,0,1-2.731,2.591,2.768,2.768,0,0,1-2.743-2.572,23.922,23.922,0,0,1-.014-2.9,2.773,2.773,0,0,1,2.806-2.8,2.814,2.814,0,0,1,2.692,2.777c.028.458,0,.919,0,1.379h-.008" transform="translate(-177.411 -145.023)" fill="#ffdbdb"/>
      </g>
    </g>
  </g>
</svg>
