<svg xmlns="http://www.w3.org/2000/svg" xmlns:xlink="http://www.w3.org/1999/xlink" width="181" height="181" viewBox="0 0 181 181">
  <defs>
    <clipPath id="clip-path">
      <rect id="Rectángulo_353557" data-name="Rectángulo 353557" width="131.727" height="146.627" fill="none"/>
    </clipPath>
  </defs>
  <g id="Grupo_1003528" data-name="Grupo 1003528" transform="translate(-404 -1453)">
    <circle id="Elipse_5684" data-name="Elipse 5684" cx="90.5" cy="90.5" r="90.5" transform="translate(404 1453)" fill="#06d1d1"/>
    <g id="Grupo_1003531" data-name="Grupo 1003531" transform="translate(432 1466.09)">
      <g id="Grupo_1003530" data-name="Grupo 1003530" clip-path="url(#clip-path)">
        <path id="Trazado_715717" data-name="Trazado 715717" d="M53.857,204.531l53.638-1.022,45.465-34.737s-2.554-11.239-11.749-5.619-27.586,14.815-27.586,14.815-1.533-6.641-19.412-4.087c0,0-19.412-14.3-40.867,2.043Z" transform="translate(-22.688 -68.72)" fill="#ffdbdb"/>
        <path id="Trazado_715718" data-name="Trazado 715718" d="M68.122,27.511c0,12.319-9.675,22.305-21.61,22.305S24.9,39.83,24.9,27.511,34.577,5.206,46.512,5.206s21.61,9.987,21.61,22.305" transform="translate(-11.595 -2.214)" fill="#ffc403"/>
        <path id="Trazado_715719" data-name="Trazado 715719" d="M66.491,116.331l-.255-53.638S87.18,56.307,85.9,35.873h60.79V109.69L122.939,124.5s-1.022-2.043-7.407-4.087-19.412-2.554-19.412-2.554S83.6,109.69,66.491,116.331" transform="translate(-28.17 -15.257)" fill="#fadb75"/>
        <path id="Trazado_715720" data-name="Trazado 715720" d="M85.856,125.516q0-3.974,0-7.947c0-.951,0-.938-.986-.955a35.187,35.187,0,0,1-3.787-.121c-1.984-.249-2.606-1.794-1.458-3.428a5.8,5.8,0,0,1,.661-.751q5.139-5.142,10.284-10.277c1.438-1.434,2.5-1.46,3.927-.039q5.411,5.377,10.787,10.788a5.048,5.048,0,0,1,.639.77,1.782,1.782,0,0,1-1.151,2.909,15.2,15.2,0,0,1-2.634.144c-.811.019-1.625.032-2.434-.017-.532-.032-.636.172-.634.656q.03,7.485.025,14.97c0,.525.018,1.052-.02,1.575a2.1,2.1,0,0,1-1.9,2.083,11.886,11.886,0,0,1-1.712.086q-3.509.016-7.018.009c-1.757,0-2.558-.757-2.575-2.511-.026-2.649-.007-5.3-.007-7.946h-.009m6.752-19.248L86.4,112.329c.695,0,1.281-.034,1.861.007a1.963,1.963,0,0,1,1.833,1.63,4.87,4.87,0,0,1,.086.994c-.005,5.348-.009,10.7-.041,16.044,0,.551.168.7.693.682,1.145-.034,2.291-.008,3.437-.014.2,0,.405-.036.624-.057,0-.456,0-.836,0-1.217-.022-5.2-.053-10.409-.063-15.614a2.156,2.156,0,0,1,2.452-2.468c.433-.005.866,0,1.423,0l-6.1-6.049" transform="translate(-33.621 -42.933)" fill="#161615"/>
        <path id="Trazado_715721" data-name="Trazado 715721" d="M166.4,152.123c-2.841,0-5.681.018-8.521-.007-1.612-.014-2.331-.719-2.494-2.332a3.53,3.53,0,0,1-.022-.357c0-2.769-.021-5.538.009-8.307a2.184,2.184,0,0,1,2.491-2.459q8.628-.025,17.257.009a2.153,2.153,0,0,1,2.4,2.461q0,4.19,0,8.38a2.293,2.293,0,0,1-2.592,2.613c-2.84.018-5.681.005-8.521.005Zm6.788-9.162H171.5c-3.719,0-7.438-.006-11.157.015-.236,0-.671.214-.675.34-.048,1.445-.03,2.891-.03,4.367h13.553Z" transform="translate(-66.072 -58.968)" fill="#161615"/>
        <path id="Trazado_715722" data-name="Trazado 715722" d="M46.271,39.843C48.535,37,50.756,34.2,52.985,31.4c1.65-2.069,3.293-4.145,4.972-6.191a2.081,2.081,0,0,1,3.663.743,2.4,2.4,0,0,1-.657,2.171q-2.006,2.564-4.02,5.122-4.183,5.31-8.372,10.615a8.216,8.216,0,0,1-.709.8,1.987,1.987,0,0,1-2.886.072c-.805-.775-1.525-1.64-2.253-2.491-1.519-1.776-3.05-3.545-4.5-5.374a3.2,3.2,0,0,1-.656-1.738A1.846,1.846,0,0,1,38.9,33.368a1.886,1.886,0,0,1,2.209.555c.915.972,1.794,1.979,2.671,2.986.828.952,1.634,1.922,2.492,2.934" transform="translate(-15.976 -10.373)" fill="#161615"/>
        <path id="Trazado_715723" data-name="Trazado 715723" d="M166.476,127.623c-2.6,0-5.2.01-7.8-.008a6.674,6.674,0,0,1-1.694-.18,1.994,1.994,0,0,1-1.485-2.164,2.019,2.019,0,0,1,1.7-1.853,7.159,7.159,0,0,1,1.278-.111q8.046-.013,16.093,0a6.221,6.221,0,0,1,1.347.129,2.145,2.145,0,0,1,1.65,2.006,2.049,2.049,0,0,1-1.46,1.988,5,5,0,0,1-1.406.187c-2.742.017-5.483.009-8.225.01" transform="translate(-66.133 -52.439)" fill="#161615"/>
        <path id="Trazado_715724" data-name="Trazado 715724" d="M7.432,169.718H20.9v44.72a4.566,4.566,0,0,1-.482.05c-4.106.01-8.211.01-12.317.03-.457,0-.679-.053-.678-.607q.022-21.31.01-42.619v-1.575M14.289,183a2.117,2.117,0,0,0,2.174-2.018,2.162,2.162,0,0,0-2.048-2.156,2.094,2.094,0,0,0-2.152,2.029A2.073,2.073,0,0,0,14.289,183" transform="translate(-3.157 -72.181)" fill="#a03d3d"/>
        <path id="Trazado_715725" data-name="Trazado 715725" d="M123.925,37.7h13.542V55.992c-1-.448-1.94-.87-2.883-1.3s-1.876-.824-2.794-1.278a2.421,2.421,0,0,0-2.256.025c-1.659.783-3.333,1.532-5,2.291-.165.075-.341.128-.606.226Z" transform="translate(-52.705 -16.033)" fill="#abffff"/>
        <path id="Trazado_715726" data-name="Trazado 715726" d="M38.548,177.361c1.468,0,2.826.007,4.184,0,.422,0,.5.2.5.579q-.028,19.577-.023,39.154c0,.493-.093.678-.616.664-1.12-.029-2.242-.014-3.363.015-.5.014-.7-.111-.7-.678q.03-19.256.021-38.513v-1.217" transform="translate(-16.386 -75.43)" fill="#a03d3d"/>
        <path id="Trazado_715727" data-name="Trazado 715727" d="M98.046,110.205l6.1,6.049c-.557,0-.99,0-1.423,0a2.156,2.156,0,0,0-2.452,2.468c.009,5.205.04,10.41.063,15.614,0,.38,0,.761,0,1.217-.219.021-.421.056-.624.057-1.145.006-2.292-.02-3.437.014-.525.016-.7-.13-.693-.682.032-5.348.036-10.7.041-16.044a4.87,4.87,0,0,0-.086-.994,1.963,1.963,0,0,0-1.833-1.63c-.58-.042-1.167-.007-1.861-.007l6.208-6.061" transform="translate(-39.059 -46.87)" fill="#8a3d02"/>
        <path id="Trazado_715728" data-name="Trazado 715728" d="M176.351,146.149v4.722H162.8c0-1.475-.017-2.922.03-4.367,0-.126.44-.339.675-.34,3.719-.021,7.438-.015,11.157-.015Z" transform="translate(-69.237 -62.157)" fill="#8d0a0a"/>
        <path id="Trazado_715729" data-name="Trazado 715729" d="M17.872,189.735a2.073,2.073,0,0,1-2.025-2.145A2.094,2.094,0,0,1,18,185.561a2.162,2.162,0,0,1,2.048,2.156,2.117,2.117,0,0,1-2.174,2.018" transform="translate(-6.739 -78.919)" fill="#161615"/>
        <path id="Trazado_715730" data-name="Trazado 715730" d="M116.03,21.66h-26.9c-.017.26-.047.511-.047.763q0,10.171,0,20.343c0,2.209-1.454,3.168-3.475,2.242-2.36-1.082-4.707-2.191-7.077-3.249a1.441,1.441,0,0,0-1.045-.012c-2.03.887-4.037,1.829-6.053,2.747-.476.217-.955.436-1.447.614-1.653.6-2.88-.159-2.979-1.931-.083-1.475-.024-2.959-.029-4.438q-.028-7.951-.057-15.9c0-.355,0-.71,0-1.148H59.021c0,1.234.08,2.471-.013,3.694a24.258,24.258,0,0,1-7.369,16,24.791,24.791,0,0,1-11.1,6.226.675.675,0,0,0-.606.776q.02,25.072.008,50.143V100.2c1.01-.277,1.934-.548,2.866-.783a49.27,49.27,0,0,1,11.035-1.5,35.9,35.9,0,0,1,13.576,2.768c1.046.4,2.055.9,3.118,1.243a9.091,9.091,0,0,0,2.638.512c3.771.026,7.543-.032,11.314-.075a7.941,7.941,0,0,1,7.122,3.771.973.973,0,0,0,.675.362c.882.043,1.767.042,2.649.006a2.143,2.143,0,0,0,.936-.272c2.28-1.3,4.546-2.617,6.818-3.926,4.273-2.464,8.542-4.934,12.83-7.373a1,1,0,0,0,.511-1.057q0-12.142.012-24.283c0-3.367,0-6.734,0-10.1a6.807,6.807,0,0,1,.1-1.28,2.051,2.051,0,0,1,3.971-.283,4.723,4.723,0,0,1,.2,1.4q.016,15.938.008,31.877v.886c.746-.222,1.434-.489,2.148-.63a7.63,7.63,0,0,1,9.182,6.68,7.509,7.509,0,0,1-2.805,6.985c-2.207,1.9-4.524,3.663-6.812,5.462q-7.569,5.952-15.158,11.878-6.291,4.913-12.609,9.791a50.433,50.433,0,0,1-4.409,3.17,16.645,16.645,0,0,1-8.756,2.278c-5.682.03-11.364.014-17.046.011a4.1,4.1,0,0,1-.921-.1,2.109,2.109,0,0,1,.222-4.161,11.5,11.5,0,0,1,1.359-.049c5.2-.005,10.411-.112,15.612.025a15.147,15.147,0,0,0,10.538-3.818c3.953-3.3,8.1-6.372,12.163-9.542q3.924-3.06,7.85-6.117,7.566-5.895,15.137-11.784a3.284,3.284,0,0,0,1.433-3.548,3.868,3.868,0,0,0-2.963-3.07,3.485,3.485,0,0,0-2.652.6c-4.142,2.41-8.27,4.846-12.421,7.243-5.554,3.207-11.127,6.381-16.678,9.592a2.689,2.689,0,0,0-.912.939,7.65,7.65,0,0,1-6.861,4.186c-8.475.031-16.95.018-25.425.008a4.587,4.587,0,0,1-1.4-.219,2.048,2.048,0,0,1,.192-3.919,6.766,6.766,0,0,1,1.49-.145q10.957-.007,21.915.006c1.122,0,2.246.057,3.364-.006,2.976-.168,4.336-2.954,2.688-5.467a3.433,3.433,0,0,0-2.9-1.714c-3.89-.048-7.78-.086-11.669-.056a9.065,9.065,0,0,1-3.424-.54,60.289,60.289,0,0,0-12.1-3.613,23.788,23.788,0,0,0-3.992-.217,38.473,38.473,0,0,0-18.586,4.722,35.986,35.986,0,0,0-3.524,2.315,1.41,1.41,0,0,0-.459,1.013c-.029,7.5-.018,14.994-.047,22.491,0,.686.346.644.8.644q10.636-.014,21.271-.013a9.143,9.143,0,0,1,1.287.056,2.083,2.083,0,0,1,.3,4.079,5.345,5.345,0,0,1-1.411.173q-10.708.017-21.414.011H31.1v.8c0,1.886.02,3.773-.009,5.658a2.277,2.277,0,0,1-2.483,2.435q-13,.012-26,0A2.35,2.35,0,0,1,0,143.992Q0,119.923,0,95.854a2.329,2.329,0,0,1,2.587-2.64q8.558-.03,17.117,0a2.186,2.186,0,0,1,2.426,2.256,6.184,6.184,0,0,1,.016,1.5c-.093.625.171.72.7.712,1.814-.029,3.629-.022,5.443-.025,1.99,0,2.738.705,2.817,2.678.025.644.024,1.288.028,1.933s0,1.268,0,1.963a2.233,2.233,0,0,0,.366-.115c1.235-.672,2.479-1.329,3.69-2.041a1.1,1.1,0,0,0,.457-.744c.066-.71.03-1.43.03-2.146q0-25,.01-50c0-.706-.206-.84-.879-.857a24.16,24.16,0,0,1-19.662-9.984,23.816,23.816,0,0,1-4.9-13.5,23.372,23.372,0,0,1,5.1-15.649A23.384,23.384,0,0,1,27.76.443,15.157,15.157,0,0,1,29.713.022a2.089,2.089,0,0,1,2.311,1.6,2.04,2.04,0,0,1-1.159,2.3,8.234,8.234,0,0,1-1.356.44,20.193,20.193,0,0,0-3.488,37.781,20.161,20.161,0,0,0,28.76-19.5A20.161,20.161,0,0,0,41.534,4.894c-.807-.284-1.647-.476-2.465-.729a2.144,2.144,0,0,1-1.745-2.539A2.142,2.142,0,0,1,40.121.1,23.913,23.913,0,0,1,51.172,5.97a25.3,25.3,0,0,1,6.761,10.635.847.847,0,0,0,.956.7q29.148-.038,58.3-.039a6.729,6.729,0,0,1,1,.06,2.261,2.261,0,0,1,2.138,2.415c0,.1,0,.191,0,.287,0,9.527.013,19.055-.026,28.581a3.718,3.718,0,0,1-.622,1.979,1.856,1.856,0,0,1-2.186.638,2,2,0,0,1-1.429-1.867,15.29,15.29,0,0,1-.025-1.575q0-12.536-.006-25.071V21.66M4.276,97.538v1.575q0,21.309-.01,42.619c0,.554.221.609.678.607,4.106-.02,8.211-.021,12.317-.03a4.725,4.725,0,0,0,.482-.05V97.538ZM71.219,21.665V39.927c.266-.1.441-.151.607-.226,1.669-.76,3.344-1.509,5-2.292a2.426,2.426,0,0,1,2.257-.025c.917.455,1.86.857,2.793,1.279s1.888.849,2.884,1.3V21.665ZM22.162,101.931v1.217q0,19.256-.021,38.513c0,.566.2.691.7.678,1.121-.029,2.243-.044,3.363-.015.523.014.616-.172.616-.664q-.009-19.576.023-39.154c0-.383-.076-.582-.5-.579-1.358.011-2.716,0-4.184,0" transform="translate(0 0)" fill="#161615"/>
      </g>
    </g>
  </g>
</svg>
