<svg xmlns="http://www.w3.org/2000/svg" xmlns:xlink="http://www.w3.org/1999/xlink" width="83.869" height="83.869" viewBox="0 0 83.869 83.869">
  <defs>
    <clipPath id="clip-path">
      <rect id="Rectángulo_353621" data-name="Rectángulo 353621" width="68.65" height="68.656" fill="none"/>
    </clipPath>
  </defs>
  <g id="Grupo_1003697" data-name="Grupo 1003697" transform="translate(-285 -6848.88)">
    <path id="Trazado_715802" data-name="Trazado 715802" d="M83.869,66.824A41.934,41.934,0,1,1,41.934,24.889,41.935,41.935,0,0,1,83.869,66.824" transform="translate(285 6823.991)" fill="#ffc403"/>
    <g id="Grupo_1003579" data-name="Grupo 1003579" transform="translate(298 6855.707)">
      <g id="Grupo_1003578" data-name="Grupo 1003578" clip-path="url(#clip-path)">
        <path id="Trazado_715834" data-name="Trazado 715834" d="M179.043,162.147s-6.587.452-9.113-.866-10.787-6.917-10.787-6.917-2.567,6.088-2.039,6.173,4.152,1.207,3.383,2.732-3.623,3.277-4.062,2.785-12.331,0-12.331,0-3.135,1.992-2.652,4.01,11.645.624,11.645.624,10.2,3.438,12.093,2.779,9.8-2.677,13.862-2.052Z" transform="translate(-110.992 -121.174)" fill="#ffdbdb"/>
        <path id="Trazado_715836" data-name="Trazado 715836" d="M9.912,16.639H24.378c0-1.836.064-3.582-.023-5.321-.053-1.064.318-1.3,1.332-1.3q17.52.05,35.039.021h1.231V43.261l-5.279-2.627c.32-1.239.712-2.813,1.133-4.378,1.094-4.066,2.2-8.129,3.3-12.195A4.1,4.1,0,0,0,58.4,19.033a4.173,4.173,0,0,0-5.394,2.615c-.926,3.074-1.711,6.191-2.56,9.289a6.391,6.391,0,0,1-.614,1.591V14.475H26.609v2.11H47.557v24.49a18.558,18.558,0,0,0-2.148.017,6.654,6.654,0,0,0-2.368.532,5.2,5.2,0,0,1-2.667.553c-2.759-.016-5.517-.008-8.276,0-.349,0-.7.029-1.1.048v2.195H39.53c-1.129,1.424-2.1,2.516-3.993,2.261A34.537,34.537,0,0,0,31,46.637v2.14h3.916l.137.241c-.431.436-.849.888-1.3,1.307a3.54,3.54,0,0,0-1.087,4.165,3.494,3.494,0,0,0,3.742,2.1,1.164,1.164,0,0,1,.3.03c.6,1.83,1.145,2.216,3.126,2.223.994,0,1.988,0,2.857,0a22.207,22.207,0,0,0-.16,3.388,3.135,3.135,0,0,0,.936,1.854c.711.646,1.08,1.247.589,2.23l2.033.512c.484-.509.237-1.744,1.49-1.321v8.769c-.37.024-.716.065-1.062.066-11.823,0-23.646-.01-35.469.026-1,0-1.161-.347-1.16-1.238q.035-27.623.017-55.245V16.639m2.3,13.238H40.942V18.943H12.217ZM25.409,62.227c-.464-.067-.857-.094-1.236-.184-.785-.186-1.147.057-1.108.906a17.821,17.821,0,0,1-.026,2.681,1.067,1.067,0,0,1-.711.743c-2.362.058-4.725.024-7.088.042-.608,0-.814-.25-.81-.839.019-2.255.023-4.511,0-6.767-.007-.645.223-.9.874-.889,1.217.028,2.435.006,3.652.006,2.581,0,2.175.132,2.035-2.181,0-.059-.072-.114-.114-.177H12.219V68.785H25.409Zm0-18.912a10.15,10.15,0,0,1-1.089-.1c-.905-.191-1.349.066-1.259,1.079.069.782-.016,1.576.022,2.361.032.662-.251.885-.884.88q-3.437-.027-6.874,0c-.626,0-.9-.209-.9-.874q.039-3.383,0-6.766c-.008-.657.243-.889.885-.873,1.217.03,2.434.014,3.652.006,2.489-.015,2.191.258,2.019-2.174,0-.06-.07-.115-.114-.184H12.226V49.862H25.409ZM15.4,61.909c.945.863,1.805,1.561,2.555,2.362.6.641.993.673,1.628.016,3.555-3.677,7.152-7.313,10.732-10.965a3.973,3.973,0,0,0,.257-.32l-1.5-1.561L18.808,61.39l-1.446-1.221L15.4,61.909M30.576,34.156,29.129,32.5,18.843,42.52c-.548-.418-1.031-1.072-1.5-1.06s-.953.654-1.347,1.1a.816.816,0,0,0-.019.793c.844.967,1.745,1.884,2.727,2.922L30.576,34.156m.435,3.59a5.243,5.243,0,0,0-.07.54c-.012,2.084-.09,1.691,1.605,1.7,3.759.019,7.518.006,11.277.006,1.759,0,1.761,0,1.627-1.79a3.3,3.3,0,0,0-.107-.457ZM40.959,68.9H28.807v2.054H40.959Zm4.407.019h-2.12v2.058h2.12Z" transform="translate(-7.767 -7.862)" fill="#ffe8ce"/>
        <path id="Trazado_715837" data-name="Trazado 715837" d="M207.9,240.391v6.662H195.788c.116-1.568-.292-3.065.581-4.583a18.95,18.95,0,0,0,1.25-3.916c3.368.982,6.611,2.316,10.28,1.837" transform="translate(-153.692 -187.263)" fill="#fff0c0"/>
        <path id="Trazado_715838" data-name="Trazado 715838" d="M189.2,120.656l3.676,1.229-4.292,15.876h-4.008l4.623-17.105" transform="translate(-144.89 -94.714)" fill="#06d1d1"/>
        <path id="Trazado_715839" data-name="Trazado 715839" d="M137.607,164.992c-.25.963-.453,1.861-.731,2.736a.868.868,0,0,1-.586.494,6.509,6.509,0,0,0-3.829,2.174c-1.623,1.663-3.276,3.3-4.925,4.935-.558.554-1.237.877-1.88.237-.667-.664-.393-1.353.215-1.959,2.533-2.526,5.049-5.069,7.594-7.583,1.073-1.06,1.913-1.248,4.142-1.035" transform="translate(-98.335 -129.456)" fill="#ffdbdb"/>
        <path id="Trazado_715840" data-name="Trazado 715840" d="M218.021,68.89l-3.743-1.243c.468-1.668.863-3.29,1.387-4.869a1.945,1.945,0,0,1,2.518-1.027,1.791,1.791,0,0,1,1.126,2.315c-.417,1.579-.842,3.155-1.288,4.824" transform="translate(-168.206 -48.38)" fill="#b20d0d"/>
        <path id="Trazado_715841" data-name="Trazado 715841" d="M176.425,237.295c-.307,1.126-.515,2.067-.824,2.974a1.953,1.953,0,0,1-2.515,1.209,1.783,1.783,0,0,1-1.167-2.31c.038-.174.1-.345.12-.521.136-1.054.642-1.536,1.779-1.375a19.676,19.676,0,0,0,2.607.022" transform="translate(-134.901 -186.233)" fill="#06d1d1"/>
        <path id="Trazado_715842" data-name="Trazado 715842" d="M212.441,103.4l-3.728-1.265.59-2.19c1.152.378,2.258.711,3.332,1.126.171.066.306.517.271.762a11.19,11.19,0,0,1-.465,1.566" transform="translate(-163.838 -78.455)" fill="#03a4a4"/>
        <path id="Trazado_715843" data-name="Trazado 715843" d="M215.037,190.562c.9.174,1.309.613,1.129,1.369-.211.885-.91.832-1.695.7l.565-2.069" transform="translate(-168.358 -149.589)" fill="#fff"/>
        <path id="Trazado_715844" data-name="Trazado 715844" d="M163.168,193.183l2.421-1.962.264.21-.5,1.752Z" transform="translate(-128.085 -150.107)" fill="#fff"/>
        <path id="Trazado_715845" data-name="Trazado 715845" d="M20.693,51.534H49.418V62.467H20.693Zm26.36,2.293H22.925v6.419H47.053Z" transform="translate(-16.244 -40.454)" fill="#161615"/>
        <path id="Trazado_715850" data-name="Trazado 715850" d="M107.833,138.989h14.331a3.264,3.264,0,0,1,.107.457c.134,1.789.133,1.789-1.627,1.79-3.759,0-7.518.013-11.277-.006-1.7-.009-1.617.384-1.605-1.7a5.25,5.25,0,0,1,.07-.54" transform="translate(-84.589 -109.105)" fill="#161615"/>
        <rect id="Rectángulo_353617" data-name="Rectángulo 353617" width="12.151" height="2.054" transform="translate(21.04 61.035)" fill="#161615"/>
        <rect id="Rectángulo_353618" data-name="Rectángulo 353618" width="2.12" height="2.058" transform="translate(35.478 61.054)" fill="#161615"/>
        <path id="Trazado_715851" data-name="Trazado 715851" d="M55.2,68.617H31.074V62.2H55.2ZM33.33,64.072l-.339.308c.128.718.049,1.612.458,2.089.261.3,1.424.218,1.843-.118a1.76,1.76,0,0,0,.107-1.731,5.182,5.182,0,0,0-2.069-.547M46.482,66.68c.85-.125,1.708-.028,2.2-.406a1.807,1.807,0,0,0,.016-1.745,5.715,5.715,0,0,0-2.22-.413Zm-8.788-.171H39.8V64.241H37.694Zm6.825-2.472c-1.089.192-1.985.1-2.406.506a1.894,1.894,0,0,0,.1,1.841,1.764,1.764,0,0,0,1.726.1,6.764,6.764,0,0,0,.575-2.445m8.6.26H51.009V66.53H53.12Z" transform="translate(-24.393 -48.825)" fill="#abffff"/>
        <path id="Trazado_715852" data-name="Trazado 715852" d="M40.329,70.912a5.178,5.178,0,0,1,2.069.547,1.76,1.76,0,0,1-.107,1.731c-.419.336-1.582.422-1.843.118-.409-.477-.33-1.371-.458-2.089l.339-.308" transform="translate(-31.392 -55.665)" fill="#161615"/>
        <path id="Trazado_715853" data-name="Trazado 715853" d="M102.737,73.684V71.12a5.713,5.713,0,0,1,2.22.413,1.808,1.808,0,0,1-.015,1.745c-.5.378-1.355.281-2.2.406" transform="translate(-80.648 -55.829)" fill="#161615"/>
        <rect id="Rectángulo_353619" data-name="Rectángulo 353619" width="2.105" height="2.268" transform="translate(13.301 15.416)" fill="#161615"/>
        <path id="Trazado_715854" data-name="Trazado 715854" d="M84.113,70.748a6.765,6.765,0,0,1-.575,2.445,1.765,1.765,0,0,1-1.727-.1,1.894,1.894,0,0,1-.1-1.841c.421-.4,1.317-.314,2.406-.505" transform="translate(-63.987 -55.536)" fill="#161615"/>
        <rect id="Rectángulo_353620" data-name="Rectángulo 353620" width="2.111" height="2.234" transform="translate(26.616 15.471)" fill="#161615"/>
        <rect id="Rectángulo_353622" data-name="Rectángulo 353622" width="12" height="12" transform="translate(5 29.293)" fill="#b20d0d"/>
        <rect id="Rectángulo_353623" data-name="Rectángulo 353623" width="12" height="12" transform="translate(5 48.293)" fill="#b20d0d"/>
        <path id="Trazado_715849" data-name="Trazado 715849" d="M52.452,116.236,40.584,128.35c-.982-1.038-1.883-1.954-2.727-2.922a.817.817,0,0,1,.019-.793c.394-.441.882-1.084,1.347-1.1s.948.642,1.5,1.06L51,114.578l1.447,1.658" transform="translate(-29.643 -89.943)" fill="#161615"/>
        <path id="Trazado_715848" data-name="Trazado 715848" d="M35.486,213.154l1.965-1.74,1.446,1.221,10.263-9.948,1.5,1.561a3.972,3.972,0,0,1-.257.32c-3.581,3.652-7.177,7.288-10.732,10.965-.635.657-1.028.625-1.628-.016-.75-.8-1.61-1.5-2.555-2.362" transform="translate(-27.856 -159.107)" fill="#161615"/>
        <path id="Trazado_715846" data-name="Trazado 715846" d="M33.893,228.538V235.1H20.7V221.88h8.656c.042.063.111.118.114.177.14,2.313.545,2.181-2.035,2.182-1.217,0-2.435.022-3.652-.006-.651-.015-.881.244-.874.889.025,2.255.021,4.511,0,6.767,0,.589.2.843.809.838,2.363-.017,4.727.016,7.088-.042a1.066,1.066,0,0,0,.711-.743,17.8,17.8,0,0,0,.027-2.681c-.039-.849.323-1.092,1.108-.906.378.09.771.117,1.236.184" transform="translate(-16.252 -174.174)" fill="#161615"/>
        <path id="Trazado_715835" data-name="Trazado 715835" d="M47.315,38.684c2.887.873,3.58,3.6,2.175,5.45a3.751,3.751,0,0,1-3.235,1.358c-3.87.009-7.74-.015-11.609.018A3.1,3.1,0,0,0,31.4,48.7c2.829,0,5.657.049,8.483-.015a18.972,18.972,0,0,1,7.259,1.163,16.3,16.3,0,0,0,10.723.214A26.636,26.636,0,0,1,68.633,48.8V51.03a25.621,25.621,0,0,0-3.951.035c-2.565.407-5.1.994-7.636,1.578-.249.057-.539.608-.545.935-.046,2.4-.025,4.8-.025,7.2v1.25H42.106v6.628H0V6.608H14.282V0H56.476V1.234q0,17.414-.016,34.828a1.971,1.971,0,0,0,.877,1.743,9.1,9.1,0,0,0,6.973,2.1c1.412-.141,2.851-.025,4.341-.025V42.1c-1.928,0-3.854-.09-5.767.024a8.367,8.367,0,0,1-5.708-1.713c-1.956-1.443-4.035-2.72-6.064-4.064a6.624,6.624,0,0,0-1.016-.595c-1.487-.638-1.891-.431-2.3,1.126-.154.584-.309,1.168-.479,1.808M2.145,8.777v1.249q0,27.623-.017,55.245c0,.891.155,1.241,1.16,1.238,11.823-.037,23.646-.023,35.469-.026.346,0,.692-.042,1.062-.066V57.648c-1.253-.423-1.006.812-1.491,1.321l-2.033-.512c.491-.983.122-1.584-.589-2.23a3.133,3.133,0,0,1-.936-1.854,22.2,22.2,0,0,1,.161-3.388c-.869,0-1.863,0-2.857,0-1.981-.008-2.524-.393-3.126-2.223a1.155,1.155,0,0,0-.3-.03,3.494,3.494,0,0,1-3.743-2.1,3.54,3.54,0,0,1,1.087-4.165c.448-.419.865-.87,1.3-1.307l-.137-.241H23.231v-2.14a34.575,34.575,0,0,1,4.538.04c1.9.256,2.864-.837,3.993-2.261H23.231V34.359c.4-.018.75-.047,1.1-.048,2.759,0,5.517-.012,8.276,0a5.2,5.2,0,0,0,2.668-.553,6.652,6.652,0,0,1,2.368-.532,18.555,18.555,0,0,1,2.148-.017V8.724H18.842V6.613H42.066V24.667a6.389,6.389,0,0,0,.614-1.591c.849-3.1,1.633-6.215,2.56-9.289a4.173,4.173,0,0,1,5.394-2.615A4.1,4.1,0,0,1,53.345,16.2c-1.1,4.066-2.208,8.128-3.3,12.195-.421,1.565-.813,3.138-1.133,4.378L54.19,35.4V2.176H52.958q-17.52,0-35.039-.021c-1.014,0-1.386.238-1.333,1.3.087,1.739.024,3.485.024,5.321ZM54.208,53.129c-3.669.479-6.913-.855-10.281-1.837a18.93,18.93,0,0,1-1.25,3.916c-.874,1.518-.465,3.014-.581,4.582H54.208Zm-9.9-27.186L39.685,43.049h4.008l4.292-15.876-3.676-1.229m-5.037,9.594c-2.229-.214-3.069-.025-4.142,1.035-2.545,2.514-5.06,5.057-7.593,7.583-.608.606-.882,1.3-.215,1.959.643.64,1.322.318,1.88-.237,1.649-1.638,3.3-3.273,4.925-4.936a6.508,6.508,0,0,1,3.829-2.174.868.868,0,0,0,.586-.494c.278-.875.482-1.774.731-2.736M49.815,20.511c.446-1.668.871-3.245,1.289-4.824a1.791,1.791,0,0,0-1.126-2.315A1.945,1.945,0,0,0,47.459,14.4c-.524,1.579-.919,3.2-1.387,4.869l3.743,1.243M41.524,51.063a19.716,19.716,0,0,1-2.607-.022c-1.136-.161-1.642.321-1.778,1.375-.023.176-.082.347-.12.521a1.784,1.784,0,0,0,1.167,2.31A1.953,1.953,0,0,0,40.7,54.037c.31-.907.517-1.849.824-2.974M48.6,24.944a11.13,11.13,0,0,0,.465-1.566c.036-.246-.1-.7-.271-.762-1.074-.415-2.18-.748-3.332-1.126l-.59,2.19L48.6,24.944M46.679,40.974l-.565,2.069c.784.132,1.484.184,1.695-.7.18-.755-.229-1.194-1.129-1.369m-11.6,2.1h2.188l.5-1.752-.264-.21-2.421,1.962" transform="translate(0 -0.001)" fill="#161615"/>
        <path id="Trazado_715847" data-name="Trazado 715847" d="M33.919,140.616v6.547H20.736V133.969H29.38c.044.068.11.124.114.184.172,2.431.47,2.159-2.019,2.174-1.217.007-2.435.023-3.652-.006-.642-.016-.893.216-.885.873q.039,3.383,0,6.766c-.008.665.27.879.9.874q3.437-.025,6.874,0c.633,0,.916-.218.884-.88-.038-.786.047-1.58-.022-2.361-.09-1.013.353-1.27,1.259-1.079a10.151,10.151,0,0,0,1.089.1" transform="translate(-16.278 -105.164)" fill="#161615"/>
      </g>
    </g>
  </g>
</svg>
