<svg xmlns="http://www.w3.org/2000/svg" width="181" height="181" viewBox="0 0 181 181">
  <g id="Grupo_1003524" data-name="Grupo 1003524" transform="translate(-404 -1453)">
    <circle id="Elipse_5684" data-name="Elipse 5684" cx="90.5" cy="90.5" r="90.5" transform="translate(404 1453)" fill="#ffe9a2"/>
    <g id="Grupo_1003525" data-name="Grupo 1003525" transform="translate(1987.764 7266.309)">
      <path id="Trazado_715703" data-name="Trazado 715703" d="M670.961,147.849h-2.146q-36.216,0-72.431,0c-11.789-.006-21.867-7.726-24.349-19.19-1.9-8.792.047-17.2,4.611-24.823,7.1-11.849,17.671-18.293,31.533-19.18.373-.024.746-.064,1.087-.094,1.191-2.952-.135-4.73-3.521-4.829-3.547-.1-7.16.188-10.629-.389-9.464-1.575-15.327-11.736-11.087-20.3,2.911-5.878,3.353-11.687,3.318-17.9A33.812,33.812,0,0,1,608.511,9.6c19.291-7.963,41.5,3.389,45.881,23.817,1.139,5.315.69,10.964,1.072,16.452a14.039,14.039,0,0,0,.924,3.87c1.025,2.741,2.6,5.339,3.218,8.157,1.94,8.905-4.964,17.473-14.088,17.819a28.873,28.873,0,0,1-4.537-.013,13.505,13.505,0,0,0-9.574,2.5,5.622,5.622,0,0,0-1,1.238c.476.341.917.9,1.434.986,3.865.612,7.839.768,11.606,1.738,14.489,3.732,26.255,17.148,27.381,32.134.728,9.692.137,19.483.137,29.555m-17.612-38.654v2.782c0,9.605.037,19.21-.034,28.815-.013,1.739.4,2.455,2.277,2.364,3.018-.145,6.05-.1,9.073-.014,1.5.043,2-.516,1.951-1.984-.084-2.72.036-5.446-.036-8.167-.138-5.206.242-10.513-.643-15.6-2.918-16.75-17.139-28.14-34.271-27.951-.625.007-1.556.1-1.821.5-1.893,2.855-4.781,5.305-3.792,9.4a13.489,13.489,0,0,1,.033,4.071c-.386,5.175-.322,10.451-1.366,15.494-1.908,9.214-5.994,17.465-13.092,23.994.219.1.346.2.474.2,11.5.01,22.992-.017,34.488.047,1.839.01,1.855-.972,1.851-2.3q-.036-14.521-.013-29.042v-2.605Zm-56.392,15.743a37.661,37.661,0,0,0,7.809-14.022c1.521-5.569,2.3-11.341,3.4-17.024.886-4.564.708-4.718-3.765-3.992-16.139,2.62-29.849,17.907-27.853,36.4,1.186,10.989,13.737,19.212,24.558,16.048,5.8-1.695,9.813-5.333,12.889-10.375,5.674-9.3,7.416-19.474,7.2-30.173-.124-6.229-.021-6.186-6.323-6.017-1.5.04-1.875.6-1.989,2.013a53.968,53.968,0,0,1-11.37,29.8c-2.4,3.039-5.208,5.762-7.751,8.543l-3.955-3.321a12.988,12.988,0,0,1,1.7-1.9c1.637-1.173,1.513-2.435.625-4.046-1.458-2.643-2.638-5.44-4.123-8.066-1.14-2.016.268-2.426,1.55-3.129,1.369-.751,2.352-1.018,3.161.83,1.226,2.8,2.728,5.481,4.224,8.433m20.013-87.8c-.074,1.561-.13,2.74-.19,4a13.583,13.583,0,0,1-8.725-2.447c-2.153-1.584-3.81-.962-5.009.734a10.318,10.318,0,0,0-1.962,5.091c-.257,4.977-.182,9.979-.063,14.966a20.143,20.143,0,0,0,7.016,15.155,26.77,26.77,0,0,0,2.507,1.735c.443-3.178.829-5.925,1.209-8.671a7.135,7.135,0,0,1,14.2.663,29.316,29.316,0,0,1-.02,4.532,4.783,4.783,0,0,0,2.7,5.351c7.385-3.132,11.87-8.362,12.7-16.23.637-6.06.311-12.222.409-18.338.013-.8,0-1.593,0-2.534a18.331,18.331,0,0,1-13.577-4.2v4.2c-4.323.1-7.749-1.517-11.2-4.01m33.736,9.3c.95-13.394-3.212-24.341-15.182-30.962-10.732-5.937-21.6-5.145-31.559,2.091-9.758,7.088-12.817,17.175-11.9,28.868l4.272-1.138c-.407-5.265,1.979-8.954,6.19-11.574l-1.473-2.971,4.2-2.118c2.249,4.477,5.53,7.276,10.6,7.707l-3.586-5.531,4.357-2.176c2.254,4.515,5.538,7.25,10.578,7.7l-3.6-5.553,4.476-2.14c3.693,8.392,11.027,8.109,18.363,7.843v8.855l4.275,1.1m-37.12,44.579c2.985,0,5.616.03,8.244-.028a2.477,2.477,0,0,0,1.37-.607c3.8-3.125,3.457-8.122-.61-10.855a3.323,3.323,0,0,1-1.221-2.286c-.151-2.708-.049-5.43-.066-8.147-.009-1.556-.738-2.732-2.316-2.839s-2.412.885-2.6,2.5c-.321,2.766-.781,5.514-1.126,8.278-.569,4.549-1.094,9.1-1.676,13.98M601.2,75.034l-4.647-10.243-8.2-4.277a9.535,9.535,0,0,0,.669,9.534c2.836,4.576,7.31,5.43,12.182,4.986m44.72-10.151c-.367,1.019-.913,2.9-1.717,4.663-.833,1.826-1.918,3.537-2.905,5.321,5.832.873,10.413-1.036,12.688-5.244,1.817-3.359,1.766-7.225.258-8.986l-8.324,4.246m-49.676-14.51c-2.91.653-4.427,2.315-4.317,4.552.109,2.212,1.656,3.717,4.317,4.13Zm50.313.095v8.655c2.862-.661,4.369-2.33,4.247-4.566s-1.675-3.726-4.247-4.089" transform="translate(-2135 -5800.254)" fill="#161615"/>
      <path id="Trazado_715704" data-name="Trazado 715704" d="M787.455,73.506a31.7,31.7,0,0,1-4.046-.264c-5.6-1.109-8.128-4.971-9.077-10.259-.8-4.453-1.715-8.885-2.557-13.331a10.447,10.447,0,0,1,10.276-12.567q14.418-.1,28.836,0a10.438,10.438,0,0,1,10.384,12.656q-1.445,7.553-2.985,15.087A10.242,10.242,0,0,1,808,73.325a7.308,7.308,0,0,0-6.448,2.8,54.383,54.383,0,0,1-4.634,4.668,5.512,5.512,0,0,1-9.469-4.109c.019-.98,0-1.959,0-3.176m4.558-4.668c0,2.519-.04,4.776.026,7.029a7.44,7.44,0,0,0,.542,1.839,6.4,6.4,0,0,0,1.691-.816,36.44,36.44,0,0,0,4.153-4.183,9.564,9.564,0,0,1,9.164-3.951c3.374.307,5.449-1.638,6.19-5.061q1.627-7.516,3.065-15.071a5.828,5.828,0,0,0-5.691-6.949q-14.641-.171-29.287,0a5.8,5.8,0,0,0-5.658,6.774c.953,5.19,2.019,10.361,3.129,15.52a5.821,5.821,0,0,0,5.986,4.854c2.112.059,4.227.011,6.689.011" transform="translate(-2244.321 -5816.63)" fill="#161615"/>
      <path id="Trazado_715705" data-name="Trazado 715705" d="M701.81,208.244H696.89v2.605q0,14.522.013,29.043c0,1.333-.012,2.315-1.851,2.3-11.5-.065-22.992-.037-34.488-.047-.128,0-.255-.106-.474-.2,7.1-6.529,11.184-14.78,13.092-23.994,1.044-5.044.98-10.32,1.366-15.494a13.476,13.476,0,0,0-.033-4.071c-.988-4.093,1.9-6.543,3.792-9.4.265-.4,1.2-.49,1.821-.5,17.131-.189,31.353,11.2,34.271,27.951.885,5.083.505,10.39.644,15.6.072,2.721-.048,5.447.036,8.167.046,1.468-.449,2.027-1.951,1.985-3.023-.085-6.055-.132-9.073.014-1.874.09-2.29-.625-2.277-2.364.071-9.6.034-19.21.034-28.816Zm-22.944,4.569h13.72v-4.49h-13.72Z" transform="translate(-2183.462 -5899.304)" fill="#a03d3d"/>
      <path id="Trazado_715706" data-name="Trazado 715706" d="M603.024,224.146c-1.5-2.952-3-5.632-4.224-8.433-.809-1.848-1.792-1.581-3.161-.831-1.282.7-2.691,1.114-1.551,3.129,1.485,2.626,2.664,5.424,4.122,8.067.889,1.61,1.012,2.873-.624,4.046a12.982,12.982,0,0,0-1.7,1.9l3.955,3.321c2.543-2.781,5.347-5.5,7.751-8.543a53.97,53.97,0,0,0,11.37-29.8c.114-1.412.488-1.973,1.99-2.013,6.3-.169,6.2-.212,6.323,6.017.213,10.7-1.528,20.873-7.2,30.173-3.076,5.042-7.093,8.679-12.89,10.375-10.821,3.163-23.372-5.059-24.558-16.049-2-18.491,11.715-33.777,27.853-36.4,4.472-.726,4.651-.571,3.765,3.992-1.1,5.684-1.884,11.455-3.4,17.025a37.66,37.66,0,0,1-7.809,14.022" transform="translate(-2141.067 -5899.462)" fill="#a03d3d"/>
      <path id="Trazado_715707" data-name="Trazado 715707" d="M652.551,73.085c3.451,2.493,6.877,4.108,11.2,4.01v-4.2a18.329,18.329,0,0,0,13.578,4.2c0,.942.011,1.738,0,2.534-.1,6.117.227,12.278-.409,18.338-.826,7.868-5.312,13.1-12.7,16.23a4.783,4.783,0,0,1-2.7-5.351,29.368,29.368,0,0,0,.02-4.533,7.135,7.135,0,0,0-14.2-.663c-.38,2.747-.766,5.493-1.209,8.672a26.642,26.642,0,0,1-2.507-1.735A20.143,20.143,0,0,1,636.6,95.43c-.119-4.988-.194-9.989.063-14.966a10.325,10.325,0,0,1,1.962-5.091c1.2-1.7,2.856-2.318,5.009-.734a13.586,13.586,0,0,0,8.725,2.447c.06-1.262.116-2.44.19-4M654.54,83.9c-1.852.193-3.974-1.048-5.331,1.5-.214.4-2.438.419-2.67.01-1.45-2.551-3.518-1.388-5.456-1.445.293,4.272,3.182,6.936,7.116,6.786A6.491,6.491,0,0,0,654.54,83.9m4.707-.005c.28,4.327,3.173,7,7.108,6.857a6.533,6.533,0,0,0,6.357-6.952c-1.816.421-3.989-1.02-5.332,1.595-.2.4-2.445.424-2.668.024-1.367-2.462-3.455-1.389-5.465-1.524" transform="translate(-2170.582 -5836.202)" fill="#fff0c0"/>
      <path id="Trazado_715708" data-name="Trazado 715708" d="M675.466,51.83l-4.275-1.1V41.874c-7.337.267-14.67.55-18.364-7.842l-4.476,2.14,3.6,5.553c-5.04-.447-8.325-3.183-10.578-7.7L637.021,36.2l3.586,5.531c-5.068-.432-8.349-3.231-10.6-7.708l-4.2,2.118,1.472,2.971c-4.211,2.62-6.6,6.309-6.19,11.573l-4.272,1.138c-.915-11.693,2.144-21.779,11.9-28.868,9.961-7.236,20.826-8.028,31.559-2.091,11.97,6.621,16.132,17.568,15.182,30.962" transform="translate(-2159.76 -5805.646)"/>
      <path id="Trazado_715709" data-name="Trazado 715709" d="M664.4,162.192c.582-4.877,1.107-9.431,1.676-13.98.346-2.763.805-5.512,1.126-8.278.188-1.618,1.024-2.611,2.6-2.5s2.306,1.283,2.315,2.839c.017,2.717-.085,5.438.066,8.147a3.322,3.322,0,0,0,1.221,2.286c4.067,2.733,4.41,7.731.61,10.855a2.475,2.475,0,0,1-1.37.607c-2.629.058-5.259.028-8.244.028" transform="translate(-2185.816 -5871.427)" fill="#fff0c0"/>
      <path id="Trazado_715710" data-name="Trazado 715710" d="M620.513,139.313c-4.872.444-9.346-.41-12.182-4.986a9.535,9.535,0,0,1-.669-9.534l8.2,4.277,4.646,10.243" transform="translate(-2154.311 -5864.533)"/>
      <path id="Trazado_715711" data-name="Trazado 715711" d="M730.053,129.311l8.324-4.246c1.508,1.761,1.559,5.627-.258,8.986-2.275,4.207-6.856,6.117-12.688,5.243.987-1.784,2.072-3.495,2.9-5.321.8-1.763,1.35-3.644,1.717-4.663" transform="translate(-2219.13 -5864.682)"/>
      <path id="Trazado_715712" data-name="Trazado 715712" d="M621.024,102.464v8.682c-2.662-.413-4.208-1.918-4.317-4.13-.11-2.237,1.407-3.9,4.317-4.552" transform="translate(-2159.778 -5852.345)" fill="#fff0c0"/>
      <path id="Trazado_715713" data-name="Trazado 715713" d="M737.013,102.67c2.569.364,4.123,1.863,4.245,4.09s-1.385,3.905-4.247,4.566c0-2.906,0-5.781,0-8.656" transform="translate(-2225.451 -5852.458)" fill="#fff0c0"/>
      <path id="Trazado_715714" data-name="Trazado 715714" d="M797.471,74.31c-2.462,0-4.577.048-6.689-.011a5.822,5.822,0,0,1-5.986-4.854c-1.11-5.159-2.176-10.33-3.129-15.52a5.8,5.8,0,0,1,5.657-6.774q14.641-.178,29.287,0A5.828,5.828,0,0,1,822.3,54.1q-1.437,7.554-3.065,15.071c-.741,3.423-2.816,5.368-6.19,5.061a9.564,9.564,0,0,0-9.164,3.951,36.368,36.368,0,0,1-4.153,4.183,6.4,6.4,0,0,1-1.69.817,7.423,7.423,0,0,1-.542-1.84c-.066-2.253-.026-4.509-.026-7.028M815.5,51.764H788.538v4.3H815.5Zm.038,9.086H788.542v4.289h26.992Z" transform="translate(-2249.778 -5822.102)" fill="#abffff"/>
      <rect id="Rectángulo_353554" data-name="Rectángulo 353554" width="13.72" height="4.49" transform="translate(-1504.595 -5690.981)" fill="#161615"/>
      <path id="Trazado_715715" data-name="Trazado 715715" d="M660.055,96.952a6.491,6.491,0,0,1-6.341,6.851c-3.934.151-6.823-2.514-7.116-6.786,1.938.057,4.006-1.107,5.456,1.445.232.409,2.456.391,2.67-.01,1.357-2.548,3.479-1.307,5.331-1.5" transform="translate(-2176.097 -5849.253)" fill="#161615"/>
      <path id="Trazado_715716" data-name="Trazado 715716" d="M686.6,96.975c2.01.134,4.1-.939,5.465,1.524.222.4,2.464.373,2.668-.024,1.343-2.615,3.516-1.174,5.332-1.595a6.533,6.533,0,0,1-6.357,6.952c-3.934.146-6.827-2.529-7.107-6.857" transform="translate(-2197.931 -5849.282)" fill="#161615"/>
      <rect id="Rectángulo_353555" data-name="Rectángulo 353555" width="26.958" height="4.296" transform="translate(-1461.24 -5770.338)" fill="#161615"/>
      <rect id="Rectángulo_353556" data-name="Rectángulo 353556" width="26.992" height="4.289" transform="translate(-1461.236 -5761.251)" fill="#161615"/>
    </g>
  </g>
</svg>
