<svg xmlns="http://www.w3.org/2000/svg" width="188" height="203" viewBox="0 0 188 203">
  <g id="Grupo_1003701" data-name="Grupo 1003701" transform="translate(-285 -9029)">
    <rect id="Rectángulo_353646" data-name="Rectángulo 353646" width="188" height="203" rx="42" transform="translate(285 9029)" fill="#03a4a4"/>
    <g id="Grupo_1003606" data-name="Grupo 1003606" transform="translate(213 111.976)">
      <path id="Trazado_715983" data-name="Trazado 715983" d="M134.192.006q25.236,0,50.472,0c8.9,0,13.127,4.188,13.128,12.984q0,23.289,0,46.577c0,8.265-4.325,12.563-12.662,12.564-30.6.006-61.195-.022-91.792.069a10.793,10.793,0,0,0-5.072,1.539c-3.114,1.793-6.033,3.923-9.029,5.918a5.489,5.489,0,0,1-6.011.542A5.754,5.754,0,0,1,70.187,74.7c.028-21.163-.014-42.326.034-63.489.015-6.6,4.908-11.187,11.834-11.2q26.068-.045,52.136-.011M75.752,75.234c3.537-2.349,6.622-4.2,9.476-6.352A12.322,12.322,0,0,1,93.195,66.5q46.007.126,92.014.049c5.131,0,7.028-1.887,7.03-7q.012-23.413,0-46.826c0-5.266-1.892-7.143-7.211-7.143q-51-.007-101.991,0c-5.486,0-7.282,1.817-7.284,7.336q0,29.509,0,59.017Z" transform="translate(47.727 8936.5)" fill="#161615"/>
      <path id="Trazado_715984" data-name="Trazado 715984" d="M64.129,150.048q25.51,0,51.019,0c8.113,0,12.536,4.407,12.538,12.458,0,20.421-.021,40.842.029,61.262.007,2.675-.471,4.994-2.965,6.384-2.534,1.411-4.941.707-6.915-1.055-6.667-5.948-14.364-7.252-23.176-7.1-27.257.477-54.529.023-81.792.267C4.869,222.34-.142,216.8,0,209.436c.31-15.7.09-31.415.1-47.123,0-7.7,4.5-12.252,12.178-12.26q25.926-.027,51.851-.006m58.008,75.211v-3q0-29.808,0-59.616c0-5.065-1.962-7.014-7.07-7.015q-51.173-.01-102.346,0c-5.117,0-7.066,1.938-7.068,7q-.012,23.292,0,46.584c0,5.652,1.753,7.38,7.487,7.38,30.88,0,61.759-.035,92.638.082a13.3,13.3,0,0,1,6.107,1.885c3.36,1.888,6.484,4.2,10.257,6.7" transform="translate(79 8869.646)" fill="#161615"/>
      <path id="Trazado_715985" data-name="Trazado 715985" d="M80.224,79.721V76.427q0-29.508,0-59.017c0-5.519,1.8-7.335,7.283-7.336q50.995-.006,101.991,0c5.319,0,7.209,1.878,7.211,7.144q.01,23.412,0,46.826c0,5.109-1.9,7-7.031,7q-46.006.006-92.013-.049A12.323,12.323,0,0,0,89.7,73.37c-2.853,2.155-5.938,4-9.475,6.352m56.867-38.8c.649,14.8,11.753,25.345,26.193,24.46,15.367-.94,24.022-12.438,23.641-25.835a24.815,24.815,0,0,0-25.987-23.942c-13.368.554-24.418,12.284-23.847,25.316M105.178,26.708c5.171,0,10.343-.035,15.514.018,1.966.02,3.72-.419,3.794-2.634.079-2.361-1.667-2.98-3.781-2.974q-15.514.042-31.027,0c-2.109-.006-3.863.595-3.794,2.96.065,2.216,1.812,2.667,3.782,2.648,5.17-.052,10.342-.018,15.512-.018m.046,13.863c5.264,0,10.527-.027,15.791.014,1.922.015,3.436-.643,3.476-2.673.044-2.182-1.517-2.927-3.554-2.924q-15.79.026-31.58,0c-1.92,0-3.419.717-3.474,2.726-.06,2.214,1.517,2.886,3.552,2.87,5.263-.039,10.527-.013,15.791-.013m-.3,13.866c5.263,0,10.528-.034,15.79.017,1.973.019,3.712-.441,3.768-2.66.059-2.368-1.7-2.953-3.808-2.948q-15.513.042-31.026,0c-1.984-.006-3.693.529-3.765,2.715-.078,2.41,1.714,2.912,3.8,2.892,5.079-.049,10.158-.016,15.237-.016" transform="translate(43.255 8932.013)" fill="#fff0c0" opacity="0.83"/>
      <path id="Trazado_715986" data-name="Trazado 715986" d="M126.675,229.744c-3.773-2.5-6.9-4.809-10.257-6.7a13.3,13.3,0,0,0-6.106-1.885c-30.879-.118-61.759-.081-92.638-.083-5.734,0-7.486-1.728-7.487-7.38q0-23.292,0-46.584c0-5.064,1.952-7,7.069-7q51.173-.01,102.345,0c5.109,0,7.068,1.95,7.07,7.015q.011,29.808,0,59.616ZM96.256,165.629c-13.552-.043-24.947,11.064-25.051,24.418-.112,14.334,10.6,25.351,24.732,25.437,14.233.087,25.093-10.682,25.192-24.98a25.032,25.032,0,0,0-24.873-24.876M39.309,176.747c5.168,0,10.337-.023,15.505.012,1.934.013,3.665-.323,3.747-2.647.088-2.5-1.687-2.951-3.75-2.948q-15.506.022-31.011,0c-2.065,0-3.838.459-3.748,2.951.084,2.319,1.815,2.658,3.751,2.645,5.168-.037,10.337-.012,15.506-.012m.019,13.863c5.261,0,10.522-.018,15.783.01,1.888.009,3.389-.534,3.455-2.663.072-2.3-1.5-2.925-3.5-2.924q-15.783.008-31.566,0c-1.861,0-3.4.542-3.454,2.69-.057,2.3,1.475,2.907,3.5,2.9,5.261-.029,10.522-.009,15.783-.01M39.3,204.476c5.168,0,10.337-.023,15.506.012,1.93.013,3.669-.31,3.761-2.634.1-2.493-1.668-2.964-3.736-2.961q-15.506.021-31.012,0c-2.06,0-3.842.442-3.761,2.937.074,2.319,1.8,2.671,3.737,2.658,5.168-.036,10.337-.012,15.506-.012" transform="translate(74.462 8865.16)" fill="#fff0c0" opacity="0.83"/>
      <path id="Trazado_715987" data-name="Trazado 715987" d="M182.777,45.354c-.572-13.032,10.478-24.763,23.847-25.316a24.816,24.816,0,0,1,25.988,23.942c.381,13.4-8.275,24.894-23.641,25.835-14.44.884-25.544-9.66-26.193-24.461m44.283.063c.207-10.969-7.863-19.336-18.928-19.625a18.9,18.9,0,0,0-19.742,19.1,19.337,19.337,0,0,0,38.669.529" transform="translate(-2.43 8927.582)" fill="#161615"/>
      <path id="Trazado_715988" data-name="Trazado 715988" d="M109.725,35.586c-5.171,0-10.342-.034-15.513.018-1.97.02-3.717-.432-3.782-2.648-.069-2.365,1.685-2.966,3.795-2.96q15.514.042,31.026,0c2.115-.006,3.859.612,3.781,2.973-.073,2.216-1.828,2.655-3.795,2.634-5.171-.053-10.342-.018-15.513-.018" transform="translate(38.708 8923.135)" fill="#161615"/>
      <path id="Trazado_715989" data-name="Trazado 715989" d="M109.77,60.6c-5.263,0-10.527-.026-15.79.013-2.035.015-3.612-.656-3.552-2.87.054-2.009,1.554-2.729,3.474-2.726q15.79.025,31.581,0c2.036,0,3.6.741,3.554,2.924-.04,2.03-1.555,2.688-3.477,2.673-5.263-.04-10.527-.014-15.79-.014" transform="translate(38.709 8911.987)" fill="#161615"/>
      <path id="Trazado_715990" data-name="Trazado 715990" d="M109.477,85.6c-5.079,0-10.158-.033-15.237.016-2.091.02-3.883-.482-3.8-2.892.072-2.186,1.781-2.721,3.765-2.715q15.514.045,31.026,0c2.1-.006,3.867.58,3.808,2.948-.055,2.218-1.8,2.679-3.768,2.66-5.262-.051-10.527-.017-15.79-.017" transform="translate(38.706 8900.852)" fill="#161615"/>
      <path id="Trazado_715991" data-name="Trazado 715991" d="M145.295,170.063a25.033,25.033,0,0,1,24.873,24.876c-.1,14.3-10.959,25.067-25.192,24.98-14.132-.086-24.845-11.1-24.733-25.437.1-13.355,11.5-24.461,25.051-24.419m.308,5.779a18.981,18.981,0,0,0-19.8,18.813c-.319,10.29,8.269,19.483,18.446,19.744,11.03.283,19.991-7.942,20.343-18.673.361-11.021-7.842-19.61-18.993-19.885" transform="translate(25.424 8860.726)" fill="#161615"/>
      <path id="Trazado_715992" data-name="Trazado 715992" d="M47.236,185.63c-5.168,0-10.337-.024-15.506.012-1.936.014-3.666-.325-3.751-2.644-.09-2.493,1.683-2.954,3.748-2.951q15.506.022,31.012,0c2.062,0,3.838.451,3.75,2.948-.082,2.323-1.814,2.66-3.747,2.647-5.168-.036-10.337-.012-15.506-.012" transform="translate(66.535 8856.276)" fill="#161615"/>
      <path id="Trazado_715993" data-name="Trazado 715993" d="M47.254,210.64c-5.261,0-10.522-.019-15.783.01-2.021.011-3.553-.6-3.5-2.9.053-2.148,1.592-2.691,3.454-2.69q15.783.005,31.566,0c2,0,3.569.621,3.5,2.924-.066,2.129-1.567,2.673-3.455,2.663-5.261-.027-10.522-.009-15.783-.009" transform="translate(66.536 8845.13)" fill="#161615"/>
      <path id="Trazado_715994" data-name="Trazado 715994" d="M47.223,235.644c-5.168,0-10.337-.024-15.506.012-1.939.014-3.663-.339-3.737-2.658-.08-2.495,1.7-2.94,3.761-2.937q15.506.022,31.012,0c2.068,0,3.834.468,3.736,2.961-.091,2.323-1.831,2.647-3.761,2.634-5.168-.035-10.337-.012-15.506-.012" transform="translate(66.534 8833.992)" fill="#161615"/>
      <path id="Trazado_715995" data-name="Trazado 715995" d="M231.587,50.053a19.337,19.337,0,0,1-38.669-.529,18.905,18.905,0,0,1,19.742-19.1c11.064.288,19.134,8.656,18.928,19.625M211.906,32.921c-6.121-.063-11.007,4.678-10.8,10.483.067,1.858.72,3.37,2.83,3.367,1.909,0,2.741-1.257,2.719-3.111a5.727,5.727,0,0,1,.033-.828,4.371,4.371,0,0,1,3.824-4.142c2.386-.354,4.911-.534,6.474,1.917a3.955,3.955,0,0,1-.442,5.3,23.691,23.691,0,0,1-2.844,2.18,10.1,10.1,0,0,0-4.253,7.152c-.228,1.942.827,3.521,2.658,3.476,1-.025,2.055-1.587,2.906-2.606,1-1.2,1.549-2.925,2.75-3.788,4.551-3.271,6.591-7.813,5.171-12.348-1.394-4.454-5.37-7-11.028-7.056m3.476,31.15q-.031-.62-.062-1.239c-1-.7-1.948-1.847-3.028-1.994a2.2,2.2,0,0,0-2.588,2.717c.243,1.033,1.6,2.462,2.511,2.506,1.022.049,2.109-1.267,3.167-1.989" transform="translate(-6.958 8922.945)" fill="#abffff"/>
      <path id="Trazado_715996" data-name="Trazado 715996" d="M150.067,180.482c11.151.276,19.355,8.864,18.993,19.885-.352,10.73-9.313,18.956-20.343,18.673-10.178-.262-18.766-9.454-18.446-19.745a18.981,18.981,0,0,1,19.8-18.813m-3.307,21.233c-1.23-1.436-2.13-2.6-3.144-3.643-1.255-1.3-2.71-1.663-4.122-.262-1.394,1.384-1.084,2.834.17,4.142,1.406,1.466,2.848,2.9,4.3,4.318,2.411,2.361,3.445,2.39,5.791.077,3.156-3.11,6.262-6.272,9.41-9.39,1.456-1.442,2.419-3,.614-4.74-1.714-1.653-3.2-.624-4.522.742-2.686,2.767-5.37,5.535-8.495,8.757" transform="translate(20.959 8856.086)" fill="#ffc403"/>
      <path id="Trazado_715997" data-name="Trazado 715997" d="M218.485,34.93c5.658.058,9.634,2.6,11.028,7.055,1.42,4.536-.619,9.078-5.171,12.349-1.2.863-1.748,2.589-2.75,3.788-.851,1.019-1.908,2.581-2.906,2.606-1.831.045-2.886-1.534-2.658-3.476a10.1,10.1,0,0,1,4.253-7.151,23.643,23.643,0,0,0,2.843-2.18,3.955,3.955,0,0,0,.442-5.3c-1.563-2.451-4.088-2.271-6.474-1.917a4.371,4.371,0,0,0-3.824,4.142,5.724,5.724,0,0,0-.033.828c.022,1.853-.81,3.108-2.719,3.111-2.11,0-2.763-1.51-2.83-3.367-.211-5.8,4.675-10.546,10.8-10.483" transform="translate(-13.537 8920.937)" fill="#161615"/>
      <path id="Trazado_715998" data-name="Trazado 715998" d="M228.817,88.493c-1.058.722-2.145,2.038-3.167,1.989-.913-.044-2.268-1.473-2.511-2.506a2.2,2.2,0,0,1,2.588-2.717c1.08.147,2.023,1.3,3.028,1.994q.032.62.062,1.239" transform="translate(-20.393 8898.522)" fill="#161615"/>
      <path id="Trazado_715999" data-name="Trazado 715999" d="M153.443,210.465c3.125-3.222,5.809-5.99,8.495-8.757,1.327-1.366,2.809-2.4,4.522-.742,1.805,1.741.842,3.3-.614,4.74-3.148,3.119-6.253,6.28-9.41,9.39-2.346,2.313-3.38,2.284-5.791-.077-1.45-1.421-2.892-2.853-4.3-4.318-1.254-1.308-1.564-2.758-.17-4.142,1.412-1.4,2.866-1.035,4.122.262,1.014,1.048,1.914,2.207,3.144,3.643" transform="translate(14.276 8847.336)" fill="#161615"/>
    </g>
  </g>
</svg>
