<svg xmlns="http://www.w3.org/2000/svg" xmlns:xlink="http://www.w3.org/1999/xlink" width="181" height="181" viewBox="0 0 181 181">
  <defs>
    <clipPath id="clip-path">
      <rect id="Rect치ngulo_353573" data-name="Rect치ngulo 353573" width="133.964" height="134.008" fill="none"/>
    </clipPath>
  </defs>
  <g id="Grupo_1003537" data-name="Grupo 1003537" transform="translate(-404 -1453)">
    <circle id="Elipse_5684" data-name="Elipse 5684" cx="90.5" cy="90.5" r="90.5" transform="translate(404 1453)" fill="#ffe9a2"/>
    <g id="Grupo_1003555" data-name="Grupo 1003555" transform="translate(424 1472.083)">
      <rect id="Rect치ngulo_353572" data-name="Rect치ngulo 353572" width="38.878" height="20.44" transform="translate(16 112.839)" fill="#a03d3d"/>
      <g id="Grupo_1003554" data-name="Grupo 1003554">
        <g id="Grupo_1003553" data-name="Grupo 1003553" clip-path="url(#clip-path)">
          <path id="Trazado_715777" data-name="Trazado 715777" d="M56.068,133.946H52.861c-.055-.858-.151-1.669-.154-2.481-.015-4.828-.055-9.656.015-14.483.024-1.627-.537-2.2-2.188-2.188q-15.847.083-31.695,0c-1.688-.01-2.182.608-2.161,2.2.062,4.757.025,9.515.014,14.273,0,.826-.068,1.651-.111,2.622h-3.33q0-2.472,0-4.947c.006-3.959.127-3.553-3.46-3.618-4.381-.079-7.634-2.223-9.04-6.187a14.521,14.521,0,0,1-.709-4.726Q-.032,91.213.024,68.019C.042,60.269,3.6,56,11.185,54.35c4.021-.876,8.009-1.906,12.041-2.72,1.268-.257,1.506-.83,1.568-1.97a6.219,6.219,0,0,0-2.03-5.307c-1.974-1.947-3.162-4.682-4.743-7.04a4.473,4.473,0,0,0-1.575-1.653,6.821,6.821,0,0,1-4.457-6.294c-.086-2.374-.086-4.758.025-7.131.134-2.86,1.732-4.7,4.247-6a6.056,6.056,0,0,0,2.487-2.459,18.793,18.793,0,0,1,8.43-8.467A4.573,4.573,0,0,0,29.144,3.4a5.8,5.8,0,0,1,10.432-.26,4.677,4.677,0,0,0,1.987,1.9,18.608,18.608,0,0,1,9.3,9.277A3.855,3.855,0,0,0,52.65,16.06c3.09,1.332,4.773,3.517,4.73,6.945-.026,2.1.018,4.2-.024,6.3-.059,2.962-1.583,4.923-4.185,6.246a4.124,4.124,0,0,0-1.9,1.918,18.847,18.847,0,0,1-5.639,7.941c-.892.735-1.485,4.831-.773,5.638a2.556,2.556,0,0,0,1.295.532c4.685,1.1,9.395,2.108,14.057,3.3A11.748,11.748,0,0,1,69.138,65.1a18.434,18.434,0,0,1,.169,2.3q.014,23.719,0,47.438c-.009,5.132-2.326,8.672-6.661,10.04a13.1,13.1,0,0,1-4.34.424c-1.777-.064-2.345.652-2.258,2.345.1,2.015.024,4.04.024,6.3m.006-62.972c0,2.263.048,4.412-.018,6.558-.042,1.362.482,1.864,1.849,1.808,2.1-.086,4.2-.063,6.3-.008,1.168.031,1.628-.415,1.615-1.589-.042-3.708.092-7.422-.052-11.125a8.72,8.72,0,0,0-7.016-8.549c-4.084-.919-8.177-1.8-12.248-2.774-1.44-.344-2.19-.143-2.822,1.437-1.566,3.915-4.816,5.7-8.894,5.89a9.451,9.451,0,0,1-9.122-5.879c-.616-1.573-1.371-1.79-2.825-1.441-4.069.976-8.176,1.795-12.242,2.784-3.548.864-6.255,2.994-6.654,6.7a122.975,122.975,0,0,0-.323,13.39c0,.382.973,1.056,1.525,1.09,2.091.131,4.2-.014,6.294.077,1.4.061,1.857-.521,1.822-1.842-.056-2.143-.015-4.289-.015-6.374,3.393-.553,3.449-.516,3.45,2.463,0,11.756.043,23.513-.037,35.269-.013,2,.553,2.653,2.6,2.634,10.216-.092,20.433-.039,30.65-.044,2.778,0,2.789-.013,2.79-2.792q.008-17.529.01-35.059c0-.878.112-1.755.17-2.623ZM34.876,19.4c-5.177,0-10.355-.014-15.533.006-2.575.01-3.861,1.223-3.978,3.806-.079,1.746-.07,3.5-.008,5.246.1,2.721,1.5,4.133,4.215,4.14q15.113.043,30.225,0c2.594-.007,3.955-1.208,4.145-3.741a40.183,40.183,0,0,0,.005-5.871c-.182-2.526-1.412-3.572-3.96-3.581-5.038-.018-10.076-.005-15.113-.005m-21.627,82.99c0-5.8-.036-11.594.024-17.39.016-1.564-.377-2.337-2.121-2.2a29.629,29.629,0,0,1-5.232,0c-2.026-.2-2.444.669-2.43,2.513.074,9.777.025,19.555.039,29.332.007,4.84,2.56,7.273,7.4,7.375,1.894.04,2.385-.672,2.358-2.45-.086-5.726-.032-11.454-.033-17.18m42.82-.147c0,5.87-.038,11.74.05,17.609.01.7.643,1.946,1.1,2,4.287.527,8.424-1,8.52-6.209.191-10.409.05-20.823.073-31.236,0-1.172-.469-1.617-1.626-1.586-1.955.052-3.919.112-5.867-.018-1.741-.116-2.312.5-2.286,2.248.086,5.729.033,11.46.034,17.19M47.587,36.364H21.76c1.265,5.39,6.9,9.355,13.049,9.319,6.014-.035,11.557-4.034,12.779-9.319m-19.041,12.1c-.962,4.412.016,7.873,2.714,9.605a6.174,6.174,0,0,0,7.253-.3c2.5-1.9,3.339-5.495,2.194-9.306a48.263,48.263,0,0,1-5.982.693,52.123,52.123,0,0,1-6.179-.7m8.108-38.244h-.032c0-1.321.017-2.642,0-3.963-.024-1.48-.554-2.719-2.216-2.71S32.2,4.8,32.177,6.27c-.032,2.364.055,4.731-.045,7.091-.072,1.7.348,2.484,2.292,2.508,2.015.025,2.344-.891,2.242-2.52-.065-1.039-.012-2.085-.012-3.128M40.078,8.6c0,2.148-.04,4.086.035,6.019.015.376.463,1.041.734,1.053,2.1.088,4.2.048,6.413.048A11.328,11.328,0,0,0,40.078,8.6M22.244,15.771c1.823,0,3.6.045,5.368-.037.362-.017.99-.5,1-.788.089-1.963.047-3.932.047-5.992a9.72,9.72,0,0,0-6.419,6.818" transform="translate(0 0)" fill="#161615"/>
          <path id="Trazado_715778" data-name="Trazado 715778" d="M166.652,222.826c3.854-.522,3.854-.522,3.854-4.286,0-11.89.04-23.781-.042-35.67-.013-1.848.5-2.391,2.348-2.371,5.594.06,5.592-.015,5.626-5.537,0-.683.063-1.365.1-2.176h16.524c0,1.961.068,3.891-.022,5.814-.068,1.473.525,1.976,1.957,1.954,6.209-.1,4.849.614,5.005-4.721.028-.961,0-1.924,0-3.183H211.4c1.679,0,3.37.131,5.033-.034,1.944-.192,2.333.652,2.323,2.4-.033,5.471.029,5.568,5.477,5.473,2.042-.036,2.4.741,2.387,2.55-.066,11.75-.033,23.5-.033,35.25,0,3.9,0,3.9,4.014,4.579,0,3.279.032,6.615-.046,9.949-.008.354-.605.823-1.03,1a3.951,3.951,0,0,1-1.452.061c-19.584,0-39.167-.026-58.751.042-2.04.007-2.886-.417-2.715-2.645.212-2.769.051-5.566.051-8.455m35.358-38.84c-1.722,0-3.243.086-4.75-.022-1.782-.128-2.244.638-2.228,2.33.073,7.7.046,15.394.025,23.091-.014,5.188-3.477,8.845-8.31,8.839-4.816-.007-8.3-3.7-8.307-8.862-.015-7.7-.049-15.394.029-23.091.018-1.708-.458-2.333-2.228-2.334s-2.229.66-2.219,2.35q.093,17-.008,34.007c-.014,1.9.642,2.346,2.426,2.339q22.146-.089,44.293.007c1.905.009,2.328-.631,2.316-2.417-.073-11.335-.036-22.671-.041-34.007,0-.621-.056-1.241-.085-1.822-3.672-1.053-4.2-.678-4.205,2.873,0,7.137.086,14.276-.061,21.411a12.974,12.974,0,0,1-1.3,5.6,7.825,7.825,0,0,1-8.809,3.678,8.4,8.4,0,0,1-6.516-8.23c-.055-6.157-.017-12.316-.018-18.473,0-2.3,0-4.6,0-7.263m-31.65,42.12c-.507,4.4-.507,4.4,3.4,4.4h49.924a4.775,4.775,0,0,0,1.865-.062c.609-.284,1.412-.882,1.5-1.44.4-2.638.11-2.895-2.52-2.9q-25.906,0-51.812,0H170.36M215.3,200.36c0-2.936-.068-5.873.026-8.805.053-1.657-.389-2.462-2.218-2.321a36.279,36.279,0,0,1-5.447,0c-1.732-.129-2.138.608-2.119,2.194.068,5.8.015,11.6.031,17.4.01,3.606,1.9,5.836,4.875,5.817,2.943-.018,4.818-2.279,4.847-5.9.023-2.8,0-5.591,0-8.387m-23.794.391c0-3.219-.045-6.438.022-9.656.028-1.323-.356-1.916-1.773-1.853-2.025.09-4.059.074-6.086,0-1.272-.044-1.717.435-1.708,1.706.044,6.367-.013,12.735.04,19.1a4.748,4.748,0,0,0,9.492-.068c.044-3.078.01-6.157.013-9.236m18.912-15.008c4.883,0,4.883,0,4.883-4.6,0-4.923,0-4.923-4.975-4.923-4.758,0-4.758,0-4.758,4.7,0,4.82,0,4.82,4.85,4.82m-19.049-9.512c-2.848,0-5.491-.056-8.126.055a1.731,1.731,0,0,0-1.2,1.185c-.116,2.368-.1,4.748,0,7.117a1.576,1.576,0,0,0,1.087,1.087c2.7.1,5.4.05,8.237.05Z" transform="translate(-96.638 -100.125)" fill="#161615"/>
          <path id="Trazado_715779" data-name="Trazado 715779" d="M191.9,50.767h3.349c0,.885-.008,1.691,0,2.5.051,4.106,2.565,6.666,6.692,6.685,7.974.036,15.948-.007,23.922.027a8.137,8.137,0,0,1,7.981,6.18c.864,4.168-.842,7.943-4.569,9.571a11.063,11.063,0,0,1-4.255.811c-10,.068-20.005.011-30.008.05-4.139.016-6.58,3.845-4.622,7.16a4.7,4.7,0,0,0,4.375,2.382c3.567-.017,7.136-.06,10.7.02,6.191.139,10.388,4.256,10.112,10.026h-3.131c-.074-.3-.173-.686-.265-1.073-.866-3.658-3.063-5.443-6.865-5.456-8.114-.028-16.228.013-24.342-.029A8.226,8.226,0,0,1,177.3,74.032a11.652,11.652,0,0,1,4.653-.933c10.072-.081,20.145-.054,30.217-.034a5.21,5.21,0,0,0,4.595-2.01,4.435,4.435,0,0,0,.5-4.757,4.325,4.325,0,0,0-4.1-2.746q-5.246,0-10.492-.006c-7.544-.011-11.851-5-10.779-12.778m-4.41,25.918a68.5,68.5,0,0,0-7.307.058,4.517,4.517,0,0,0-3.826,4.345c-.108,2.062,1.128,4.35,3.084,4.679a71.436,71.436,0,0,0,8.155.454,9.469,9.469,0,0,1-.107-9.535M219.916,73c2.433,0,4.52.163,6.571-.043a4.855,4.855,0,0,0,4.163-4.774c-.034-2.153-1.813-4.406-3.872-4.56-2.131-.16-4.283-.036-6.77-.036A9.394,9.394,0,0,1,219.916,73" transform="translate(-100.205 -29.452)" fill="#161615"/>
          <path id="Trazado_715780" data-name="Trazado 715780" d="M81.9,308.445c-3.377.256-3.377.256-3.385-2.523,0-1.042.042-2.086-.009-3.125-.06-1.225.2-1.933,1.693-1.931,1.469,0,1.753.669,1.716,1.913-.055,1.853-.014,3.709-.014,5.665" transform="translate(-45.536 -174.542)" fill="#161615"/>
          <path id="Trazado_715781" data-name="Trazado 715781" d="M61.037,147.176h-3.2c-.059.867-.169,1.745-.17,2.623q-.018,17.529-.01,35.059c0,2.778-.013,2.79-2.79,2.792-10.217.005-20.434-.048-30.65.044-2.046.018-2.612-.639-2.6-2.634.08-11.756.041-23.513.037-35.269,0-2.98-.057-3.017-3.45-2.463,0,2.085-.041,4.231.015,6.374.034,1.321-.418,1.9-1.822,1.842-2.1-.091-4.2.053-6.294-.077-.552-.034-1.525-.709-1.525-1.091a122.864,122.864,0,0,1,.323-13.39c.4-3.7,3.106-5.833,6.654-6.7,4.066-.99,8.173-1.808,12.242-2.784,1.454-.349,2.21-.132,2.825,1.441a9.451,9.451,0,0,0,9.122,5.879c4.079-.194,7.329-1.975,8.894-5.89.632-1.581,1.383-1.781,2.822-1.437,4.071.972,8.164,1.856,12.248,2.774a8.72,8.72,0,0,1,7.016,8.549c.144,3.7.01,7.417.052,11.125.013,1.174-.448,1.62-1.615,1.589-2.1-.055-4.2-.078-6.3.008-1.367.056-1.891-.446-1.85-1.808.066-2.146.018-4.3.018-6.558" transform="translate(-4.963 -76.202)" fill="#03a4a4"/>
          <path id="Trazado_715782" data-name="Trazado 715782" d="M56.027,46.187c5.038,0,10.075-.013,15.113.005,2.547.009,3.778,1.056,3.96,3.581a40.182,40.182,0,0,1-.005,5.871c-.19,2.533-1.552,3.734-4.145,3.741q-15.113.041-30.225,0c-2.713-.008-4.119-1.42-4.215-4.14-.061-1.747-.071-3.5.008-5.246.118-2.583,1.4-3.8,3.978-3.807,5.177-.02,10.355-.006,15.533-.006" transform="translate(-21.151 -26.792)" fill="#abffff"/>
          <path id="Trazado_715783" data-name="Trazado 715783" d="M18.069,216.746c0,5.727-.053,11.454.032,17.18.026,1.778-.464,2.489-2.358,2.45-4.836-.1-7.388-2.536-7.4-7.375-.014-9.777.034-19.555-.039-29.332-.014-1.844.4-2.71,2.43-2.513a29.624,29.624,0,0,0,5.232,0c1.744-.14,2.137.632,2.121,2.2-.059,5.8-.024,11.593-.023,17.39" transform="translate(-4.82 -114.36)" fill="#ffdbdb"/>
          <path id="Trazado_715784" data-name="Trazado 715784" d="M133.493,216.626c0-5.73.054-11.461-.033-17.19-.026-1.744.544-2.364,2.285-2.248,1.948.13,3.912.07,5.867.018,1.157-.031,1.628.414,1.626,1.586-.023,10.412.118,20.827-.073,31.235-.1,5.206-4.233,6.737-8.52,6.209-.459-.057-1.092-1.3-1.1-2-.089-5.869-.05-11.739-.051-17.609" transform="translate(-77.424 -114.387)" fill="#ffdbdb"/>
          <path id="Trazado_715785" data-name="Trazado 715785" d="M77.653,86.608c-1.222,5.285-6.764,9.284-12.779,9.319-6.145.036-11.782-3.929-13.048-9.319Z" transform="translate(-30.066 -50.244)" fill="#ffdbdb"/>
          <path id="Trazado_715786" data-name="Trazado 715786" d="M67.488,115.432a52.381,52.381,0,0,0,6.179.694,48.256,48.256,0,0,0,5.982-.693c1.145,3.812.3,7.41-2.193,9.306a6.174,6.174,0,0,1-7.254.3c-2.7-1.732-3.676-5.193-2.714-9.6" transform="translate(-38.942 -66.966)" fill="#ffdbdb"/>
          <path id="Trazado_715787" data-name="Trazado 715787" d="M81.04,15.123c0,1.043-.053,2.089.012,3.128.1,1.63-.227,2.545-2.242,2.521-1.944-.024-2.364-.805-2.292-2.508.1-2.36.013-4.727.045-7.091.02-1.475.577-2.713,2.225-2.722S80.98,9.681,81,11.16c.021,1.32,0,2.642,0,3.963h.032" transform="translate(-44.386 -4.902)" fill="#abffff"/>
          <path id="Trazado_715788" data-name="Trazado 715788" d="M95.439,20.471a11.329,11.329,0,0,1,7.181,7.12c-2.213,0-4.315.04-6.413-.048-.27-.011-.719-.676-.734-1.052-.074-1.933-.034-3.871-.034-6.019" transform="translate(-55.361 -11.876)" fill="#06d1d1"/>
          <path id="Trazado_715789" data-name="Trazado 715789" d="M52.978,28.141A9.72,9.72,0,0,1,59.4,21.323c0,2.06.043,4.029-.047,5.992-.013.29-.642.771-1,.788-1.77.082-3.546.037-5.368.037" transform="translate(-30.734 -12.37)" fill="#06d1d1"/>
          <path id="Trazado_715790" data-name="Trazado 715790" d="M212.279,199.582c0,2.667,0,4.965,0,7.263,0,6.158-.037,12.316.018,18.473a8.406,8.406,0,0,0,6.516,8.23,7.825,7.825,0,0,0,8.809-3.678,12.981,12.981,0,0,0,1.3-5.6c.147-7.134.058-14.274.061-21.411,0-3.55.533-3.926,4.206-2.873.028.582.084,1.2.084,1.822.005,11.336-.032,22.672.041,34.007.012,1.787-.411,2.426-2.316,2.417q-22.146-.11-44.293-.006c-1.784.007-2.44-.435-2.426-2.339q.122-17,.008-34.007c-.009-1.69.435-2.351,2.22-2.35,1.77,0,2.245.626,2.228,2.334-.078,7.7-.045,15.394-.029,23.091.01,5.161,3.491,8.855,8.308,8.862,4.834.007,8.3-3.651,8.31-8.839.021-7.7.048-15.394-.025-23.091-.016-1.692.446-2.458,2.228-2.33,1.507.108,3.028.022,4.75.022" transform="translate(-106.908 -115.721)" fill="#8d0a0a"/>
          <path id="Trazado_715791" data-name="Trazado 715791" d="M175.261,300.048h2.353q25.906,0,51.812,0c2.63,0,2.918.257,2.52,2.9-.084.558-.886,1.156-1.5,1.44a4.775,4.775,0,0,1-1.865.062H178.662c-3.908,0-3.908,0-3.4-4.4" transform="translate(-101.539 -174.067)" fill="#a03d3d"/>
          <path id="Trazado_715792" data-name="Trazado 715792" d="M269.135,223.334c0,2.8.018,5.591,0,8.387-.03,3.62-1.9,5.882-4.847,5.9-2.977.018-4.865-2.211-4.875-5.817-.016-5.8.037-11.6-.031-17.4-.019-1.586.388-2.323,2.119-2.194a36.234,36.234,0,0,0,5.447,0c1.829-.14,2.271.665,2.218,2.321-.094,2.932-.026,5.87-.026,8.805" transform="translate(-150.473 -123.099)" fill="#8a3d02"/>
          <path id="Trazado_715793" data-name="Trazado 715793" d="M212.757,223.754c0,3.079.032,6.158-.012,9.236a4.748,4.748,0,0,1-9.492.068c-.053-6.367,0-12.735-.04-19.1-.009-1.271.437-1.75,1.708-1.706,2.027.07,4.061.085,6.086,0,1.416-.063,1.8.53,1.773,1.853-.068,3.217-.022,6.437-.024,9.656" transform="translate(-117.891 -123.127)" fill="#8a3d02"/>
          <path id="Trazado_715796" data-name="Trazado 715796" d="M192.489,112.394a9.47,9.47,0,0,0,.106,9.535,71.531,71.531,0,0,1-8.155-.453c-1.956-.329-3.192-2.617-3.084-4.679a4.517,4.517,0,0,1,3.825-4.345,68.514,68.514,0,0,1,7.307-.058" transform="translate(-105.207 -65.161)" fill="#ffc403"/>
          <path id="Trazado_715797" data-name="Trazado 715797" d="M285.116,90.646a9.394,9.394,0,0,0,.093-9.413c2.486,0,4.638-.124,6.77.036,2.059.154,3.838,2.407,3.872,4.56a4.855,4.855,0,0,1-4.163,4.774c-2.051.206-4.139.043-6.571.043" transform="translate(-165.405 -47.099)" fill="#ffc403"/>
        </g>
      </g>
    </g>
  </g>
</svg>
