<svg id="Grupo_1003472" data-name="Grupo 1003472" xmlns="http://www.w3.org/2000/svg" xmlns:xlink="http://www.w3.org/1999/xlink" width="124.533" height="124.211" viewBox="0 0 124.533 124.211">
  <defs>
    <clipPath id="clip-path">
      <rect id="Rectángulo_353403" data-name="Rectángulo 353403" width="124.533" height="124.211" fill="none"/>
    </clipPath>
  </defs>
  <g id="Grupo_1003471" data-name="Grupo 1003471" clip-path="url(#clip-path)">
    <path id="Trazado_715389" data-name="Trazado 715389" d="M28.347,0h67.6c.3.1.6.2.907.289a8.854,8.854,0,0,1,6.46,6.568,12.532,12.532,0,0,1,.312,3.115q.028,24.929.029,49.858a2.4,2.4,0,0,0,.382,1.53c3.533,3.653,7.192,7.186,10.681,10.879a34.023,34.023,0,0,1,9.563,23.875c.058,7.866.018,15.732.009,23.6,0,2.707-1.573,4.249-4.313,4.254q-6.3.012-12.593,0-12.715,0-25.43,0a3.892,3.892,0,0,1-4.177-4.148,18.206,18.206,0,0,0-.034-2.537,2.83,2.83,0,0,0-.757-1.592A20.372,20.372,0,0,1,70.7,105.56c-.192-.726-.363-1.458-.539-2.169H54.349c-.106.442-.208.827-.291,1.217a18.216,18.216,0,0,1-5.674,10.178,5.116,5.116,0,0,0-1.908,4.591c.148,3.133-1.41,4.59-4.543,4.591-12.311,0-24.623-.04-36.934.035-2.381.014-4.049-.742-5-2.94V93.219a5.1,5.1,0,0,0,.214-.8,33.094,33.094,0,0,1,5.975-16c3.959-5.542,9.209-9.91,13.826-14.855a2.265,2.265,0,0,0,.611-1.294c.077-1.447.029-2.9.029-4.353q0-23.1,0-46.2c0-4.4,2.121-7.682,5.867-9.124.6-.229,1.214-.4,1.823-.6m.074,72.874c1.516-1.435,2.755-2.7,4.093-3.856a7.287,7.287,0,0,1,11.57,2.5,10.746,10.746,0,0,1-1.326,11.52c-2.374,3.162-4.861,6.239-7.253,9.387a1.732,1.732,0,0,0-.35,1.407c.367.79.509,1.8,1.906,1.77,4.237-.1,8.478-.038,12.718-.038,12.477,0,24.954-.027,37.431.038,1.394.007,1.549-.965,1.917-1.756a1.726,1.726,0,0,0-.341-1.408c-2.365-3.118-4.773-6.2-7.187-9.285a10.832,10.832,0,0,1-2.36-8.267c.416-3.369,1.833-6.146,5.28-7.306,3.107-1.047,5.784-.136,8.058,2.15,1,1.009,2.048,1.977,3.292,3.174V71.626q0-30.87,0-61.739c0-1.835-.313-2.13-2.216-2.13H30.9c-2.288,0-2.482.192-2.482,2.469q0,30.567,0,61.134v1.515m58.79,2.616-.479.265A12.5,12.5,0,0,0,87.923,78.5c3.036,4.026,6.17,7.977,9.26,11.962,1.726,2.226,1.656,3.948-.251,6.033a7.33,7.33,0,0,0-1.977,5.883,7.7,7.7,0,0,0,2.315,4.666,3.944,3.944,0,0,1-2.394,6.668,4.085,4.085,0,0,1-3.464-1.376,15.741,15.741,0,0,1-4.343-8.8H78.29a10.556,10.556,0,0,0,4.318,6.5c2.223,1.43,3.329,3.181,3.021,5.8-.007.063.067.135.129.252H116.5c0-.44,0-.8,0-1.155-.008-6.213-.028-12.425-.023-18.638.008-10.166-5.255-17.532-12.739-23.866,0,2.356-.053,4.641.036,6.92a2.9,2.9,0,0,0,.769,1.746c1.742,1.795,3.579,3.5,5.369,5.244a3.95,3.95,0,1,1-5.614,5.546q-8.061-7.772-16.131-15.536c-.309-.3-.634-.578-.951-.867m-49.983,28a15.888,15.888,0,0,1-4.634,9.119,3.9,3.9,0,0,1-6.355-1.219,4.014,4.014,0,0,1,1.024-4.638,7.312,7.312,0,0,0,.161-10.183c-2.017-2.258-2.079-3.846-.237-6.214q4.569-5.875,9.143-11.745a3.337,3.337,0,0,0,.824-3.2c-.41.375-.735.659-1.045.958q-8.024,7.723-16.048,15.446c-1.918,1.84-4.2,1.875-5.9.139-1.614-1.646-1.463-3.962.4-5.784,1.76-1.721,3.546-3.414,5.3-5.138.275-.27.641-.633.648-.96.054-2.518.03-5.038.03-7.461-1.6,1.5-3.218,2.939-4.743,4.474a26.813,26.813,0,0,0-7.977,19.5c-.027,6.132-.02,12.263-.028,18.395,0,.384,0,.767,0,1.131H38.7a13.538,13.538,0,0,1,.013-1.615,4.791,4.791,0,0,1,.435-1.962,7.563,7.563,0,0,1,1.914-1.941,12.265,12.265,0,0,0,4.949-7.1Z"/>
    <path id="Trazado_715390" data-name="Trazado 715390" d="M81.368,87.324V85.809q0-30.567,0-61.134c0-2.276.195-2.468,2.482-2.468H146.6c1.9,0,2.216.3,2.216,2.13q0,30.87,0,61.74v1.279c-1.244-1.2-2.289-2.165-3.292-3.174-2.274-2.286-4.951-3.2-8.058-2.151-3.446,1.161-4.864,3.938-5.28,7.307a10.831,10.831,0,0,0,2.361,8.267c2.414,3.081,4.822,6.166,7.187,9.284a1.726,1.726,0,0,1,.341,1.409c-.368.791-.523,1.763-1.917,1.756-12.477-.065-24.954-.038-37.431-.038-4.24,0-8.481-.067-12.718.038-1.4.034-1.539-.98-1.905-1.771a1.73,1.73,0,0,1,.349-1.407c2.393-3.149,4.879-6.225,7.253-9.387a10.747,10.747,0,0,0,1.326-11.52,7.286,7.286,0,0,0-11.57-2.5c-1.338,1.153-2.577,2.421-4.093,3.856m33.787-5.735a25.821,25.821,0,0,0,.26-51.64c-14.008-.018-26.282,10.745-26.286,25.814,0,14.931,12.032,25.673,26.026,25.827" transform="translate(-52.946 -14.45)" fill="#abffff"/>
    <path id="Trazado_715391" data-name="Trazado 715391" d="M233.06,210.435c.318.289.642.569.951.867q8.068,7.766,16.131,15.536a3.868,3.868,0,0,0,4.2,1.1,3.912,3.912,0,0,0,1.415-6.642c-1.789-1.749-3.627-3.449-5.369-5.244a2.9,2.9,0,0,1-.769-1.746c-.089-2.279-.036-4.564-.036-6.92,7.484,6.334,12.747,13.7,12.739,23.866-.005,6.213.014,12.425.023,18.637,0,.357,0,.715,0,1.155H231.606c-.063-.117-.137-.189-.129-.252.308-2.622-.8-4.372-3.021-5.8a10.556,10.556,0,0,1-4.318-6.5h8.778a15.739,15.739,0,0,0,4.343,8.8,4.084,4.084,0,0,0,3.464,1.375,3.944,3.944,0,0,0,2.394-6.667,7.7,7.7,0,0,1-2.315-4.666,7.33,7.33,0,0,1,1.977-5.883c1.907-2.085,1.977-3.807.251-6.033-3.09-3.985-6.224-7.936-9.26-11.962a12.5,12.5,0,0,1-1.189-2.747l.479-.265" transform="translate(-145.848 -134.944)" fill="#ffe8ce"/>
    <path id="Trazado_715392" data-name="Trazado 715392" d="M51.751,238.747h8.782a12.265,12.265,0,0,1-4.949,7.1,7.563,7.563,0,0,0-1.914,1.941,4.791,4.791,0,0,0-.435,1.962,13.538,13.538,0,0,0-.013,1.615h-30.9c0-.364,0-.747,0-1.131.008-6.132,0-12.263.028-18.395a26.813,26.813,0,0,1,7.977-19.5c1.525-1.535,3.147-2.974,4.743-4.474,0,2.423.024,4.943-.03,7.461-.007.327-.373.689-.648.96-1.757,1.724-3.543,3.417-5.3,5.138-1.864,1.822-2.015,4.138-.4,5.784,1.7,1.735,3.982,1.7,5.9-.139q8.036-7.711,16.048-15.446c.311-.3.635-.583,1.045-.958a3.337,3.337,0,0,1-.824,3.2q-4.581,5.865-9.143,11.745c-1.842,2.369-1.78,3.956.237,6.214a7.312,7.312,0,0,1-.161,10.183,4.014,4.014,0,0,0-1.024,4.638,3.9,3.9,0,0,0,6.355,1.219,15.888,15.888,0,0,0,4.634-9.119" transform="translate(-14.522 -135.26)" fill="#ffe8ce"/>
    <path id="Trazado_715393" data-name="Trazado 715393" d="M129.613,96.013c-13.993-.153-26.029-10.9-26.026-25.827,0-15.068,12.278-25.831,26.286-25.814a25.821,25.821,0,0,1-.26,51.64m4-43.24v1.314c0,4.922-.089,9.845.041,14.763a6.466,6.466,0,0,1-2.2,5.22c-3.555,3.4-6.99,6.933-10.471,10.414-.277.277-.538.572-.811.865,4.98,3.776,13.4,3.727,19.254-.056a18.007,18.007,0,0,0,7.809-19.027c-1.529-6.76-7.5-12.72-13.625-13.492M125.72,52.7a17.926,17.926,0,0,0-12.059,9.022c-3.15,5.516-2.944,11.319-.061,16.988.588,1.156.757,1.157,1.72.2,2.6-2.59,5.068-5.323,7.822-7.732a7.131,7.131,0,0,0,2.639-6.373c-.236-3.969-.061-7.963-.061-12.1" transform="translate(-67.405 -28.874)"/>
    <path id="Trazado_715394" data-name="Trazado 715394" d="M164.518,68.422c6.123.772,12.1,6.732,13.625,13.492a18.007,18.007,0,0,1-7.809,19.027c-5.855,3.783-14.275,3.832-19.255.056.274-.293.534-.587.812-.865,3.481-3.481,6.916-7.01,10.471-10.414a6.465,6.465,0,0,0,2.2-5.22c-.129-4.918-.041-9.842-.041-14.763Z" transform="translate(-98.309 -44.523)" fill="#b20d0d"/>
    <path id="Trazado_715395" data-name="Trazado 715395" d="M140.217,68.205c0,4.138-.175,8.132.061,12.1a7.131,7.131,0,0,1-2.639,6.373c-2.754,2.41-5.225,5.142-7.822,7.732-.963.961-1.132.96-1.72-.2-2.883-5.669-3.088-11.472.061-16.988a17.926,17.926,0,0,1,12.059-9.022" transform="translate(-81.901 -44.381)" fill="#ffc403"/>
  </g>
</svg>
